<svg width="81" height="81" viewBox="0 0 81 81" fill="none" xmlns="http://www.w3.org/2000/svg">
<path d="M21.2168 13.9795C19.3382 13.9795 17.5365 14.7258 16.2081 16.0542C14.8797 17.3825 14.1335 19.1842 14.1335 21.0628V46.8962C14.1335 48.7748 14.8797 50.5764 16.2081 51.9048C17.5365 53.2332 19.3382 53.9795 21.2168 53.9795H60.3835C62.2621 53.9795 64.0638 53.2332 65.3921 51.9048C66.7205 50.5764 67.4668 48.7748 67.4668 46.8962V21.0628C67.4668 19.1842 66.7205 17.3825 65.3921 16.0542C64.0638 14.7258 62.2621 13.9795 60.3835 13.9795H21.2168ZM18.3001 21.0628C18.3001 19.4528 19.6068 18.1462 21.2168 18.1462H60.3835C61.9951 18.1462 63.3001 19.4528 63.3001 21.0628V46.8962C63.3001 47.2792 63.2247 47.6585 63.0781 48.0123C62.9315 48.3662 62.7167 48.6877 62.4459 48.9586C62.175 49.2294 61.8535 49.4442 61.4996 49.5908C61.1458 49.7374 60.7665 49.8128 60.3835 49.8128H21.2168C20.8338 49.8128 20.4545 49.7374 20.1006 49.5908C19.7468 49.4442 19.4252 49.2294 19.1544 48.9586C18.8836 48.6877 18.6687 48.3662 18.5221 48.0123C18.3756 47.6585 18.3001 47.2792 18.3001 46.8962V21.0628ZM9.55013 59.8128C8.9976 59.8128 8.46769 60.0323 8.07699 60.423C7.68629 60.8137 7.4668 61.3436 7.4668 61.8962C7.4668 62.4487 7.68629 62.9786 8.07699 63.3693C8.46769 63.76 8.9976 63.9795 9.55013 63.9795H72.0501C72.6027 63.9795 73.1326 63.76 73.5233 63.3693C73.914 62.9786 74.1335 62.4487 74.1335 61.8962C74.1335 61.3436 73.914 60.8137 73.5233 60.423C73.1326 60.0323 72.6027 59.8128 72.0501 59.8128H9.55013Z" fill="#3758F9"/>
</svg>
