<svg width="81" height="81" viewBox="0 0 81 81" fill="none" xmlns="http://www.w3.org/2000/svg">
<g clip-path="url(#clip0_1_11010)">
<path d="M34.9312 60.6465C35.3219 62.3913 35.8687 64.0579 36.5719 65.6465H5.39998C4.69686 65.6465 4.04582 65.5163 3.44686 65.2559C2.8479 64.9954 2.32707 64.6439 1.88436 64.2012C1.44165 63.7585 1.07707 63.2246 0.790609 62.5996C0.50415 61.9746 0.373942 61.3236 0.399984 60.6465C0.399984 60.2298 0.439046 59.7871 0.517171 59.3184C0.595296 58.8496 0.699463 58.3548 0.829671 57.834C0.95988 57.3132 1.14217 56.8574 1.37655 56.4668C1.61092 56.0762 1.88436 55.6986 2.19686 55.334L10.4 47.0918V10.6465H70.4V34.5137C69.6187 34.071 68.8114 33.7064 67.9781 33.4199C67.1448 33.1335 66.2854 32.8861 65.4 32.6777V15.6465H15.4V45.6465H34.15V50.6465H13.9547L5.9078 58.6543C5.82967 58.7324 5.76457 58.8626 5.71248 59.0449C5.6604 59.2272 5.60832 59.4095 5.55623 59.5918C5.50415 59.7741 5.46509 59.9694 5.43905 60.1777C5.413 60.3861 5.39998 60.5423 5.39998 60.6465H2.89998H34.9312ZM60.4 38.3418C61.9364 38.3418 63.3427 38.5241 64.6187 38.8887C65.8948 39.2533 67.1969 39.8132 68.525 40.5684C69.6187 41.2194 70.8687 41.623 72.275 41.7793C73.6812 41.9355 75.0875 42.0267 76.4937 42.0527H78.4859C79.137 42.0527 79.775 42.0397 80.4 42.0137V54.709C80.4 57.4434 79.9052 60.0215 78.9156 62.4434C77.926 64.8652 76.6109 67.1178 74.9703 69.2012C73.3297 71.2845 71.4417 73.1595 69.3062 74.8262C67.1708 76.4928 64.9703 77.9251 62.7047 79.123L60.4 80.334L58.0562 79.123C55.7906 77.9512 53.6031 76.5319 51.4937 74.8652C49.3844 73.1986 47.4963 71.3105 45.8297 69.2012C44.163 67.0918 42.8479 64.8392 41.8844 62.4434C40.9208 60.0475 40.426 57.4694 40.4 54.709V42.0137H42.3531C43.0302 42.0137 43.7333 42.0267 44.4625 42.0527C45.8427 42.0527 47.2229 41.9746 48.6031 41.8184C49.9833 41.6621 51.2333 41.2324 52.3531 40.5293C53.6552 39.7741 54.9443 39.2272 56.2203 38.8887C57.4963 38.5501 58.8896 38.3678 60.4 38.3418ZM75.4 47.0137C73.6812 47.0137 72.0276 46.8574 70.439 46.5449C68.8505 46.2324 67.314 45.6465 65.8297 44.7871C64.9443 44.2663 64.0849 43.9017 63.2515 43.6934C62.4182 43.485 61.4677 43.3678 60.4 43.3418C59.4104 43.3418 58.4859 43.446 57.6265 43.6543C56.7672 43.8626 55.9078 44.2272 55.0484 44.748C53.538 45.6074 51.9885 46.1934 50.4 46.5059C48.8114 46.8184 47.1448 46.9876 45.4 47.0137V54.709C45.4 56.9486 45.8297 59.0579 46.689 61.0371C47.5484 63.0163 48.6943 64.8652 50.1265 66.584C51.5588 68.3027 53.1604 69.8392 54.9312 71.1934C56.7021 72.5475 58.525 73.7194 60.4 74.709C62.2229 73.7454 64.0328 72.5866 65.8297 71.2324C67.6265 69.8783 69.2281 68.3418 70.6344 66.623C72.0406 64.9043 73.1864 63.0553 74.0719 61.0762C74.9573 59.097 75.4 56.9746 75.4 54.709V47.0137Z" fill="#3758F9"/>
</g>
<defs>
<clipPath id="clip0_1_11010">
<rect width="80" height="80" fill="white" transform="translate(0.399902 0.646484)"/>
</clipPath>
</defs>
</svg>
