<svg width="81" height="81" viewBox="0 0 81 81" fill="none" xmlns="http://www.w3.org/2000/svg">
<path d="M8.5332 40.6462C8.5332 25.7195 8.5332 18.2528 13.1699 13.6162C17.8065 8.97949 25.2699 8.97949 40.1999 8.97949C55.1265 8.97949 62.5932 8.97949 67.2299 13.6162C71.8665 18.2528 71.8665 25.7162 71.8665 40.6462C71.8665 55.5728 71.8665 63.0395 67.2299 67.6762C62.5932 72.3128 55.1299 72.3128 40.1999 72.3128C25.2732 72.3128 17.8065 72.3128 13.1699 67.6762C8.5332 63.0395 8.5332 55.5762 8.5332 40.6462Z" stroke="#3758F9" stroke-width="4" stroke-linecap="round" stroke-linejoin="round"/>
<path d="M47.4498 38.4862C49.6898 35.8529 54.2431 32.5896 53.4331 31.0429M53.4331 31.0429C53.8831 29.4629 49.4765 26.3429 47.4398 23.9629M53.4331 31.0429C44.2498 30.8529 38.6298 31.9062 33.2065 37.0229C27.5565 42.3529 26.5065 48.1029 26.9631 57.3296" stroke="#3758F9" stroke-width="4" stroke-linecap="round" stroke-linejoin="round"/>
</svg>
