<svg width="261" height="131" viewBox="0 0 261 131" fill="none" xmlns="http://www.w3.org/2000/svg">
<path d="M172.395 25.5663C173.243 25.7908 174.091 26.0257 174.932 26.271C174.972 26.2815 175.013 26.2867 175.046 26.2867C175.181 26.2867 175.309 26.224 175.363 26.1144C175.43 25.9787 175.336 25.8273 175.168 25.7803C174.326 25.535 173.472 25.3001 172.617 25.0704C172.442 25.0234 172.247 25.0965 172.186 25.2322C172.126 25.3679 172.22 25.5193 172.395 25.5663Z" fill="#C8C8C8"/>
<path d="M177.435 27.0227C178.27 27.2785 179.098 27.5447 179.925 27.8214C179.966 27.837 180.013 27.8423 180.06 27.8423C180.188 27.8423 180.316 27.7848 180.369 27.6857C180.443 27.5552 180.369 27.3985 180.194 27.3411C179.367 27.0645 178.532 26.7982 177.691 26.5372C177.516 26.485 177.321 26.5477 177.254 26.6834C177.186 26.8191 177.267 26.9705 177.442 27.0227H177.435Z" fill="#C8C8C8"/>
<path d="M156.843 22.3616C157.724 22.4921 158.599 22.6278 159.474 22.774C159.501 22.774 159.521 22.7792 159.548 22.7792C159.703 22.7792 159.844 22.6957 159.878 22.5756C159.918 22.4347 159.804 22.2938 159.622 22.2677C158.747 22.1215 157.866 21.9806 156.977 21.8501C156.789 21.824 156.621 21.9179 156.587 22.0589C156.553 22.1998 156.674 22.3355 156.856 22.3616H156.843Z" fill="#C8C8C8"/>
<path d="M162.092 23.2331C162.96 23.3949 163.828 23.5672 164.689 23.7447C164.716 23.7499 164.75 23.7551 164.777 23.7551C164.925 23.7551 165.06 23.6768 165.1 23.562C165.147 23.421 165.039 23.2801 164.864 23.2436C163.996 23.0661 163.121 22.8938 162.247 22.732C162.058 22.6955 161.883 22.7842 161.843 22.9251C161.802 23.0661 161.91 23.207 162.092 23.2383V23.2331Z" fill="#C8C8C8"/>
<path d="M167.273 24.3028C168.135 24.4959 168.989 24.6995 169.837 24.9083C169.871 24.9188 169.905 24.9188 169.938 24.9188C170.08 24.9188 170.214 24.8457 170.261 24.7361C170.315 24.6003 170.221 24.4542 170.039 24.4072C169.184 24.1984 168.323 23.9948 167.455 23.7965C167.273 23.7547 167.092 23.8382 167.038 23.9739C166.984 24.1149 167.092 24.2558 167.267 24.2976L167.273 24.3028Z" fill="#C8C8C8"/>
<path d="M182.381 28.6618C183.196 28.9489 184.01 29.2465 184.817 29.5492C184.865 29.5649 184.912 29.5753 184.966 29.5753C185.087 29.5753 185.208 29.5231 185.268 29.4292C185.349 29.2987 185.282 29.1421 185.114 29.0794C184.306 28.7714 183.485 28.4739 182.664 28.1868C182.496 28.1294 182.294 28.1868 182.22 28.3173C182.146 28.4478 182.22 28.6044 182.388 28.6618H182.381Z" fill="#C8C8C8"/>
<path d="M203.143 38.2145C203.203 38.251 203.277 38.2667 203.345 38.2667C203.446 38.2667 203.546 38.2302 203.614 38.1623C203.728 38.0475 203.695 37.8856 203.546 37.7969C202.826 37.3793 202.1 36.9669 201.366 36.5597C201.218 36.4762 201.003 36.5023 200.895 36.6224C200.787 36.7424 200.821 36.9043 200.976 36.9878C201.703 37.3897 202.429 37.8021 203.143 38.2145Z" fill="#C8C8C8"/>
<path d="M207.362 40.7878C207.423 40.8295 207.504 40.8452 207.578 40.8452C207.672 40.8452 207.773 40.8139 207.84 40.7512C207.961 40.6416 207.941 40.4746 207.793 40.3858C207.1 39.9421 206.4 39.5036 205.693 39.0704C205.552 38.9816 205.337 39.0025 205.222 39.1121C205.108 39.227 205.135 39.3888 205.276 39.4775C205.976 39.9056 206.676 40.3441 207.369 40.7825L207.362 40.7878Z" fill="#C8C8C8"/>
<path d="M196.528 34.6493C197.281 35.0252 198.028 35.4062 198.769 35.7977C198.829 35.8291 198.89 35.8447 198.957 35.8447C199.065 35.8447 199.172 35.803 199.233 35.7299C199.341 35.6098 199.294 35.448 199.146 35.3697C198.399 34.9782 197.652 34.5919 196.891 34.2161C196.736 34.1378 196.528 34.1743 196.427 34.2944C196.326 34.4144 196.373 34.5762 196.528 34.6545V34.6493Z" fill="#C8C8C8"/>
<path d="M187.22 30.4839C188.014 30.8023 188.808 31.1259 189.596 31.46C189.65 31.4809 189.703 31.4913 189.757 31.4913C189.878 31.4913 189.993 31.4444 190.053 31.3556C190.141 31.2303 190.08 31.0685 189.919 31.0007C189.131 30.6666 188.331 30.3377 187.53 30.0193C187.368 29.9514 187.16 30.0036 187.079 30.1341C186.991 30.2646 187.059 30.4212 187.22 30.4839Z" fill="#C8C8C8"/>
<path d="M191.938 32.4828C192.712 32.8325 193.486 33.1823 194.246 33.5477C194.3 33.5738 194.36 33.5842 194.421 33.5842C194.535 33.5842 194.643 33.5372 194.71 33.4589C194.805 33.3337 194.757 33.177 194.596 33.0987C193.829 32.7333 193.055 32.3784 192.274 32.0286C192.113 31.9556 191.911 31.9973 191.817 32.1226C191.722 32.2479 191.776 32.4045 191.938 32.4776V32.4828Z" fill="#C8C8C8"/>
<path d="M151.553 21.6772C152.441 21.7764 153.323 21.8808 154.204 21.9904C154.225 21.9904 154.245 21.9904 154.258 21.9904C154.42 21.9904 154.561 21.9017 154.588 21.7712C154.615 21.6302 154.494 21.4945 154.312 21.4684C153.424 21.3536 152.535 21.2492 151.647 21.15C151.465 21.1291 151.29 21.2283 151.27 21.3745C151.243 21.5154 151.371 21.6511 151.553 21.6668V21.6772Z" fill="#C8C8C8"/>
<path d="M114.116 22.4027C114.116 22.4027 114.156 22.4027 114.183 22.4027C115.058 22.2722 115.94 22.1469 116.821 22.0321C117.003 22.006 117.131 21.8755 117.097 21.7293C117.064 21.5884 116.895 21.4892 116.707 21.5153C115.819 21.6301 114.93 21.7554 114.049 21.8859C113.867 21.912 113.746 22.0477 113.78 22.1939C113.813 22.3192 113.955 22.4079 114.109 22.4079L114.116 22.4027Z" fill="#C8C8C8"/>
<path d="M119.426 21.7138C119.426 21.7138 119.46 21.7138 119.473 21.7138C120.355 21.6146 121.243 21.5259 122.131 21.4424C122.313 21.4267 122.447 21.2962 122.427 21.1501C122.407 21.0091 122.246 20.9047 122.05 20.9204C121.155 21.0039 120.267 21.0926 119.372 21.1918C119.19 21.2127 119.062 21.3432 119.089 21.4894C119.116 21.6199 119.258 21.7138 119.419 21.7138H119.426Z" fill="#C8C8C8"/>
<path d="M98.5434 25.6499C98.5771 25.6499 98.6174 25.6499 98.6511 25.6342C99.4923 25.4098 100.34 25.1853 101.195 24.9765C101.37 24.9348 101.471 24.7834 101.41 24.6477C101.356 24.5119 101.161 24.4336 100.986 24.4806C100.132 24.6946 99.2769 24.9139 98.429 25.1436C98.254 25.1905 98.1598 25.3419 98.2204 25.4776C98.2675 25.5873 98.4021 25.6551 98.5367 25.6551L98.5434 25.6499Z" fill="#C8C8C8"/>
<path d="M124.763 21.2181C124.763 21.2181 124.783 21.2181 124.796 21.2181C125.684 21.1502 126.573 21.0928 127.468 21.0458C127.656 21.0354 127.791 20.9101 127.777 20.7692C127.764 20.623 127.602 20.5186 127.421 20.529C126.519 20.5812 125.624 20.6387 124.729 20.7013C124.547 20.717 124.406 20.8422 124.426 20.9884C124.44 21.1241 124.588 21.2233 124.763 21.2233V21.2181Z" fill="#C8C8C8"/>
<path d="M103.665 24.376C103.665 24.376 103.726 24.376 103.759 24.3656C104.614 24.1724 105.475 23.9845 106.343 23.8018C106.525 23.7653 106.633 23.6191 106.579 23.4834C106.532 23.3425 106.35 23.2642 106.168 23.3007C105.3 23.4834 104.432 23.6713 103.571 23.8697C103.389 23.9114 103.288 24.0576 103.342 24.1933C103.382 24.3082 103.517 24.3812 103.665 24.3812V24.376Z" fill="#C8C8C8"/>
<path d="M211.413 43.5129C211.481 43.5599 211.561 43.5808 211.642 43.5808C211.736 43.5808 211.824 43.5495 211.891 43.4973C212.019 43.3929 212.006 43.2258 211.871 43.1266C211.205 42.6568 210.532 42.1922 209.852 41.7381C209.711 41.6441 209.502 41.6546 209.374 41.7642C209.253 41.8738 209.267 42.0356 209.408 42.1296C210.081 42.5838 210.754 43.0431 211.413 43.5129Z" fill="#C8C8C8"/>
<path d="M140.873 20.9098C141.768 20.9411 142.663 20.9829 143.552 21.0299C143.558 21.0299 143.565 21.0299 143.578 21.0299C143.753 21.0299 143.901 20.9255 143.915 20.7845C143.928 20.6384 143.787 20.5183 143.605 20.5079C142.71 20.4609 141.815 20.4191 140.914 20.3878C140.712 20.3878 140.57 20.4922 140.564 20.6384C140.557 20.7845 140.698 20.9046 140.887 20.9098H140.873Z" fill="#C8C8C8"/>
<path d="M130.133 20.9206H130.146C131.034 20.8893 131.93 20.8632 132.825 20.8476C133.013 20.8476 133.154 20.7223 133.154 20.5813C133.154 20.4352 132.973 20.3256 132.811 20.3256C131.909 20.3412 131.008 20.3673 130.113 20.4039C129.924 20.4091 129.783 20.5344 129.789 20.6753C129.796 20.8162 129.944 20.9259 130.126 20.9259L130.133 20.9206Z" fill="#C8C8C8"/>
<path d="M146.223 21.1971C147.118 21.2597 148.006 21.3328 148.888 21.4163C148.902 21.4163 148.915 21.4163 148.928 21.4163C149.097 21.4163 149.245 21.3171 149.265 21.1866C149.285 21.0457 149.151 20.9152 148.969 20.8995C148.08 20.816 147.185 20.7481 146.284 20.6803C146.102 20.6698 145.934 20.7742 145.92 20.9152C145.9 21.0561 146.041 21.1866 146.223 21.1971Z" fill="#C8C8C8"/>
<path d="M135.51 20.816H135.644C136.492 20.816 137.347 20.8212 138.195 20.8368H138.201C138.383 20.8368 138.531 20.722 138.538 20.581C138.538 20.4349 138.397 20.32 138.208 20.3148C137.353 20.2992 136.506 20.2939 135.644 20.2939H135.51C135.321 20.2939 135.173 20.4088 135.173 20.5549C135.173 20.7011 135.321 20.816 135.51 20.816Z" fill="#C8C8C8"/>
<path d="M108.86 23.2906C108.86 23.2906 108.914 23.2906 108.941 23.2854C109.809 23.1236 110.677 22.967 111.552 22.8208C111.734 22.7895 111.848 22.6486 111.808 22.5076C111.767 22.3667 111.585 22.2779 111.404 22.3093C110.522 22.4606 109.647 22.6173 108.772 22.7791C108.591 22.8156 108.483 22.9566 108.523 23.0923C108.564 23.2123 108.698 23.2906 108.853 23.2906H108.86Z" fill="#C8C8C8"/>
<path d="M237 69.9419C237.06 70.0359 237.175 70.0881 237.302 70.0881C237.35 70.0881 237.403 70.0777 237.45 70.062C237.619 69.9994 237.686 69.8428 237.605 69.7123C237.215 69.0858 236.811 68.4647 236.394 67.8487C236.306 67.7182 236.105 67.6712 235.943 67.7391C235.775 67.8069 235.714 67.9635 235.802 68.0888C236.212 68.7048 236.616 69.3207 237.006 69.9419H237Z" fill="#C8C8C8"/>
<path d="M245.775 89.5279C245.809 89.648 245.95 89.7315 246.105 89.7315C246.132 89.7315 246.152 89.7315 246.179 89.7263C246.36 89.695 246.475 89.554 246.434 89.4131C246.239 88.7293 246.037 88.0507 245.829 87.3721C245.788 87.2311 245.607 87.1476 245.425 87.1789C245.243 87.2155 245.136 87.3564 245.176 87.4921C245.385 88.1655 245.586 88.8389 245.782 89.5175L245.775 89.5279Z" fill="#C8C8C8"/>
<path d="M247.209 95.6715C247.336 96.3554 247.451 97.0444 247.559 97.7335C247.579 97.864 247.727 97.9631 247.888 97.9631C247.902 97.9631 247.915 97.9631 247.929 97.9631C248.11 97.9475 248.245 97.817 248.225 97.6708C248.117 96.9766 247.996 96.2875 247.875 95.5932C247.848 95.4523 247.673 95.3531 247.491 95.374C247.31 95.3949 247.182 95.5254 247.209 95.6715Z" fill="#C8C8C8"/>
<path d="M246.32 91.5688C246.489 92.2474 246.65 92.9312 246.798 93.6151C246.825 93.7403 246.966 93.8343 247.128 93.8343C247.148 93.8343 247.168 93.8343 247.182 93.8343C247.363 93.8082 247.491 93.6777 247.458 93.5315C247.31 92.8425 247.148 92.1535 246.98 91.4696C246.946 91.3287 246.764 91.2347 246.583 91.2608C246.401 91.2869 246.28 91.4226 246.314 91.5688H246.32Z" fill="#C8C8C8"/>
<path d="M225.835 55.7958C225.903 55.8637 226.004 55.9002 226.104 55.9002C226.172 55.9002 226.246 55.8846 226.306 55.848C226.454 55.7593 226.481 55.5975 226.374 55.4826C225.835 54.9241 225.283 54.3708 224.732 53.8279C224.617 53.713 224.402 53.6974 224.261 53.7861C224.113 53.8748 224.092 54.0419 224.207 54.1515C224.759 54.6944 225.304 55.2425 225.842 55.801L225.835 55.7958Z" fill="#C8C8C8"/>
<path d="M231.858 62.6651C231.919 62.7434 232.033 62.7904 232.148 62.7904C232.208 62.7904 232.269 62.78 232.322 62.7539C232.484 62.6808 232.531 62.519 232.437 62.3937C231.966 61.7986 231.488 61.2087 231.003 60.6241C230.903 60.504 230.694 60.4675 230.539 60.5458C230.384 60.6241 230.337 60.7859 230.438 60.906C230.923 61.4854 231.394 62.0752 231.865 62.6651H231.858Z" fill="#C8C8C8"/>
<path d="M219.005 49.3908C219.072 49.4482 219.159 49.4743 219.254 49.4743C219.334 49.4743 219.415 49.4534 219.482 49.4065C219.617 49.3073 219.631 49.1455 219.503 49.0358C218.897 48.519 218.285 48.0127 217.665 47.5064C217.538 47.402 217.329 47.3967 217.188 47.4959C217.053 47.5951 217.046 47.7621 217.174 47.8665C217.793 48.3677 218.399 48.874 219.005 49.3856V49.3908Z" fill="#C8C8C8"/>
<path d="M222.517 52.5331C222.585 52.5957 222.679 52.627 222.773 52.627C222.847 52.627 222.928 52.6061 222.988 52.5696C223.13 52.4756 223.15 52.3138 223.036 52.2042C222.464 51.6665 221.878 51.1341 221.293 50.6069C221.171 50.4972 220.956 50.4868 220.815 50.5808C220.673 50.6747 220.66 50.8418 220.781 50.9514C221.367 51.4734 221.945 52.0058 222.517 52.5383V52.5331Z" fill="#C8C8C8"/>
<path d="M228.951 59.1781C229.018 59.2512 229.119 59.293 229.227 59.293C229.294 59.293 229.361 59.2773 229.415 59.246C229.57 59.1625 229.61 59.0007 229.503 58.8858C228.998 58.3116 228.487 57.7374 227.962 57.1736C227.854 57.0536 227.645 57.0275 227.491 57.111C227.342 57.1945 227.302 57.3564 227.41 57.4764C227.928 58.0402 228.439 58.6092 228.944 59.1834L228.951 59.1781Z" fill="#C8C8C8"/>
<path d="M234.543 66.2569C234.604 66.3456 234.718 66.3926 234.839 66.3926C234.893 66.3926 234.947 66.3822 235.001 66.3613C235.162 66.2934 235.223 66.1316 235.135 66.0063C234.705 65.3956 234.261 64.79 233.81 64.1897C233.715 64.0645 233.507 64.0227 233.352 64.0958C233.191 64.1689 233.137 64.3255 233.231 64.4507C233.682 65.051 234.119 65.6514 234.543 66.2569Z" fill="#C8C8C8"/>
<path d="M215.297 46.3841C215.364 46.4363 215.451 46.4624 215.532 46.4624C215.613 46.4624 215.707 46.4363 215.768 46.3841C215.902 46.2797 215.902 46.1178 215.768 46.0134C215.128 45.5228 214.489 45.0321 213.836 44.5518C213.702 44.4526 213.493 44.4579 213.358 44.5623C213.231 44.6667 213.237 44.8337 213.372 44.9329C214.018 45.4131 214.657 45.8934 215.29 46.3841H215.297Z" fill="#C8C8C8"/>
<path d="M239.543 73.8727C239.59 73.8727 239.631 73.8675 239.678 73.8518C239.846 73.7944 239.927 73.643 239.853 73.5073C239.496 72.8704 239.133 72.2336 238.763 71.602C238.682 71.4715 238.487 71.414 238.319 71.4715C238.15 71.5341 238.076 71.6855 238.15 71.816C238.52 72.4424 238.884 73.074 239.234 73.7109C239.288 73.81 239.415 73.8675 239.543 73.8675V73.8727Z" fill="#C8C8C8"/>
<path d="M93.5029 27.1111C93.5433 27.1111 93.5904 27.1059 93.6308 27.0902C94.4585 26.8292 95.293 26.5786 96.1342 26.3385C96.3092 26.2863 96.3967 26.1402 96.3294 26.0044C96.2621 25.8687 96.0736 25.8008 95.8987 25.853C95.0575 26.0984 94.2162 26.349 93.3818 26.61C93.2068 26.6622 93.126 26.8135 93.1933 26.9493C93.2472 27.0484 93.375 27.1111 93.5029 27.1111Z" fill="#C8C8C8"/>
<path d="M23.6611 96.0997C23.6611 96.0997 23.6948 96.0997 23.7082 96.0997C23.8765 96.0997 24.0178 96.0057 24.038 95.8752C24.1658 95.1862 24.3004 94.5024 24.4485 93.8185C24.4821 93.6776 24.3543 93.5419 24.1726 93.5158C23.9909 93.4897 23.8159 93.5889 23.7822 93.7298C23.6342 94.4188 23.4996 95.1079 23.3717 95.7969C23.3448 95.9379 23.4727 96.0736 23.6544 96.0945L23.6611 96.0997Z" fill="#C8C8C8"/>
<path d="M27.0121 83.8638C27.0121 83.8638 27.0727 83.8743 27.1063 83.8743C27.2544 83.8743 27.389 83.8012 27.4294 83.6864C27.6784 83.0182 27.9408 82.3552 28.21 81.6975C28.2638 81.5618 28.1696 81.4156 27.9947 81.3687C27.8197 81.3269 27.6313 81.4 27.5707 81.5357C27.3015 82.1986 27.0323 82.8668 26.7833 83.5402C26.7295 83.6811 26.8304 83.8221 27.0121 83.8638Z" fill="#C8C8C8"/>
<path d="M24.5294 91.981C24.5294 91.981 24.5698 91.981 24.59 91.981C24.7515 91.981 24.8861 91.8922 24.9197 91.7669C25.088 91.0831 25.2629 90.4045 25.4514 89.7259C25.4917 89.5849 25.3773 89.444 25.1956 89.4179C25.0139 89.3866 24.8322 89.4753 24.7986 89.6163C24.6102 90.2949 24.4285 90.9787 24.2602 91.6678C24.2266 91.8087 24.3477 91.9444 24.5294 91.9757V91.981Z" fill="#C8C8C8"/>
<path d="M25.6463 87.8989C25.6463 87.8989 25.7001 87.9041 25.7271 87.9041C25.8818 87.9041 26.0164 87.8258 26.0568 87.7057C26.2654 87.0323 26.4875 86.359 26.7163 85.6908C26.7634 85.5498 26.6558 85.4089 26.4808 85.3724C26.3058 85.3358 26.1174 85.4193 26.0703 85.5551C25.8415 86.2285 25.6194 86.9071 25.404 87.5857C25.3637 87.7266 25.4713 87.8676 25.653 87.8989H25.6463Z" fill="#C8C8C8"/>
<path d="M244.833 85.6808C244.833 85.6808 244.894 85.6808 244.921 85.6704C245.102 85.6338 245.203 85.4877 245.156 85.352C244.921 84.6786 244.678 84.0052 244.423 83.337C244.369 83.1961 244.187 83.1178 244.005 83.1595C243.83 83.2013 243.723 83.3475 243.776 83.4832C244.032 84.1461 244.274 84.8143 244.503 85.4877C244.544 85.6025 244.678 85.6808 244.826 85.6808H244.833Z" fill="#C8C8C8"/>
<path d="M243.312 81.6766C243.346 81.6766 243.379 81.6766 243.413 81.6662C243.588 81.6244 243.689 81.473 243.628 81.3373C243.352 80.6691 243.07 80.0114 242.774 79.3537C242.713 79.218 242.518 79.1449 242.343 79.1919C242.168 79.2388 242.074 79.3902 242.134 79.5259C242.43 80.1785 242.713 80.8362 242.982 81.4991C243.029 81.6088 243.157 81.6818 243.305 81.6818L243.312 81.6766Z" fill="#C8C8C8"/>
<path d="M241.549 77.7357C241.589 77.7357 241.63 77.7305 241.67 77.72C241.845 77.6678 241.932 77.5165 241.865 77.3859C241.549 76.7334 241.226 76.0809 240.889 75.4336C240.822 75.2979 240.62 75.2353 240.452 75.2875C240.277 75.3397 240.196 75.4911 240.264 75.6268C240.6 76.2689 240.923 76.9161 241.233 77.5686C241.286 77.673 241.414 77.7357 241.549 77.7357Z" fill="#C8C8C8"/>
<path d="M50.183 51.1028C50.2772 51.1028 50.3714 51.0715 50.4387 51.0141C51.0242 50.4921 51.6164 49.9701 52.2221 49.4585C52.35 49.3541 52.3365 49.1871 52.2019 49.0879C52.0673 48.9939 51.852 48.9991 51.7241 49.1035C51.1184 49.6203 50.5195 50.1423 49.934 50.6696C49.8129 50.7792 49.8263 50.941 49.9677 51.0402C50.0282 51.0819 50.109 51.1028 50.1897 51.1028H50.183Z" fill="#C8C8C8"/>
<path d="M61.5827 42.2545C61.6634 42.2545 61.7375 42.2336 61.8047 42.1919C62.4777 41.7377 63.1641 41.2888 63.8506 40.8503C63.9919 40.7564 64.0121 40.5946 63.8977 40.4849C63.7765 40.3753 63.5679 40.3597 63.4266 40.4484C62.7334 40.8921 62.047 41.341 61.3673 41.8004C61.226 41.8943 61.2125 42.0614 61.3337 42.171C61.401 42.2284 61.4952 42.2598 61.5894 42.2598L61.5827 42.2545Z" fill="#C8C8C8"/>
<path d="M65.7214 39.5926C65.7954 39.5926 65.8695 39.5717 65.93 39.5351C66.6299 39.1071 67.3365 38.6843 68.0566 38.2667C68.2047 38.1779 68.2383 38.0161 68.1239 37.9013C68.0095 37.7864 67.8009 37.7603 67.6528 37.8491C66.9327 38.2667 66.2194 38.6947 65.5128 39.1228C65.3647 39.2115 65.3445 39.3785 65.4589 39.4882C65.5262 39.5508 65.6272 39.5873 65.7214 39.5873V39.5926Z" fill="#C8C8C8"/>
<path d="M53.7963 48.0125C53.8838 48.0125 53.9713 47.9864 54.0386 47.9342C54.6577 47.4331 55.2769 46.9372 55.9094 46.4465C56.044 46.3421 56.044 46.1803 55.9094 46.0759C55.7748 45.9715 55.5662 45.9715 55.4316 46.0759C54.7923 46.5718 54.1665 47.0677 53.5473 47.574C53.4195 47.6784 53.4262 47.8455 53.5608 47.9446C53.6281 47.9916 53.7088 48.0177 53.7963 48.0177V48.0125Z" fill="#C8C8C8"/>
<path d="M57.6056 45.0579C57.6863 45.0579 57.7738 45.0318 57.8411 44.9848C58.4871 44.5046 59.1399 44.0348 59.8061 43.565C59.9407 43.4658 59.9542 43.304 59.8263 43.1943C59.6985 43.0899 59.4899 43.0795 59.3485 43.1787C58.6823 43.6485 58.0228 44.1235 57.3767 44.6038C57.2421 44.7029 57.2354 44.87 57.3633 44.9744C57.4306 45.0266 57.5181 45.0527 57.6056 45.0527V45.0579Z" fill="#C8C8C8"/>
<path d="M70.0234 37.092C70.0907 37.092 70.158 37.0763 70.2185 37.045C70.9453 36.6431 71.6789 36.2464 72.4191 35.8601C72.5739 35.7766 72.6143 35.6147 72.5066 35.4999C72.399 35.3798 72.1903 35.3485 72.0423 35.432C71.302 35.8235 70.5618 36.2203 69.8282 36.6274C69.6802 36.7109 69.6398 36.8728 69.7475 36.9928C69.8148 37.0659 69.9157 37.1024 70.0234 37.1024V37.092Z" fill="#C8C8C8"/>
<path d="M74.4646 34.7533C74.5252 34.7533 74.5925 34.7377 74.6463 34.7116C75.3933 34.3357 76.1538 33.9703 76.9142 33.6049C77.0757 33.5318 77.1228 33.37 77.0286 33.2447C76.9344 33.1195 76.7258 33.0829 76.5643 33.156C75.7971 33.5214 75.0366 33.892 74.2829 34.2679C74.1281 34.3462 74.081 34.508 74.182 34.6281C74.2493 34.7064 74.3569 34.7481 74.4646 34.7481V34.7533Z" fill="#C8C8C8"/>
<path d="M88.5767 28.7554C88.6238 28.7554 88.6709 28.7501 88.718 28.7293C89.5255 28.4422 90.3398 28.1603 91.1608 27.8888C91.3291 27.8314 91.4098 27.68 91.3358 27.5443C91.2618 27.4138 91.0666 27.3512 90.8917 27.4086C90.0639 27.6852 89.2496 27.9671 88.4353 28.2542C88.2671 28.3169 88.193 28.4683 88.2671 28.5988C88.3209 28.6927 88.4488 28.7501 88.5699 28.7501L88.5767 28.7554Z" fill="#C8C8C8"/>
<path d="M83.7519 30.5778C83.8057 30.5778 83.8595 30.5673 83.9066 30.5465C84.7007 30.228 85.4948 29.9201 86.2957 29.6121C86.4639 29.5494 86.5312 29.3928 86.4505 29.2623C86.3697 29.1318 86.1678 29.0796 85.9996 29.1423C85.192 29.4502 84.3912 29.7582 83.5971 30.0819C83.4288 30.1497 83.3683 30.3063 83.4557 30.4316C83.5163 30.5204 83.6307 30.5726 83.7519 30.5726V30.5778Z" fill="#C8C8C8"/>
<path d="M79.0475 32.5769C79.1014 32.5769 79.162 32.5664 79.2158 32.5403C79.9897 32.1958 80.7636 31.8565 81.5442 31.5224C81.7058 31.4546 81.7663 31.2928 81.6788 31.1675C81.5914 31.0422 81.3827 30.9952 81.2212 31.0631C80.4338 31.3972 79.6532 31.7417 78.8793 32.0862C78.7178 32.1593 78.664 32.3159 78.7582 32.4412C78.8187 32.5247 78.9331 32.5717 79.0475 32.5717V32.5769Z" fill="#C8C8C8"/>
<path d="M37.5244 64.6542C37.5782 64.6803 37.6388 64.6907 37.6926 64.6907C37.807 64.6907 37.9214 64.6437 37.982 64.5602C38.4329 63.9599 38.8905 63.3596 39.3548 62.7697C39.449 62.6444 39.4019 62.4878 39.2404 62.4095C39.0856 62.3312 38.877 62.373 38.7761 62.4983C38.305 63.0934 37.8474 63.6937 37.3965 64.2992C37.3023 64.4245 37.3561 64.5811 37.5176 64.6542H37.5244Z" fill="#C8C8C8"/>
<path d="M32.6114 72.0978C32.6585 72.1135 32.7056 72.1239 32.7527 72.1239C32.8806 72.1239 33.0017 72.0665 33.0623 71.9725C33.4324 71.3409 33.816 70.7093 34.2063 70.0881C34.2871 69.9576 34.2198 69.801 34.0515 69.7383C33.8833 69.6757 33.6814 69.7279 33.6006 69.8584C33.2036 70.4848 32.82 71.1217 32.4499 71.7585C32.3758 71.889 32.4499 72.0456 32.6181 72.103L32.6114 72.0978Z" fill="#C8C8C8"/>
<path d="M30.5052 75.9503C30.5456 75.9607 30.5859 75.9712 30.633 75.9712C30.7676 75.9712 30.8955 75.9085 30.9426 75.8093C31.2791 75.1621 31.6156 74.52 31.9722 73.8831C32.0463 73.7526 31.9722 73.596 31.7973 73.5386C31.629 73.4812 31.4271 73.5386 31.3531 73.6743C30.9964 74.3164 30.6532 74.9637 30.3167 75.6162C30.2495 75.7519 30.3302 75.9033 30.5052 75.9555V75.9503Z" fill="#C8C8C8"/>
<path d="M43.5204 57.659C43.628 57.659 43.729 57.6225 43.7963 57.5494C44.3145 56.9856 44.8461 56.4218 45.3778 55.8685C45.4922 55.7537 45.4585 55.5919 45.3105 55.5031C45.1624 55.4144 44.9538 55.4405 44.8394 55.5553C44.301 56.1139 43.7694 56.6776 43.2445 57.2466C43.1368 57.3615 43.1704 57.5285 43.3252 57.612C43.3858 57.6433 43.4531 57.659 43.5204 57.659Z" fill="#C8C8C8"/>
<path d="M46.7507 54.3182C46.8516 54.3182 46.9458 54.2817 47.0131 54.2191C47.565 53.6762 48.1302 53.1333 48.6955 52.6008C48.8167 52.4912 48.7965 52.3242 48.6484 52.2354C48.5071 52.1415 48.2918 52.1571 48.1773 52.272C47.6053 52.8097 47.04 53.3525 46.4815 53.9006C46.3671 54.0155 46.394 54.1773 46.5353 54.266C46.5959 54.3026 46.6699 54.3235 46.7439 54.3235L46.7507 54.3182Z" fill="#C8C8C8"/>
<path d="M34.9536 68.3287C35.0007 68.3496 35.0546 68.36 35.1084 68.36C35.2295 68.36 35.3507 68.3078 35.4045 68.2191C35.815 67.6031 36.239 66.9872 36.6629 66.3764C36.7504 66.2511 36.6899 66.0893 36.5284 66.0214C36.3668 65.9536 36.1582 66.0006 36.0707 66.1258C35.64 66.7366 35.2161 67.3578 34.8056 67.979C34.7181 68.1095 34.7854 68.2661 34.9469 68.3287H34.9536Z" fill="#C8C8C8"/>
<path d="M40.3169 61.0778C40.3708 61.1039 40.4381 61.1196 40.4986 61.1196C40.6063 61.1196 40.7207 61.0778 40.7813 60.9995C41.2658 60.4149 41.7571 59.8354 42.2618 59.2612C42.3627 59.1412 42.3291 58.9794 42.1743 58.9011C42.0195 58.8228 41.8109 58.8489 41.71 58.9689C41.2052 59.5483 40.7073 60.1278 40.2227 60.7176C40.1218 60.8377 40.1689 60.9995 40.3237 61.0778H40.3169Z" fill="#C8C8C8"/>
<path d="M28.6346 79.8758C28.6682 79.8862 28.7086 79.8914 28.7423 79.8914C28.8836 79.8914 29.0115 79.8236 29.0586 79.714C29.3547 79.0562 29.6575 78.3985 29.9671 77.7512C30.0344 77.6155 29.9402 77.4641 29.7719 77.4171C29.5969 77.3649 29.4018 77.438 29.3412 77.5685C29.0249 78.2262 28.7221 78.884 28.426 79.5469C28.3654 79.6826 28.4596 79.834 28.6346 79.881V79.8758Z" fill="#C8C8C8"/>
<path d="M239.348 28.1229L233.473 21.9673C233.224 21.7064 232.82 21.7064 232.571 21.9673C232.323 22.2282 232.323 22.6512 232.571 22.9121L238.446 29.0677C238.695 29.3286 239.099 29.3286 239.348 29.0677C239.597 28.8068 239.597 28.3838 239.348 28.1229Z" fill="#E6E6E6"/>
<path d="M238.446 21.9673L232.571 28.1229C232.323 28.3838 232.323 28.8068 232.571 29.0677C232.82 29.3286 233.224 29.3286 233.473 29.0677L239.348 22.9121C239.597 22.6512 239.597 22.2282 239.348 21.9673C239.099 21.7064 238.695 21.7064 238.446 21.9673Z" fill="#E6E6E6"/>
<path d="M58.3414 7.16303L52.4664 1.00744C52.2174 0.746545 51.8136 0.746545 51.5646 1.00744C51.3156 1.26833 51.3156 1.69139 51.5646 1.95228L57.4396 8.10788C57.6886 8.36877 58.0924 8.36877 58.3414 8.10788C58.5904 7.84699 58.5904 7.42392 58.3414 7.16303Z" fill="#C8C8C8"/>
<path d="M57.4463 1.01366L51.5713 7.16926C51.3223 7.43015 51.3223 7.85321 51.5713 8.1141C51.8203 8.37499 52.2241 8.37499 52.4731 8.1141L58.3481 1.95851C58.5971 1.69762 58.5971 1.27455 58.3481 1.01366C58.0991 0.752771 57.6953 0.752771 57.4463 1.01366Z" fill="#C8C8C8"/>
<path d="M207.237 4.05879C207.237 1.81786 209.061 0 211.295 0C213.53 0 215.354 1.82447 215.354 4.05879C215.354 6.29311 213.53 8.11759 211.295 8.11759C209.061 8.11759 207.237 6.29311 207.237 4.05879ZM209.055 4.05879C209.055 5.29494 210.059 6.30634 211.302 6.30634C212.545 6.30634 213.55 5.30155 213.55 4.05879C213.55 2.81604 212.545 1.81125 211.302 1.81125C210.059 1.81125 209.055 2.81604 209.055 4.05879Z" fill="#E6E6E6"/>
<path d="M140.121 42.7294C140.85 42.7557 141.578 42.7909 142.301 42.8304C142.307 42.8304 142.312 42.8304 142.323 42.8304C142.466 42.8304 142.586 42.7426 142.597 42.624C142.608 42.5011 142.493 42.4002 142.345 42.3914C141.616 42.3519 140.888 42.3167 140.154 42.2904C139.99 42.2904 139.874 42.3782 139.869 42.5011C139.864 42.624 139.979 42.725 140.132 42.7294H140.121Z" fill="#C8C8C8"/>
<path d="M131.378 42.738H131.389C132.112 42.7117 132.841 42.6897 133.569 42.6765C133.723 42.6765 133.838 42.5712 133.838 42.4527C133.838 42.3297 133.69 42.2375 133.558 42.2375C132.824 42.2507 132.09 42.2727 131.362 42.3034C131.208 42.3078 131.093 42.4131 131.099 42.5317C131.104 42.6502 131.225 42.7424 131.373 42.7424L131.378 42.738Z" fill="#C8C8C8"/>
<path d="M135.755 42.6503H135.864C136.555 42.6503 137.25 42.6547 137.94 42.6679H137.946C138.094 42.6679 138.214 42.5713 138.22 42.4528C138.22 42.3298 138.105 42.2333 137.951 42.2289C137.256 42.2157 136.566 42.2113 135.864 42.2113H135.755C135.601 42.2113 135.481 42.3079 135.481 42.4308C135.481 42.5537 135.601 42.6503 135.755 42.6503Z" fill="#C8C8C8"/>
<path d="M165.78 46.6448C166.47 46.8336 167.16 47.0312 167.845 47.2375C167.878 47.2463 167.91 47.2507 167.938 47.2507C168.047 47.2507 168.151 47.198 168.195 47.1058C168.25 46.9917 168.173 46.8643 168.036 46.8248C167.352 46.6185 166.656 46.421 165.96 46.2278C165.818 46.1883 165.659 46.2498 165.61 46.3639C165.56 46.478 165.637 46.6053 165.78 46.6448Z" fill="#C8C8C8"/>
<path d="M169.882 47.8697C170.562 48.0848 171.235 48.3087 171.909 48.5414C171.942 48.5545 171.98 48.5589 172.019 48.5589C172.123 48.5589 172.227 48.5106 172.271 48.4272C172.331 48.3175 172.271 48.1858 172.128 48.1375C171.454 47.9048 170.775 47.6809 170.09 47.4615C169.948 47.4176 169.789 47.4702 169.734 47.5844C169.68 47.6985 169.745 47.8258 169.888 47.8697H169.882Z" fill="#C8C8C8"/>
<path d="M153.12 43.9499C153.838 44.0596 154.55 44.1738 155.262 44.2967C155.284 44.2967 155.3 44.3011 155.322 44.3011C155.448 44.3011 155.563 44.2308 155.591 44.1299C155.624 44.0113 155.53 43.8928 155.383 43.8708C154.67 43.7479 153.953 43.6294 153.23 43.5197C153.076 43.4977 152.939 43.5767 152.912 43.6953C152.885 43.8138 152.983 43.9279 153.131 43.9499H153.12Z" fill="#C8C8C8"/>
<path d="M157.392 44.683C158.099 44.8191 158.806 44.964 159.507 45.1132C159.529 45.1176 159.556 45.122 159.578 45.122C159.699 45.122 159.808 45.0561 159.841 44.9596C159.879 44.841 159.792 44.7225 159.649 44.6918C158.943 44.5425 158.231 44.3977 157.518 44.2616C157.365 44.2308 157.223 44.3055 157.19 44.424C157.157 44.5425 157.245 44.661 157.392 44.6874V44.683Z" fill="#C8C8C8"/>
<path d="M161.611 45.5825C162.312 45.7449 163.008 45.9161 163.698 46.0917C163.725 46.1005 163.752 46.1005 163.78 46.1005C163.895 46.1005 164.004 46.0391 164.043 45.9469C164.087 45.8327 164.01 45.7098 163.862 45.6703C163.166 45.4947 162.465 45.3235 161.759 45.1567C161.611 45.1216 161.463 45.1918 161.419 45.3059C161.375 45.4245 161.463 45.543 161.605 45.5781L161.611 45.5825Z" fill="#C8C8C8"/>
<path d="M173.909 49.248C174.571 49.4895 175.234 49.7397 175.892 49.9943C175.93 50.0075 175.968 50.0163 176.012 50.0163C176.111 50.0163 176.209 49.9724 176.259 49.8933C176.324 49.7836 176.27 49.6519 176.133 49.5992C175.475 49.3402 174.807 49.09 174.139 48.8485C174.002 48.8002 173.837 48.8485 173.777 48.9583C173.717 49.068 173.777 49.1997 173.914 49.248H173.909Z" fill="#C8C8C8"/>
<path d="M190.808 57.2815C190.857 57.3122 190.917 57.3254 190.972 57.3254C191.054 57.3254 191.137 57.2947 191.191 57.2376C191.285 57.141 191.257 57.0049 191.137 56.9303C190.55 56.5791 189.959 56.2323 189.362 55.8899C189.241 55.8197 189.066 55.8416 188.978 55.9426C188.891 56.0435 188.918 56.1796 189.044 56.2499C189.636 56.5879 190.227 56.9347 190.808 57.2815Z" fill="#C8C8C8"/>
<path d="M194.242 59.446C194.292 59.4812 194.357 59.4943 194.418 59.4943C194.494 59.4943 194.576 59.468 194.631 59.4153C194.73 59.3231 194.713 59.1826 194.593 59.108C194.029 58.7349 193.459 58.3661 192.884 58.0017C192.769 57.9271 192.593 57.9447 192.5 58.0369C192.407 58.1334 192.429 58.2695 192.544 58.3442C193.114 58.7041 193.684 59.0729 194.248 59.4417L194.242 59.446Z" fill="#C8C8C8"/>
<path d="M185.423 54.2833C186.036 54.5994 186.644 54.9199 187.247 55.2491C187.296 55.2754 187.346 55.2886 187.4 55.2886C187.488 55.2886 187.576 55.2535 187.625 55.192C187.713 55.0911 187.674 54.955 187.554 54.8891C186.946 54.5599 186.338 54.235 185.719 53.919C185.593 53.8531 185.423 53.8838 185.341 53.9848C185.259 54.0858 185.297 54.2219 185.423 54.2877V54.2833Z" fill="#C8C8C8"/>
<path d="M177.847 50.7798C178.494 51.0476 179.14 51.3197 179.781 51.6007C179.825 51.6182 179.869 51.627 179.913 51.627C180.011 51.627 180.104 51.5875 180.154 51.5129C180.225 51.4075 180.176 51.2714 180.044 51.2144C179.403 50.9334 178.751 50.6569 178.099 50.3891C177.968 50.332 177.798 50.3759 177.732 50.4856C177.661 50.5954 177.716 50.7271 177.847 50.7798Z" fill="#C8C8C8"/>
<path d="M181.687 52.4615C182.317 52.7556 182.947 53.0497 183.566 53.357C183.61 53.379 183.659 53.3878 183.709 53.3878C183.802 53.3878 183.889 53.3483 183.944 53.2824C184.021 53.177 183.983 53.0453 183.851 52.9795C183.227 52.6722 182.597 52.3737 181.961 52.0796C181.83 52.0181 181.665 52.0532 181.589 52.1586C181.512 52.2639 181.556 52.3956 181.687 52.4571V52.4615Z" fill="#C8C8C8"/>
<path d="M148.814 43.3743C149.537 43.4577 150.255 43.5455 150.973 43.6377C150.989 43.6377 151.005 43.6377 151.016 43.6377C151.148 43.6377 151.263 43.5631 151.285 43.4533C151.307 43.3348 151.208 43.2207 151.06 43.1987C150.337 43.1021 149.614 43.0143 148.891 42.9309C148.743 42.9134 148.601 42.9968 148.584 43.1197C148.562 43.2382 148.666 43.3524 148.814 43.3655V43.3743Z" fill="#C8C8C8"/>
<path d="M118.341 43.9849C118.341 43.9849 118.374 43.9849 118.396 43.9849C119.108 43.8752 119.825 43.7698 120.543 43.6732C120.691 43.6513 120.795 43.5415 120.768 43.4186C120.74 43.3001 120.603 43.2167 120.45 43.2386C119.727 43.3352 119.004 43.4406 118.286 43.5503C118.138 43.5723 118.04 43.6864 118.067 43.8093C118.094 43.9147 118.209 43.9893 118.335 43.9893L118.341 43.9849Z" fill="#C8C8C8"/>
<path d="M122.663 43.4058C122.663 43.4058 122.69 43.4058 122.701 43.4058C123.419 43.3224 124.142 43.2477 124.865 43.1775C125.013 43.1643 125.122 43.0546 125.106 42.9316C125.089 42.8131 124.958 42.7253 124.799 42.7385C124.071 42.8087 123.347 42.8834 122.619 42.9668C122.471 42.9843 122.367 43.0941 122.389 43.217C122.411 43.3267 122.526 43.4058 122.657 43.4058H122.663Z" fill="#C8C8C8"/>
<path d="M105.665 46.715C105.692 46.715 105.725 46.715 105.753 46.7018C106.437 46.513 107.127 46.3243 107.823 46.1487C107.966 46.1135 108.048 45.9862 107.998 45.8721C107.955 45.758 107.796 45.6921 107.653 45.7316C106.958 45.9116 106.262 46.096 105.572 46.2891C105.429 46.3286 105.353 46.456 105.402 46.5701C105.44 46.6623 105.55 46.7194 105.659 46.7194L105.665 46.715Z" fill="#C8C8C8"/>
<path d="M127.007 42.9886C127.007 42.9886 127.023 42.9886 127.034 42.9886C127.757 42.9316 128.48 42.8833 129.209 42.8438C129.362 42.835 129.472 42.7296 129.461 42.6111C129.45 42.4882 129.319 42.4004 129.171 42.4092C128.437 42.4531 127.708 42.5014 126.979 42.554C126.832 42.5672 126.717 42.6726 126.733 42.7955C126.744 42.9096 126.864 42.993 127.007 42.993V42.9886Z" fill="#C8C8C8"/>
<path d="M109.834 45.6437C109.834 45.6437 109.883 45.6437 109.911 45.6349C110.606 45.4725 111.307 45.3144 112.014 45.1608C112.162 45.13 112.25 45.0071 112.206 44.893C112.167 44.7745 112.02 44.7086 111.872 44.7393C111.165 44.893 110.458 45.051 109.757 45.2178C109.609 45.253 109.527 45.3759 109.571 45.49C109.604 45.5866 109.713 45.6481 109.834 45.6481V45.6437Z" fill="#C8C8C8"/>
<path d="M197.54 61.7371C197.595 61.7766 197.661 61.7942 197.726 61.7942C197.803 61.7942 197.874 61.7679 197.929 61.724C198.033 61.6362 198.022 61.4957 197.913 61.4123C197.37 61.0172 196.823 60.6265 196.269 60.2445C196.154 60.1655 195.985 60.1743 195.88 60.2665C195.782 60.3587 195.793 60.4948 195.908 60.5738C196.456 60.9557 197.003 61.342 197.54 61.7371Z" fill="#C8C8C8"/>
<path d="M144.476 42.9701C145.204 43.0228 145.927 43.0843 146.645 43.1545C146.656 43.1545 146.667 43.1545 146.678 43.1545C146.815 43.1545 146.935 43.0711 146.952 42.9613C146.968 42.8428 146.859 42.7331 146.711 42.7199C145.988 42.6497 145.259 42.5926 144.525 42.5355C144.377 42.5267 144.24 42.6145 144.229 42.7331C144.213 42.8516 144.328 42.9613 144.476 42.9701Z" fill="#C8C8C8"/>
<path d="M114.063 44.7312C114.063 44.7312 114.107 44.7312 114.129 44.7268C114.835 44.5908 115.542 44.4591 116.254 44.3361C116.402 44.3098 116.495 44.1913 116.462 44.0727C116.429 43.9542 116.281 43.8796 116.133 43.9059C115.416 44.0332 114.704 44.1649 113.992 44.301C113.844 44.3317 113.756 44.4503 113.789 44.5644C113.822 44.6654 113.931 44.7312 114.057 44.7312H114.063Z" fill="#C8C8C8"/>
<path d="M218.367 83.9644C218.416 84.0434 218.509 84.0873 218.613 84.0873C218.652 84.0873 218.696 84.0785 218.734 84.0654C218.871 84.0127 218.926 83.881 218.86 83.7712C218.542 83.2444 218.213 82.722 217.874 82.204C217.803 82.0943 217.638 82.0548 217.507 82.1118C217.37 82.1689 217.321 82.3006 217.392 82.406C217.726 82.924 218.055 83.442 218.372 83.9644H218.367Z" fill="#C8C8C8"/>
<path d="M225.51 100.435C225.538 100.536 225.653 100.606 225.779 100.606C225.801 100.606 225.817 100.606 225.839 100.601C225.987 100.575 226.08 100.457 226.047 100.338C225.888 99.7629 225.724 99.1923 225.554 98.6216C225.521 98.503 225.373 98.4328 225.226 98.4591C225.078 98.4899 224.99 98.6084 225.023 98.7225C225.193 99.2888 225.357 99.8551 225.516 100.426L225.51 100.435Z" fill="#C8C8C8"/>
<path d="M226.677 105.603C226.781 106.178 226.874 106.757 226.962 107.337C226.978 107.446 227.099 107.53 227.23 107.53C227.241 107.53 227.252 107.53 227.263 107.53C227.411 107.517 227.52 107.407 227.504 107.284C227.416 106.7 227.318 106.121 227.219 105.537C227.197 105.418 227.055 105.335 226.907 105.352C226.759 105.37 226.655 105.48 226.677 105.603Z" fill="#C8C8C8"/>
<path d="M225.954 102.152C226.091 102.723 226.222 103.298 226.343 103.873C226.365 103.978 226.48 104.057 226.611 104.057C226.628 104.057 226.644 104.057 226.655 104.057C226.803 104.035 226.907 103.926 226.88 103.803C226.759 103.223 226.628 102.644 226.491 102.069C226.463 101.95 226.316 101.871 226.168 101.893C226.02 101.915 225.921 102.029 225.949 102.152H225.954Z" fill="#C8C8C8"/>
<path d="M209.279 72.0669C209.334 72.124 209.416 72.1547 209.498 72.1547C209.553 72.1547 209.613 72.1415 209.663 72.1108C209.783 72.0362 209.805 71.9001 209.717 71.8035C209.279 71.3338 208.83 70.8684 208.381 70.4119C208.288 70.3153 208.112 70.3021 207.997 70.3768C207.877 70.4514 207.86 70.5919 207.954 70.6841C208.403 71.1406 208.847 71.6016 209.285 72.0713L209.279 72.0669Z" fill="#C8C8C8"/>
<path d="M214.182 77.8445C214.231 77.9103 214.324 77.9498 214.417 77.9498C214.467 77.9498 214.516 77.941 214.56 77.9191C214.691 77.8576 214.73 77.7215 214.653 77.6162C214.27 77.1157 213.881 76.6197 213.486 76.128C213.404 76.027 213.234 75.9963 213.108 76.0621C212.982 76.128 212.944 76.2641 213.026 76.365C213.42 76.8523 213.804 77.3484 214.187 77.8445H214.182Z" fill="#C8C8C8"/>
<path d="M203.719 66.681C203.774 66.7293 203.845 66.7513 203.922 66.7513C203.988 66.7513 204.053 66.7337 204.108 66.6942C204.218 66.6108 204.229 66.4747 204.124 66.3825C203.631 65.9479 203.133 65.5221 202.629 65.0963C202.525 65.0085 202.355 65.0041 202.24 65.0875C202.131 65.1709 202.125 65.3114 202.229 65.3992C202.733 65.8206 203.226 66.2464 203.719 66.6767V66.681Z" fill="#C8C8C8"/>
<path d="M206.578 69.3233C206.633 69.376 206.71 69.4023 206.787 69.4023C206.847 69.4023 206.913 69.3847 206.962 69.354C207.077 69.275 207.093 69.1389 207 69.0467C206.535 68.5945 206.058 68.1468 205.581 67.7034C205.483 67.6112 205.308 67.6024 205.193 67.6814C205.078 67.7604 205.067 67.9009 205.165 67.9931C205.642 68.4321 206.113 68.8799 206.578 69.3277V69.3233Z" fill="#C8C8C8"/>
<path d="M211.815 74.9118C211.87 74.9732 211.952 75.0083 212.04 75.0083C212.095 75.0083 212.149 74.9952 212.193 74.9688C212.319 74.8986 212.352 74.7625 212.264 74.6659C211.854 74.183 211.437 73.7001 211.01 73.226C210.922 73.1251 210.753 73.1031 210.627 73.1733C210.506 73.2436 210.473 73.3797 210.561 73.4806C210.983 73.9548 211.399 74.4333 211.81 74.9162L211.815 74.9118Z" fill="#C8C8C8"/>
<path d="M216.368 80.8648C216.417 80.9394 216.51 80.9789 216.609 80.9789C216.653 80.9789 216.696 80.9701 216.74 80.9526C216.872 80.8955 216.921 80.7594 216.85 80.6541C216.499 80.1404 216.138 79.6312 215.771 79.1264C215.694 79.021 215.524 78.9859 215.398 79.0473C215.267 79.1088 215.223 79.2405 215.3 79.3458C215.667 79.8507 216.023 80.3555 216.368 80.8648Z" fill="#C8C8C8"/>
<path d="M200.701 64.1519C200.756 64.1958 200.827 64.2178 200.893 64.2178C200.958 64.2178 201.035 64.1958 201.084 64.1519C201.194 64.0641 201.194 63.928 201.084 63.8402C200.564 63.4276 200.043 63.0149 199.512 62.6111C199.403 62.5276 199.233 62.532 199.123 62.6198C199.019 62.7076 199.025 62.8481 199.134 62.9315C199.66 63.3354 200.18 63.7393 200.695 64.1519H200.701Z" fill="#C8C8C8"/>
<path d="M220.438 87.2698C220.476 87.2698 220.509 87.2654 220.547 87.2522C220.684 87.2039 220.75 87.0766 220.69 86.9625C220.399 86.4269 220.104 85.8913 219.802 85.3601C219.737 85.2504 219.578 85.2021 219.441 85.2504C219.304 85.3031 219.244 85.4304 219.304 85.5401C219.605 86.0669 219.901 86.5981 220.186 87.1337C220.23 87.2171 220.334 87.2654 220.438 87.2654V87.2698Z" fill="#C8C8C8"/>
<path d="M101.562 47.9441C101.595 47.9441 101.633 47.9397 101.666 47.9266C102.34 47.7071 103.019 47.4963 103.704 47.2944C103.846 47.2505 103.917 47.1276 103.863 47.0134C103.808 46.8993 103.654 46.8422 103.512 46.8861C102.827 47.0925 102.142 47.3032 101.463 47.5227C101.321 47.5666 101.255 47.6939 101.31 47.808C101.354 47.8914 101.458 47.9441 101.562 47.9441Z" fill="#C8C8C8"/>
<path d="M44.7128 105.962C44.7128 105.962 44.7402 105.962 44.7511 105.962C44.8881 105.962 45.0031 105.883 45.0196 105.773C45.1236 105.193 45.2332 104.618 45.3537 104.043C45.3811 103.925 45.277 103.811 45.1291 103.789C44.9812 103.767 44.8388 103.85 44.8114 103.969C44.6909 104.548 44.5813 105.128 44.4772 105.707C44.4553 105.826 44.5594 105.94 44.7073 105.957L44.7128 105.962Z" fill="#C8C8C8"/>
<path d="M47.4408 95.672C47.4408 95.672 47.4901 95.6808 47.5175 95.6808C47.638 95.6808 47.7475 95.6193 47.7804 95.5227C47.9831 94.9608 48.1967 94.4033 48.4158 93.8501C48.4597 93.736 48.383 93.6131 48.2406 93.5736C48.0981 93.5385 47.9447 93.5999 47.8954 93.7141C47.6763 94.2716 47.4572 94.8335 47.2545 95.3998C47.2107 95.5183 47.2929 95.6369 47.4408 95.672Z" fill="#C8C8C8"/>
<path d="M45.4192 102.498C45.4192 102.498 45.452 102.498 45.4685 102.498C45.5999 102.498 45.7095 102.424 45.7369 102.318C45.8738 101.743 46.0163 101.173 46.1696 100.602C46.2025 100.483 46.1094 100.365 45.9615 100.343C45.8136 100.317 45.6657 100.391 45.6383 100.51C45.4849 101.08 45.337 101.656 45.2 102.235C45.1727 102.354 45.2713 102.468 45.4192 102.494V102.498Z" fill="#C8C8C8"/>
<path d="M46.3287 99.0659C46.3287 99.0659 46.3725 99.0703 46.3944 99.0703C46.5204 99.0703 46.63 99.0045 46.6628 98.9035C46.8327 98.3372 47.0134 97.7709 47.1997 97.209C47.238 97.0904 47.1504 96.9719 47.0079 96.9412C46.8655 96.9105 46.7121 96.9807 46.6738 97.0948C46.4875 97.6611 46.3068 98.2318 46.1315 98.8025C46.0986 98.9211 46.1863 99.0396 46.3342 99.0659H46.3287Z" fill="#C8C8C8"/>
<path d="M224.743 97.1996C224.743 97.1996 224.792 97.1996 224.814 97.1908C224.962 97.1601 225.044 97.0372 225.006 96.923C224.814 96.3567 224.617 95.7904 224.409 95.2285C224.365 95.11 224.217 95.0441 224.069 95.0793C223.927 95.1144 223.839 95.2373 223.883 95.3514C224.091 95.909 224.288 96.4709 224.475 97.0372C224.507 97.1338 224.617 97.1996 224.738 97.1996H224.743Z" fill="#C8C8C8"/>
<path d="M223.505 93.8323C223.533 93.8323 223.56 93.8323 223.587 93.8235C223.73 93.7884 223.812 93.6611 223.763 93.547C223.538 92.9851 223.308 92.4319 223.067 91.8788C223.018 91.7647 222.859 91.7032 222.716 91.7427C222.574 91.7822 222.497 91.9095 222.547 92.0237C222.788 92.5724 223.018 93.1255 223.237 93.6831C223.275 93.7752 223.379 93.8367 223.5 93.8367L223.505 93.8323Z" fill="#C8C8C8"/>
<path d="M222.07 90.5181C222.103 90.5181 222.136 90.5138 222.169 90.505C222.311 90.4611 222.383 90.3338 222.328 90.224C222.07 89.6753 221.807 89.1265 221.533 88.5822C221.479 88.468 221.314 88.4154 221.177 88.4593C221.035 88.5032 220.969 88.6305 221.024 88.7446C221.298 89.2846 221.561 89.8289 221.813 90.3777C221.857 90.4655 221.961 90.5181 222.07 90.5181Z" fill="#C8C8C8"/>
<path d="M66.3011 68.1204C66.3778 68.1204 66.4544 68.0941 66.5092 68.0458C66.9858 67.6068 67.4679 67.1678 67.9609 66.7376C68.065 66.6498 68.054 66.5093 67.9444 66.4259C67.8349 66.3469 67.6596 66.3513 67.5555 66.4391C67.0625 66.8737 66.575 67.3127 66.0984 67.7561C65.9998 67.8482 66.0107 67.9843 66.1258 68.0677C66.1751 68.1029 66.2408 68.1204 66.3065 68.1204H66.3011Z" fill="#C8C8C8"/>
<path d="M75.5804 60.68C75.6462 60.68 75.7064 60.6624 75.7612 60.6273C76.309 60.2454 76.8677 59.8678 77.4265 59.4991C77.5415 59.4201 77.5579 59.284 77.4648 59.1918C77.3662 59.0996 77.1964 59.0864 77.0814 59.1611C76.5171 59.5342 75.9584 59.9117 75.4051 60.2981C75.2901 60.3771 75.2791 60.5176 75.3777 60.6097C75.4325 60.658 75.5092 60.6844 75.5859 60.6844L75.5804 60.68Z" fill="#C8C8C8"/>
<path d="M78.9492 58.4407C79.0095 58.4407 79.0697 58.4231 79.119 58.3924C79.6887 58.0324 80.2639 57.6768 80.85 57.3256C80.9705 57.251 80.9979 57.1149 80.9048 57.0183C80.8117 56.9217 80.6419 56.8998 80.5213 56.9744C79.9352 57.3256 79.3546 57.6856 78.7794 58.0456C78.6589 58.1202 78.6424 58.2607 78.7356 58.3529C78.7903 58.4055 78.8725 58.4363 78.9492 58.4363V58.4407Z" fill="#C8C8C8"/>
<path d="M69.2427 65.522C69.3139 65.522 69.3852 65.5001 69.4399 65.4562C69.9439 65.0347 70.4479 64.6177 70.9628 64.205C71.0723 64.1173 71.0723 63.9812 70.9628 63.8934C70.8532 63.8056 70.6834 63.8056 70.5739 63.8934C70.0535 64.3104 69.544 64.7275 69.0401 65.1533C68.936 65.2411 68.9414 65.3816 69.051 65.465C69.1058 65.5045 69.1715 65.5264 69.2427 65.5264V65.522Z" fill="#C8C8C8"/>
<path d="M72.3431 63.0368C72.4088 63.0368 72.4801 63.0149 72.5348 62.9754C73.0607 62.5715 73.5921 62.1764 74.1344 61.7813C74.2439 61.6979 74.2549 61.5618 74.1508 61.4696C74.0467 61.3818 73.8769 61.373 73.7619 61.4564C73.2196 61.8515 72.6827 62.251 72.1569 62.6549C72.0473 62.7383 72.0418 62.8788 72.1459 62.9666C72.2007 63.0105 72.2719 63.0324 72.3431 63.0324V63.0368Z" fill="#C8C8C8"/>
<path d="M82.4499 56.3382C82.5047 56.3382 82.5595 56.325 82.6088 56.2986C83.2004 55.9606 83.7975 55.627 84.4001 55.3021C84.5261 55.2319 84.5589 55.0958 84.4713 54.9992C84.3836 54.8982 84.2138 54.8719 84.0933 54.9421C83.4907 55.2714 82.8882 55.605 82.2911 55.9474C82.1706 56.0177 82.1377 56.1538 82.2253 56.2547C82.2801 56.3162 82.3623 56.3469 82.4499 56.3469V56.3382Z" fill="#C8C8C8"/>
<path d="M86.0653 54.3717C86.1146 54.3717 86.1694 54.3585 86.2132 54.3366C86.8212 54.0205 87.4402 53.7132 88.0592 53.4059C88.1907 53.3444 88.2291 53.2083 88.1524 53.103C88.0757 52.9976 87.9059 52.9669 87.7744 53.0284C87.1499 53.3357 86.5309 53.6473 85.9174 53.9634C85.7914 54.0293 85.753 54.1654 85.8352 54.2663C85.89 54.3322 85.9776 54.3673 86.0653 54.3673V54.3717Z" fill="#C8C8C8"/>
<path d="M97.5524 49.3267C97.5907 49.3267 97.6291 49.3223 97.6674 49.3048C98.3247 49.0633 98.9876 48.8263 99.6559 48.598C99.7928 48.5497 99.8585 48.4224 99.7983 48.3083C99.738 48.1985 99.5792 48.1458 99.4368 48.1941C98.763 48.4268 98.1001 48.6638 97.4373 48.9053C97.3004 48.958 97.2401 49.0853 97.3004 49.195C97.3442 49.274 97.4483 49.3223 97.5469 49.3223L97.5524 49.3267Z" fill="#C8C8C8"/>
<path d="M93.6247 50.8593C93.6685 50.8593 93.7123 50.8506 93.7506 50.833C94.397 50.5652 95.0434 50.3062 95.6953 50.0472C95.8322 49.9945 95.887 49.8628 95.8213 49.7531C95.7556 49.6433 95.5912 49.5994 95.4543 49.6521C94.7969 49.9111 94.145 50.1701 93.4987 50.4423C93.3617 50.4994 93.3124 50.6311 93.3836 50.7364C93.4329 50.811 93.526 50.8549 93.6247 50.8549V50.8593Z" fill="#C8C8C8"/>
<path d="M89.7958 52.5404C89.8396 52.5404 89.8889 52.5317 89.9327 52.5097C90.5627 52.22 91.1926 51.9346 91.8281 51.6537C91.9596 51.5966 92.0089 51.4605 91.9376 51.3552C91.8664 51.2498 91.6966 51.2103 91.5651 51.2674C90.9242 51.5483 90.2888 51.8381 89.6588 52.1278C89.5274 52.1892 89.4836 52.3209 89.5602 52.4263C89.6095 52.4965 89.7027 52.5361 89.7958 52.5361V52.5404Z" fill="#C8C8C8"/>
<path d="M55.9972 79.5174C56.041 79.5393 56.0903 79.5481 56.1342 79.5481C56.2273 79.5481 56.3204 79.5086 56.3697 79.4383C56.7367 78.9335 57.1092 78.4286 57.4872 77.9326C57.5639 77.8272 57.5255 77.6955 57.3941 77.6297C57.2681 77.5638 57.0983 77.5989 57.0161 77.7043C56.6327 78.2048 56.2602 78.7096 55.8931 79.2188C55.8165 79.3242 55.8603 79.4559 55.9917 79.5174H55.9972Z" fill="#C8C8C8"/>
<path d="M51.9982 85.7776C52.0365 85.7908 52.0748 85.7995 52.1132 85.7995C52.2173 85.7995 52.3159 85.7513 52.3652 85.6722C52.6665 85.1411 52.9787 84.6099 53.2964 84.0875C53.3621 83.9777 53.3074 83.846 53.1704 83.7933C53.0335 83.7407 52.8691 83.7846 52.8034 83.8943C52.4802 84.4211 52.168 84.9567 51.8667 85.4922C51.8064 85.602 51.8667 85.7337 52.0036 85.782L51.9982 85.7776Z" fill="#C8C8C8"/>
<path d="M50.2837 89.0171C50.3166 89.0259 50.3495 89.0347 50.3878 89.0347C50.4974 89.0347 50.6015 88.982 50.6398 88.8986C50.9137 88.3542 51.1876 87.8143 51.4779 87.2787C51.5382 87.1689 51.4779 87.0372 51.3355 86.989C51.1985 86.9407 51.0342 86.989 50.974 87.1031C50.6836 87.6431 50.4043 88.1874 50.1304 88.7362C50.0756 88.8503 50.1413 88.9776 50.2837 89.0215V89.0171Z" fill="#C8C8C8"/>
<path d="M60.8779 73.6344C60.9655 73.6344 61.0477 73.6037 61.1025 73.5422C61.5243 73.0681 61.957 72.594 62.3898 72.1286C62.4829 72.0321 62.4555 71.896 62.335 71.8213C62.2145 71.7467 62.0447 71.7687 61.9515 71.8652C61.5133 72.335 61.0806 72.8091 60.6533 73.2876C60.5656 73.3842 60.593 73.5246 60.719 73.5949C60.7683 73.6212 60.8231 73.6344 60.8779 73.6344Z" fill="#C8C8C8"/>
<path d="M63.507 70.8248C63.5892 70.8248 63.6659 70.7941 63.7207 70.7414C64.1699 70.2849 64.63 69.8283 65.0902 69.3805C65.1888 69.2883 65.1723 69.1479 65.0518 69.0732C64.9368 68.9942 64.7615 69.0074 64.6684 69.104C64.2027 69.5561 63.7426 70.0127 63.2879 70.4736C63.1948 70.5702 63.2167 70.7063 63.3317 70.7809C63.381 70.8117 63.4413 70.8292 63.5016 70.8292L63.507 70.8248Z" fill="#C8C8C8"/>
<path d="M53.9045 82.6075C53.9429 82.6251 53.9867 82.6338 54.0305 82.6338C54.1291 82.6338 54.2277 82.5899 54.2716 82.5153C54.6057 81.9973 54.9508 81.4793 55.2959 80.9657C55.3671 80.8603 55.3178 80.7242 55.1864 80.6671C55.0549 80.6101 54.8851 80.6496 54.8139 80.7549C54.4633 81.2686 54.1182 81.791 53.784 82.3134C53.7128 82.4231 53.7676 82.5548 53.8991 82.6075H53.9045Z" fill="#C8C8C8"/>
<path d="M58.2703 76.5098C58.3141 76.5318 58.3689 76.545 58.4182 76.545C58.5058 76.545 58.599 76.5098 58.6483 76.444C59.0427 75.9523 59.4426 75.465 59.8534 74.9821C59.9356 74.8812 59.9082 74.7451 59.7822 74.6792C59.6562 74.6134 59.4864 74.6353 59.4042 74.7363C58.9934 75.2236 58.588 75.7109 58.1936 76.2069C58.1114 76.3079 58.1498 76.444 58.2758 76.5098H58.2703Z" fill="#C8C8C8"/>
<path d="M48.761 92.3183C48.7884 92.3271 48.8212 92.3315 48.8486 92.3315C48.9637 92.3315 49.0677 92.2744 49.1061 92.1822C49.3471 91.6291 49.5936 91.0759 49.8456 90.5316C49.9004 90.4174 49.8237 90.2901 49.6867 90.2506C49.5443 90.2067 49.3854 90.2682 49.3361 90.3779C49.0787 90.9311 48.8322 91.4842 48.5912 92.0417C48.5419 92.1559 48.6185 92.2832 48.761 92.3227V92.3183Z" fill="#C8C8C8"/>
<path d="M256.289 93.5266H233.543V92.9125C233.543 89.6332 231.56 86.9741 229.114 86.9741H212.019C209.574 86.9741 207.591 89.6332 207.591 92.9125V124.846C207.591 127.898 209.437 130.373 211.713 130.373H256.284C258.56 130.373 260.405 127.898 260.405 124.846V99.0535C260.405 96.0014 258.56 93.5266 256.284 93.5266H256.289Z" fill="#009B63"/>
<path d="M260.41 123.003V107.221C260.41 103.333 258.565 100.183 256.289 100.183H211.717C209.441 100.183 207.596 103.333 207.596 107.221V123.003H260.41Z" fill="#009B63"/>
<path d="M51.9339 93.5064H27.6763V92.8942C27.6763 89.625 25.5616 86.9741 22.9537 86.9741H4.7226C2.11467 86.9741 0 89.625 0 92.8942V124.729C0 127.772 1.96816 130.239 4.39539 130.239H51.929C54.3562 130.239 56.3244 127.772 56.3244 124.729V99.0163C56.3244 95.9736 54.3562 93.5064 51.929 93.5064H51.9339Z" fill="#3E4FE0"/>
<path d="M56.3293 121.258V107.152C56.3293 103.277 54.3612 100.137 51.9339 100.137H4.40032C1.97309 100.137 0.00493622 103.277 0.00493622 107.152V121.258H56.3293Z" fill="#3E4FE0"/>
<rect x="169.747" y="55.4718" width="2.32159" height="0.684834" rx="0.342417" transform="rotate(47.7635 169.747 55.4718)" fill="#E6E6E6"/>
<rect x="172.487" y="58.2109" width="2.32159" height="0.684834" rx="0.342417" transform="rotate(47.7635 172.487 58.2109)" fill="#E6E6E6"/>
<rect x="171.98" y="57.0858" width="2.32159" height="0.684834" rx="0.342417" transform="rotate(-44.0636 171.98 57.0858)" fill="#E6E6E6"/>
<rect x="169.24" y="59.8254" width="2.32159" height="0.684834" rx="0.342417" transform="rotate(-44.0636 169.24 59.8254)" fill="#E6E6E6"/>
<rect x="25.9323" y="34.9264" width="2.32159" height="0.684834" rx="0.342417" transform="rotate(47.7635 25.9323 34.9264)" fill="#E6E6E6"/>
<rect x="28.6716" y="37.6659" width="2.32159" height="0.684834" rx="0.342417" transform="rotate(47.7635 28.6716 37.6659)" fill="#E6E6E6"/>
<rect x="28.1647" y="36.5409" width="2.32159" height="0.684834" rx="0.342417" transform="rotate(-44.0636 28.1647 36.5409)" fill="#E6E6E6"/>
<rect x="25.4254" y="39.2804" width="2.32159" height="0.684834" rx="0.342417" transform="rotate(-44.0636 25.4254 39.2804)" fill="#E6E6E6"/>
<circle cx="154.859" cy="67.1138" r="2.28278" stroke="#E6E6E6" stroke-width="0.913112"/>
<path d="M201.128 67.6859C201.091 67.6794 201.063 67.6621 201.044 67.6342C201.024 67.6062 201.018 67.5739 201.024 67.5372L201.43 65.2623C201.436 65.2257 201.453 65.1976 201.481 65.1781C201.509 65.1586 201.542 65.1521 201.578 65.1586C201.615 65.1652 201.643 65.1824 201.662 65.2104C201.682 65.2383 201.688 65.2706 201.682 65.3073L201.277 67.5822C201.27 67.6189 201.253 67.647 201.225 67.6665C201.197 67.686 201.165 67.6925 201.128 67.6859ZM202.029 67.8464C201.994 67.8402 201.966 67.823 201.944 67.7946C201.925 67.7645 201.919 67.7322 201.925 67.6977L202.33 65.4228C202.337 65.3861 202.354 65.358 202.382 65.3385C202.412 65.3194 202.444 65.3129 202.479 65.3191C202.531 65.3283 202.565 65.3566 202.581 65.404L203.285 67.7664L203.175 67.7468L204.632 65.7695C204.666 65.7309 204.707 65.7161 204.757 65.7249C204.792 65.7311 204.819 65.7481 204.838 65.7761C204.858 65.804 204.864 65.8364 204.857 65.873L204.452 68.1479C204.446 68.1824 204.429 68.2105 204.4 68.2322C204.372 68.2517 204.341 68.2584 204.307 68.2522C204.27 68.2457 204.241 68.2283 204.219 68.1999C204.2 68.1698 204.194 68.1375 204.2 68.103L204.547 66.1549L204.601 66.1679L203.299 67.9492C203.268 67.9859 203.228 67.9999 203.178 67.9911C203.124 67.9814 203.09 67.9486 203.075 67.8926L202.457 65.7992L202.524 65.7946L202.177 67.7427C202.171 67.7772 202.153 67.8051 202.122 67.8263C202.094 67.8458 202.063 67.8525 202.029 67.8464ZM206.208 68.6244C206.034 68.5933 205.876 68.5306 205.734 68.4365C205.595 68.3427 205.478 68.2261 205.383 68.0867C205.29 67.9455 205.225 67.7915 205.188 67.6246C205.151 67.4556 205.149 67.2816 205.181 67.1025C205.212 66.9256 205.273 66.7651 205.363 66.6209C205.456 66.4749 205.57 66.3528 205.706 66.2545C205.843 66.1566 205.994 66.0877 206.157 66.0477C206.322 66.006 206.493 66.0009 206.67 66.0324C206.826 66.0601 206.963 66.1079 207.082 66.1759C207.201 66.2438 207.311 66.338 207.412 66.4584C207.429 66.4769 207.437 66.4972 207.435 66.5192C207.436 66.5393 207.43 66.5584 207.418 66.5763C207.406 66.592 207.391 66.6026 207.372 66.6082C207.365 66.6247 207.352 66.6357 207.333 66.6412C207.314 66.6468 207.293 66.6464 207.27 66.64C207.249 66.634 207.229 66.6204 207.21 66.5993C207.139 66.511 207.057 66.4407 206.964 66.3885C206.871 66.3342 206.759 66.2953 206.628 66.2718C206.487 66.2469 206.351 66.2515 206.218 66.2856C206.087 66.3202 205.967 66.3778 205.856 66.4583C205.746 66.5389 205.653 66.638 205.576 66.7557C205.502 66.8737 205.452 67.0039 205.427 67.1463C205.401 67.293 205.402 67.4346 205.431 67.5711C205.462 67.708 205.516 67.8333 205.591 67.9469C205.667 68.0605 205.76 68.1561 205.871 68.2337C205.984 68.3095 206.111 68.36 206.251 68.3849C206.37 68.4061 206.485 68.4066 206.598 68.3866C206.711 68.3666 206.821 68.3284 206.929 68.272C206.959 68.255 206.987 68.2512 207.014 68.2605C207.044 68.2702 207.067 68.2878 207.085 68.3132C207.103 68.3386 207.109 68.3686 207.103 68.4031C207.099 68.4203 207.094 68.4361 207.087 68.4505C207.081 68.4626 207.069 68.4749 207.051 68.4873C206.923 68.5691 206.787 68.6195 206.643 68.6384C206.5 68.6552 206.355 68.6505 206.208 68.6244ZM207.103 68.4031L206.866 68.3075L206.982 67.6571L206.477 67.5671C206.44 67.5606 206.412 67.5444 206.392 67.5186C206.372 67.4928 206.365 67.4637 206.371 67.4314C206.377 67.399 206.393 67.3752 206.42 67.3601C206.448 67.3427 206.48 67.3373 206.517 67.3438L207.141 67.4551C207.178 67.4616 207.206 67.4789 207.225 67.5068C207.245 67.5326 207.252 67.5639 207.246 67.6006L207.103 68.4031Z" fill="white"/>
<path d="M58.078 54.3172C58.0371 54.3342 57.9979 54.335 57.9603 54.3195C57.9228 54.3041 57.8955 54.2759 57.8785 54.2349L56.821 51.6954C56.8039 51.6544 56.8032 51.6152 56.8186 51.5777C56.8341 51.5402 56.8623 51.5129 56.9032 51.4958C56.9442 51.4788 56.9834 51.478 57.0209 51.4935C57.0584 51.5089 57.0857 51.5371 57.1028 51.5781L58.1603 54.1176C58.1773 54.1585 58.1781 54.1978 58.1626 54.2353C58.1472 54.2728 58.119 54.3001 58.078 54.3172ZM59.0835 53.8985C59.0449 53.9145 59.0057 53.9153 58.9658 53.9009C58.9272 53.883 58.9 53.8548 58.8839 53.8163L57.8264 51.2767C57.8094 51.2358 57.8086 51.1965 57.824 51.159C57.8419 51.1205 57.8701 51.0932 57.9086 51.0772C57.9664 51.0531 58.0186 51.0596 58.0651 51.0968L60.2904 53.0102L60.1676 53.0613L60.3554 50.1431C60.3643 50.0829 60.3964 50.0412 60.4518 50.0182C60.4903 50.0021 60.5283 50.0018 60.5659 50.0173C60.6034 50.0328 60.6307 50.061 60.6477 50.1019L61.7052 52.6414C61.7213 52.68 61.7221 52.7192 61.7076 52.7591C61.6921 52.7967 61.6652 52.8234 61.6266 52.8395C61.5857 52.8565 61.5452 52.8578 61.5053 52.8434C61.4668 52.8255 61.4395 52.7973 61.4235 52.7588L60.5179 50.5841L60.5808 50.5621L60.4222 53.1842C60.4148 53.241 60.3834 53.2809 60.328 53.304C60.2678 53.329 60.2124 53.3182 60.1618 53.2714L58.1954 51.5724L58.2601 51.5242L59.1657 53.6989C59.1817 53.7375 59.1813 53.7772 59.1644 53.8181C59.149 53.8557 59.122 53.8824 59.0835 53.8985ZM63.771 51.9889C63.5759 52.0702 63.3774 52.109 63.1753 52.1056C62.9756 52.1011 62.7832 52.0598 62.598 51.9815C62.4142 51.8997 62.25 51.7872 62.1056 51.6439C61.9601 51.4982 61.8458 51.3254 61.7625 51.1255C61.6803 50.928 61.638 50.728 61.6357 50.5256C61.6347 50.3197 61.6705 50.1239 61.7429 49.9383C61.8178 49.7517 61.924 49.586 62.0615 49.4411C62.2004 49.2928 62.3686 49.1776 62.5661 49.0954C62.7395 49.0232 62.9078 48.9828 63.0709 48.9742C63.2341 48.9656 63.4049 48.9891 63.5835 49.0447C63.6122 49.0525 63.6328 49.068 63.6452 49.0911C63.659 49.1108 63.6657 49.1334 63.6651 49.1591C63.6634 49.1824 63.655 49.2029 63.6398 49.2205C63.643 49.2418 63.6369 49.2613 63.6217 49.2789C63.6064 49.2966 63.5851 49.3097 63.5576 49.3183C63.5325 49.3259 63.5039 49.3251 63.4718 49.3159C63.3438 49.2731 63.2163 49.2555 63.0895 49.2631C62.9617 49.2683 62.8243 49.3015 62.6774 49.3627C62.5209 49.4279 62.387 49.5204 62.2758 49.6401C62.167 49.7589 62.0834 49.894 62.025 50.0455C61.9665 50.197 61.9368 50.3564 61.9358 50.5235C61.9371 50.6897 61.9709 50.8522 62.0371 51.0112C62.1053 51.1749 62.1979 51.3158 62.3148 51.4339C62.4342 51.5509 62.5682 51.642 62.7169 51.7073C62.8656 51.7725 63.0204 51.8084 63.1814 51.8148C63.3437 51.8179 63.5031 51.7868 63.6597 51.7216C63.7921 51.6665 63.9083 51.5926 64.0083 51.5001C64.1083 51.4077 64.1942 51.2984 64.266 51.1724C64.2849 51.1363 64.311 51.1141 64.3443 51.1059C64.38 51.0967 64.4149 51.0991 64.4491 51.1131C64.4832 51.1272 64.5083 51.1535 64.5243 51.192C64.5323 51.2113 64.5374 51.2304 64.5396 51.2492C64.5408 51.2657 64.5365 51.2858 64.5267 51.3097C64.451 51.4741 64.3473 51.6119 64.2156 51.7232C64.083 51.8322 63.9348 51.9207 63.771 51.9889ZM64.5243 51.192L64.2257 51.2485L63.9233 50.5224L63.3598 50.7571C63.3188 50.7742 63.2801 50.7762 63.2436 50.7631C63.2071 50.7501 63.1813 50.7255 63.1663 50.6893C63.1512 50.6532 63.1524 50.6188 63.1699 50.5861C63.1863 50.551 63.215 50.5249 63.256 50.5079L63.9532 50.2175C63.9941 50.2005 64.0334 50.1997 64.0709 50.2151C64.1074 50.2282 64.1342 50.2552 64.1512 50.2961L64.5243 51.192Z" fill="white"/>
<path d="M129.508 15.2813L125.348 32.0133C125.203 32.5962 124.664 32.9521 124.152 32.825L107.276 28.6292C106.765 28.5022 106.454 27.935 106.599 27.352L112.253 4.6085C112.359 4.18279 112.752 3.92602 113.122 4.01787L125.627 7.12673L124.133 13.1341C124.029 13.5533 124.269 13.9787 124.676 14.08L129.508 15.2813Z" fill="white" stroke="#CECECE" stroke-width="0.127268"/>
<path d="M125.723 7.26759L129.47 15.1402L124.707 13.956C124.373 13.873 124.168 13.5204 124.257 13.1641L125.723 7.26759Z" fill="#F1F1F1" stroke="#CECECE" stroke-width="0.127268"/>
<path d="M107.352 18.3579L108.771 12.6533L118.942 15.1819C119.234 15.2545 119.414 15.5464 119.35 15.8386L119.346 15.8541L118.061 21.0203C117.988 21.3176 117.687 21.4987 117.389 21.4248L107.757 19.03C107.46 18.9561 107.279 18.6552 107.352 18.3579Z" fill="#F44769" stroke="#CECECE" stroke-width="0.127268"/>
<path d="M112.134 15.8141C112.106 15.6841 112.052 15.5734 111.975 15.4853C111.897 15.3978 111.792 15.3248 111.662 15.2683C111.57 15.2271 111.433 15.1833 111.253 15.1386L110.204 14.8778L109.518 17.6377L109.938 17.7424L110.211 16.6465L110.87 16.8104C111.259 16.9071 111.554 16.8916 111.746 16.7643C111.938 16.6377 112.065 16.4537 112.124 16.2172C112.158 16.0792 112.161 15.9436 112.134 15.8141ZM110.971 16.4293L110.306 16.2641L110.53 15.3648L111.187 15.5283C111.345 15.5676 111.452 15.6024 111.506 15.6318C111.585 15.6766 111.643 15.7432 111.677 15.8299C111.711 15.9176 111.715 16.0153 111.689 16.1207C111.652 16.2683 111.581 16.3679 111.47 16.4255C111.36 16.4832 111.192 16.4844 110.971 16.4293Z" fill="white"/>
<path d="M114.645 16.4384C114.617 16.3084 114.564 16.1977 114.486 16.1095C114.409 16.0222 114.304 15.9491 114.174 15.8926C114.082 15.8514 113.944 15.8076 113.764 15.7629L112.715 15.5021L112.029 18.262L112.45 18.3667L112.723 17.2707L113.382 17.4347C113.771 17.5313 114.065 17.5159 114.258 17.3886C114.45 17.262 114.576 17.0779 114.635 16.8414C114.67 16.7035 114.673 16.5681 114.645 16.4384ZM113.483 17.0537L112.818 16.8884L113.041 15.9891L113.699 16.1525C113.857 16.1919 113.964 16.2267 114.017 16.2561C114.097 16.3008 114.154 16.3675 114.188 16.4542C114.223 16.5419 114.227 16.6396 114.2 16.745C114.164 16.8925 114.092 16.9922 113.982 17.0498C113.872 17.1074 113.704 17.1087 113.483 17.0537Z" fill="white"/>
<path d="M117.226 16.6234L117.131 17.0058L116.239 16.7841L115.648 19.1617L115.227 19.057L115.818 16.6795L114.93 16.4587L115.025 16.0763L117.226 16.6234Z" fill="white"/>
<path d="M108.888 12.5517L110.369 11.6611L110.074 12.8465L108.888 12.5517Z" fill="#F44769" stroke="#CECECE" stroke-width="0.127268"/>
<rect x="121.233" y="16.0665" width="5.21797" height="0.509071" rx="0.254535" transform="rotate(13.9613 121.233 16.0665)" fill="#F1F1F1"/>
<rect x="120.619" y="18.5365" width="5.21797" height="0.509071" rx="0.254535" transform="rotate(13.9613 120.619 18.5365)" fill="#F1F1F1"/>
<rect x="120.005" y="21.0071" width="5.21797" height="0.509071" rx="0.254535" transform="rotate(13.9613 120.005 21.0071)" fill="#F1F1F1"/>
<rect width="14.2714" height="0.509071" rx="0.254535" transform="matrix(0.970546 0.240915 -0.240966 0.970533 110.62 21.3024)" fill="#F1F1F1"/>
<rect width="14.2714" height="0.509071" rx="0.254535" transform="matrix(0.970553 0.24089 -0.240986 0.970528 110.111 23.8044)" fill="#F1F1F1"/>
<rect width="14.2714" height="0.509071" rx="0.254535" transform="matrix(0.970553 0.24089 -0.240986 0.970528 109.496 26.2799)" fill="#F44769"/>
<path d="M114.472 32.58L113.132 59.7649C113.085 60.712 112.358 61.4278 111.527 61.3868L84.1072 60.0353C83.2769 59.9944 82.6229 59.2105 82.6696 58.2634L84.491 21.3114C84.5251 20.6197 85.0555 20.1021 85.6557 20.1317L105.973 21.1332L105.492 30.8935C105.458 31.5745 105.959 32.1604 106.621 32.193L114.472 32.58Z" fill="white" stroke="#CECECE" stroke-width="0.20091"/>
<path d="M106.165 21.3225L114.37 32.3735L106.631 31.992C106.089 31.9653 105.664 31.4816 105.692 30.9027L106.165 21.3225Z" fill="#F1F1F1" stroke="#CECECE" stroke-width="0.20091"/>
<path d="M81.0936 44.1042L81.5505 34.8356L98.0756 35.6502C98.5503 35.6735 98.918 36.0707 98.9079 36.5428L98.9067 36.5681L98.493 44.9618C98.4692 45.4448 98.0583 45.817 97.5753 45.7932L81.9251 45.0218C81.4421 44.998 81.0698 44.5872 81.0936 44.1042Z" fill="#DE1F1C" stroke="#CECECE" stroke-width="0.20091"/>
<path d="M81.7019 34.6418L83.7231 32.8108L83.6282 34.7367L81.7019 34.6418Z" fill="#D32D20" stroke="#CECECE" stroke-width="0.20091"/>
<path d="M87.1835 38.289L87.1836 38.2891C87.3151 38.3899 87.4217 38.5303 87.4988 38.7096C87.575 38.8869 87.6087 39.0826 87.5984 39.2923C87.5806 39.6531 87.4496 39.9526 87.2106 40.1883L87.2105 40.1883C86.9819 40.4139 86.5663 40.5287 85.9433 40.498L84.8723 40.4452L84.772 40.4403L84.7671 40.5406L84.6842 42.2208L84.2007 42.197L84.4118 37.9139L86.0158 37.9929C86.3063 38.0073 86.5257 38.0324 86.6715 38.0662L86.6715 38.0662L86.6728 38.0665C86.8807 38.1118 87.0517 38.1876 87.1835 38.289ZM84.975 38.3632L84.8746 38.3583L86.8133 39.8976C86.8133 39.8976 86.8134 39.8976 86.8134 39.8975C86.9943 39.7528 87.0836 39.547 87.0965 39.2857C87.1058 39.0967 87.066 38.9253 86.9731 38.7801C86.8819 38.6367 86.7537 38.5362 86.5943 38.4837L86.5943 38.4837L86.5937 38.4834C86.4882 38.4495 86.2985 38.4285 86.0427 38.4159L84.975 38.3632Z" fill="white" stroke="white" stroke-width="0.20091"/>
<path d="M90.7465 38.19C91.0012 38.2619 91.2196 38.3822 91.3946 38.5475C91.6214 38.7589 91.7883 39.0267 91.8902 39.3433L90.7465 38.19ZM90.7465 38.19C90.5663 38.1385 90.3011 38.1038 89.9579 38.0869L88.4976 38.015L90.7465 38.19ZM91.3261 38.6209C91.5395 38.8198 91.6975 39.0726 91.7946 39.374C91.8913 39.6745 91.9317 40.0218 91.9127 40.4067C91.8965 40.7353 91.843 41.0257 91.7554 41.2714C91.6663 41.5212 91.5572 41.7252 91.4328 41.8805L91.4328 41.8806C91.3057 42.0394 91.1692 42.1618 91.0273 42.2468L91.0272 42.2469C90.8856 42.3319 90.7117 42.3959 90.5094 42.4347L90.5092 42.4347C90.3093 42.4734 90.0756 42.4868 89.8136 42.4739L88.2816 42.3984L88.4927 38.1153L89.953 38.1873C90.2937 38.2041 90.5498 38.2383 90.719 38.2866L90.7193 38.2867C90.9599 38.3546 91.1636 38.4674 91.3256 38.6205L91.3256 38.6205L91.3261 38.6209ZM89.0555 38.5646L88.9552 38.5597L88.9503 38.66L88.7905 41.9013L88.7855 42.0016L88.8859 42.0066L89.7685 42.0501C90.0547 42.0642 90.2917 42.0496 90.4675 42.0014L90.4676 42.0014C90.6368 41.9548 90.781 41.8827 90.8911 41.7829C91.0427 41.6455 91.163 41.4565 91.252 41.2264C91.3429 40.9912 91.3955 40.7033 91.4118 40.373C91.4342 39.9184 91.378 39.5475 91.2326 39.2804L91.2325 39.2803C91.0926 39.0242 90.9101 38.8381 90.6863 38.738L90.6858 38.7379C90.522 38.6655 90.2614 38.6241 89.9235 38.6074L89.0555 38.5646Z" fill="white" stroke="white" stroke-width="0.20091"/>
<path d="M93.504 38.7832L93.4037 38.7782L93.3987 38.8785L93.337 40.1304L93.3321 40.2308L93.4324 40.2357L95.3872 40.3321L95.3665 40.7527L93.4117 40.6563L93.3113 40.6514L93.3064 40.7517L93.2133 42.6408L92.7297 42.6169L92.9408 38.3338L95.7994 38.4747L95.7787 38.8953L93.504 38.7832Z" fill="white" stroke="white" stroke-width="0.20091"/>
<rect x="101.209" y="37.005" width="8.23733" height="0.803642" rx="0.401821" transform="rotate(2.82183 101.209 37.005)" fill="#F1F1F1"/>
<rect x="101.011" y="41.0186" width="8.23733" height="0.803642" rx="0.401821" transform="rotate(2.82183 101.011 41.0186)" fill="#F1F1F1"/>
<rect x="100.813" y="45.0314" width="8.23733" height="0.803642" rx="0.401821" transform="rotate(2.82183 100.813 45.0314)" fill="#F1F1F1"/>
<rect width="22.5294" height="0.803642" rx="0.401821" transform="matrix(0.998805 0.0488678 -0.048921 0.998803 86.3679 48.3514)" fill="#F1F1F1"/>
<rect width="22.5294" height="0.803642" rx="0.401821" transform="matrix(0.998807 0.0488421 -0.0489416 0.998802 86.3427 52.3823)" fill="#F1F1F1"/>
<rect width="22.5294" height="0.803642" rx="0.401821" transform="matrix(0.998807 0.0488421 -0.0489416 0.998802 86.1445 56.4041)" fill="#DE1F1C"/>
<path d="M184.396 16.3744L188.597 38.7752C188.743 39.5556 188.29 40.2802 187.606 40.4086L165.011 44.6463C164.327 44.7746 163.642 44.2635 163.496 43.4831L157.785 13.0341C157.678 12.4642 158.009 11.9394 158.504 11.8466L175.245 8.70666L176.754 16.7493C176.859 17.3105 177.381 17.6901 177.926 17.5878L184.396 16.3744Z" fill="white" stroke="#CECECE" stroke-width="0.168235"/>
<path d="M175.438 8.82443L184.272 16.2271L177.895 17.4231C177.449 17.5069 177.009 17.1957 176.919 16.7186L175.438 8.82443Z" fill="#F1F1F1" stroke="#CECECE" stroke-width="0.168235"/>
<path d="M159.455 32.2582L158.023 24.6208L171.64 22.0668C172.031 21.9935 172.408 22.2453 172.492 22.6318L172.495 22.6526L173.793 29.5691C173.867 29.9671 173.605 30.3502 173.207 30.4249L160.311 32.8436C159.913 32.9183 159.53 32.6562 159.455 32.2582Z" fill="#3E4FE0" stroke="#CECECE" stroke-width="0.168235"/>
<path d="M163.379 27.0197C163.234 26.7817 163.046 26.5961 162.821 26.468C162.646 26.3676 162.445 26.312 162.223 26.3031C162.066 26.296 161.843 26.3194 161.561 26.3724L160.275 26.6136L160.968 30.3086L162.313 30.0563C162.533 30.0149 162.728 29.9564 162.891 29.8829C163.056 29.8087 163.193 29.7175 163.3 29.6125C163.408 29.5075 163.501 29.3722 163.577 29.2107C163.652 29.0498 163.703 28.8526 163.728 28.6251C163.753 28.3983 163.739 28.1426 163.687 27.8656C163.626 27.5404 163.522 27.2558 163.379 27.0197ZM160.934 27.0199L161.649 26.8857C161.927 26.8337 162.134 26.8198 162.265 26.8439C162.445 26.8776 162.614 26.9815 162.769 27.1528C162.924 27.3252 163.038 27.5993 163.107 27.9669C163.157 28.2333 163.169 28.4686 163.143 28.666C163.116 28.8615 163.058 29.0252 162.971 29.1536C162.91 29.2429 162.818 29.3215 162.697 29.3878C162.575 29.4547 162.395 29.511 162.163 29.5546L161.435 29.691L160.934 27.0199Z" fill="white"/>
<path d="M167.255 26.1994C167.057 25.9355 166.802 25.7448 166.498 25.6335C166.194 25.5221 165.868 25.4981 165.529 25.5617C165.01 25.659 164.614 25.9151 164.35 26.3229C164.087 26.73 164.011 27.2447 164.125 27.8521C164.186 28.1739 164.315 28.47 164.509 28.7323C164.704 28.9961 164.958 29.1887 165.263 29.3052C165.567 29.4215 165.897 29.4474 166.243 29.3825C166.563 29.3226 166.85 29.1894 167.097 28.9863C167.346 28.7823 167.521 28.5147 167.616 28.191C167.712 27.8694 167.724 27.5179 167.655 27.1468C167.585 26.7757 167.451 26.462 167.255 26.1994ZM167.076 27.253C167.16 27.7041 167.113 28.0776 166.935 28.3627C166.758 28.6468 166.493 28.8238 166.148 28.8886C165.803 28.9533 165.501 28.8838 165.231 28.6858C164.961 28.4871 164.784 28.1727 164.705 27.7511C164.606 27.2225 164.653 26.8195 164.845 26.5531C165.037 26.2857 165.3 26.1195 165.625 26.0586C165.853 26.0157 166.073 26.0351 166.278 26.1162C166.483 26.1975 166.655 26.3362 166.79 26.5286C166.926 26.723 167.022 26.9668 167.076 27.253Z" fill="white"/>
<path d="M171.449 27.081L171.446 27.1249C171.419 27.5435 171.291 27.8883 171.064 28.1493C170.837 28.4104 170.527 28.5793 170.143 28.6513C169.759 28.7234 169.404 28.7049 169.124 28.5893C168.844 28.4739 168.607 28.272 168.419 27.9895C168.233 27.7094 168.106 27.3904 168.04 27.0417C167.969 26.6606 167.98 26.3091 168.072 25.9972C168.166 25.6834 168.336 25.4228 168.58 25.2234C168.823 25.0247 169.11 24.893 169.434 24.8322C169.803 24.763 170.136 24.7994 170.424 24.9407C170.712 25.0821 170.94 25.3171 171.104 25.6392L171.124 25.6804L170.596 25.9143L170.577 25.8787C170.449 25.6412 170.296 25.4774 170.124 25.3919C169.952 25.3066 169.748 25.2855 169.517 25.3288C169.25 25.3788 169.037 25.4854 168.882 25.6458C168.728 25.8062 168.634 26.0029 168.602 26.2307C168.569 26.4631 168.575 26.6983 168.618 26.9306C168.675 27.2306 168.769 27.4876 168.897 27.6941C169.024 27.8969 169.189 28.0372 169.389 28.1113C169.59 28.1858 169.799 28.2039 170.01 28.1643C170.266 28.1163 170.472 28.0006 170.621 27.8203C170.77 27.64 170.85 27.3941 170.859 27.0896L170.86 27.0443L171.449 27.081Z" fill="white"/>
<path d="M158.109 24.4345L159.398 22.5497L159.696 24.1368L158.109 24.4345Z" fill="#3E4FE0" stroke="#CECECE" stroke-width="0.168235"/>
<rect x="174.88" y="21.8698" width="6.89765" height="0.672942" rx="0.336471" transform="rotate(-10.6228 174.88 21.8698)" fill="#F1F1F1"/>
<rect x="175.501" y="25.1769" width="6.89765" height="0.672942" rx="0.336471" transform="rotate(-10.6228 175.501 25.1769)" fill="#F1F1F1"/>
<rect x="176.121" y="28.4835" width="6.89765" height="0.672942" rx="0.336471" transform="rotate(-10.6228 176.121 28.4835)" fill="#F1F1F1"/>
<rect width="18.8653" height="0.672942" rx="0.336471" transform="matrix(0.982795 -0.184699 0.184646 0.982805 165.002 34.0001)" fill="#F1F1F1"/>
<rect width="18.8653" height="0.672942" rx="0.336471" transform="matrix(0.98279 -0.184724 0.184626 0.982809 165.766 37.2874)" fill="#F1F1F1"/>
<rect width="18.8653" height="0.672942" rx="0.336471" transform="matrix(0.98279 -0.184724 0.184626 0.982809 166.388 40.6017)" fill="#3E4FE0"/>
<path d="M246.254 66.4286L237.274 82.3915C236.961 82.9477 236.308 83.1598 235.82 82.8855L219.72 73.8281C219.232 73.5538 219.074 72.8853 219.387 72.3292L231.593 50.631C231.821 50.2249 232.296 50.0727 232.649 50.271L244.579 56.9822L241.355 62.7134C241.13 63.1133 241.255 63.6167 241.644 63.8352L246.254 66.4286Z" fill="white" stroke="#CECECE" stroke-width="0.135196"/>
<path d="M244.637 57.1544L246.254 66.2742L241.71 63.7178C241.392 63.5387 241.282 63.1198 241.473 62.7799L244.637 57.1544Z" fill="#F1F1F1" stroke="#CECECE" stroke-width="0.135196"/>
<path d="M222.695 63.331L225.757 57.8886L235.46 63.3472C235.739 63.504 235.841 63.8536 235.693 64.1348L235.685 64.1496L232.912 69.0784C232.753 69.362 232.393 69.4626 232.11 69.303L222.92 64.1334C222.636 63.9739 222.536 63.6147 222.695 63.331Z" fill="#14B7A7" stroke="#CECECE" stroke-width="0.135196"/>
<path d="M227.453 64.4878L226.957 64.2086L226.824 62.9087C226.818 62.852 226.814 62.7915 226.811 62.7284C226.726 62.7749 226.665 62.8075 226.627 62.8258L225.46 63.3668L224.975 63.0938L226.764 62.295L226.575 60.5276L227.056 60.798L227.153 61.7382C227.17 61.8946 227.179 62.0211 227.182 62.1152C227.279 62.0631 227.387 62.0122 227.502 61.9632L228.419 61.5649L228.866 61.8161L227.24 62.538L227.453 64.4878Z" fill="white"/>
<path d="M229.523 65.172L229.317 65.5368L227.649 64.5984L229.13 61.9653L229.532 62.1912L228.256 64.4595L229.523 65.172Z" fill="white"/>
<path d="M232.08 66.0937C232 66.2359 231.882 66.3485 231.73 66.4285C231.579 66.5081 231.405 66.5406 231.214 66.5246C231.026 66.5091 230.835 66.4477 230.648 66.3423C230.412 66.2097 230.231 66.0617 230.109 65.9022C229.987 65.7411 229.917 65.5618 229.904 65.369C229.891 65.1768 229.932 64.9882 230.027 64.8085L230.043 64.7793L230.44 64.9596L230.427 64.991C230.373 65.1224 230.349 65.2436 230.358 65.351C230.367 65.4574 230.413 65.5674 230.497 65.6781C230.582 65.7905 230.697 65.8876 230.838 65.9671C230.964 66.0375 231.086 66.0817 231.202 66.0984C231.316 66.1148 231.414 66.1043 231.494 66.0673C231.573 66.0308 231.634 65.9754 231.674 65.9029C231.715 65.8303 231.731 65.7538 231.719 65.6743C231.707 65.5948 231.661 65.5058 231.581 65.4097C231.528 65.3454 231.399 65.2178 231.196 65.03C230.988 64.8366 230.853 64.6906 230.785 64.5834C230.695 64.4456 230.646 64.3073 230.639 64.1723C230.632 64.0372 230.664 63.9059 230.734 63.7825C230.81 63.6472 230.921 63.5409 231.063 63.4665C231.206 63.3922 231.37 63.3656 231.551 63.3874C231.729 63.409 231.909 63.4703 232.085 63.5695C232.279 63.6786 232.435 63.8079 232.548 63.9543C232.663 64.1026 232.728 64.2638 232.739 64.4335C232.751 64.6025 232.715 64.769 232.634 64.9284L232.618 64.9584L232.217 64.7707L232.23 64.7394C232.3 64.5766 232.309 64.4279 232.259 64.2975C232.207 64.1658 232.086 64.0453 231.896 63.9387C231.707 63.8322 231.533 63.7817 231.406 63.8027C231.279 63.8237 231.191 63.8811 231.136 63.9786C231.088 64.0626 231.08 64.1464 231.11 64.2342C231.14 64.3248 231.275 64.4786 231.51 64.6916C231.752 64.9103 231.914 65.075 231.992 65.181C232.107 65.3391 232.171 65.4959 232.183 65.6478C232.195 65.8003 232.16 65.9502 232.08 66.0937Z" fill="white"/>
<path d="M225.906 57.8178L227.673 57.3231L227.037 58.4541L225.906 57.8178Z" fill="#14B7A7" stroke="#CECECE" stroke-width="0.135196"/>
<rect x="237.557" y="64.8992" width="5.54302" height="0.540782" rx="0.270391" transform="rotate(29.3594 237.557 64.8992)" fill="#F1F1F1"/>
<rect x="236.232" y="67.2554" width="5.54302" height="0.540782" rx="0.270391" transform="rotate(29.3594 236.232 67.2554)" fill="#F1F1F1"/>
<rect x="234.906" y="69.6121" width="5.54302" height="0.540782" rx="0.270391" transform="rotate(29.3594 234.906 69.6121)" fill="#F1F1F1"/>
<rect width="15.1604" height="0.540782" rx="0.270391" transform="matrix(0.87174 0.489969 -0.490016 0.871714 225.211 67.2681)" fill="#F1F1F1"/>
<rect width="15.1604" height="0.540782" rx="0.270391" transform="matrix(0.871752 0.489947 -0.490034 0.871704 223.984 69.6866)" fill="#F1F1F1"/>
<rect width="15.1604" height="0.540782" rx="0.270391" transform="matrix(0.871752 0.489947 -0.490034 0.871704 222.656 72.0487)" fill="#14B7A7"/>
<path d="M208.226 59.564L206.167 71.8815C206.096 72.3106 205.726 72.5981 205.35 72.5352L192.926 70.4585C192.55 70.3957 192.293 70.0036 192.365 69.5745L195.164 52.8314C195.216 52.5181 195.485 52.3104 195.757 52.3559L204.963 53.8946L204.224 58.317C204.172 58.6256 204.369 58.9193 204.669 58.9694L208.226 59.564Z" fill="white" stroke="#CECECE" stroke-width="0.0921838"/>
<path d="M205.04 53.9913L208.191 59.4647L204.684 58.8785C204.439 58.8375 204.271 58.5944 204.315 58.3321L205.04 53.9913Z" fill="#F1F1F1" stroke="#CECECE" stroke-width="0.0921838"/>
<path d="M192.401 63.0373L193.103 58.8377L200.59 60.0892C200.805 60.1252 200.952 60.3258 200.922 60.5404L200.92 60.5519L200.285 64.355C200.248 64.5739 200.041 64.7216 199.822 64.6851L192.731 63.4998C192.512 63.4632 192.364 63.2562 192.401 63.0373Z" fill="#B15ED2" stroke="#CECECE" stroke-width="0.0921838"/>
<path d="M193.182 58.7578L194.201 58.0311L194.055 58.9037L193.182 58.7578Z" fill="#B15ED2" stroke="#CECECE" stroke-width="0.0921838"/>
<rect x="202.295" y="60.5988" width="3.77953" height="0.368735" rx="0.184368" transform="rotate(9.48905 202.295 60.5988)" fill="#F1F1F1"/>
<rect x="201.991" y="62.4169" width="3.77953" height="0.368735" rx="0.184368" transform="rotate(9.48905 201.991 62.4169)" fill="#F1F1F1"/>
<rect x="201.687" y="64.2354" width="3.77953" height="0.368735" rx="0.184368" transform="rotate(9.48905 201.687 64.2354)" fill="#F1F1F1"/>
<rect width="10.3372" height="0.368735" rx="0.184368" transform="matrix(0.986377 0.164501 -0.164554 0.986368 194.927 64.9785)" fill="#F1F1F1"/>
<rect width="10.3372" height="0.368735" rx="0.184368" transform="matrix(0.986381 0.164476 -0.164574 0.986365 194.701 66.8142)" fill="#F1F1F1"/>
<rect width="10.3372" height="0.368735" rx="0.184368" transform="matrix(0.986381 0.164476 -0.164574 0.986365 194.396 68.6364)" fill="#B15ED2"/>
<path d="M194.208 62.6624L194.555 60.5854L194.797 60.6257L194.45 62.7027L194.208 62.6624ZM195.934 62.9509L195.544 60.996L195.533 60.9941C195.53 61.0335 195.525 61.0814 195.519 61.1378C195.512 61.1941 195.504 61.2556 195.495 61.3222C195.486 61.3879 195.476 61.4548 195.465 61.523L195.245 62.8357L195.021 62.7982L195.368 60.7212L195.726 60.781L196.095 62.6185L196.105 62.6202L197.061 61.0042L197.416 61.0636L197.069 63.1406L196.831 63.1007L197.053 61.771C197.063 61.7094 197.074 61.648 197.087 61.5868C197.099 61.5246 197.111 61.4663 197.123 61.4118C197.135 61.3564 197.146 61.3086 197.156 61.2683L197.145 61.2664L196.132 62.9839L195.934 62.9509ZM198.707 62.2958L199.433 62.4171L199.265 63.4244C199.15 63.4431 199.033 63.4518 198.915 63.4505C198.797 63.4493 198.667 63.4369 198.525 63.4131C198.309 63.377 198.134 63.3035 198 63.1924C197.866 63.0816 197.775 62.9401 197.724 62.7682C197.675 62.5953 197.668 62.399 197.705 62.1793C197.741 61.9643 197.814 61.7838 197.925 61.6378C198.037 61.492 198.18 61.3885 198.355 61.3271C198.531 61.265 198.732 61.2528 198.957 61.2905C199.073 61.3098 199.18 61.339 199.28 61.378C199.381 61.4162 199.472 61.4622 199.555 61.5159L199.427 61.7108C199.356 61.6648 199.276 61.6222 199.187 61.583C199.099 61.544 199.006 61.5162 198.908 61.4998C198.738 61.4714 198.587 61.4822 198.454 61.532C198.322 61.582 198.213 61.6655 198.127 61.7826C198.042 61.8999 197.985 62.0461 197.956 62.2213C197.927 62.3946 197.93 62.5504 197.964 62.6885C197.999 62.8257 198.069 62.9397 198.176 63.0306C198.282 63.1214 198.429 63.1824 198.615 63.2136C198.709 63.2292 198.79 63.2375 198.859 63.2383C198.929 63.2382 198.992 63.2351 199.049 63.2292L199.156 62.5927L198.671 62.5117L198.707 62.2958Z" fill="white"/>
<path d="M57.4981 43.9906L63.4894 57.7476C63.6981 58.2269 63.5139 58.7586 63.0936 58.9416L49.2176 64.9847C48.7974 65.1677 48.2825 64.9405 48.0738 64.4612L39.9299 45.7614C39.7775 45.4114 39.9128 45.0259 40.2166 44.8937L50.4981 40.416L52.6492 45.3552C52.7993 45.6999 53.1902 45.8667 53.5251 45.7208L57.4981 43.9906Z" fill="white" stroke="#CECECE" stroke-width="0.110761"/>
<path d="M50.6395 40.4627L57.3974 43.9136L53.4811 45.6192C53.2068 45.7387 52.8785 45.6037 52.7509 45.3108L50.6395 40.4627Z" fill="#F1F1F1" stroke="#CECECE" stroke-width="0.110761"/>
<path d="M43.83 57.8524L41.7873 53.162L50.1499 49.52C50.3901 49.4154 50.669 49.5216 50.7796 49.7573L50.7851 49.7701L52.635 54.0177C52.7415 54.2621 52.6296 54.5466 52.3852 54.653L44.4653 58.1022C44.2208 58.2086 43.9364 58.0968 43.83 57.8524Z" fill="#B15ED2" stroke="#CECECE" stroke-width="0.110761"/>
<path d="M41.8147 53.0296L42.3651 51.6304L42.7895 52.605L41.8147 53.0296Z" fill="#B15ED2" stroke="#CECECE" stroke-width="0.110761"/>
<rect x="52.2002" y="48.917" width="4.5412" height="0.443044" rx="0.221522" transform="rotate(-23.5334 52.2002 48.917)" fill="#F1F1F1"/>
<rect x="53.0847" y="50.9478" width="4.5412" height="0.443044" rx="0.221522" transform="rotate(-23.5334 53.0847 50.9478)" fill="#F1F1F1"/>
<rect x="53.9691" y="52.9789" width="4.5412" height="0.443044" rx="0.221522" transform="rotate(-23.5334 53.9691 52.9789)" fill="#F1F1F1"/>
<rect width="12.4203" height="0.443044" rx="0.221522" transform="matrix(0.916682 -0.399617 0.399568 0.916704 47.6458 58.1542)" fill="#F1F1F1"/>
<rect width="12.4203" height="0.443044" rx="0.221522" transform="matrix(0.916672 -0.39964 0.399549 0.916712 48.6199 60.1515)" fill="#F1F1F1"/>
<rect width="12.4203" height="0.443044" rx="0.221522" transform="matrix(0.916672 -0.39964 0.399549 0.916712 49.5062 62.1868)" fill="#B15ED2"/>
<path d="M44.5319 53.2524C44.8312 53.1221 45.0752 53.0857 45.2639 53.1432C45.4531 53.1992 45.5952 53.3361 45.6901 53.5541C45.7329 53.6524 45.7573 53.7532 45.7632 53.8563C45.7697 53.9579 45.7518 54.0583 45.7093 54.1573C45.6664 54.2553 45.5948 54.3494 45.4944 54.4396C45.3946 54.5284 45.2601 54.6096 45.0909 54.6833L44.8084 54.8063L45.2058 55.7187L44.936 55.8362L43.9258 53.5164L44.5319 53.2524ZM44.6067 53.4936L44.2957 53.629L44.7075 54.5747L44.9598 54.4648C45.1079 54.4003 45.2242 54.3308 45.3088 54.2562C45.3944 54.1812 45.4466 54.0974 45.4655 54.0049C45.4839 53.9113 45.4673 53.8053 45.4157 53.6868C45.3484 53.5323 45.2492 53.439 45.1182 53.4067C44.9866 53.3734 44.8161 53.4024 44.6067 53.4936ZM48.7044 54.195L48.3934 54.3304L46.2803 52.9327L46.2676 52.9382C46.2933 52.9887 46.3228 53.0463 46.3561 53.1111C46.3889 53.1749 46.4227 53.2438 46.4575 53.318C46.4929 53.3907 46.5274 53.4656 46.5611 53.5428L47.1415 54.8757L46.8908 54.9848L45.8806 52.6651L46.19 52.5303L48.2956 53.9238L48.3067 53.919C48.2885 53.8828 48.263 53.8316 48.2304 53.7653C48.1973 53.6979 48.1621 53.6258 48.1248 53.5489C48.0881 53.4705 48.0551 53.3974 48.0256 53.3297L47.4403 51.9858L47.6942 51.8753L48.7044 54.195ZM49.7999 52.272L50.6107 51.9189L51.1006 53.0439C50.9969 53.1381 50.8849 53.2234 50.7647 53.2997C50.6454 53.3755 50.5065 53.448 50.3478 53.5171C50.1066 53.6221 49.882 53.6627 49.674 53.6387C49.4671 53.6143 49.2821 53.5319 49.119 53.3915C48.9555 53.2501 48.8203 53.0566 48.7134 52.8112C48.6088 52.5711 48.5647 52.3412 48.581 52.1214C48.5983 51.9012 48.6749 51.7029 48.8109 51.5267C48.9474 51.349 49.1415 51.2053 49.3933 51.0956C49.5223 51.0394 49.6498 50.9984 49.7757 50.9725C49.9022 50.9451 50.0246 50.9314 50.1429 50.9315L50.1421 51.2112C50.0403 51.2115 49.9318 51.221 49.8166 51.2397C49.7025 51.258 49.5904 51.2911 49.4804 51.339C49.291 51.4214 49.1457 51.5313 49.0444 51.6685C48.9441 51.8053 48.8892 51.9608 48.8794 52.1349C48.8707 52.3086 48.909 52.4932 48.9942 52.6889C49.0785 52.8825 49.1832 53.0376 49.3083 53.1543C49.4329 53.2699 49.5786 53.3386 49.7453 53.3604C49.9121 53.3821 50.0997 53.3476 50.3081 53.2569C50.4128 53.2113 50.5002 53.1663 50.5702 53.1219C50.6398 53.0765 50.7016 53.032 50.7556 52.9884L50.446 52.2775L49.9049 52.5132L49.7999 52.272Z" fill="white"/>
</svg>
