<svg width="73" height="60" viewBox="0 0 73 60" fill="none" xmlns="http://www.w3.org/2000/svg">
<path d="M4.42022 45.7201C6.10609 45.7201 7.47276 44.3451 7.47276 42.6491C7.47276 40.953 6.10609 39.5781 4.42022 39.5781C2.73434 39.5781 1.36768 40.953 1.36768 42.6491C1.36768 44.3451 2.73434 45.7201 4.42022 45.7201Z" fill="#00A0DC"/>
<path d="M4.42029 46.3164C2.41819 46.3164 0.78418 44.6725 0.78418 42.6493C0.78418 40.626 2.41819 38.9912 4.42029 38.9912C6.43138 38.9912 8.05641 40.6351 8.05641 42.6493C8.06539 44.6725 6.43138 46.3164 4.42029 46.3164ZM4.42029 40.1654C3.05563 40.1654 1.95133 41.2854 1.95133 42.6493C1.95133 44.0222 3.06461 45.1331 4.42029 45.1331C5.78496 45.1331 6.88926 44.0131 6.88926 42.6493C6.89824 41.2764 5.78496 40.1654 4.42029 40.1654Z" fill="#888888"/>
<path d="M26.8563 4.5874H11.9797C7.9216 4.5874 4.62665 7.89321 4.62665 11.9848V47.4454C4.62665 51.528 7.91262 54.8429 11.9797 54.8429H33.1948C37.2529 54.8429 40.5479 51.5371 40.5479 47.4454V18.3616L26.8563 4.5874Z" fill="white"/>
<path d="M33.1949 55.4297H11.9798C7.60744 55.4297 4.04315 51.8529 4.04315 47.4451V11.9845C4.05213 7.57677 7.60744 4 11.9798 4H26.8474C27 4 27.1527 4.06323 27.2604 4.17161L40.952 17.9458C41.0597 18.0542 41.1225 18.2077 41.1225 18.3613V47.4451C41.1315 51.8438 37.5762 55.4297 33.1949 55.4297ZM11.9798 5.17419C8.25386 5.17419 5.2103 8.2271 5.2103 11.9845V47.4451C5.2103 51.1935 8.24488 54.2555 11.9798 54.2555H33.1949C36.9208 54.2555 39.9644 51.2026 39.9644 47.4451V18.6052L26.614 5.17419H11.9798Z" fill="#888888"/>
<path d="M26.8563 4.5874L40.5479 18.3616H29.7742C28.1581 18.3616 26.8563 17.0429 26.8563 15.4261V4.5874Z" fill="#DCDDDE"/>
<path d="M40.5479 18.9487H29.7743C27.844 18.9487 26.2728 17.3681 26.2728 15.4261V4.58744C26.2728 4.3526 26.4165 4.13582 26.6319 4.0455C26.8474 3.95518 27.0988 4.00034 27.2694 4.17195L40.934 17.919C41.0597 18.0274 41.1315 18.181 41.1315 18.3616C41.1315 18.6868 40.8712 18.9487 40.5479 18.9487ZM27.44 6.0055V15.4261C27.44 16.7268 28.4904 17.7745 29.7743 17.7745H39.1384L27.44 6.0055Z" fill="#888888"/>
<path d="M4.69851 24.9189C2.88494 24.9189 1.41254 26.4002 1.41254 28.2248V42.0712H1.47538C1.77166 40.5447 3.10041 39.3976 4.69851 39.3976H37.8006V24.9189H4.69851Z" fill="#00A0DC"/>
<path d="M1.4754 42.658H1.41255C1.08934 42.658 0.828979 42.396 0.828979 42.0709V28.2244C0.828979 26.0748 2.56175 24.3315 4.69852 24.3315H37.8006C38.1238 24.3315 38.3842 24.5935 38.3842 24.9186V39.3973C38.3842 39.7225 38.1238 39.9844 37.8006 39.9844H4.69852C3.40568 39.9844 2.2924 40.9148 2.04102 42.1883C1.99613 42.4593 1.75372 42.658 1.4754 42.658ZM4.69852 25.5057C3.20817 25.5057 1.99613 26.7251 1.99613 28.2244V39.9122C2.69642 39.2257 3.65707 38.8012 4.69852 38.8012H37.2171V25.5057H4.69852Z" fill="#888888"/>
<path d="M30.8017 31.3228H29.6692V36.408H28.3924V31.3228H27.6707V30.2902H28.3924V29.8572C28.3924 29.154 28.5774 28.6432 28.9475 28.325C29.325 27.9993 29.9135 27.8364 30.7129 27.8364V28.8912C30.328 28.8912 30.0578 28.9652 29.9024 29.1133C29.7469 29.2539 29.6692 29.5019 29.6692 29.8572V30.2902H30.8017V31.3228Z" fill="white"/>
<path d="M25.9532 29.4794C25.7238 29.4794 25.5313 29.4017 25.3759 29.2463C25.2204 29.0908 25.1427 28.8984 25.1427 28.6689C25.1427 28.4395 25.2204 28.247 25.3759 28.0916C25.5313 27.9361 25.7238 27.8584 25.9532 27.8584C26.1753 27.8584 26.364 27.9361 26.5195 28.0916C26.6749 28.247 26.7526 28.4395 26.7526 28.6689C26.7526 28.8984 26.6749 29.0908 26.5195 29.2463C26.364 29.4017 26.1753 29.4794 25.9532 29.4794ZM26.575 30.29V36.4078H25.3092V30.29H26.575Z" fill="white"/>
<path d="M21.277 35.2758L23.009 30.2905H24.3525L22.0209 36.4083H20.5108L18.1903 30.2905H19.5449L21.277 35.2758Z" fill="white"/>
<path d="M15.8225 34.8313H12.5915L12.0364 36.4079H10.7151L13.4798 28.6802H14.9454L17.71 36.4079H16.3777L15.8225 34.8313ZM15.4672 33.7987L14.2126 30.2124L12.9468 33.7987H15.4672Z" fill="white"/>
<path d="M43.045 44.2036C44.2251 44.2036 45.1817 43.2411 45.1817 42.0539C45.1817 40.8667 44.2251 39.9043 43.045 39.9043C41.8649 39.9043 40.9083 40.8667 40.9083 42.0539C40.9083 43.2411 41.8649 44.2036 43.045 44.2036Z" fill="#00A0DC"/>
<path d="M43.045 44.6207C41.6435 44.6207 40.4998 43.47 40.4998 42.0538C40.4998 40.6375 41.6435 39.4932 43.045 39.4932C44.4527 39.4932 45.5902 40.6438 45.5902 42.0538C45.5902 43.4637 44.4527 44.6207 43.045 44.6207ZM43.045 40.3151C42.0897 40.3151 41.3167 41.0991 41.3167 42.0538C41.3167 43.0084 42.096 43.7924 43.045 43.7924C44.0002 43.7924 44.7732 43.0084 44.7732 42.0538C44.7732 41.0991 44.0002 40.3151 43.045 40.3151Z" fill="#888888"/>
<path d="M58.75 15.4111H48.3365C45.4959 15.4111 43.1895 17.7251 43.1895 20.5892V45.4111C43.1895 48.2689 45.4896 50.5892 48.3365 50.5892H63.1868C66.0274 50.5892 68.3338 48.2752 68.3338 45.4111V25.0529L58.75 15.4111Z" fill="white"/>
<path d="M63.1868 51H48.3365C45.276 51 42.781 48.4963 42.781 45.411V20.589C42.7873 17.5037 45.276 15 48.3365 15H58.7437C58.8505 15 58.9573 15.0443 59.0327 15.1201L68.6166 24.7619C68.692 24.8377 68.736 24.9452 68.736 25.0527V45.411C68.7423 48.49 66.2536 51 63.1868 51ZM48.3365 15.8219C45.7284 15.8219 43.598 17.9589 43.598 20.589V45.411C43.598 48.0348 45.7222 50.1781 48.3365 50.1781H63.1868C65.7949 50.1781 67.9253 48.0411 67.9253 45.411V25.2234L58.5803 15.8219H48.3365Z" fill="#888888"/>
<path d="M58.75 15.4111L68.3339 25.0529H60.7925C59.6613 25.0529 58.75 24.1298 58.75 22.9981V15.4111Z" fill="#DCDDDE"/>
<path d="M68.3339 25.4639H60.7925C59.4413 25.4639 58.3415 24.3575 58.3415 22.9981V15.4112C58.3415 15.2468 58.442 15.0951 58.5929 15.0319C58.7437 14.9686 58.9197 15.0002 59.0391 15.1204L68.6041 24.7431C68.6921 24.819 68.7424 24.9265 68.7424 25.0529C68.7424 25.2805 68.5601 25.4639 68.3339 25.4639ZM59.1585 16.4038V22.9981C59.1585 23.9086 59.8938 24.642 60.7925 24.642H67.3472L59.1585 16.4038Z" fill="#888888"/>
<path d="M43.2398 29.6431C41.9704 29.6431 40.9397 30.6799 40.9397 31.9571V41.6494H40.9837C41.1911 40.5809 42.1212 39.7779 43.2398 39.7779H66.4108V29.6431H43.2398Z" fill="#00A0DC"/>
<path d="M40.9837 42.0602H40.9397C40.7134 42.0602 40.5312 41.8768 40.5312 41.6492V31.9569C40.5312 30.4522 41.7441 29.2319 43.2398 29.2319H66.4108C66.637 29.2319 66.8193 29.4153 66.8193 29.6429V39.7778C66.8193 40.0054 66.637 40.1887 66.4108 40.1887H43.2398C42.3348 40.1887 41.5556 40.8336 41.3796 41.7314C41.3482 41.9211 41.1785 42.0602 40.9837 42.0602ZM43.2398 30.0539C42.1966 30.0539 41.3482 30.9074 41.3482 31.9569V40.1382C41.8384 39.6576 42.5108 39.3605 43.2398 39.3605H66.0023V30.0539H43.2398Z" fill="#888888"/>
<path d="M46.1935 32.197C46.1935 32.0263 46.3318 31.8872 46.4952 31.8872H48.2172C49.4363 31.8872 50.2471 32.5384 50.2471 33.6132V33.6259C50.2471 34.8019 49.273 35.4088 48.1229 35.4088H46.8094V37.059C46.8094 37.2297 46.6712 37.3688 46.5015 37.3688C46.3381 37.3688 46.1998 37.2297 46.1998 37.059V32.197H46.1935ZM48.1417 34.8524C49.0404 34.8524 49.6249 34.3719 49.6249 33.6512V33.6385C49.6249 32.8609 49.0467 32.4562 48.1732 32.4562H46.8031V34.8524H48.1417Z" fill="white"/>
<path d="M51.3594 32.1657C51.3594 32.0013 51.4977 31.8622 51.6611 31.8622H51.7491C51.8873 31.8622 51.9753 31.9318 52.057 32.0393L55.3438 36.2563V32.1467C55.3438 31.9824 55.4758 31.8433 55.6455 31.8433C55.8089 31.8433 55.9408 31.9824 55.9408 32.1467V37.0656C55.9408 37.23 55.8277 37.3564 55.6643 37.3564H55.6329C55.5009 37.3564 55.4067 37.2806 55.3187 37.1668L51.9627 32.8485V37.0656C51.9627 37.23 51.8308 37.3691 51.6611 37.3691C51.4977 37.3691 51.3657 37.23 51.3657 37.0656V32.1657H51.3594Z" fill="white"/>
<path d="M57.2354 34.6249V34.6123C57.2354 33.1202 58.3289 31.7925 59.9503 31.7925C60.7673 31.7925 61.3015 32.0074 61.798 32.3741C61.8671 32.431 61.9237 32.5132 61.9237 32.6207C61.9237 32.7914 61.7854 32.9305 61.622 32.9305C61.5529 32.9305 61.49 32.8989 61.4272 32.8547C61.0375 32.5575 60.6102 32.3552 59.9252 32.3552C58.7248 32.3552 57.8701 33.3731 57.8701 34.587V34.5996C57.8701 35.9021 58.6997 36.8631 60.0132 36.8631C60.629 36.8631 61.2072 36.6228 61.578 36.3194V34.9663H60.1263C59.9817 34.9663 59.8561 34.8399 59.8561 34.6945C59.8561 34.5364 59.9817 34.4163 60.1263 34.4163H61.8671C62.0305 34.4163 62.1688 34.5554 62.1688 34.7261V36.3826C62.1688 36.528 62.0996 36.6608 61.9614 36.7556C61.4649 37.1223 60.7987 37.4195 59.9943 37.4195C58.2849 37.4258 57.2354 36.1803 57.2354 34.6249Z" fill="white"/>
<circle cx="41.9596" cy="9.1001" r="5.3999" fill="#FFE1BE"/>
<circle cx="32.5098" cy="4.51042" r="3.50994" fill="#CCD4FF"/>
<rect x="36.1665" y="41.5" width="16" height="16" rx="8" fill="#3758F9"/>
<g clip-path="url(#clip0_18_2120)">
<path d="M48.3744 50.0638C48.2775 50.0861 48.1757 50.0691 48.0914 50.0164C48.0071 49.9637 47.9471 49.8797 47.9248 49.7828L47.2933 47.0477L45.1897 50.4142C43.8727 52.5217 41.0963 53.1627 38.9888 51.8458C38.9045 51.7931 38.8445 51.709 38.8221 51.6121C38.7998 51.5152 38.8168 51.4134 38.8695 51.3291C38.9222 51.2447 39.0063 51.1848 39.1032 51.1624C39.2001 51.14 39.3019 51.1571 39.3862 51.2098C41.1427 52.3073 43.4561 51.7732 44.5536 50.0168L46.6573 46.6502L43.9222 47.2817C43.826 47.3021 43.7256 47.284 43.6427 47.2312C43.5598 47.1783 43.5009 47.095 43.4788 46.9992C43.4567 46.9034 43.4731 46.8028 43.5245 46.7189C43.5758 46.6351 43.6581 46.5748 43.7535 46.551L47.3707 45.7159C47.4675 45.6936 47.5694 45.7106 47.6537 45.7633C47.738 45.816 47.798 45.9 47.8203 45.9969L48.6554 49.6141C48.6778 49.711 48.6607 49.8128 48.608 49.8971C48.5553 49.9814 48.4713 50.0414 48.3744 50.0638Z" fill="white"/>
</g>
<defs>
<clipPath id="clip0_18_2120">
<rect width="12" height="12" fill="white" transform="translate(52.7021 47.5913) rotate(122)"/>
</clipPath>
</defs>
</svg>
