<svg width="57" height="65" viewBox="0 0 57 65" fill="none" xmlns="http://www.w3.org/2000/svg">
<path d="M8.53184 8.20996H37.6974C40.0021 8.20996 41.9094 10.114 41.9094 12.4149V28.9967H48.267C50.5716 28.9967 52.3994 30.9009 52.3994 33.1223V52.0844C52.3994 54.3851 50.4921 56.21 48.267 56.21H29.353C27.0484 56.21 25.2205 54.3059 25.2205 52.0844V45.7372H8.53184C6.22725 45.7372 4.39941 43.8332 4.39941 41.6116V12.4149C4.39941 10.114 6.22725 8.20996 8.53184 8.20996ZM28.7172 52.0844C28.7172 52.4017 28.9557 52.719 29.353 52.719H48.267C48.5849 52.719 48.9027 52.481 48.9027 52.0844V33.2017C48.9027 32.8844 48.6643 32.567 48.267 32.567H41.9094V41.5322C41.9094 43.8332 40.0021 45.6578 37.7768 45.6578H28.7968V52.0844H28.7172ZM7.89608 41.5322C7.89608 41.8496 8.13453 42.167 8.53184 42.167H25.1411V33.2017C25.1411 30.9009 27.0484 29.0761 29.2735 29.0761H38.3332V12.4149C38.3332 12.0976 38.0947 11.7801 37.6974 11.7801H8.53184C8.21396 11.7801 7.89608 12.0182 7.89608 12.4149V41.5322Z" fill="#3758F9"/>
<path d="M23.4221 29.9709H14.3695C13.4248 29.9709 12.6377 29.1955 12.6377 28.2651C12.6377 27.3345 13.4248 26.5591 14.3695 26.5591H19.0926L13.661 21.2088C12.9525 20.5108 12.9525 19.4253 13.661 18.7274C13.9759 18.4173 14.4482 18.1847 14.9204 18.1847C15.3929 18.1847 15.8651 18.3397 16.18 18.7274L21.6903 24.1554V19.3477C21.6903 18.4173 22.4776 17.6419 23.4221 17.6419C24.3668 17.6419 25.1539 18.4173 25.1539 19.3477V28.2651C25.2326 29.1955 24.4455 29.9709 23.4221 29.9709Z" fill="#3758F9"/>
</svg>
