<svg width="57" height="65" viewBox="0 0 57 65" fill="none" xmlns="http://www.w3.org/2000/svg">
<path d="M8.29966 43.1189H12.395C13.0905 43.1189 13.8633 42.5574 14.0178 41.9959L15.9496 36.9425H30.477L32.2541 41.9959C32.4088 42.718 33.1814 43.1189 33.8769 43.1189H38.2815C39.6723 42.9586 40.4451 41.6752 39.9042 40.6323L28.0814 11.4346C27.7724 10.7127 27.2315 10.3917 26.536 10.3917H20.3542C19.7361 10.3917 18.9633 10.7127 18.8086 11.4346L6.83139 40.7927C6.36785 41.9157 7.06316 43.1189 8.29966 43.1189ZM23.2906 19.3757L27.4633 30.8463H19.0406L23.2906 19.3757Z" fill="#3758F9"/>
<path d="M40.3613 51.8462H6.40385C5.46289 51.8462 4.6001 52.8159 4.6001 54.0765C4.6001 55.3371 5.46289 56.21 6.40385 56.21H40.3613C41.3024 56.21 42.165 55.2401 42.165 53.9797C42.165 52.719 41.3024 51.8462 40.3613 51.8462Z" fill="#3758F9"/>
<path d="M50.5131 8.20996C49.4242 8.20996 48.4262 9.0287 48.4262 10.0932V43.4177C48.4262 44.4001 49.3336 45.3007 50.5131 45.3007C51.6927 45.3007 52.6001 44.482 52.6001 43.4177V10.0932C52.6001 9.0287 51.6019 8.20996 50.5131 8.20996Z" fill="#3758F9"/>
</svg>
