<svg width="72" height="60" viewBox="0 0 72 60" fill="none" xmlns="http://www.w3.org/2000/svg">
<path d="M42.5449 44.2036C43.725 44.2036 44.6817 43.2411 44.6817 42.0539C44.6817 40.8667 43.725 39.9043 42.5449 39.9043C41.3649 39.9043 40.4082 40.8667 40.4082 42.0539C40.4082 43.2411 41.3649 44.2036 42.5449 44.2036Z" fill="#005FDC"/>
<path d="M42.545 44.6207C41.1435 44.6207 39.9998 43.47 39.9998 42.0538C39.9998 40.6375 41.1435 39.4932 42.545 39.4932C43.9527 39.4932 45.0902 40.6438 45.0902 42.0538C45.0902 43.4637 43.9527 44.6207 42.545 44.6207ZM42.545 40.3151C41.5897 40.3151 40.8167 41.0991 40.8167 42.0538C40.8167 43.0084 41.596 43.7924 42.545 43.7924C43.5002 43.7924 44.2732 43.0084 44.2732 42.0538C44.2732 41.0991 43.5002 40.3151 42.545 40.3151Z" fill="#888888"/>
<path d="M58.2499 15.4111H47.8365C44.9959 15.4111 42.6895 17.7251 42.6895 20.5892V45.4111C42.6895 48.2689 44.9896 50.5892 47.8365 50.5892H62.6868C65.5274 50.5892 67.8338 48.2752 67.8338 45.4111V25.0529L58.2499 15.4111Z" fill="white"/>
<path d="M62.6868 51H47.8365C44.776 51 42.281 48.4963 42.281 45.411V20.589C42.2873 17.5037 44.776 15 47.8365 15H58.2437C58.3505 15 58.4573 15.0443 58.5327 15.1201L68.1166 24.7619C68.192 24.8377 68.236 24.9452 68.236 25.0527V45.411C68.2423 48.49 65.7536 51 62.6868 51ZM47.8365 15.8219C45.2284 15.8219 43.098 17.9589 43.098 20.589V45.411C43.098 48.0348 45.2222 50.1781 47.8365 50.1781H62.6868C65.2949 50.1781 67.4253 48.0411 67.4253 45.411V25.2234L58.0803 15.8219H47.8365Z" fill="#888888"/>
<path d="M58.2499 15.4111L67.8338 25.0529H60.2923C59.1611 25.0529 58.2499 24.1298 58.2499 22.9981V15.4111Z" fill="#DCDDDE"/>
<path d="M67.8338 25.4639H60.2924C58.9412 25.4639 57.8414 24.3575 57.8414 22.9981V15.4112C57.8414 15.2468 57.942 15.0951 58.0928 15.0319C58.2436 14.9686 58.4196 15.0002 58.539 15.1204L68.104 24.7431C68.192 24.819 68.2423 24.9265 68.2423 25.0529C68.2423 25.2805 68.06 25.4639 67.8338 25.4639ZM58.6584 16.4038V22.9981C58.6584 23.9086 59.3937 24.642 60.2924 24.642H66.8471L58.6584 16.4038Z" fill="#888888"/>
<path d="M42.7397 29.6431C41.4702 29.6431 40.4396 30.6799 40.4396 31.9571V41.6494H40.4836C40.691 40.5809 41.6211 39.7779 42.7397 39.7779H65.9107V29.6431H42.7397Z" fill="#005FDC"/>
<path d="M40.4836 42.0602H40.4396C40.2134 42.0602 40.0311 41.8768 40.0311 41.6492V31.9569C40.0311 30.4522 41.244 29.2319 42.7398 29.2319H65.9107C66.137 29.2319 66.3192 29.4153 66.3192 29.6429V39.7778C66.3192 40.0054 66.137 40.1887 65.9107 40.1887H42.7398C41.8348 40.1887 41.0555 40.8336 40.8795 41.7314C40.8481 41.9211 40.6784 42.0602 40.4836 42.0602ZM42.7398 30.0539C41.6965 30.0539 40.8481 30.9074 40.8481 31.9569V40.1382C41.3383 39.6576 42.0107 39.3605 42.7398 39.3605H65.5022V30.0539H42.7398Z" fill="#888888"/>
<path d="M63.8494 31.6821V37.5471H62.8873V31.6821H63.8494Z" fill="white"/>
<path d="M60.7111 34.5344C61.0262 34.5907 61.2934 34.7567 61.5128 35.0323C61.7322 35.308 61.8419 35.6202 61.8419 35.969C61.8419 36.2672 61.7632 36.5373 61.6057 36.7792C61.4538 37.0155 61.2315 37.2039 60.939 37.3446C60.6464 37.4796 60.3061 37.5471 59.9179 37.5471H57.5719V31.6821H59.8082C60.2076 31.6821 60.5508 31.7496 60.8377 31.8847C61.1246 32.0197 61.3412 32.2025 61.4875 32.4332C61.6338 32.6582 61.7069 32.9114 61.7069 33.1927C61.7069 33.5302 61.6169 33.8115 61.4369 34.0366C61.2569 34.2616 61.0149 34.4276 60.7111 34.5344ZM58.5339 34.1463H59.7238C60.0388 34.1463 60.2836 34.0759 60.458 33.9353C60.638 33.789 60.728 33.5809 60.728 33.3108C60.728 33.0464 60.638 32.8411 60.458 32.6948C60.2836 32.5429 60.0388 32.4669 59.7238 32.4669H58.5339V34.1463ZM59.8335 36.7623C60.1598 36.7623 60.4158 36.6835 60.6014 36.526C60.7871 36.3685 60.8799 36.1491 60.8799 35.8678C60.8799 35.5809 60.7815 35.353 60.5846 35.1842C60.3877 35.0155 60.126 34.9311 59.7997 34.9311H58.5339V36.7623H59.8335Z" fill="white"/>
<path d="M53.6294 37.606C53.0837 37.606 52.5802 37.4794 52.1189 37.2262C51.6632 36.9674 51.3003 36.6102 51.0303 36.1545C50.7659 35.6932 50.6337 35.1756 50.6337 34.6017C50.6337 34.0279 50.7659 33.5131 51.0303 33.0574C51.3003 32.6017 51.6632 32.2473 52.1189 31.9941C52.5802 31.7354 53.0837 31.606 53.6294 31.606C54.1808 31.606 54.6843 31.7354 55.14 31.9941C55.6013 32.2473 55.9642 32.6017 56.2286 33.0574C56.493 33.5131 56.6252 34.0279 56.6252 34.6017C56.6252 35.1756 56.493 35.6932 56.2286 36.1545C55.9642 36.6102 55.6013 36.9674 55.14 37.2262C54.6843 37.4794 54.1808 37.606 53.6294 37.606ZM53.6294 36.7705C54.0176 36.7705 54.3636 36.6833 54.6674 36.5089C54.9712 36.3289 55.2075 36.0757 55.3763 35.7494C55.5507 35.4175 55.6379 35.0349 55.6379 34.6017C55.6379 34.1685 55.5507 33.7888 55.3763 33.4625C55.2075 33.1362 54.9712 32.8858 54.6674 32.7114C54.3636 32.537 54.0176 32.4498 53.6294 32.4498C53.2413 32.4498 52.8953 32.537 52.5915 32.7114C52.2877 32.8858 52.0486 33.1362 51.8742 33.4625C51.7054 33.7888 51.621 34.1685 51.621 34.6017C51.621 35.0349 51.7054 35.4175 51.8742 35.7494C52.0486 36.0757 52.2877 36.3289 52.5915 36.5089C52.8953 36.6833 53.2413 36.7705 53.6294 36.7705Z" fill="white"/>
<path d="M49.6899 31.6821V37.5471H48.7279V33.5302L46.9389 37.5471H46.2722L44.4747 33.5302V37.5471H43.5127V31.6821H44.5507L46.6097 36.2813L48.6604 31.6821H49.6899Z" fill="white"/>
<path d="M3.63604 45.7201C5.32191 45.7201 6.68858 44.3451 6.68858 42.6491C6.68858 40.953 5.32191 39.5781 3.63604 39.5781C1.95017 39.5781 0.583496 40.953 0.583496 42.6491C0.583496 44.3451 1.95017 45.7201 3.63604 45.7201Z" fill="#C1A700"/>
<path d="M3.63611 46.3164C1.63401 46.3164 0 44.6725 0 42.6493C0 40.626 1.63401 38.9912 3.63611 38.9912C5.6472 38.9912 7.27223 40.6351 7.27223 42.6493C7.28121 44.6725 5.6472 46.3164 3.63611 46.3164ZM3.63611 40.1654C2.27145 40.1654 1.16715 41.2854 1.16715 42.6493C1.16715 44.0222 2.28043 45.1331 3.63611 45.1331C5.00078 45.1331 6.10508 44.0131 6.10508 42.6493C6.11406 41.2764 5.00078 40.1654 3.63611 40.1654Z" fill="#888888"/>
<path d="M26.0722 4.5874H11.1956C7.13748 4.5874 3.84253 7.89321 3.84253 11.9848V47.4454C3.84253 51.528 7.1285 54.8429 11.1956 54.8429H32.4107C36.4688 54.8429 39.7638 51.5371 39.7638 47.4454V18.3616L26.0722 4.5874Z" fill="white"/>
<path d="M32.4108 55.4297H11.1956C6.82332 55.4297 3.25903 51.8529 3.25903 47.4451V11.9845C3.26801 7.57677 6.82332 4 11.1956 4H26.0633C26.2159 4 26.3686 4.06323 26.4763 4.17161L40.1678 17.9458C40.2756 18.0542 40.3384 18.2077 40.3384 18.3613V47.4451C40.3474 51.8438 36.7921 55.4297 32.4108 55.4297ZM11.1956 5.17419C7.46974 5.17419 4.42618 8.2271 4.42618 11.9845V47.4451C4.42618 51.1935 7.46076 54.2555 11.1956 54.2555H32.4108C36.1367 54.2555 39.1803 51.2026 39.1803 47.4451V18.6052L25.8299 5.17419H11.1956Z" fill="#888888"/>
<path d="M26.0721 4.5874L39.7637 18.3616H28.99C27.374 18.3616 26.0721 17.0429 26.0721 15.4261V4.5874Z" fill="#DCDDDE"/>
<path d="M39.7638 18.9487H28.9901C27.0598 18.9487 25.4886 17.3681 25.4886 15.4261V4.58744C25.4886 4.3526 25.6323 4.13582 25.8478 4.0455C26.0632 3.95518 26.3146 4.00034 26.4852 4.17195L40.1498 17.919C40.2755 18.0274 40.3473 18.181 40.3473 18.3616C40.3473 18.6868 40.087 18.9487 39.7638 18.9487ZM26.6558 6.0055V15.4261C26.6558 16.7268 27.7062 17.7745 28.9901 17.7745H38.3542L26.6558 6.0055Z" fill="#888888"/>
<path d="M3.91427 24.9189C2.1007 24.9189 0.628296 26.4002 0.628296 28.2248V42.0712H0.691142C0.987418 40.5447 2.31617 39.3976 3.91427 39.3976H37.0164V24.9189H3.91427Z" fill="#C1A700"/>
<path d="M0.69122 42.658H0.628374C0.305164 42.658 0.0447998 42.396 0.0447998 42.0709V28.2244C0.0447998 26.0748 1.77757 24.3315 3.91434 24.3315H37.0165C37.3397 24.3315 37.6 24.5935 37.6 24.9186V39.3973C37.6 39.7225 37.3397 39.9844 37.0165 39.9844H3.91434C2.6215 39.9844 1.50822 40.9148 1.25684 42.1883C1.21195 42.4593 0.96954 42.658 0.69122 42.658ZM3.91434 25.5057C2.42399 25.5057 1.21195 26.7251 1.21195 28.2244V39.9122C1.91224 39.2257 2.87289 38.8012 3.91434 38.8012H36.4329V25.5057H3.91434Z" fill="#888888"/>
<path d="M30.8159 31.9698C31.2711 32.0511 31.6572 32.2909 31.9742 32.6892C32.2912 33.0875 32.4497 33.5386 32.4497 34.0426C32.4497 34.4734 32.3359 34.8635 32.1083 35.2131C31.8888 35.5545 31.5678 35.8268 31.1451 36.03C30.7224 36.2251 30.2306 36.3226 29.6697 36.3226H26.2802V27.8486H29.5112C30.0884 27.8486 30.5842 27.9462 30.9988 28.1413C31.4133 28.3363 31.7263 28.6005 31.9376 28.9338C32.1489 29.2589 32.2546 29.6247 32.2546 30.0311C32.2546 30.5189 32.1246 30.9253 31.8644 31.2504C31.6043 31.5756 31.2548 31.8154 30.8159 31.9698ZM27.6701 31.4089H29.3893C29.8445 31.4089 30.1981 31.3073 30.4501 31.1041C30.7102 30.8928 30.8403 30.592 30.8403 30.2018C30.8403 29.8198 30.7102 29.5231 30.4501 29.3118C30.1981 29.0923 29.8445 28.9826 29.3893 28.9826H27.6701V31.4089ZM29.5478 35.1887C30.0193 35.1887 30.3891 35.0749 30.6574 34.8473C30.9256 34.6197 31.0597 34.3027 31.0597 33.8963C31.0597 33.4817 30.9175 33.1525 30.633 32.9086C30.3485 32.6648 29.9705 32.5429 29.499 32.5429H27.6701V35.1887H29.5478Z" fill="white"/>
<path d="M19.2398 27.8486V33.25C19.2398 33.8922 19.4065 34.3758 19.7397 34.701C20.0811 35.0261 20.5526 35.1887 21.1541 35.1887C21.7637 35.1887 22.2352 35.0261 22.5685 34.701C22.9099 34.3758 23.0806 33.8922 23.0806 33.25V27.8486H24.4705V33.2256C24.4705 33.9166 24.3202 34.5018 24.0194 34.9814C23.7186 35.461 23.3163 35.8186 22.8123 36.0544C22.3083 36.2901 21.7515 36.408 21.1419 36.408C20.5323 36.408 19.9755 36.2901 19.4715 36.0544C18.9757 35.8186 18.5814 35.461 18.2888 34.9814C17.9962 34.5018 17.8499 33.9166 17.8499 33.2256V27.8486H19.2398Z" fill="white"/>
<path d="M16.5363 30.3725C16.5363 30.8033 16.4347 31.2098 16.2315 31.5918C16.0283 31.9739 15.7031 32.2868 15.256 32.5307C14.809 32.7664 14.2359 32.8843 13.5369 32.8843H12.0006V36.3226H10.6106V27.8486H13.5369C14.1871 27.8486 14.7358 27.9624 15.1829 28.19C15.6381 28.4095 15.9754 28.7103 16.1949 29.0923C16.4225 29.4743 16.5363 29.9011 16.5363 30.3725ZM13.5369 31.7503C14.0652 31.7503 14.4594 31.6325 14.7196 31.3967C14.9797 31.1529 15.1097 30.8115 15.1097 30.3725C15.1097 29.4459 14.5854 28.9826 13.5369 28.9826H12.0006V31.7503H13.5369Z" fill="white"/>
<path d="M5.60653 28.9704V31.4577H8.5328V32.5916H5.60653V35.1887H8.89858V36.3226H4.21655V27.8364H8.89858V28.9704H5.60653Z" fill="white"/>
<circle cx="41.1263" cy="9.1001" r="5.3999" fill="#FFE1BE"/>
<circle cx="31.6766" cy="4.51042" r="3.50994" fill="#CCD4FF"/>
<rect x="35.3333" y="41.5" width="16" height="16" rx="8" fill="#3758F9"/>
<g clip-path="url(#clip0_18_2027)">
<path d="M47.5412 50.0638C47.4443 50.0861 47.3425 50.0691 47.2582 50.0164C47.1738 49.9637 47.1139 49.8797 47.0915 49.7828L46.4601 47.0477L44.3564 50.4142C43.0395 52.5217 40.2631 53.1627 38.1556 51.8458C38.0712 51.7931 38.0113 51.709 37.9889 51.6121C37.9665 51.5152 37.9836 51.4134 38.0363 51.3291C38.089 51.2447 38.173 51.1848 38.2699 51.1624C38.3668 51.14 38.4686 51.1571 38.553 51.2098C40.3094 52.3073 42.6228 51.7732 43.7204 50.0168L45.824 46.6502L43.0889 47.2817C42.9927 47.3021 42.8924 47.284 42.8095 47.2312C42.7265 47.1783 42.6677 47.095 42.6455 46.9992C42.6234 46.9034 42.6398 46.8028 42.6912 46.7189C42.7426 46.6351 42.8248 46.5748 42.9202 46.551L46.5374 45.7159C46.6343 45.6936 46.7361 45.7106 46.8204 45.7633C46.9048 45.816 46.9647 45.9 46.9871 45.9969L47.8222 49.6141C47.8445 49.711 47.8275 49.8128 47.7748 49.8971C47.7221 49.9814 47.6381 50.0414 47.5412 50.0638Z" fill="white"/>
</g>
<defs>
<clipPath id="clip0_18_2027">
<rect width="12" height="12" fill="white" transform="translate(51.8689 47.5913) rotate(122)"/>
</clipPath>
</defs>
</svg>
