<svg width="72" height="60" viewBox="0 0 72 60" fill="none" xmlns="http://www.w3.org/2000/svg">
<path d="M4.63605 45.7201C6.32192 45.7201 7.68859 44.3451 7.68859 42.6491C7.68859 40.953 6.32192 39.5781 4.63605 39.5781C2.95018 39.5781 1.58351 40.953 1.58351 42.6491C1.58351 44.3451 2.95018 45.7201 4.63605 45.7201Z" fill="#00A0DC"/>
<path d="M4.63611 46.3164C2.63401 46.3164 1 44.6725 1 42.6493C1 40.626 2.63401 38.9912 4.63611 38.9912C6.6472 38.9912 8.27223 40.6351 8.27223 42.6493C8.28121 44.6725 6.6472 46.3164 4.63611 46.3164ZM4.63611 40.1654C3.27145 40.1654 2.16715 41.2854 2.16715 42.6493C2.16715 44.0222 3.28043 45.1331 4.63611 45.1331C6.00078 45.1331 7.10508 44.0131 7.10508 42.6493C7.11406 41.2764 6.00078 40.1654 4.63611 40.1654Z" fill="#888888"/>
<path d="M27.0721 4.5874H12.1955C8.13742 4.5874 4.84247 7.89321 4.84247 11.9848V47.4454C4.84247 51.528 8.12844 54.8429 12.1955 54.8429H33.4107C37.4687 54.8429 40.7637 51.5371 40.7637 47.4454V18.3616L27.0721 4.5874Z" fill="white"/>
<path d="M33.4108 55.4297H12.1956C7.82328 55.4297 4.259 51.8529 4.259 47.4451V11.9845C4.26797 7.57677 7.82328 4 12.1956 4H27.0633C27.2159 4 27.3685 4.06323 27.4763 4.17161L41.1678 17.9458C41.2755 18.0542 41.3384 18.2077 41.3384 18.3613V47.4451C41.3474 51.8438 37.792 55.4297 33.4108 55.4297ZM12.1956 5.17419C8.4697 5.17419 5.42614 8.2271 5.42614 11.9845V47.4451C5.42614 51.1935 8.46073 54.2555 12.1956 54.2555H33.4108C37.1367 54.2555 40.1802 51.2026 40.1802 47.4451V18.6052L26.8298 5.17419H12.1956Z" fill="#888888"/>
<path d="M27.0722 4.5874L40.7637 18.3616H29.99C28.374 18.3616 27.0722 17.0429 27.0722 15.4261V4.5874Z" fill="#DCDDDE"/>
<path d="M40.7638 18.9487H29.9901C28.0598 18.9487 26.4886 17.3681 26.4886 15.4261V4.58744C26.4886 4.3526 26.6323 4.13582 26.8478 4.0455C27.0632 3.95518 27.3146 4.00034 27.4852 4.17195L41.1498 17.919C41.2755 18.0274 41.3473 18.181 41.3473 18.3616C41.3473 18.6868 41.087 18.9487 40.7638 18.9487ZM27.6558 6.0055V15.4261C27.6558 16.7268 28.7062 17.7745 29.9901 17.7745H39.3542L27.6558 6.0055Z" fill="#888888"/>
<path d="M4.91431 24.9189C3.10074 24.9189 1.62834 26.4002 1.62834 28.2248V42.0712H1.69119C1.98746 40.5447 3.31622 39.3976 4.91431 39.3976H38.0164V24.9189H4.91431Z" fill="#00A0DC"/>
<path d="M1.69124 42.658H1.62839C1.30518 42.658 1.04482 42.396 1.04482 42.0709V28.2244C1.04482 26.0748 2.77758 24.3315 4.91436 24.3315H38.0165C38.3397 24.3315 38.6 24.5935 38.6 24.9186V39.3973C38.6 39.7225 38.3397 39.9844 38.0165 39.9844H4.91436C3.62152 39.9844 2.50824 40.9148 2.25685 42.1883C2.21196 42.4593 1.96956 42.658 1.69124 42.658ZM4.91436 25.5057C3.424 25.5057 2.21196 26.7251 2.21196 28.2244V39.9122C2.91225 39.2257 3.8729 38.8012 4.91436 38.8012H37.4329V25.5057H4.91436Z" fill="#888888"/>
<path d="M31.6404 28.8137V30.788H33.9632V31.6881H31.6404V33.7496H34.2536V34.6497H30.5371V27.9136H34.2536V28.8137H31.6404Z" fill="white"/>
<path d="M27.9196 29.8592C27.7454 29.5237 27.5034 29.272 27.1937 29.1043C26.884 28.9301 26.5259 28.843 26.1194 28.843C25.6742 28.843 25.2774 28.943 24.929 29.143C24.5806 29.343 24.3064 29.6269 24.1063 29.9947C23.9128 30.3625 23.816 30.7883 23.816 31.2722C23.816 31.7561 23.9128 32.1852 24.1063 32.5594C24.3064 32.9272 24.5806 33.2111 24.929 33.4111C25.2774 33.6111 25.6742 33.7111 26.1194 33.7111C26.7195 33.7111 27.2066 33.5434 27.5808 33.2079C27.9551 32.8724 28.1841 32.4175 28.268 31.8432H25.742V30.9625H29.4488V31.8239C29.3778 32.3465 29.1907 32.8272 28.8874 33.2659C28.5906 33.7047 28.2003 34.0563 27.7163 34.3209C27.2389 34.579 26.7066 34.708 26.1194 34.708C25.4871 34.708 24.9096 34.5628 24.387 34.2725C23.8644 33.9757 23.4482 33.566 23.1385 33.0433C22.8353 32.5207 22.6836 31.9303 22.6836 31.2722C22.6836 30.6141 22.8353 30.0237 23.1385 29.5011C23.4482 28.9785 23.8644 28.572 24.387 28.2816C24.9161 27.9848 25.4936 27.8364 26.1194 27.8364C26.8356 27.8364 27.4712 28.0139 28.026 28.3687C28.5874 28.7171 28.9939 29.214 29.2455 29.8592H27.9196Z" fill="white"/>
<path d="M20.3583 33.2753H17.542L17.058 34.6497H15.9063L18.3162 27.9136H19.5937L22.0036 34.6497H20.8422L20.3583 33.2753ZM20.0486 32.3753L18.955 29.2492L17.8517 32.3753H20.0486Z" fill="white"/>
<path d="M14.8529 27.9233V34.6497H13.7496V30.0429L11.6978 34.6497H10.9332L8.87175 30.0429V34.6497H7.76842V27.9233H8.95885L11.3204 33.198L13.6722 27.9233H14.8529Z" fill="white"/>
<path d="M6.31991 27.9233V34.6497H5.21658V27.9233H6.31991Z" fill="white"/>
<path d="M42.5452 45.2036C43.7253 45.2036 44.682 44.2411 44.682 43.0539C44.682 41.8667 43.7253 40.9043 42.5452 40.9043C41.3651 40.9043 40.4085 41.8667 40.4085 43.0539C40.4085 44.2411 41.3651 45.2036 42.5452 45.2036Z" fill="#00A79D"/>
<path d="M42.5452 45.6207C41.1438 45.6207 40 44.47 40 43.0538C40 41.6375 41.1438 40.4932 42.5452 40.4932C43.953 40.4932 45.0905 41.6438 45.0905 43.0538C45.0967 44.47 43.953 45.6207 42.5452 45.6207ZM42.5452 41.3151C41.59 41.3151 40.817 42.0991 40.817 43.0538C40.817 44.0148 41.5963 44.7924 42.5452 44.7924C43.5005 44.7924 44.2735 44.0084 44.2735 43.0538C44.2798 42.0927 43.5005 41.3151 42.5452 41.3151Z" fill="#888888"/>
<path d="M58.2502 16.4111H47.8368C44.9962 16.4111 42.6898 18.7251 42.6898 21.5892V46.4111C42.6898 49.2689 44.9899 51.5892 47.8368 51.5892H62.6871C65.5277 51.5892 67.8341 49.2752 67.8341 46.4111V26.0529L58.2502 16.4111Z" fill="white"/>
<path d="M62.6871 52H47.8368C44.7762 52 42.2813 49.4963 42.2813 46.411V21.589C42.2876 18.5037 44.7762 16 47.8368 16H58.2439C58.3508 16 58.4576 16.0443 58.533 16.1201L68.1169 25.7619C68.1923 25.8377 68.2363 25.9452 68.2363 26.0527V46.411C68.2426 49.49 65.7539 52 62.6871 52ZM47.8368 16.8219C45.2287 16.8219 43.0983 18.9589 43.0983 21.589V46.411C43.0983 49.0348 45.2224 51.1781 47.8368 51.1781H62.6871C65.2951 51.1781 67.4256 49.0411 67.4256 46.411V26.2234L58.0805 16.8219H47.8368Z" fill="#888888"/>
<path d="M58.2502 16.4111L67.8341 26.0529H60.2927C59.1615 26.0529 58.2502 25.1298 58.2502 23.9981V16.4111Z" fill="#DCDDDE"/>
<path d="M67.8341 26.4639H60.2927C58.9415 26.4639 57.8417 25.3575 57.8417 23.9981V16.4112C57.8417 16.2468 57.9423 16.0951 58.0931 16.0319C58.2439 15.9686 58.4199 16.0002 58.5393 16.1204L68.1043 25.7431C68.1923 25.819 68.2426 25.9265 68.2426 26.0529C68.2426 26.2805 68.0603 26.4639 67.8341 26.4639ZM58.6587 17.4038V23.9981C58.6587 24.9086 59.394 25.642 60.2927 25.642H66.8474L58.6587 17.4038Z" fill="#888888"/>
<path d="M42.74 30.6431C41.4706 30.6431 40.4399 31.6799 40.4399 32.9571V42.6494H40.4839C40.6913 41.5809 41.6214 40.7779 42.74 40.7779H65.911V30.6431H42.74Z" fill="#00A79D"/>
<path d="M40.4839 43.0602H40.4399C40.2137 43.0602 40.0314 42.8768 40.0314 42.6492V32.9569C40.0314 31.4522 41.2443 30.2319 42.74 30.2319H65.911C66.1373 30.2319 66.3195 30.4153 66.3195 30.6429V40.7778C66.3195 41.0054 66.1373 41.1887 65.911 41.1887H42.74C41.8351 41.1887 41.0558 41.8336 40.8798 42.7314C40.8484 42.9211 40.6787 43.0602 40.4839 43.0602ZM42.74 31.0539C41.6968 31.0539 40.8484 31.9074 40.8484 32.9569V41.1382C41.3386 40.6576 42.011 40.3605 42.74 40.3605H65.5025V31.0539H42.74Z" fill="#888888"/>
<path d="M45.4298 33.2224C45.4298 33.0517 45.5681 32.9126 45.7315 32.9126H47.3089C49.012 32.9126 50.1872 34.0886 50.1872 35.6186V35.6312C50.1872 37.1613 49.012 38.3562 47.3089 38.3562H45.7315C45.5681 38.3562 45.4298 38.2171 45.4298 38.0464V33.2224ZM47.3089 37.7935C48.6789 37.7935 49.5525 36.8578 49.5525 35.6502V35.6376C49.5525 34.43 48.6789 33.4816 47.3089 33.4816H46.0394V37.7935H47.3089Z" fill="white"/>
<path d="M51.2367 35.6503V35.6377C51.2367 34.1329 52.3553 32.8179 54.0082 32.8179C55.6547 32.8179 56.7608 34.1203 56.7608 35.6187V35.6314C56.7608 37.1361 55.6421 38.4512 53.9893 38.4512C52.3428 38.4512 51.2367 37.1551 51.2367 35.6503ZM56.126 35.6503V35.6377C56.126 34.3985 55.2274 33.3869 53.9893 33.3869C52.7513 33.3869 51.8714 34.3858 51.8714 35.6187V35.6314C51.8714 36.8706 52.7701 37.8821 54.0082 37.8821C55.2462 37.8885 56.126 36.8895 56.126 35.6503Z" fill="white"/>
<path d="M57.8166 35.6503V35.6377C57.8166 34.095 58.9604 32.8179 60.5566 32.8179C61.4302 32.8179 61.9895 33.1087 62.4923 33.526C62.5551 33.5829 62.618 33.6651 62.618 33.7726C62.618 33.9369 62.4734 34.076 62.31 34.076C62.222 34.076 62.1529 34.0381 62.1089 34.0065C61.6941 33.6335 61.2165 33.3869 60.5566 33.3869C59.3563 33.3869 58.4576 34.3669 58.4576 35.6187V35.6314C58.4576 36.8895 59.3626 37.8821 60.5566 37.8821C61.2291 37.8821 61.7004 37.6482 62.1655 37.2183C62.2095 37.174 62.2786 37.1298 62.3603 37.1298C62.5174 37.1298 62.6557 37.2689 62.6557 37.4269C62.6557 37.5218 62.6117 37.5976 62.5551 37.6419C62.0209 38.135 61.4365 38.4448 60.5441 38.4448C58.9667 38.4512 57.8166 37.2183 57.8166 35.6503Z" fill="white"/>
<circle cx="40.4598" cy="9.1001" r="5.3999" fill="#FFE1BE"/>
<circle cx="31.0099" cy="4.51042" r="3.50994" fill="#CCD4FF"/>
<rect x="36" y="41.5" width="16" height="16" rx="8" fill="#3758F9"/>
<g clip-path="url(#clip0_17_808)">
<path d="M48.2079 50.0638C48.111 50.0861 48.0092 50.0691 47.9249 50.0164C47.8406 49.9637 47.7806 49.8797 47.7582 49.7828L47.1268 47.0477L45.0231 50.4142C43.7062 52.5217 40.9298 53.1627 38.8223 51.8458C38.7379 51.7931 38.678 51.709 38.6556 51.6121C38.6332 51.5152 38.6503 51.4134 38.703 51.3291C38.7557 51.2447 38.8397 51.1848 38.9366 51.1624C39.0336 51.14 39.1354 51.1571 39.2197 51.2098C40.9761 52.3073 43.2896 51.7732 44.3871 50.0168L46.4907 46.6502L43.7557 47.2817C43.6595 47.3021 43.5591 47.284 43.4762 47.2312C43.3933 47.1783 43.3344 47.095 43.3123 46.9992C43.2902 46.9034 43.3065 46.8028 43.3579 46.7189C43.4093 46.6351 43.4916 46.5748 43.587 46.551L47.2041 45.7159C47.301 45.6936 47.4028 45.7106 47.4872 45.7633C47.5715 45.816 47.6314 45.9 47.6538 45.9969L48.4889 49.6141C48.5113 49.711 48.4942 49.8128 48.4415 49.8971C48.3888 49.9814 48.3048 50.0414 48.2079 50.0638Z" fill="white"/>
</g>
<defs>
<clipPath id="clip0_17_808">
<rect width="12" height="12" fill="white" transform="translate(52.5356 47.5913) rotate(122)"/>
</clipPath>
</defs>
</svg>
