<svg width="72" height="60" viewBox="0 0 72 60" fill="none" xmlns="http://www.w3.org/2000/svg">
<path d="M42.8821 44.2036C44.0788 44.2036 45.0489 43.2411 45.0489 42.0539C45.0489 40.8667 44.0788 39.9043 42.8821 39.9043C41.6854 39.9043 40.7153 40.8667 40.7153 42.0539C40.7153 43.2411 41.6854 44.2036 42.8821 44.2036Z" fill="#2BB673"/>
<path d="M42.8821 44.6207C41.4609 44.6207 40.301 43.47 40.301 42.0538C40.301 40.6375 41.4609 39.4932 42.8821 39.4932C44.3097 39.4932 45.4632 40.6438 45.4632 42.0538C45.4695 43.47 44.3097 44.6207 42.8821 44.6207ZM42.8821 40.3151C41.9134 40.3151 41.1295 41.0991 41.1295 42.0538C41.1295 43.0148 41.9198 43.7924 42.8821 43.7924C43.8508 43.7924 44.6347 43.0084 44.6347 42.0538C44.6411 41.0927 43.8508 40.3151 42.8821 40.3151Z" fill="#888888"/>
<path d="M58.8083 15.4111H48.2482C45.3676 15.4111 43.0287 17.7251 43.0287 20.5892V45.4111C43.0287 48.2689 45.3612 50.5892 48.2482 50.5892H63.3076C66.1883 50.5892 68.5272 48.2752 68.5272 45.4111V25.0529L58.8083 15.4111Z" fill="white"/>
<path d="M63.3076 51H48.2482C45.1445 51 42.6144 48.4963 42.6144 45.411V20.589C42.6208 17.5037 45.1445 15 48.2482 15H58.8019C58.9103 15 59.0186 15.0443 59.0951 15.1201L68.8139 24.7619C68.8904 24.8377 68.935 24.9452 68.935 25.0527V45.411C68.9414 48.49 66.4177 51 63.3076 51ZM48.2482 15.8219C45.6034 15.8219 43.4429 17.9589 43.4429 20.589V45.411C43.4429 48.0348 45.597 50.1781 48.2482 50.1781H63.3076C65.9525 50.1781 68.1129 48.0411 68.1129 45.411V25.2234L58.6362 15.8219H48.2482Z" fill="#888888"/>
<path d="M58.8083 15.4111L68.5272 25.0529H60.8795C59.7324 25.0529 58.8083 24.1298 58.8083 22.9981V15.4111Z" fill="#DCDDDE"/>
<path d="M68.5272 25.4639H60.8795C59.5093 25.4639 58.394 24.3575 58.394 22.9981V15.4112C58.394 15.2468 58.496 15.0951 58.649 15.0319C58.8019 14.9686 58.9804 15.0002 59.1014 15.1204L68.8012 24.7431C68.8904 24.819 68.9414 24.9265 68.9414 25.0529C68.9414 25.2805 68.7566 25.4639 68.5272 25.4639ZM59.2225 16.4038V22.9981C59.2225 23.9086 59.9682 24.642 60.8795 24.642H67.5266L59.2225 16.4038Z" fill="#888888"/>
<path d="M43.0797 29.6431C41.7923 29.6431 40.7471 30.6799 40.7471 31.9571V41.6494H40.7917C41.0021 40.5809 41.9453 39.7779 43.0797 39.7779H66.577V29.6431H43.0797Z" fill="#2BB673"/>
<path d="M40.7917 42.0602H40.7471C40.5177 42.0602 40.3329 41.8768 40.3329 41.6492V31.9569C40.3329 30.4522 41.5629 29.2319 43.0797 29.2319H66.577C66.8064 29.2319 66.9912 29.4153 66.9912 29.6429V39.7778C66.9912 40.0054 66.8064 40.1887 66.577 40.1887H43.0797C42.1619 40.1887 41.3717 40.8336 41.1932 41.7314C41.1614 41.9211 40.9893 42.0602 40.7917 42.0602ZM43.0797 30.0539C42.0217 30.0539 41.1614 30.9074 41.1614 31.9569V40.1382C41.6585 39.6576 42.3404 39.3605 43.0797 39.3605H66.1628V30.0539H43.0797Z" fill="#888888"/>
<path d="M47.1711 36.9331L49.0066 34.6191L47.2667 32.4378C47.2094 32.3683 47.1648 32.2987 47.1648 32.2039C47.1648 32.0458 47.2986 31.9067 47.4707 31.9067C47.5981 31.9067 47.6682 31.97 47.7447 32.0648L49.4017 34.1955L51.0332 32.0838C51.1224 31.9826 51.1989 31.9067 51.3327 31.9067C51.4793 31.9067 51.6131 32.0332 51.6131 32.1976C51.6131 32.2734 51.5813 32.3556 51.5239 32.4125L49.7713 34.6064L51.5813 36.9015C51.645 36.971 51.6832 37.0406 51.6832 37.1291C51.6832 37.2935 51.5494 37.4326 51.3773 37.4326C51.2499 37.4326 51.1798 37.3693 51.1033 37.2745L49.3698 35.0427L47.6619 37.2555C47.5726 37.3567 47.4962 37.4326 47.3559 37.4326C47.2157 37.4326 47.0819 37.3061 47.0819 37.1417C47.0883 37.0722 47.1138 36.9963 47.1711 36.9331Z" fill="white"/>
<path d="M52.9833 32.2229C52.9833 32.0522 53.1235 31.9131 53.2892 31.9131C53.4613 31.9131 53.6015 32.0522 53.6015 32.2229V36.8319H56.4503C56.6096 36.8319 56.7307 36.9647 56.7307 37.1228C56.7307 37.2808 56.6032 37.401 56.4503 37.401H53.2892C53.1235 37.401 52.9833 37.2619 52.9833 37.0912V32.2229Z" fill="white"/>
<path d="M57.642 36.7433C57.5719 36.699 57.5273 36.6105 57.5273 36.5094C57.5273 36.3386 57.6611 36.2059 57.8268 36.2059C57.9033 36.2059 57.9734 36.2375 58.018 36.2754C58.5342 36.7117 59.0504 36.9203 59.7515 36.9203C60.4907 36.9203 60.9751 36.5283 60.9751 35.9972V35.9846C60.9751 35.4788 60.701 35.188 59.5475 34.9477C58.2857 34.6758 57.7057 34.2712 57.7057 33.3734V33.3608C57.7057 32.5072 58.4641 31.875 59.5093 31.875C60.2294 31.875 60.7584 32.052 61.2555 32.4124C61.3192 32.4567 61.3893 32.5452 61.3893 32.659C61.3893 32.8234 61.2555 32.9561 61.0898 32.9561C61.0197 32.9561 60.9623 32.9435 60.9114 32.8992C60.4461 32.5641 60 32.4251 59.4902 32.4251C58.7764 32.4251 58.3239 32.817 58.3239 33.3039V33.3165C58.3239 33.8286 58.6043 34.1195 59.8152 34.3724C61.0388 34.6379 61.606 35.0805 61.606 35.915V35.9277C61.606 36.8634 60.8221 37.4704 59.7323 37.4704C58.923 37.4767 58.2538 37.2301 57.642 36.7433Z" fill="white"/>
<path d="M4.13604 45.7201C5.82191 45.7201 7.18858 44.3451 7.18858 42.6491C7.18858 40.953 5.82191 39.5781 4.13604 39.5781C2.45017 39.5781 1.0835 40.953 1.0835 42.6491C1.0835 44.3451 2.45017 45.7201 4.13604 45.7201Z" fill="#00A0DC"/>
<path d="M4.13611 46.3164C2.13401 46.3164 0.5 44.6725 0.5 42.6493C0.5 40.626 2.13401 38.9912 4.13611 38.9912C6.1472 38.9912 7.77223 40.6351 7.77223 42.6493C7.78121 44.6725 6.1472 46.3164 4.13611 46.3164ZM4.13611 40.1654C2.77145 40.1654 1.66715 41.2854 1.66715 42.6493C1.66715 44.0222 2.78043 45.1331 4.13611 45.1331C5.50078 45.1331 6.60508 44.0131 6.60508 42.6493C6.61406 41.2764 5.50078 40.1654 4.13611 40.1654Z" fill="#888888"/>
<path d="M26.5721 4.5874H11.6955C7.63742 4.5874 4.34247 7.89321 4.34247 11.9848V47.4454C4.34247 51.528 7.62844 54.8429 11.6955 54.8429H32.9107C36.9687 54.8429 40.2637 51.5371 40.2637 47.4454V18.3616L26.5721 4.5874Z" fill="white"/>
<path d="M32.9108 55.4297H11.6956C7.32329 55.4297 3.759 51.8529 3.759 47.4451V11.9845C3.76798 7.57677 7.32329 4 11.6956 4H26.5633C26.7159 4 26.8685 4.06323 26.9763 4.17161L40.6678 17.9458C40.7755 18.0542 40.8384 18.2077 40.8384 18.3613V47.4451C40.8474 51.8438 37.2921 55.4297 32.9108 55.4297ZM11.6956 5.17419C7.96971 5.17419 4.92615 8.2271 4.92615 11.9845V47.4451C4.92615 51.1935 7.96073 54.2555 11.6956 54.2555H32.9108C36.6367 54.2555 39.6802 51.2026 39.6802 47.4451V18.6052L26.3298 5.17419H11.6956Z" fill="#888888"/>
<path d="M26.5721 4.5874L40.2637 18.3616H29.49C27.874 18.3616 26.5721 17.0429 26.5721 15.4261V4.5874Z" fill="#DCDDDE"/>
<path d="M40.2638 18.9487H29.4901C27.5598 18.9487 25.9886 17.3681 25.9886 15.4261V4.58744C25.9886 4.3526 26.1323 4.13582 26.3478 4.0455C26.5632 3.95518 26.8146 4.00034 26.9852 4.17195L40.6498 17.919C40.7755 18.0274 40.8473 18.181 40.8473 18.3616C40.8473 18.6868 40.587 18.9487 40.2638 18.9487ZM27.1558 6.0055V15.4261C27.1558 16.7268 28.2062 17.7745 29.4901 17.7745H38.8542L27.1558 6.0055Z" fill="#888888"/>
<path d="M4.41433 24.9189C2.60076 24.9189 1.12836 26.4002 1.12836 28.2248V42.0712H1.1912C1.48748 40.5447 2.81623 39.3976 4.41433 39.3976H37.5164V24.9189H4.41433Z" fill="#00A0DC"/>
<path d="M1.19125 42.658H1.1284C0.805194 42.658 0.54483 42.396 0.54483 42.0709V28.2244C0.54483 26.0748 2.2776 24.3315 4.41437 24.3315H37.5165C37.8397 24.3315 38.1001 24.5935 38.1001 24.9186V39.3973C38.1001 39.7225 37.8397 39.9844 37.5165 39.9844H4.41437C3.12153 39.9844 2.00825 40.9148 1.75687 42.1883C1.71198 42.4593 1.46957 42.658 1.19125 42.658ZM4.41437 25.5057C2.92402 25.5057 1.71198 26.7251 1.71198 28.2244V39.9122C2.41227 39.2257 3.37292 38.8012 4.41437 38.8012H36.9329V25.5057H4.41437Z" fill="#888888"/>
<path d="M31.1405 28.8137V30.788H33.4632V31.6881H31.1405V33.7496H33.7536V34.6497H30.0371V27.9136H33.7536V28.8137H31.1405Z" fill="white"/>
<path d="M27.4196 29.8592C27.2454 29.5237 27.0034 29.272 26.6937 29.1043C26.384 28.9301 26.0259 28.843 25.6194 28.843C25.1742 28.843 24.7774 28.943 24.429 29.143C24.0806 29.343 23.8064 29.6269 23.6064 29.9947C23.4128 30.3625 23.316 30.7883 23.316 31.2722C23.316 31.7561 23.4128 32.1852 23.6064 32.5594C23.8064 32.9272 24.0806 33.2111 24.429 33.4111C24.7774 33.6111 25.1742 33.7111 25.6194 33.7111C26.2195 33.7111 26.7066 33.5434 27.0809 33.2079C27.4551 32.8724 27.6841 32.4175 27.768 31.8432H25.242V30.9625H28.9488V31.8239C28.8778 32.3465 28.6907 32.8272 28.3874 33.2659C28.0906 33.7047 27.7003 34.0563 27.2164 34.3209C26.7389 34.579 26.2066 34.708 25.6194 34.708C24.9871 34.708 24.4097 34.5628 23.887 34.2725C23.3644 33.9757 22.9482 33.566 22.6385 33.0433C22.3353 32.5207 22.1837 31.9303 22.1837 31.2722C22.1837 30.6141 22.3353 30.0237 22.6385 29.5011C22.9482 28.9785 23.3644 28.572 23.887 28.2816C24.4161 27.9848 24.9936 27.8364 25.6194 27.8364C26.3356 27.8364 26.9712 28.0139 27.5261 28.3687C28.0874 28.7171 28.4939 29.214 28.7455 29.8592H27.4196Z" fill="white"/>
<path d="M19.8583 33.2753H17.042L16.5581 34.6497H15.4063L17.8162 27.9136H19.0938L21.5037 34.6497H20.3423L19.8583 33.2753ZM19.5486 32.3753L18.455 29.2492L17.3517 32.3753H19.5486Z" fill="white"/>
<path d="M14.353 27.9233V34.6497H13.2496V30.0429L11.1978 34.6497H10.4333L8.37179 30.0429V34.6497H7.26846V27.9233H8.45889L10.8204 33.198L13.1722 27.9233H14.353Z" fill="white"/>
<path d="M5.81994 27.9233V34.6497H4.71661V27.9233H5.81994Z" fill="white"/>
<circle cx="41.6265" cy="9.1001" r="5.3999" fill="#FFE1BE"/>
<circle cx="32.1766" cy="4.51042" r="3.50994" fill="#CCD4FF"/>
<rect x="35.8334" y="41.5" width="16" height="16" rx="8" fill="#3758F9"/>
<g clip-path="url(#clip0_17_762)">
<path d="M48.0413 50.0638C47.9444 50.0861 47.8426 50.0691 47.7582 50.0164C47.6739 49.9637 47.614 49.8797 47.5916 49.7828L46.9601 47.0477L44.8565 50.4142C43.5396 52.5217 40.7632 53.1627 38.6556 51.8458C38.5713 51.7931 38.5113 51.709 38.489 51.6121C38.4666 51.5152 38.4836 51.4134 38.5363 51.3291C38.5891 51.2447 38.6731 51.1848 38.77 51.1624C38.8669 51.14 38.9687 51.1571 39.0531 51.2098C40.8095 52.3073 43.1229 51.7732 44.2205 50.0168L46.3241 46.6502L43.589 47.2817C43.4928 47.3021 43.3925 47.284 43.3095 47.2312C43.2266 47.1783 43.1678 47.095 43.1456 46.9992C43.1235 46.9034 43.1399 46.8028 43.1913 46.7189C43.2427 46.6351 43.3249 46.5748 43.4203 46.551L47.0375 45.7159C47.1344 45.6936 47.2362 45.7106 47.3205 45.7633C47.4048 45.816 47.4648 45.9 47.4872 45.9969L48.3223 49.6141C48.3446 49.711 48.3276 49.8128 48.2749 49.8971C48.2222 49.9814 48.1382 50.0414 48.0413 50.0638Z" fill="white"/>
</g>
<defs>
<clipPath id="clip0_17_762">
<rect width="12" height="12" fill="white" transform="translate(52.369 47.5913) rotate(122)"/>
</clipPath>
</defs>
</svg>
