<svg width="73" height="60" viewBox="0 0 73 60" fill="none" xmlns="http://www.w3.org/2000/svg">
<path d="M40.3814 45.4897C41.5615 45.4897 42.5181 44.5272 42.5181 43.34C42.5181 42.1528 41.5615 41.1904 40.3814 41.1904C39.2013 41.1904 38.2447 42.1528 38.2447 43.34C38.2447 44.5272 39.2013 45.4897 40.3814 45.4897Z" fill="#F7921E"/>
<path d="M40.3814 45.9068C38.98 45.9068 37.8362 44.7561 37.8362 43.3399C37.8362 41.9237 38.98 40.7793 40.3814 40.7793C41.7829 40.7793 42.9266 41.93 42.9266 43.3399C42.9329 44.7561 41.7891 45.9068 40.3814 45.9068ZM40.3814 41.6012C39.4262 41.6012 38.6532 42.3852 38.6532 43.3399C38.6532 44.3009 39.4325 45.0785 40.3814 45.0785C41.3367 45.0785 42.1096 44.2946 42.1096 43.3399C42.1159 42.3789 41.3367 41.6012 40.3814 41.6012Z" fill="#888888"/>
<path d="M56.0863 16.6973H45.673C42.8324 16.6973 40.526 19.0113 40.526 21.8753V46.6971C40.526 49.5548 42.8261 51.8751 45.673 51.8751H60.5232C63.3638 51.8751 65.6702 49.5611 65.6702 46.6971V26.3389L56.0863 16.6973Z" fill="white"/>
<path d="M60.5232 52.2864H45.673C42.6124 52.2864 40.1175 49.7827 40.1175 46.6974V21.8756C40.1238 18.7903 42.6124 16.2866 45.673 16.2866H56.08C56.1869 16.2866 56.2937 16.3309 56.3691 16.4067L65.9529 26.0484C66.0284 26.1243 66.0723 26.2318 66.0723 26.3392V46.6974C66.0786 49.7764 63.59 52.2864 60.5232 52.2864ZM45.673 17.1085C43.0649 17.1085 40.9345 19.2455 40.9345 21.8756V46.6974C40.9345 49.3212 43.0586 51.4645 45.673 51.4645H60.5232C63.1312 51.4645 65.2616 49.3275 65.2616 46.6974V26.5099L55.9166 17.1085H45.673Z" fill="#888888"/>
<path d="M56.0863 16.6973L65.6701 26.3389H58.1287C56.9975 26.3389 56.0863 25.4159 56.0863 24.2841V16.6973Z" fill="#DCDDDE"/>
<path d="M65.6701 26.7499H58.1287C56.7776 26.7499 55.6778 25.6435 55.6778 24.2842V16.6973C55.6778 16.5329 55.7783 16.3812 55.9292 16.318C56.08 16.2548 56.256 16.2864 56.3754 16.4065L65.9403 26.0292C66.0283 26.1051 66.0786 26.2125 66.0786 26.339C66.0786 26.5666 65.8963 26.7499 65.6701 26.7499ZM56.4948 17.6899V24.2842C56.4948 25.1946 57.2301 25.928 58.1287 25.928H64.6834L56.4948 17.6899Z" fill="#888888"/>
<path d="M40.5762 30.9292C39.3068 30.9292 38.2761 31.9661 38.2761 33.2432V42.9354H38.3201C38.5275 41.867 39.4576 41.064 40.5762 41.064H63.7471V30.9292H40.5762Z" fill="#F7921E"/>
<path d="M38.3201 43.3462H38.2761C38.0499 43.3462 37.8676 43.1629 37.8676 42.9353V33.243C37.8676 31.7383 39.0805 30.5181 40.5762 30.5181H63.7471C63.9733 30.5181 64.1555 30.7014 64.1555 30.929V41.0638C64.1555 41.2914 63.9733 41.4748 63.7471 41.4748H40.5762C39.6713 41.4748 38.892 42.126 38.716 43.0175C38.6846 43.2071 38.5149 43.3462 38.3201 43.3462ZM40.5762 31.34C39.533 31.34 38.6846 32.1935 38.6846 33.243V41.4242C39.1748 40.9437 39.8472 40.6466 40.5762 40.6466H63.3386V31.34H40.5762Z" fill="#888888"/>
<path d="M44.4412 33.5085C44.4412 33.3378 44.5795 33.1987 44.7428 33.1987H46.4711C47.6903 33.1987 48.501 33.8499 48.501 34.9247V34.9374C48.501 36.1134 47.5269 36.7203 46.3705 36.7203H45.0571V38.3705C45.0571 38.5412 44.9188 38.6803 44.7491 38.6803C44.5857 38.6803 44.4475 38.5412 44.4475 38.3705V33.5085H44.4412ZM46.3894 36.1639C47.2881 36.1639 47.8725 35.6834 47.8725 34.9627V34.95C47.8725 34.1724 47.2943 33.7677 46.4208 33.7677H45.0508V36.1639H46.3894Z" fill="white"/>
<path d="M49.607 33.5085C49.607 33.3378 49.7453 33.1987 49.9087 33.1987H51.4861C53.1892 33.1987 54.3644 34.3747 54.3644 35.9047V35.9174C54.3644 37.4474 53.1892 38.6423 51.4861 38.6423H49.9087C49.7453 38.6423 49.607 38.5032 49.607 38.3325V33.5085ZM51.4861 38.0796C52.8561 38.0796 53.7296 37.1439 53.7296 35.9363V35.9237C53.7296 34.7161 52.8561 33.7677 51.4861 33.7677H50.2166V38.0796H51.4861Z" fill="white"/>
<path d="M55.659 33.5085C55.659 33.3378 55.7972 33.1987 55.9606 33.1987H59.3102C59.4674 33.1987 59.5868 33.3252 59.5868 33.4769C59.5868 33.635 59.4611 33.7677 59.3102 33.7677H56.2686V35.715H58.9583C59.1154 35.715 59.2348 35.8415 59.2348 35.9932C59.2348 36.1513 59.1091 36.2714 58.9583 36.2714H56.2686V38.3705C56.2686 38.5412 56.1303 38.6803 55.9606 38.6803C55.7972 38.6803 55.659 38.5412 55.659 38.3705V33.5085Z" fill="white"/>
<path d="M4.13604 45.7201C5.82191 45.7201 7.18858 44.3451 7.18858 42.6491C7.18858 40.953 5.82191 39.5781 4.13604 39.5781C2.45017 39.5781 1.0835 40.953 1.0835 42.6491C1.0835 44.3451 2.45017 45.7201 4.13604 45.7201Z" fill="#00A0DC"/>
<path d="M4.13611 46.3164C2.13401 46.3164 0.5 44.6725 0.5 42.6493C0.5 40.626 2.13401 38.9912 4.13611 38.9912C6.1472 38.9912 7.77223 40.6351 7.77223 42.6493C7.78121 44.6725 6.1472 46.3164 4.13611 46.3164ZM4.13611 40.1654C2.77145 40.1654 1.66715 41.2854 1.66715 42.6493C1.66715 44.0222 2.78043 45.1331 4.13611 45.1331C5.50078 45.1331 6.60508 44.0131 6.60508 42.6493C6.61406 41.2764 5.50078 40.1654 4.13611 40.1654Z" fill="#888888"/>
<path d="M26.5721 4.5874H11.6955C7.63742 4.5874 4.34247 7.89321 4.34247 11.9848V47.4454C4.34247 51.528 7.62844 54.8429 11.6955 54.8429H32.9107C36.9687 54.8429 40.2637 51.5371 40.2637 47.4454V18.3616L26.5721 4.5874Z" fill="white"/>
<path d="M32.9108 55.4297H11.6956C7.32329 55.4297 3.759 51.8529 3.759 47.4451V11.9845C3.76798 7.57677 7.32329 4 11.6956 4H26.5633C26.7159 4 26.8685 4.06323 26.9763 4.17161L40.6678 17.9458C40.7755 18.0542 40.8384 18.2077 40.8384 18.3613V47.4451C40.8474 51.8438 37.2921 55.4297 32.9108 55.4297ZM11.6956 5.17419C7.96971 5.17419 4.92615 8.2271 4.92615 11.9845V47.4451C4.92615 51.1935 7.96073 54.2555 11.6956 54.2555H32.9108C36.6367 54.2555 39.6802 51.2026 39.6802 47.4451V18.6052L26.3298 5.17419H11.6956Z" fill="#888888"/>
<path d="M26.5721 4.5874L40.2637 18.3616H29.49C27.874 18.3616 26.5721 17.0429 26.5721 15.4261V4.5874Z" fill="#DCDDDE"/>
<path d="M40.2638 18.9487H29.4901C27.5598 18.9487 25.9886 17.3681 25.9886 15.4261V4.58744C25.9886 4.3526 26.1323 4.13582 26.3478 4.0455C26.5632 3.95518 26.8146 4.00034 26.9852 4.17195L40.6498 17.919C40.7755 18.0274 40.8473 18.181 40.8473 18.3616C40.8473 18.6868 40.587 18.9487 40.2638 18.9487ZM27.1558 6.0055V15.4261C27.1558 16.7268 28.2062 17.7745 29.4901 17.7745H38.8542L27.1558 6.0055Z" fill="#888888"/>
<path d="M4.41433 24.9189C2.60076 24.9189 1.12836 26.4002 1.12836 28.2248V42.0712H1.1912C1.48748 40.5447 2.81623 39.3976 4.41433 39.3976H37.5164V24.9189H4.41433Z" fill="#00A0DC"/>
<path d="M1.19125 42.658H1.1284C0.805194 42.658 0.54483 42.396 0.54483 42.0709V28.2244C0.54483 26.0748 2.2776 24.3315 4.41437 24.3315H37.5165C37.8397 24.3315 38.1001 24.5935 38.1001 24.9186V39.3973C38.1001 39.7225 37.8397 39.9844 37.5165 39.9844H4.41437C3.12153 39.9844 2.00825 40.9148 1.75687 42.1883C1.71198 42.4593 1.46957 42.658 1.19125 42.658ZM4.41437 25.5057C2.92402 25.5057 1.71198 26.7251 1.71198 28.2244V39.9122C2.41227 39.2257 3.37292 38.8012 4.41437 38.8012H36.9329V25.5057H4.41437Z" fill="#888888"/>
<path d="M31.1405 28.8137V30.788H33.4632V31.6881H31.1405V33.7496H33.7536V34.6497H30.0371V27.9136H33.7536V28.8137H31.1405Z" fill="white"/>
<path d="M27.4196 29.8592C27.2454 29.5237 27.0034 29.272 26.6937 29.1043C26.384 28.9301 26.0259 28.843 25.6194 28.843C25.1742 28.843 24.7774 28.943 24.429 29.143C24.0806 29.343 23.8064 29.6269 23.6064 29.9947C23.4128 30.3625 23.316 30.7883 23.316 31.2722C23.316 31.7561 23.4128 32.1852 23.6064 32.5594C23.8064 32.9272 24.0806 33.2111 24.429 33.4111C24.7774 33.6111 25.1742 33.7111 25.6194 33.7111C26.2195 33.7111 26.7066 33.5434 27.0809 33.2079C27.4551 32.8724 27.6841 32.4175 27.768 31.8432H25.242V30.9625H28.9488V31.8239C28.8778 32.3465 28.6907 32.8272 28.3874 33.2659C28.0906 33.7047 27.7003 34.0563 27.2164 34.3209C26.7389 34.579 26.2066 34.708 25.6194 34.708C24.9871 34.708 24.4097 34.5628 23.887 34.2725C23.3644 33.9757 22.9482 33.566 22.6385 33.0433C22.3353 32.5207 22.1837 31.9303 22.1837 31.2722C22.1837 30.6141 22.3353 30.0237 22.6385 29.5011C22.9482 28.9785 23.3644 28.572 23.887 28.2816C24.4161 27.9848 24.9936 27.8364 25.6194 27.8364C26.3356 27.8364 26.9712 28.0139 27.5261 28.3687C28.0874 28.7171 28.4939 29.214 28.7455 29.8592H27.4196Z" fill="white"/>
<path d="M19.8583 33.2753H17.042L16.5581 34.6497H15.4063L17.8162 27.9136H19.0938L21.5037 34.6497H20.3423L19.8583 33.2753ZM19.5486 32.3753L18.455 29.2492L17.3517 32.3753H19.5486Z" fill="white"/>
<path d="M14.353 27.9233V34.6497H13.2496V30.0429L11.1978 34.6497H10.4333L8.37179 30.0429V34.6497H7.26846V27.9233H8.45889L10.8204 33.198L13.1722 27.9233H14.353Z" fill="white"/>
<path d="M5.81994 27.9233V34.6497H4.71661V27.9233H5.81994Z" fill="white"/>
<circle cx="41.6265" cy="9.6001" r="5.3999" fill="#FFE1BE"/>
<circle cx="32.1766" cy="5.01042" r="3.50994" fill="#CCD4FF"/>
<rect x="35.8334" y="41" width="16" height="16" rx="8" fill="#3758F9"/>
<g clip-path="url(#clip0_18_1839)">
<path d="M48.0413 49.5638C47.9444 49.5861 47.8426 49.5691 47.7582 49.5164C47.6739 49.4637 47.614 49.3797 47.5916 49.2828L46.9601 46.5477L44.8565 49.9142C43.5396 52.0217 40.7632 52.6627 38.6556 51.3458C38.5713 51.2931 38.5113 51.209 38.489 51.1121C38.4666 51.0152 38.4836 50.9134 38.5363 50.8291C38.5891 50.7447 38.6731 50.6848 38.77 50.6624C38.8669 50.64 38.9687 50.6571 39.0531 50.7098C40.8095 51.8073 43.1229 51.2732 44.2205 49.5168L46.3241 46.1502L43.589 46.7817C43.4928 46.8021 43.3925 46.784 43.3095 46.7312C43.2266 46.6783 43.1678 46.595 43.1456 46.4992C43.1235 46.4034 43.1399 46.3028 43.1913 46.2189C43.2427 46.1351 43.3249 46.0748 43.4203 46.051L47.0375 45.2159C47.1344 45.1936 47.2362 45.2106 47.3205 45.2633C47.4048 45.316 47.4648 45.4 47.4872 45.4969L48.3223 49.1141C48.3446 49.211 48.3276 49.3128 48.2749 49.3971C48.2222 49.4814 48.1382 49.5414 48.0413 49.5638Z" fill="white"/>
</g>
<defs>
<clipPath id="clip0_18_1839">
<rect width="12" height="12" fill="white" transform="translate(52.369 47.0913) rotate(122)"/>
</clipPath>
</defs>
</svg>
