<svg width="71" height="60" viewBox="0 0 71 60" fill="none" xmlns="http://www.w3.org/2000/svg">
<path d="M39.4342 45.4897C40.6309 45.4897 41.601 44.5273 41.601 43.3401C41.601 42.1529 40.6309 41.1904 39.4342 41.1904C38.2375 41.1904 37.2673 42.1529 37.2673 43.3401C37.2673 44.5273 38.2375 45.4897 39.4342 45.4897Z" fill="#2BB673"/>
<path d="M39.4341 45.9068C38.0129 45.9068 36.853 44.7561 36.853 43.3399C36.853 41.9237 38.0129 40.7793 39.4341 40.7793C40.8617 40.7793 42.0152 41.93 42.0152 43.3399C42.0152 44.7498 40.8617 45.9068 39.4341 45.9068ZM39.4341 41.6012C38.4654 41.6012 37.6815 42.3852 37.6815 43.3399C37.6815 44.2946 38.4718 45.0786 39.4341 45.0786C40.4028 45.0786 41.1867 44.2946 41.1867 43.3399C41.1867 42.3852 40.4028 41.6012 39.4341 41.6012Z" fill="#888888"/>
<path d="M55.3603 16.6973H44.8002C41.9196 16.6973 39.5807 19.0113 39.5807 21.8753V46.6973C39.5807 49.555 41.9132 51.8753 44.8002 51.8753H59.8597C62.7403 51.8753 65.0792 49.5613 65.0792 46.6973V26.339L55.3603 16.6973Z" fill="white"/>
<path d="M59.8596 52.2861H44.8001C41.6965 52.2861 39.1664 49.7824 39.1664 46.6971V21.8752C39.1728 18.7898 41.6965 16.2861 44.8001 16.2861H55.3539C55.4622 16.2861 55.5705 16.3304 55.647 16.4063L65.3659 26.048C65.4424 26.1239 65.487 26.2313 65.487 26.3388V46.6971C65.4933 49.7761 62.9696 52.2861 59.8596 52.2861ZM44.8001 17.1081C42.1553 17.1081 39.9949 19.245 39.9949 21.8752V46.6971C39.9949 49.3209 42.149 51.4642 44.8001 51.4642H59.8596C62.5044 51.4642 64.6648 49.3272 64.6648 46.6971V26.5095L55.1882 17.1081H44.8001Z" fill="#888888"/>
<path d="M55.3604 16.6973L65.0792 26.339H57.4316C56.2844 26.339 55.3604 25.4159 55.3604 24.2842V16.6973Z" fill="#DCDDDE"/>
<path d="M65.0792 26.75H57.4315C56.0613 26.75 54.946 25.6436 54.946 24.2843V16.6973C54.946 16.5329 55.048 16.3812 55.201 16.318C55.3539 16.2548 55.5324 16.2864 55.6535 16.4065L65.3532 26.0293C65.4424 26.1051 65.4934 26.2126 65.4934 26.3391C65.4934 26.5667 65.3086 26.75 65.0792 26.75ZM55.7745 17.69V24.2843C55.7745 25.1947 56.5202 25.9281 57.4315 25.9281H64.0786L55.7745 17.69Z" fill="#888888"/>
<path d="M39.6317 30.9292C38.3444 30.9292 37.2992 31.9661 37.2992 33.2432V42.9355H37.3438C37.5541 41.867 38.4973 41.0641 39.6317 41.0641H63.1291V30.9292H39.6317Z" fill="#2BB673"/>
<path d="M37.3437 43.3463H37.2991C37.0697 43.3463 36.8849 43.163 36.8849 42.9353V33.243C36.8849 31.7383 38.1149 30.5181 39.6317 30.5181H63.129C63.3584 30.5181 63.5432 30.7014 63.5432 30.929V41.0639C63.5432 41.2915 63.3584 41.4749 63.129 41.4749H39.6317C38.7139 41.4749 37.9237 42.1198 37.7452 43.0175C37.7134 43.2072 37.5413 43.3463 37.3437 43.3463ZM39.6317 31.34C38.5737 31.34 37.7134 32.1935 37.7134 33.243V41.4243C38.2105 40.9438 38.8924 40.6466 39.6317 40.6466H62.7148V31.34H39.6317Z" fill="#888888"/>
<path d="M43.2452 37.9218C43.2006 37.8776 43.156 37.7954 43.156 37.7132C43.156 37.5488 43.2962 37.4097 43.4619 37.4097C43.5639 37.4097 43.634 37.4666 43.6786 37.5172C43.9781 37.9218 44.2968 38.1305 44.8066 38.1305C45.4248 38.1305 45.8837 37.6879 45.8837 36.8217V33.4455C45.8837 33.2748 46.0239 33.1357 46.1959 33.1357C46.368 33.1357 46.5018 33.2748 46.5018 33.4455V36.8154C46.5018 37.454 46.3107 37.9345 45.9984 38.2443C45.6925 38.5414 45.2782 38.6932 44.7875 38.6932C44.0737 38.6995 43.583 38.3707 43.2452 37.9218Z" fill="white"/>
<path d="M47.974 33.4831C47.974 33.3124 48.1142 33.1733 48.2799 33.1733H50.0261C51.2625 33.1733 52.0846 33.8246 52.0846 34.8994V34.912C52.0846 36.088 51.0968 36.6949 49.9241 36.6949H48.5922V38.3451C48.5922 38.5158 48.452 38.6549 48.2799 38.6549C48.1142 38.6549 47.974 38.5158 47.974 38.3451V33.4831ZM49.9496 36.1386C50.861 36.1386 51.4537 35.6581 51.4537 34.9373V34.9247C51.4537 34.147 50.8674 33.7424 49.9815 33.7424H48.5922V36.1386H49.9496Z" fill="white"/>
<path d="M52.9705 35.9111V35.8984C52.9705 34.4063 54.0794 33.0786 55.7236 33.0786C56.5521 33.0786 57.0938 33.2936 57.5973 33.6603C57.6674 33.7172 57.7247 33.7994 57.7247 33.9069C57.7247 34.0776 57.5845 34.2167 57.4188 34.2167C57.3487 34.2167 57.285 34.185 57.2213 34.1408C56.8261 33.8436 56.3928 33.6413 55.6981 33.6413C54.4809 33.6413 53.6141 34.6592 53.6141 35.8731V35.8858C53.6141 37.1882 54.4554 38.1492 55.7873 38.1492C56.4119 38.1492 56.9982 37.909 57.3742 37.6055V36.2525H55.9021C55.7555 36.2525 55.628 36.126 55.628 35.9806C55.628 35.8226 55.7555 35.7024 55.9021 35.7024H57.6674C57.8331 35.7024 57.9733 35.8415 57.9733 36.0122V37.6687C57.9733 37.8141 57.9032 37.9469 57.763 38.0417C57.2595 38.4084 56.584 38.7056 55.7682 38.7056C54.0348 38.7119 52.9705 37.4664 52.9705 35.9111Z" fill="white"/>
<path d="M3.63604 45.7201C5.32191 45.7201 6.68858 44.3451 6.68858 42.6491C6.68858 40.953 5.32191 39.5781 3.63604 39.5781C1.95017 39.5781 0.583496 40.953 0.583496 42.6491C0.583496 44.3451 1.95017 45.7201 3.63604 45.7201Z" fill="#00A0DC"/>
<path d="M3.63611 46.3164C1.63401 46.3164 0 44.6725 0 42.6493C0 40.626 1.63401 38.9912 3.63611 38.9912C5.6472 38.9912 7.27223 40.6351 7.27223 42.6493C7.28121 44.6725 5.6472 46.3164 3.63611 46.3164ZM3.63611 40.1654C2.27145 40.1654 1.16715 41.2854 1.16715 42.6493C1.16715 44.0222 2.28043 45.1331 3.63611 45.1331C5.00078 45.1331 6.10508 44.0131 6.10508 42.6493C6.11406 41.2764 5.00078 40.1654 3.63611 40.1654Z" fill="#888888"/>
<path d="M26.0722 4.5874H11.1956C7.13748 4.5874 3.84253 7.89321 3.84253 11.9848V47.4454C3.84253 51.528 7.1285 54.8429 11.1956 54.8429H32.4107C36.4688 54.8429 39.7638 51.5371 39.7638 47.4454V18.3616L26.0722 4.5874Z" fill="white"/>
<path d="M32.4108 55.4297H11.1956C6.82332 55.4297 3.25903 51.8529 3.25903 47.4451V11.9845C3.26801 7.57677 6.82332 4 11.1956 4H26.0633C26.2159 4 26.3686 4.06323 26.4763 4.17161L40.1678 17.9458C40.2756 18.0542 40.3384 18.2077 40.3384 18.3613V47.4451C40.3474 51.8438 36.7921 55.4297 32.4108 55.4297ZM11.1956 5.17419C7.46974 5.17419 4.42618 8.2271 4.42618 11.9845V47.4451C4.42618 51.1935 7.46076 54.2555 11.1956 54.2555H32.4108C36.1367 54.2555 39.1803 51.2026 39.1803 47.4451V18.6052L25.8299 5.17419H11.1956Z" fill="#888888"/>
<path d="M26.0721 4.5874L39.7637 18.3616H28.99C27.374 18.3616 26.0721 17.0429 26.0721 15.4261V4.5874Z" fill="#DCDDDE"/>
<path d="M39.7638 18.9487H28.9901C27.0598 18.9487 25.4886 17.3681 25.4886 15.4261V4.58744C25.4886 4.3526 25.6323 4.13582 25.8478 4.0455C26.0632 3.95518 26.3146 4.00034 26.4852 4.17195L40.1498 17.919C40.2755 18.0274 40.3473 18.181 40.3473 18.3616C40.3473 18.6868 40.087 18.9487 39.7638 18.9487ZM26.6558 6.0055V15.4261C26.6558 16.7268 27.7062 17.7745 28.9901 17.7745H38.3542L26.6558 6.0055Z" fill="#888888"/>
<path d="M3.91427 24.9189C2.1007 24.9189 0.628296 26.4002 0.628296 28.2248V42.0712H0.691142C0.987418 40.5447 2.31617 39.3976 3.91427 39.3976H37.0164V24.9189H3.91427Z" fill="#00A0DC"/>
<path d="M0.69122 42.658H0.628374C0.305164 42.658 0.0447998 42.396 0.0447998 42.0709V28.2244C0.0447998 26.0748 1.77757 24.3315 3.91434 24.3315H37.0165C37.3397 24.3315 37.6 24.5935 37.6 24.9186V39.3973C37.6 39.7225 37.3397 39.9844 37.0165 39.9844H3.91434C2.6215 39.9844 1.50822 40.9148 1.25684 42.1883C1.21195 42.4593 0.96954 42.658 0.69122 42.658ZM3.91434 25.5057C2.42399 25.5057 1.21195 26.7251 1.21195 28.2244V39.9122C1.91224 39.2257 2.87289 38.8012 3.91434 38.8012H36.4329V25.5057H3.91434Z" fill="#888888"/>
<path d="M30.0177 31.3228H28.8851V36.408H27.6083V31.3228H26.8866V30.2902H27.6083V29.8572C27.6083 29.154 27.7933 28.6432 28.1634 28.325C28.541 27.9993 29.1294 27.8364 29.9288 27.8364V28.8912C29.5439 28.8912 29.2738 28.9652 29.1183 29.1133C28.9629 29.2539 28.8851 29.5019 28.8851 29.8572V30.2902H30.0177V31.3228Z" fill="white"/>
<path d="M25.1692 29.4794C24.9397 29.4794 24.7473 29.4017 24.5918 29.2463C24.4364 29.0908 24.3586 28.8984 24.3586 28.6689C24.3586 28.4395 24.4364 28.247 24.5918 28.0916C24.7473 27.9361 24.9397 27.8584 25.1692 27.8584C25.3912 27.8584 25.58 27.9361 25.7354 28.0916C25.8909 28.247 25.9686 28.4395 25.9686 28.6689C25.9686 28.8984 25.8909 29.0908 25.7354 29.2463C25.58 29.4017 25.3912 29.4794 25.1692 29.4794ZM25.7909 30.29V36.4078H24.5252V30.29H25.7909Z" fill="white"/>
<path d="M20.4929 35.2758L22.225 30.2905H23.5684L21.2368 36.4083H19.7268L17.4062 30.2905H18.7608L20.4929 35.2758Z" fill="white"/>
<path d="M15.0384 34.8313H11.8074L11.2523 36.4079H9.93103L12.6957 28.6802H14.1613L16.926 36.4079H15.5936L15.0384 34.8313ZM14.6831 33.7987L13.4285 30.2124L12.1627 33.7987H14.6831Z" fill="white"/>
<circle cx="40.793" cy="9.6001" r="5.3999" fill="#FFE1BE"/>
<circle cx="31.3432" cy="5.01042" r="3.50994" fill="#CCD4FF"/>
<rect x="35" y="41" width="16" height="16" rx="8" fill="#3758F9"/>
<g clip-path="url(#clip0_18_2213)">
<path d="M47.2079 49.5638C47.111 49.5861 47.0092 49.5691 46.9249 49.5164C46.8406 49.4637 46.7806 49.3797 46.7583 49.2828L46.1268 46.5477L44.0232 49.9142C42.7062 52.0217 39.9298 52.6627 37.8223 51.3458C37.738 51.2931 37.678 51.209 37.6556 51.1121C37.6333 51.0152 37.6503 50.9134 37.703 50.8291C37.7557 50.7447 37.8398 50.6848 37.9367 50.6624C38.0336 50.64 38.1354 50.6571 38.2197 50.7098C39.9762 51.8073 42.2896 51.2732 43.3871 49.5168L45.4908 46.1502L42.7557 46.7817C42.6595 46.8021 42.5591 46.784 42.4762 46.7312C42.3933 46.6783 42.3344 46.595 42.3123 46.4992C42.2902 46.4034 42.3066 46.3028 42.3579 46.2189C42.4093 46.1351 42.4916 46.0748 42.587 46.051L46.2042 45.2159C46.301 45.1936 46.4028 45.2106 46.4872 45.2633C46.5715 45.316 46.6314 45.4 46.6538 45.4969L47.4889 49.1141C47.5113 49.211 47.4942 49.3128 47.4415 49.3971C47.3888 49.4814 47.3048 49.5414 47.2079 49.5638Z" fill="white"/>
</g>
<defs>
<clipPath id="clip0_18_2213">
<rect width="12" height="12" fill="white" transform="translate(51.5356 47.0913) rotate(122)"/>
</clipPath>
</defs>
</svg>
                     