<svg width="72" height="60" viewBox="0 0 72 60" fill="none" xmlns="http://www.w3.org/2000/svg">
<path d="M4.63604 45.7201C6.32191 45.7201 7.68858 44.3451 7.68858 42.6491C7.68858 40.953 6.32191 39.5781 4.63604 39.5781C2.95017 39.5781 1.5835 40.953 1.5835 42.6491C1.5835 44.3451 2.95017 45.7201 4.63604 45.7201Z" fill="#005FDC"/>
<path d="M4.63611 46.3164C2.63401 46.3164 1 44.6725 1 42.6493C1 40.626 2.63401 38.9912 4.63611 38.9912C6.6472 38.9912 8.27223 40.6351 8.27223 42.6493C8.27223 44.6635 6.6472 46.3164 4.63611 46.3164ZM4.63611 40.1654C3.27145 40.1654 2.16715 41.2854 2.16715 42.6493C2.16715 44.0131 3.28043 45.1331 4.63611 45.1331C6.00078 45.1331 7.10508 44.0131 7.10508 42.6493C7.10508 41.2854 6.00078 40.1654 4.63611 40.1654Z" fill="#888888"/>
<path d="M27.0722 4.5874H12.1956C8.13748 4.5874 4.84253 7.89321 4.84253 11.9848V47.4454C4.84253 51.528 8.1285 54.8429 12.1956 54.8429H33.4107C37.4688 54.8429 40.7638 51.5371 40.7638 47.4454V18.3616L27.0722 4.5874Z" fill="white"/>
<path d="M33.4108 55.4297H12.1956C7.82332 55.4297 4.25903 51.8529 4.25903 47.4451V11.9845C4.26801 7.57677 7.82332 4 12.1956 4H27.0633C27.2159 4 27.3686 4.06323 27.4763 4.17161L41.1678 17.9458C41.2756 18.0542 41.3384 18.2077 41.3384 18.3613V47.4451C41.3474 51.8438 37.7921 55.4297 33.4108 55.4297ZM12.1956 5.17419C8.46974 5.17419 5.42618 8.2271 5.42618 11.9845V47.4451C5.42618 51.1935 8.46076 54.2555 12.1956 54.2555H33.4108C37.1367 54.2555 40.1803 51.2026 40.1803 47.4451V18.6052L26.8299 5.17419H12.1956Z" fill="#888888"/>
<path d="M27.0721 4.5874L40.7637 18.3616H29.99C28.374 18.3616 27.0721 17.0429 27.0721 15.4261V4.5874Z" fill="#DCDDDE"/>
<path d="M40.7638 18.9487H29.9901C28.0598 18.9487 26.4886 17.3681 26.4886 15.4261V4.58744C26.4886 4.3526 26.6323 4.13582 26.8478 4.0455C27.0632 3.95518 27.3146 4.00034 27.4852 4.17195L41.1498 17.919C41.2755 18.0274 41.3473 18.181 41.3473 18.3616C41.3473 18.6868 41.087 18.9487 40.7638 18.9487ZM27.6558 6.0055V15.4261C27.6558 16.7268 28.7062 17.7745 29.9901 17.7745H39.3542L27.6558 6.0055Z" fill="#888888"/>
<path d="M4.91427 24.9189C3.1007 24.9189 1.6283 26.4002 1.6283 28.2248V42.0712H1.69114C1.98742 40.5447 3.31617 39.3976 4.91427 39.3976H38.0164V24.9189H4.91427Z" fill="#005FDC"/>
<path d="M1.69122 42.658H1.62837C1.30516 42.658 1.0448 42.396 1.0448 42.0709V28.2244C1.0448 26.0748 2.77757 24.3315 4.91434 24.3315H38.0165C38.3397 24.3315 38.6 24.5935 38.6 24.9186V39.3973C38.6 39.7225 38.3397 39.9844 38.0165 39.9844H4.91434C3.6215 39.9844 2.50822 40.9057 2.25684 42.1883C2.21195 42.4593 1.96954 42.658 1.69122 42.658ZM4.91434 25.5057C3.42399 25.5057 2.21195 26.7251 2.21195 28.2244V39.9122C2.91224 39.2257 3.87289 38.8012 4.91434 38.8012H37.4329V25.5057H4.91434Z" fill="#888888"/>
<path d="M35.0716 27.832V36.2107H33.6973V27.832H35.0716Z" fill="white"/>
<path d="M30.5884 31.9069C31.0384 31.9872 31.4202 32.2243 31.7337 32.6181C32.0471 33.012 32.2038 33.458 32.2038 33.9563C32.2038 34.3823 32.0913 34.7681 31.8663 35.1137C31.6493 35.4512 31.3318 35.7205 30.9139 35.9214C30.4959 36.1143 30.0097 36.2107 29.4551 36.2107H26.1036V27.832H29.2984C29.869 27.832 30.3593 27.9285 30.7692 28.1214C31.1791 28.3143 31.4885 28.5755 31.6975 28.905C31.9065 29.2265 32.0109 29.5881 32.0109 29.99C32.0109 30.4722 31.8823 30.8741 31.6252 31.1956C31.368 31.5171 31.0224 31.7542 30.5884 31.9069ZM27.478 31.3523H29.1778C29.6279 31.3523 29.9775 31.2518 30.2267 31.0509C30.4839 30.8419 30.6125 30.5446 30.6125 30.1588C30.6125 29.781 30.4839 29.4877 30.2267 29.2787C29.9775 29.0617 29.6279 28.9532 29.1778 28.9532H27.478V31.3523ZM29.3346 35.0896C29.8007 35.0896 30.1664 34.977 30.4316 34.752C30.6969 34.527 30.8295 34.2135 30.8295 33.8117C30.8295 33.4018 30.6888 33.0763 30.4075 32.8352C30.1262 32.594 29.7525 32.4735 29.2863 32.4735H27.478V35.0896H29.3346Z" fill="white"/>
<path d="M20.4714 36.2948C19.6918 36.2948 18.9725 36.1139 18.3135 35.7522C17.6624 35.3825 17.1441 34.8722 16.7583 34.2212C16.3805 33.5621 16.1917 32.8227 16.1917 32.0029C16.1917 31.1831 16.3805 30.4477 16.7583 29.7967C17.1441 29.1457 17.6624 28.6394 18.3135 28.2777C18.9725 27.908 19.6918 27.7231 20.4714 27.7231C21.2591 27.7231 21.9784 27.908 22.6294 28.2777C23.2884 28.6394 23.8068 29.1457 24.1846 29.7967C24.5623 30.4477 24.7512 31.1831 24.7512 32.0029C24.7512 32.8227 24.5623 33.5621 24.1846 34.2212C23.8068 34.8722 23.2884 35.3825 22.6294 35.7522C21.9784 36.1139 21.2591 36.2948 20.4714 36.2948ZM20.4714 35.1012C21.026 35.1012 21.5203 34.9767 21.9543 34.7275C22.3883 34.4703 22.7258 34.1087 22.967 33.6425C23.2161 33.1683 23.3407 32.6218 23.3407 32.0029C23.3407 31.3841 23.2161 30.8416 22.967 30.3754C22.7258 29.9092 22.3883 29.5516 21.9543 29.3024C21.5203 29.0533 21.026 28.9287 20.4714 28.9287C19.9169 28.9287 19.4226 29.0533 18.9886 29.3024C18.5546 29.5516 18.213 29.9092 17.9638 30.3754C17.7227 30.8416 17.6022 31.3841 17.6022 32.0029C17.6022 32.6218 17.7227 33.1683 17.9638 33.6425C18.213 34.1087 18.5546 34.4703 18.9886 34.7275C19.4226 34.9767 19.9169 35.1012 20.4714 35.1012Z" fill="white"/>
<path d="M14.8433 27.832V36.2107H13.469V30.4722L10.9132 36.2107H9.96077L7.39291 30.4722V36.2107H6.01855V27.832H7.50141L10.443 34.4024L13.3725 27.832H14.8433Z" fill="white"/>
<path d="M42.5452 45.2036C43.7253 45.2036 44.6819 44.2411 44.6819 43.0539C44.6819 41.8667 43.7253 40.9043 42.5452 40.9043C41.3651 40.9043 40.4084 41.8667 40.4084 43.0539C40.4084 44.2411 41.3651 45.2036 42.5452 45.2036Z" fill="#C1A700"/>
<path d="M42.5452 45.6207C41.1438 45.6207 40 44.47 40 43.0538C40 41.6375 41.1438 40.4932 42.5452 40.4932C43.953 40.4932 45.0905 41.6438 45.0905 43.0538C45.0967 44.47 43.953 45.6207 42.5452 45.6207ZM42.5452 41.3151C41.59 41.3151 40.817 42.0991 40.817 43.0538C40.817 44.0148 41.5963 44.7924 42.5452 44.7924C43.5005 44.7924 44.2735 44.0084 44.2735 43.0538C44.2798 42.0927 43.5005 41.3151 42.5452 41.3151Z" fill="#888888"/>
<path d="M58.2501 16.4111H47.8367C44.9961 16.4111 42.6897 18.7251 42.6897 21.5892V46.4111C42.6897 49.2689 44.9898 51.5892 47.8367 51.5892H62.687C65.5276 51.5892 67.834 49.2752 67.834 46.4111V26.0529L58.2501 16.4111Z" fill="white"/>
<path d="M62.6871 52H47.8368C44.7762 52 42.2812 49.4963 42.2812 46.411V21.589C42.2875 18.5037 44.7762 16 47.8368 16H58.2439C58.3507 16 58.4576 16.0443 58.533 16.1201L68.1169 25.7619C68.1923 25.8377 68.2363 25.9452 68.2363 26.0527V46.411C68.2426 49.49 65.7539 52 62.6871 52ZM47.8368 16.8219C45.2287 16.8219 43.0982 18.9589 43.0982 21.589V46.411C43.0982 49.0348 45.2224 51.1781 47.8368 51.1781H62.6871C65.2951 51.1781 67.4256 49.0411 67.4256 46.411V26.2234L58.0805 16.8219H47.8368Z" fill="#888888"/>
<path d="M58.2501 16.4111L67.834 26.0529H60.2926C59.1614 26.0529 58.2501 25.1298 58.2501 23.9981V16.4111Z" fill="#DCDDDE"/>
<path d="M67.834 26.4639H60.2926C58.9415 26.4639 57.8417 25.3575 57.8417 23.9981V16.4112C57.8417 16.2468 57.9422 16.0951 58.0931 16.0319C58.2439 15.9686 58.4199 16.0002 58.5393 16.1204L68.1043 25.7431C68.1923 25.819 68.2425 25.9265 68.2425 26.0529C68.2425 26.2805 68.0603 26.4639 67.834 26.4639ZM58.6587 17.4038V23.9981C58.6587 24.9086 59.3939 25.642 60.2926 25.642H66.8474L58.6587 17.4038Z" fill="#888888"/>
<path d="M42.7399 30.6431C41.4705 30.6431 40.4398 31.6799 40.4398 32.9571V42.6494H40.4838C40.6912 41.5809 41.6213 40.7779 42.7399 40.7779H65.9109V30.6431H42.7399Z" fill="#C1A700"/>
<path d="M40.4839 43.0602H40.4399C40.2136 43.0602 40.0314 42.8768 40.0314 42.6492V32.9569C40.0314 31.4522 41.2443 30.2319 42.74 30.2319H65.911C66.1372 30.2319 66.3195 30.4153 66.3195 30.6429V40.7778C66.3195 41.0054 66.1372 41.1887 65.911 41.1887H42.74C41.835 41.1887 41.0557 41.8399 40.8798 42.7314C40.8484 42.9211 40.6787 43.0602 40.4839 43.0602ZM42.74 31.0539C41.6968 31.0539 40.8484 31.9074 40.8484 32.9569V41.1382C41.3386 40.6576 42.011 40.3605 42.74 40.3605H65.5025V31.0539H42.74Z" fill="#888888"/>
<path d="M61.5707 35.5786C61.8893 35.6355 62.1596 35.8033 62.3815 36.0821C62.6034 36.361 62.7143 36.6767 62.7143 37.0295C62.7143 37.3311 62.6347 37.6042 62.4754 37.8488C62.3217 38.0878 62.097 38.2784 61.8011 38.4207C61.5053 38.5572 61.161 38.6255 60.7684 38.6255H58.3958V32.6938H60.6575C61.0614 32.6938 61.4085 32.7621 61.6987 32.8987C61.9889 33.0352 62.2079 33.2202 62.3559 33.4534C62.5038 33.681 62.5778 33.9371 62.5778 34.2216C62.5778 34.563 62.4867 34.8475 62.3047 35.075C62.1226 35.3026 61.8779 35.4705 61.5707 35.5786ZM59.3687 35.186H60.5721C60.8907 35.186 61.1383 35.1149 61.3146 34.9726C61.4967 34.8247 61.5878 34.6142 61.5878 34.3411C61.5878 34.0736 61.4967 33.866 61.3146 33.718C61.1383 33.5644 60.8907 33.4876 60.5721 33.4876H59.3687V35.186ZM60.6831 37.8318C61.0131 37.8318 61.272 37.7521 61.4597 37.5928C61.6475 37.4335 61.7414 37.2116 61.7414 36.9271C61.7414 36.6369 61.6418 36.4065 61.4427 36.2358C61.2435 36.0651 60.9789 35.9797 60.6489 35.9797H59.3687V37.8318H60.6831Z" fill="white"/>
<path d="M53.4676 32.6938V36.4747C53.4676 36.9242 53.5842 37.2628 53.8175 37.4904C54.0565 37.718 54.3865 37.8318 54.8075 37.8318C55.2343 37.8318 55.5643 37.718 55.7976 37.4904C56.0366 37.2628 56.156 36.9242 56.156 36.4747V32.6938H57.129V36.4577C57.129 36.9413 57.0237 37.351 56.8132 37.6867C56.6027 38.0224 56.321 38.2727 55.9683 38.4377C55.6155 38.6028 55.2258 38.6853 54.799 38.6853C54.3723 38.6853 53.9825 38.6028 53.6298 38.4377C53.2827 38.2727 53.0067 38.0224 52.8019 37.6867C52.597 37.351 52.4946 36.9413 52.4946 36.4577V32.6938H53.4676Z" fill="white"/>
<path d="M51.5751 34.4605C51.5751 34.7621 51.504 35.0466 51.3618 35.314C51.2195 35.5814 50.9919 35.8005 50.679 35.9712C50.3661 36.1362 49.9649 36.2187 49.4756 36.2187H48.4002V38.6255H47.4272V32.6938H49.4756C49.9308 32.6938 50.3148 32.7735 50.6278 32.9328C50.9464 33.0864 51.1825 33.297 51.3362 33.5644C51.4955 33.8318 51.5751 34.1305 51.5751 34.4605ZM49.4756 35.425C49.8454 35.425 50.1214 35.3425 50.3035 35.1775C50.4855 35.0068 50.5766 34.7678 50.5766 34.4605C50.5766 33.8119 50.2096 33.4876 49.4756 33.4876H48.4002V35.425H49.4756Z" fill="white"/>
<path d="M43.9245 33.4788V35.2199H45.9728V36.0136H43.9245V37.8315H46.2289V38.6253H42.9515V32.6851H46.2289V33.4788H43.9245Z" fill="white"/>
<circle cx="40.4597" cy="9.1001" r="5.3999" fill="#FFE1BE"/>
<circle cx="31.0099" cy="4.51042" r="3.50994" fill="#CCD4FF"/>
<rect x="36" y="41.5" width="16" height="16" rx="8" fill="#3758F9"/>
<g clip-path="url(#clip0_18_2073)">
<path d="M48.2079 50.0638C48.111 50.0861 48.0092 50.0691 47.9249 50.0164C47.8406 49.9637 47.7806 49.8797 47.7583 49.7828L47.1268 47.0477L45.0232 50.4142C43.7062 52.5217 40.9298 53.1627 38.8223 51.8458C38.738 51.7931 38.678 51.709 38.6556 51.6121C38.6333 51.5152 38.6503 51.4134 38.703 51.3291C38.7557 51.2447 38.8398 51.1848 38.9367 51.1624C39.0336 51.14 39.1354 51.1571 39.2197 51.2098C40.9762 52.3073 43.2896 51.7732 44.3871 50.0168L46.4908 46.6502L43.7557 47.2817C43.6595 47.3021 43.5591 47.284 43.4762 47.2312C43.3933 47.1783 43.3344 47.095 43.3123 46.9992C43.2902 46.9034 43.3066 46.8028 43.3579 46.7189C43.4093 46.6351 43.4916 46.5748 43.587 46.551L47.2042 45.7159C47.301 45.6936 47.4028 45.7106 47.4872 45.7633C47.5715 45.816 47.6314 45.9 47.6538 45.9969L48.4889 49.6141C48.5113 49.711 48.4942 49.8128 48.4415 49.8971C48.3888 49.9814 48.3048 50.0414 48.2079 50.0638Z" fill="white"/>
</g>
<defs>
<clipPath id="clip0_18_2073">
<rect width="12" height="12" fill="white" transform="translate(52.5356 47.5913) rotate(122)"/>
</clipPath>
</defs>
</svg>
