<svg width="71" height="60" viewBox="0 0 71 60" fill="none" xmlns="http://www.w3.org/2000/svg">
<path d="M3.63597 50.2907C5.32181 50.2907 6.68845 48.9158 6.68845 47.2198C6.68845 45.5238 5.32181 44.1489 3.63597 44.1489C1.95014 44.1489 0.583496 45.5238 0.583496 47.2198C0.583496 48.9158 1.95014 50.2907 3.63597 50.2907Z" fill="#F7921E"/>
<path d="M3.63604 50.8868C1.63397 50.8868 0 49.2429 0 47.2198C0 45.1966 1.63397 43.5618 3.63604 43.5618C5.6381 43.5618 7.27207 45.2056 7.27207 47.2198C7.28105 49.2429 5.64708 50.8868 3.63604 50.8868ZM3.63604 44.7359C2.2714 44.7359 1.16712 45.8559 1.16712 47.2198C1.16712 48.5926 2.28038 49.7036 3.63604 49.7036C5.00067 49.7036 6.10495 48.5836 6.10495 47.2198C6.11393 45.8469 5.00067 44.7359 3.63604 44.7359Z" fill="#888888"/>
<path d="M26.0717 9.15869H11.1954C7.13741 9.15869 3.84253 12.4644 3.84253 16.556V52.0158C3.84253 56.0983 7.12843 59.4131 11.1954 59.4131H32.4101C36.4681 59.4131 39.763 56.1074 39.763 52.0158V22.9326L26.0717 9.15869Z" fill="white"/>
<path d="M32.4102 60.0001H11.1955C6.82325 60.0001 3.25903 56.4234 3.25903 52.0158V16.5559C3.26801 12.1482 6.82325 8.57153 11.1955 8.57153H26.0628C26.2154 8.57153 26.3681 8.63476 26.4758 8.74314L40.1671 22.517C40.2748 22.6254 40.3376 22.779 40.3376 22.9325V52.0158C40.3466 56.4144 36.7914 60.0001 32.4102 60.0001ZM11.1955 9.7457C7.46965 9.7457 4.42616 12.7985 4.42616 16.5559V52.0158C4.42616 55.7641 7.46068 58.8259 11.1955 58.8259H32.4102C36.136 58.8259 39.1795 55.7731 39.1795 52.0158V23.1764L25.8294 9.7457H11.1955Z" fill="#888888"/>
<path d="M26.0718 9.15869L39.763 22.9326H28.9896C27.3736 22.9326 26.0718 21.6139 26.0718 19.9972V9.15869Z" fill="#DCDDDE"/>
<path d="M39.7631 23.5197H28.9897C27.0594 23.5197 25.4883 21.9391 25.4883 19.9972V9.15871C25.4883 8.92388 25.6319 8.70711 25.8474 8.61679C26.0629 8.52647 26.3142 8.57163 26.4848 8.74324L40.1491 22.49C40.2748 22.5984 40.3467 22.752 40.3467 22.9326C40.3467 23.2578 40.0863 23.5197 39.7631 23.5197ZM26.6554 10.5767V19.9972C26.6554 21.2978 27.7058 22.3455 28.9897 22.3455H38.3536L26.6554 10.5767Z" fill="#888888"/>
<path d="M3.91432 29.49C2.10079 29.49 0.628418 30.9712 0.628418 32.7957V46.6419H0.691263C0.987533 45.1155 2.31626 43.9684 3.91432 43.9684H37.0157V29.49H3.91432Z" fill="#F7921E"/>
<path d="M0.691329 47.2289H0.628483C0.30528 47.2289 0.0449219 46.967 0.0449219 46.6418V32.7957C0.0449219 30.646 1.77765 28.9028 3.91438 28.9028H37.0158C37.339 28.9028 37.5994 29.1648 37.5994 29.4899V43.9683C37.5994 44.2935 37.339 44.5554 37.0158 44.5554H3.91438C2.62157 44.5554 1.50831 45.4857 1.25693 46.7592C1.21205 47.0302 0.969643 47.2289 0.691329 47.2289ZM3.91438 30.077C2.42406 30.077 1.21205 31.2963 1.21205 32.7957V44.4831C1.91232 43.7967 2.87295 43.3722 3.91438 43.3722H36.4322V30.077H3.91438Z" fill="#888888"/>
<path d="M9.43579 33.175C9.43579 32.9311 9.6333 32.7324 9.86673 32.7324H12.3356C14.0774 32.7324 15.2355 33.6627 15.2355 35.1982V35.2162C15.2355 36.8962 13.8439 37.7633 12.192 37.7633H10.3156V40.1206C10.3156 40.3645 10.1181 40.5632 9.87571 40.5632C9.64228 40.5632 9.44477 40.3645 9.44477 40.1206V33.175H9.43579ZM12.2189 36.9685C13.5028 36.9685 14.3377 36.282 14.3377 35.2524V35.2343C14.3377 34.1234 13.5117 33.5453 12.2638 33.5453H10.3066V36.9685H12.2189Z" fill="white"/>
<path d="M16.8157 33.175C16.8157 32.9311 17.0132 32.7324 17.2466 32.7324H19.5001C21.9331 32.7324 23.6119 34.4124 23.6119 36.5981V36.6162C23.6119 38.802 21.9331 40.509 19.5001 40.509H17.2466C17.0132 40.509 16.8157 40.3103 16.8157 40.0665V33.175ZM19.5001 39.7052C21.4572 39.7052 22.7052 38.3684 22.7052 36.6433V36.6252C22.7052 34.9001 21.4572 33.5453 19.5001 33.5453H17.6865V39.7052H19.5001Z" fill="white"/>
<path d="M25.4612 33.175C25.4612 32.9311 25.6587 32.7324 25.8921 32.7324H30.6773C30.9018 32.7324 31.0724 32.9131 31.0724 33.1298C31.0724 33.3556 30.8928 33.5453 30.6773 33.5453H26.332V36.3272H30.1746C30.399 36.3272 30.5696 36.5078 30.5696 36.7246C30.5696 36.9504 30.39 37.122 30.1746 37.122H26.332V40.1206C26.332 40.3645 26.1345 40.5632 25.8921 40.5632C25.6587 40.5632 25.4612 40.3645 25.4612 40.1206V33.175Z" fill="white"/>
<path d="M45.1453 41.7751C46.3254 41.7751 47.282 40.8127 47.282 39.6255C47.282 38.4383 46.3254 37.4758 45.1453 37.4758C43.9652 37.4758 43.0085 38.4383 43.0085 39.6255C43.0085 40.8127 43.9652 41.7751 45.1453 41.7751Z" fill="#C1A700"/>
<path d="M45.1453 42.1924C43.7439 42.1924 42.6001 41.0418 42.6001 39.6255C42.6001 38.2093 43.7439 37.0649 45.1453 37.0649C46.5531 37.0649 47.6906 38.2156 47.6906 39.6255C47.6968 41.0418 46.5531 42.1924 45.1453 42.1924ZM45.1453 37.8869C44.1901 37.8869 43.4171 38.6708 43.4171 39.6255C43.4171 40.5865 44.1964 41.3642 45.1453 41.3642C46.1006 41.3642 46.8736 40.5802 46.8736 39.6255C46.8798 38.6645 46.1006 37.8869 45.1453 37.8869Z" fill="#888888"/>
<path d="M60.8502 12.9827H50.4368C47.5962 12.9827 45.2898 15.2967 45.2898 18.1607V42.9827C45.2898 45.8404 47.5899 48.1607 50.4368 48.1607H65.2871C68.1277 48.1607 70.4341 45.8467 70.4341 42.9827V22.6244L60.8502 12.9827Z" fill="white"/>
<path d="M65.2871 48.5718H50.4369C47.3763 48.5718 44.8813 46.0681 44.8813 42.9827V18.1608C44.8876 15.0755 47.3763 12.5718 50.4369 12.5718H60.844C60.9508 12.5718 61.0577 12.616 61.1331 12.6919L70.717 22.3336C70.7924 22.4095 70.8364 22.517 70.8364 22.6245V42.9827C70.8427 46.0618 68.354 48.5718 65.2871 48.5718ZM50.4369 13.3937C47.8288 13.3937 45.6983 15.5307 45.6983 18.1608V42.9827C45.6983 45.6065 47.8225 47.7499 50.4369 47.7499H65.2871C67.8952 47.7499 70.0257 45.6129 70.0257 42.9827V22.7952L60.6806 13.3937H50.4369Z" fill="#888888"/>
<path d="M60.8503 12.9827L70.4342 22.6244H62.8928C61.7616 22.6244 60.8503 21.7013 60.8503 20.5696V12.9827Z" fill="#DCDDDE"/>
<path d="M70.4343 23.0354H62.8929C61.5417 23.0354 60.4419 21.929 60.4419 20.5697V12.9827C60.4419 12.8183 60.5424 12.6666 60.6933 12.6034C60.8441 12.5402 61.0201 12.5718 61.1395 12.6919L70.7045 22.3147C70.7925 22.3905 70.8428 22.498 70.8428 22.6245C70.8428 22.8521 70.6605 23.0354 70.4343 23.0354ZM61.2589 13.9754V20.5697C61.2589 21.4801 61.9942 22.2135 62.8929 22.2135H69.4476L61.2589 13.9754Z" fill="#888888"/>
<path d="M45.3402 27.2146C44.0707 27.2146 43.04 28.2515 43.04 29.5286V39.2209H43.084C43.2914 38.1524 44.2215 37.3495 45.3402 37.3495H68.5112V27.2146H45.3402Z" fill="#C1A700"/>
<path d="M43.0841 39.6319H43.0401C42.8138 39.6319 42.6316 39.4486 42.6316 39.221V29.5287C42.6316 28.0239 43.8445 26.8037 45.3402 26.8037H68.5112C68.7374 26.8037 68.9197 26.9871 68.9197 27.2147V37.3495C68.9197 37.5772 68.7374 37.7605 68.5112 37.7605H45.3402C44.4352 37.7605 43.656 38.4117 43.48 39.3032C43.4486 39.4929 43.2789 39.6319 43.0841 39.6319ZM45.3402 27.6256C44.297 27.6256 43.4486 28.4792 43.4486 29.5287V37.7099C43.9388 37.2294 44.6112 36.9323 45.3402 36.9323H68.1027V27.6256H45.3402Z" fill="#888888"/>
<path d="M64.171 32.1499C64.4897 32.2068 64.7599 32.3746 64.9818 32.6534C65.2037 32.9322 65.3147 33.248 65.3147 33.6008C65.3147 33.9024 65.235 34.1755 65.0757 34.4201C64.9221 34.6591 64.6973 34.8497 64.4015 34.992C64.1056 35.1285 63.7614 35.1968 63.3688 35.1968H60.9961V29.2651H63.2578C63.6618 29.2651 64.0089 29.3334 64.299 29.47C64.5892 29.6065 64.8083 29.7914 64.9562 30.0247C65.1042 30.2523 65.1781 30.5084 65.1781 30.7929C65.1781 31.1343 65.0871 31.4187 64.905 31.6463C64.7229 31.8739 64.4783 32.0418 64.171 32.1499ZM61.9691 31.7573H63.1725C63.4911 31.7573 63.7386 31.6862 63.915 31.5439C64.0971 31.396 64.1881 31.1855 64.1881 30.9123C64.1881 30.6449 64.0971 30.4372 63.915 30.2893C63.7386 30.1357 63.4911 30.0589 63.1725 30.0589H61.9691V31.7573ZM63.2834 34.4031C63.6134 34.4031 63.8723 34.3234 64.0601 34.1641C64.2478 34.0048 64.3417 33.7829 64.3417 33.4984C64.3417 33.2082 64.2421 32.9778 64.043 32.8071C63.8439 32.6364 63.5793 32.551 63.2493 32.551H61.9691V34.4031H63.2834Z" fill="white"/>
<path d="M56.0677 29.2651V33.046C56.0677 33.4955 56.1843 33.8341 56.4176 34.0617C56.6566 34.2893 56.9866 34.4031 57.4076 34.4031C57.8344 34.4031 58.1644 34.2893 58.3977 34.0617C58.6367 33.8341 58.7561 33.4955 58.7561 33.046V29.2651H59.7291V33.029C59.7291 33.5126 59.6238 33.9223 59.4133 34.258C59.2028 34.5937 58.9211 34.844 58.5684 35.009C58.2156 35.174 57.8259 35.2565 57.3991 35.2565C56.9724 35.2565 56.5826 35.174 56.2299 35.009C55.8828 34.844 55.6068 34.5937 55.402 34.258C55.1971 33.9223 55.0947 33.5126 55.0947 33.029V29.2651H56.0677Z" fill="white"/>
<path d="M54.1755 31.0318C54.1755 31.3334 54.1044 31.6179 53.9621 31.8853C53.8199 32.1527 53.5923 32.3718 53.2793 32.5425C52.9664 32.7075 52.5653 32.79 52.0759 32.79H51.0006V35.1968H50.0276V29.2651H52.0759C52.5311 29.2651 52.9152 29.3448 53.2281 29.5041C53.5468 29.6577 53.7829 29.8683 53.9365 30.1357C54.0958 30.4031 54.1755 30.7018 54.1755 31.0318ZM52.0759 31.9963C52.4458 31.9963 52.7217 31.9138 52.9038 31.7488C53.0859 31.5781 53.1769 31.3391 53.1769 31.0318C53.1769 30.3832 52.8099 30.0589 52.0759 30.0589H51.0006V31.9963H52.0759Z" fill="white"/>
<path d="M46.5247 30.0503V31.7914H48.5731V32.5852H46.5247V34.4031H48.8291V35.1968H45.5518V29.2566H48.8291V30.0503H46.5247Z" fill="white"/>
<circle cx="40.793" cy="9.6001" r="5.3999" fill="#FFE1BE"/>
<circle cx="31.3432" cy="5.01018" r="3.50994" fill="#CCD4FF"/>
<rect x="35" y="41" width="16" height="16" rx="8" fill="#3758F9"/>
<g clip-path="url(#clip0_1_10066)">
<path d="M47.2079 49.5638C47.111 49.5861 47.0092 49.5691 46.9249 49.5164C46.8406 49.4637 46.7806 49.3797 46.7583 49.2828L46.1268 46.5477L44.0232 49.9142C42.7062 52.0217 39.9298 52.6627 37.8223 51.3458C37.738 51.2931 37.678 51.209 37.6556 51.1121C37.6333 51.0152 37.6503 50.9134 37.703 50.8291C37.7557 50.7447 37.8398 50.6848 37.9367 50.6624C38.0336 50.64 38.1354 50.6571 38.2197 50.7098C39.9762 51.8073 42.2896 51.2732 43.3871 49.5168L45.4908 46.1502L42.7557 46.7817C42.6595 46.8021 42.5591 46.784 42.4762 46.7312C42.3933 46.6783 42.3344 46.595 42.3123 46.4992C42.2902 46.4034 42.3066 46.3028 42.3579 46.2189C42.4093 46.1351 42.4916 46.0748 42.587 46.051L46.2042 45.2159C46.301 45.1936 46.4028 45.2106 46.4872 45.2633C46.5715 45.316 46.6314 45.4 46.6538 45.4969L47.4889 49.1141C47.5113 49.211 47.4942 49.3128 47.4415 49.3971C47.3888 49.4814 47.3048 49.5414 47.2079 49.5638Z" fill="white"/>
</g>
<defs>
<clipPath id="clip0_1_10066">
<rect width="12" height="12" fill="white" transform="translate(51.5356 47.0913) rotate(122)"/>
</clipPath>
</defs>
</svg>
