<svg width="73" height="60" viewBox="0 0 73 60" fill="none" xmlns="http://www.w3.org/2000/svg">
<path d="M4.02052 50.2907C5.7301 50.2907 7.11599 48.9158 7.11599 47.2198C7.11599 45.5238 5.7301 44.1489 4.02052 44.1489C2.31094 44.1489 0.925049 45.5238 0.925049 47.2198C0.925049 48.9158 2.31094 50.2907 4.02052 50.2907Z" fill="#F7921E"/>
<path d="M4.0205 50.8868C1.99024 50.8868 0.333252 49.2429 0.333252 47.2198C0.333252 45.1966 1.99024 43.5618 4.0205 43.5618C6.05076 43.5618 7.70775 45.2056 7.70775 47.2198C7.71685 49.2429 6.05987 50.8868 4.0205 50.8868ZM4.0205 44.7359C2.63664 44.7359 1.51681 45.8559 1.51681 47.2198C1.51681 48.5926 2.64575 49.7036 4.0205 49.7036C5.40436 49.7036 6.52419 48.5836 6.52419 47.2198C6.53329 45.8469 5.40436 44.7359 4.0205 44.7359Z" fill="#888888"/>
<path d="M26.7723 9.15869H11.6864C7.57126 9.15869 4.22998 12.4644 4.22998 16.556V52.0158C4.22998 56.0983 7.56216 59.4131 11.6864 59.4131H33.1999C37.3151 59.4131 40.6564 56.1074 40.6564 52.0158V22.9326L26.7723 9.15869Z" fill="white"/>
<path d="M33.1999 60.0001H11.6864C7.2526 60.0001 3.63818 56.4234 3.63818 52.0158V16.5559C3.64729 12.1482 7.2526 8.57153 11.6864 8.57153H26.7632C26.9179 8.57153 27.0727 8.63476 27.182 8.74314L41.066 22.517C41.1753 22.6254 41.239 22.779 41.239 22.9325V52.0158C41.2481 56.4144 37.6428 60.0001 33.1999 60.0001ZM11.6864 9.7457C7.90811 9.7457 4.82175 12.7985 4.82175 16.5559V52.0158C4.82175 55.7641 7.899 58.8259 11.6864 58.8259H33.1999C36.9782 58.8259 40.0646 55.7731 40.0646 52.0158V23.1764L26.5264 9.7457H11.6864Z" fill="#888888"/>
<path d="M26.7722 9.15869L40.6563 22.9326H29.7311C28.0923 22.9326 26.7722 21.6139 26.7722 19.9972V9.15869Z" fill="#DCDDDE"/>
<path d="M40.6563 23.5197H29.7311C27.7737 23.5197 26.1804 21.9391 26.1804 19.9972V9.15871C26.1804 8.92388 26.3261 8.70711 26.5446 8.61679C26.7631 8.52647 27.018 8.57163 27.191 8.74324L41.0478 22.49C41.1752 22.5984 41.2481 22.752 41.2481 22.9326C41.2481 23.2578 40.984 23.5197 40.6563 23.5197ZM27.364 10.5767V19.9972C27.364 21.2978 28.4292 22.3455 29.7311 22.3455H39.2269L27.364 10.5767Z" fill="#888888"/>
<path d="M4.30264 29.49C2.46357 29.49 0.970459 30.9712 0.970459 32.7957V46.6419H1.03419C1.33463 45.1155 2.68207 43.9684 4.30264 43.9684H37.8703V29.49H4.30264Z" fill="#F7921E"/>
<path d="M1.03417 47.2289H0.970443C0.642687 47.2289 0.378662 46.967 0.378662 46.6418V32.7957C0.378662 30.646 2.1358 28.9028 4.30262 28.9028H37.8702C38.198 28.9028 38.462 29.1648 38.462 29.4899V43.9683C38.462 44.2935 38.198 44.5554 37.8702 44.5554H4.30262C2.9916 44.5554 1.86267 45.4857 1.60775 46.7592C1.56222 47.0302 1.31641 47.2289 1.03417 47.2289ZM4.30262 30.077C2.79131 30.077 1.56222 31.2963 1.56222 32.7957V44.4831C2.27236 43.7967 3.24652 43.3722 4.30262 43.3722H37.2785V30.077H4.30262Z" fill="#888888"/>
<path d="M9.90186 33.175C9.90186 32.9311 10.1022 32.7324 10.3389 32.7324H12.8426C14.6088 32.7324 15.7832 33.6627 15.7832 35.1982V35.2162C15.7832 36.8962 14.3721 37.7633 12.6969 37.7633H10.7941V40.1206C10.7941 40.3645 10.5938 40.5632 10.348 40.5632C10.1113 40.5632 9.91096 40.3645 9.91096 40.1206V33.175H9.90186ZM12.7242 36.9685C14.0261 36.9685 14.8728 36.282 14.8728 35.2524V35.2343C14.8728 34.1234 14.0352 33.5453 12.7697 33.5453H10.785V36.9685H12.7242Z" fill="white"/>
<path d="M17.3855 33.175C17.3855 32.9311 17.5858 32.7324 17.8225 32.7324H20.1077C22.575 32.7324 24.2775 34.4124 24.2775 36.5981V36.6162C24.2775 38.802 22.575 40.509 20.1077 40.509H17.8225C17.5858 40.509 17.3855 40.3103 17.3855 40.0665V33.175ZM20.1077 39.7052C22.0924 39.7052 23.3579 38.3684 23.3579 36.6433V36.6252C23.3579 34.9001 22.0924 33.5453 20.1077 33.5453H18.2686V39.7052H20.1077Z" fill="white"/>
<path d="M26.1531 33.175C26.1531 32.9311 26.3534 32.7324 26.5901 32.7324H31.4427C31.6703 32.7324 31.8433 32.9131 31.8433 33.1298C31.8433 33.3556 31.6612 33.5453 31.4427 33.5453H27.0362V36.3272H30.9328C31.1605 36.3272 31.3334 36.5078 31.3334 36.7246C31.3334 36.9504 31.1513 37.122 30.9328 37.122H27.0362V40.1206C27.0362 40.3645 26.8359 40.5632 26.5901 40.5632C26.3534 40.5632 26.1531 40.3645 26.1531 40.1206V33.175Z" fill="white"/>
<path d="M46.1143 41.7751C47.311 41.7751 48.2812 40.8127 48.2812 39.6255C48.2812 38.4383 47.311 37.4758 46.1143 37.4758C44.9176 37.4758 43.9475 38.4383 43.9475 39.6255C43.9475 40.8127 44.9176 41.7751 46.1143 41.7751Z" fill="#2BB673"/>
<path d="M46.1143 42.1924C44.6931 42.1924 43.5332 41.0418 43.5332 39.6255C43.5332 38.2093 44.6931 37.0649 46.1143 37.0649C47.5355 37.0649 48.6954 38.2156 48.6954 39.6255C48.6954 41.0354 47.5418 42.1924 46.1143 42.1924ZM46.1143 37.8869C45.1456 37.8869 44.3617 38.6708 44.3617 39.6255C44.3617 40.5865 45.152 41.3642 46.1143 41.3642C47.083 41.3642 47.8669 40.5802 47.8669 39.6255C47.8732 38.6645 47.083 37.8869 46.1143 37.8869Z" fill="#888888"/>
<path d="M62.0406 12.9827H51.4805C48.5999 12.9827 46.261 15.2967 46.261 18.1607V42.9827C46.261 45.8404 48.5935 48.1607 51.4805 48.1607H66.5399C69.4206 48.1607 71.7595 45.8467 71.7595 42.9827V22.6244L62.0406 12.9827Z" fill="white"/>
<path d="M66.5399 48.5718H51.4804C48.3768 48.5718 45.8467 46.0681 45.8467 42.9827V18.1608C45.8531 15.0755 48.3768 12.5718 51.4804 12.5718H62.0342C62.1425 12.5718 62.2508 12.616 62.3273 12.6919L72.0462 22.3336C72.1227 22.4095 72.1673 22.517 72.1673 22.6245V42.9827C72.1736 46.0618 69.6499 48.5718 66.5399 48.5718ZM51.4804 13.3937C48.8356 13.3937 46.6752 15.5307 46.6752 18.1608V42.9827C46.6752 45.6065 48.8293 47.7499 51.4804 47.7499H66.5399C69.1847 47.7499 71.3451 45.6129 71.3451 42.9827V22.7952L61.8685 13.3937H51.4804Z" fill="#888888"/>
<path d="M62.0405 12.9827L71.7594 22.6244H64.1118C62.9646 22.6244 62.0405 21.7013 62.0405 20.5696V12.9827Z" fill="#DCDDDE"/>
<path d="M71.7593 23.0354H64.1117C62.7415 23.0354 61.6262 21.929 61.6262 20.5697V12.9827C61.6262 12.8183 61.7282 12.6666 61.8811 12.6034C62.0341 12.5402 62.2125 12.5718 62.3336 12.6919L72.0334 22.3147C72.1226 22.3905 72.1736 22.498 72.1736 22.6245C72.1736 22.8521 71.9888 23.0354 71.7593 23.0354ZM62.4547 13.9754V20.5697C62.4547 21.4801 63.2004 22.2135 64.1117 22.2135H70.7588L62.4547 13.9754Z" fill="#888888"/>
<path d="M46.312 27.2146C45.0247 27.2146 43.9795 28.2515 43.9795 29.5286V39.2209H44.0241C44.2344 38.1524 45.1776 37.3495 46.312 37.3495H69.8094V27.2146H46.312Z" fill="#2BB673"/>
<path d="M44.024 39.6319H43.9794C43.75 39.6319 43.5652 39.4486 43.5652 39.221V29.5287C43.5652 28.0239 44.7952 26.8037 46.312 26.8037H69.8093C70.0387 26.8037 70.2235 26.9871 70.2235 27.2147V37.3495C70.2235 37.5772 70.0387 37.7605 69.8093 37.7605H46.312C45.3942 37.7605 44.604 38.4054 44.4255 39.3032C44.3937 39.4929 44.2216 39.6319 44.024 39.6319ZM46.312 27.6256C45.254 27.6256 44.3937 28.4792 44.3937 29.5287V37.7099C44.8908 37.2294 45.5727 36.9323 46.312 36.9323H69.3951V27.6256H46.312Z" fill="#888888"/>
<path d="M51.9584 30.1227H50.3652C50.2059 30.1227 50.072 29.9963 50.072 29.8445C50.072 29.6865 50.2059 29.5537 50.3652 29.5537H54.1762C54.3356 29.5537 54.4694 29.6865 54.4694 29.8445C54.4694 30.0026 54.3356 30.1227 54.1762 30.1227H52.583V34.7318C52.583 34.9025 52.4428 35.0416 52.2707 35.0416C52.0986 35.0416 51.9584 34.9025 51.9584 34.7318V30.1227Z" fill="white"/>
<path d="M55.4191 34.5359L57.2545 32.2219L55.5147 30.047C55.4573 29.9774 55.4127 29.9079 55.4127 29.813C55.4127 29.655 55.5465 29.5159 55.7186 29.5159C55.846 29.5159 55.9162 29.5791 55.9926 29.6739L57.6496 31.8046L59.2811 29.6929C59.3703 29.5917 59.4468 29.5159 59.5806 29.5159C59.7272 29.5159 59.8611 29.6423 59.8611 29.8067C59.8611 29.8826 59.8292 29.9648 59.7718 30.0217L58.0192 32.2156L59.8292 34.5106C59.8929 34.5801 59.9312 34.6497 59.9312 34.7382C59.9312 34.9026 59.7973 35.0417 59.6253 35.0417C59.4978 35.0417 59.4277 34.9785 59.3512 34.8836L57.6177 32.6518L55.9098 34.8647C55.8206 34.9658 55.7441 35.0417 55.6039 35.0417C55.4637 35.0417 55.3298 34.9152 55.3298 34.7509C55.3362 34.675 55.3617 34.5991 55.4191 34.5359Z" fill="white"/>
<path d="M62.6843 30.1227H61.091C60.9317 30.1227 60.7979 29.9963 60.7979 29.8445C60.7979 29.6865 60.9317 29.5537 61.091 29.5537H64.9021C65.0614 29.5537 65.1952 29.6865 65.1952 29.8445C65.1952 30.0026 65.0614 30.1227 64.9021 30.1227H63.3088V34.7318C63.3088 34.9025 63.1686 35.0416 62.9965 35.0416C62.8245 35.0416 62.6843 34.9025 62.6843 34.7318V30.1227Z" fill="white"/>
<circle cx="41.4595" cy="9.1001" r="5.3999" fill="#FFE1BE"/>
<circle cx="32.0097" cy="4.51018" r="3.50994" fill="#CCD4FF"/>
<rect x="35.6665" y="41.5" width="16" height="16" rx="8" fill="#3758F9"/>
<g clip-path="url(#clip0_1_9684)">
<path d="M47.8744 50.0638C47.7775 50.0861 47.6757 50.0691 47.5914 50.0164C47.5071 49.9637 47.4471 49.8797 47.4248 49.7828L46.7933 47.0477L44.6897 50.4142C43.3727 52.5217 40.5963 53.1627 38.4888 51.8458C38.4045 51.7931 38.3445 51.709 38.3221 51.6121C38.2998 51.5152 38.3168 51.4134 38.3695 51.3291C38.4222 51.2447 38.5063 51.1848 38.6032 51.1624C38.7001 51.14 38.8019 51.1571 38.8862 51.2098C40.6427 52.3073 42.9561 51.7732 44.0536 50.0168L46.1573 46.6502L43.4222 47.2817C43.326 47.3021 43.2256 47.284 43.1427 47.2312C43.0598 47.1783 43.0009 47.095 42.9788 46.9992C42.9567 46.9034 42.9731 46.8028 43.0245 46.7189C43.0758 46.6351 43.1581 46.5748 43.2535 46.551L46.8707 45.7159C46.9675 45.6936 47.0694 45.7106 47.1537 45.7633C47.238 45.816 47.298 45.9 47.3203 45.9969L48.1554 49.6141C48.1778 49.711 48.1607 49.8128 48.108 49.8971C48.0553 49.9814 47.9713 50.0414 47.8744 50.0638Z" fill="white"/>
</g>
<defs>
<clipPath id="clip0_1_9684">
<rect width="12" height="12" fill="white" transform="translate(52.2021 47.5913) rotate(122)"/>
</clipPath>
</defs>
</svg>
