<svg width="73" height="60" viewBox="0 0 73 60" fill="none" xmlns="http://www.w3.org/2000/svg">
<path d="M4.35401 50.2907C6.06359 50.2907 7.44948 48.9158 7.44948 47.2198C7.44948 45.5238 6.06359 44.1489 4.35401 44.1489C2.64443 44.1489 1.25854 45.5238 1.25854 47.2198C1.25854 48.9158 2.64443 50.2907 4.35401 50.2907Z" fill="#F7921E"/>
<path d="M4.354 50.887C2.32373 50.887 0.666748 49.2432 0.666748 47.22C0.666748 45.1968 2.32373 43.562 4.354 43.562C6.38426 43.562 8.04125 45.2058 8.04125 47.22C8.05035 49.2432 6.39336 50.887 4.354 50.887ZM4.354 44.7362C2.97014 44.7362 1.85031 45.8562 1.85031 47.22C1.85031 48.5929 2.97924 49.7038 4.354 49.7038C5.73785 49.7038 6.85769 48.5838 6.85769 47.22C6.86679 45.8471 5.73785 44.7362 4.354 44.7362Z" fill="#888888"/>
<path d="M27.1058 9.15869H12.0199C7.90476 9.15869 4.56348 12.4644 4.56348 16.556V52.0158C4.56348 56.0983 7.89566 59.4131 12.0199 59.4131H33.5334C37.6486 59.4131 40.9899 56.1074 40.9899 52.0158V22.9326L27.1058 9.15869Z" fill="white"/>
<path d="M33.5334 60.0001H12.0199C7.58609 60.0001 3.97168 56.4234 3.97168 52.0158V16.5559C3.98078 12.1482 7.58609 8.57153 12.0199 8.57153H27.0967C27.2514 8.57153 27.4062 8.63476 27.5155 8.74314L41.3995 22.517C41.5088 22.6254 41.5725 22.779 41.5725 22.9325V52.0158C41.5816 56.4144 37.9763 60.0001 33.5334 60.0001ZM12.0199 9.7457C8.24161 9.7457 5.15524 12.7985 5.15524 16.5559V52.0158C5.15524 55.7641 8.2325 58.8259 12.0199 58.8259H33.5334C37.3117 58.8259 40.3981 55.7731 40.3981 52.0158V23.1764L26.8599 9.7457H12.0199Z" fill="#888888"/>
<path d="M27.1057 9.15869L40.9898 22.9326H30.0646C28.4258 22.9326 27.1057 21.6139 27.1057 19.9972V9.15869Z" fill="#DCDDDE"/>
<path d="M40.9898 23.5197H30.0646C28.1072 23.5197 26.5139 21.9391 26.5139 19.9972V9.15871C26.5139 8.92388 26.6596 8.70711 26.8781 8.61679C27.0966 8.52647 27.3515 8.57163 27.5245 8.74324L41.3813 22.49C41.5087 22.5984 41.5816 22.752 41.5816 22.9326C41.5816 23.2578 41.3175 23.5197 40.9898 23.5197ZM27.6975 10.5767V19.9972C27.6975 21.2978 28.7627 22.3455 30.0646 22.3455H39.5604L27.6975 10.5767Z" fill="#888888"/>
<path d="M4.63614 29.4897C2.79706 29.4897 1.30396 30.971 1.30396 32.7955V46.6416H1.36769C1.66813 45.1152 3.01557 43.9681 4.63614 43.9681H38.2038V29.4897H4.63614Z" fill="#F7921E"/>
<path d="M1.36767 47.2289H1.30394C0.976183 47.2289 0.712158 46.967 0.712158 46.6418V32.7957C0.712158 30.646 2.46929 28.9028 4.63612 28.9028H38.2037C38.5315 28.9028 38.7955 29.1648 38.7955 29.4899V43.9683C38.7955 44.2935 38.5315 44.5554 38.2037 44.5554H4.63612C3.3251 44.5554 2.19616 45.4857 1.94124 46.7592C1.89572 47.0302 1.6499 47.2289 1.36767 47.2289ZM4.63612 30.077C3.1248 30.077 1.89572 31.2963 1.89572 32.7957V44.4831C2.60586 43.7967 3.58002 43.3722 4.63612 43.3722H37.612V30.077H4.63612Z" fill="#888888"/>
<path d="M10.2354 33.175C10.2354 32.9311 10.4356 32.7324 10.6724 32.7324H13.176C14.9423 32.7324 16.1167 33.6627 16.1167 35.1982V35.2162C16.1167 36.8962 14.7056 37.7633 13.0304 37.7633H11.1276V40.1206C11.1276 40.3645 10.9273 40.5632 10.6815 40.5632C10.4448 40.5632 10.2445 40.3645 10.2445 40.1206V33.175H10.2354ZM13.0577 36.9685C14.3596 36.9685 15.2063 36.282 15.2063 35.2524V35.2343C15.2063 34.1234 14.3687 33.5453 13.1032 33.5453H11.1185V36.9685H13.0577Z" fill="white"/>
<path d="M17.719 33.175C17.719 32.9311 17.9193 32.7324 18.156 32.7324H20.4412C22.9085 32.7324 24.611 34.4124 24.611 36.5981V36.6162C24.611 38.802 22.9085 40.509 20.4412 40.509H18.156C17.9193 40.509 17.719 40.3103 17.719 40.0665V33.175ZM20.4412 39.7052C22.4259 39.7052 23.6914 38.3684 23.6914 36.6433V36.6252C23.6914 34.9001 22.4259 33.5453 20.4412 33.5453H18.6021V39.7052H20.4412Z" fill="white"/>
<path d="M26.4866 33.175C26.4866 32.9311 26.6869 32.7324 26.9236 32.7324H31.7762C32.0038 32.7324 32.1768 32.9131 32.1768 33.1298C32.1768 33.3556 31.9947 33.5453 31.7762 33.5453H27.3697V36.3272H31.2663C31.4939 36.3272 31.6669 36.5078 31.6669 36.7246C31.6669 36.9504 31.4848 37.122 31.2663 37.122H27.3697V40.1206C27.3697 40.3645 27.1694 40.5632 26.9236 40.5632C26.6869 40.5632 26.4866 40.3645 26.4866 40.1206V33.175Z" fill="white"/>
<path d="M46.4478 41.7753C47.6445 41.7753 48.6147 40.8129 48.6147 39.6257C48.6147 38.4385 47.6445 37.4761 46.4478 37.4761C45.2511 37.4761 44.281 38.4385 44.281 39.6257C44.281 40.8129 45.2511 41.7753 46.4478 41.7753Z" fill="#632BB6"/>
<path d="M46.4478 42.1924C45.0266 42.1924 43.8667 41.0418 43.8667 39.6255C43.8667 38.2093 45.0266 37.0649 46.4478 37.0649C47.8753 37.0649 49.0288 38.2156 49.0288 39.6255C49.0288 41.0354 47.8753 42.1924 46.4478 42.1924ZM46.4478 37.8869C45.4791 37.8869 44.6952 38.6708 44.6952 39.6255C44.6952 40.5802 45.4854 41.3642 46.4478 41.3642C47.4165 41.3642 48.2004 40.5802 48.2004 39.6255C48.2004 38.6708 47.4165 37.8869 46.4478 37.8869Z" fill="#888888"/>
<path d="M62.3741 12.9827H51.814C48.9334 12.9827 46.5945 15.2967 46.5945 18.1607V42.9827C46.5945 45.8404 48.927 48.1607 51.814 48.1607H66.8734C69.7541 48.1607 72.093 45.8467 72.093 42.9827V22.6244L62.3741 12.9827Z" fill="white"/>
<path d="M66.8734 48.5718H51.8139C48.7103 48.5718 46.1802 46.0681 46.1802 42.9827V18.1608C46.1865 15.0755 48.7103 12.5718 51.8139 12.5718H62.3677C62.476 12.5718 62.5843 12.616 62.6608 12.6919L72.3797 22.3336C72.4562 22.4095 72.5008 22.517 72.5008 22.6245V42.9827C72.5071 46.0618 69.9834 48.5718 66.8734 48.5718ZM51.8139 13.3937C49.1691 13.3937 47.0087 15.5307 47.0087 18.1608V42.9827C47.0087 45.6065 49.1628 47.7499 51.8139 47.7499H66.8734C69.5182 47.7499 71.6786 45.6129 71.6786 42.9827V22.7952L62.202 13.3937H51.8139Z" fill="#888888"/>
<path d="M62.374 12.9827L72.0929 22.6244H64.4453C63.2981 22.6244 62.374 21.7013 62.374 20.5696V12.9827Z" fill="#DCDDDE"/>
<path d="M72.0928 23.0354H64.4452C63.075 23.0354 61.9597 21.929 61.9597 20.5697V12.9827C61.9597 12.8183 62.0617 12.6666 62.2146 12.6034C62.3676 12.5402 62.546 12.5718 62.6671 12.6919L72.3669 22.3147C72.4561 22.3905 72.5071 22.498 72.5071 22.6245C72.5071 22.8521 72.3223 23.0354 72.0928 23.0354ZM62.7882 13.9754V20.5697C62.7882 21.4801 63.5339 22.2135 64.4452 22.2135H71.0923L62.7882 13.9754Z" fill="#888888"/>
<path d="M46.6455 27.2148C45.3582 27.2148 44.313 28.2517 44.313 29.5289V39.2212H44.3576C44.5679 38.1527 45.5111 37.3497 46.6455 37.3497H70.1429V27.2148H46.6455Z" fill="#632BB6"/>
<path d="M44.3575 39.6319H44.3129C44.0835 39.6319 43.8987 39.4486 43.8987 39.221V29.5287C43.8987 28.0239 45.1287 26.8037 46.6455 26.8037H70.1428C70.3722 26.8037 70.557 26.9871 70.557 27.2147V37.3495C70.557 37.5772 70.3722 37.7605 70.1428 37.7605H46.6455C45.7277 37.7605 44.9375 38.4054 44.759 39.3032C44.7272 39.4929 44.5551 39.6319 44.3575 39.6319ZM46.6455 27.6256C45.5875 27.6256 44.7272 28.4792 44.7272 29.5287V37.7099C45.2243 37.2294 45.9062 36.9323 46.6455 36.9323H69.7285V27.6256H46.6455Z" fill="#888888"/>
<path d="M65.2536 29.1777V29.9806H62.7068V31.7504H64.6924V32.5533H62.7068V35.1777H61.7227V29.1777H65.2536Z" fill="white"/>
<path d="M58.7774 32.1821L60.6421 35.1777H59.5371L58.1817 33.0022L56.9127 35.1777H55.8163L57.681 32.1821L55.8076 29.1777H56.9127L58.2767 31.3705L59.5544 29.1777H60.6508L58.7774 32.1821Z" fill="white"/>
<path d="M51.8625 29.1777C52.5014 29.1777 53.0597 29.3015 53.5374 29.549C54.0208 29.7907 54.392 30.1418 54.651 30.6022C54.9158 31.0569 55.0482 31.5892 55.0482 32.1993C55.0482 32.8094 54.9158 33.3389 54.651 33.7878C54.392 34.2367 54.0208 34.5821 53.5374 34.8238C53.0597 35.0597 52.5014 35.1777 51.8625 35.1777H49.9028V29.1777H51.8625ZM51.8625 34.3749C52.5647 34.3749 53.1028 34.1849 53.4769 33.8051C53.851 33.4252 54.0381 32.89 54.0381 32.1993C54.0381 31.5029 53.851 30.959 53.4769 30.5677C53.1028 30.1763 52.5647 29.9806 51.8625 29.9806H50.887V34.3749H51.8625Z" fill="white"/>
<circle cx="41.6265" cy="9.6001" r="5.3999" fill="#FFE1BE"/>
<circle cx="32.1767" cy="5.01018" r="3.50994" fill="#CCD4FF"/>
<rect x="35.8335" y="41" width="16" height="16" rx="8" fill="#3758F9"/>
<g clip-path="url(#clip0_1_10302)">
<path d="M48.0414 49.5638C47.9445 49.5861 47.8427 49.5691 47.7584 49.5164C47.6741 49.4637 47.6141 49.3797 47.5917 49.2828L46.9603 46.5477L44.8567 49.9142C43.5397 52.0217 40.7633 52.6627 38.6558 51.3458C38.5715 51.2931 38.5115 51.209 38.4891 51.1121C38.4668 51.0152 38.4838 50.9134 38.5365 50.8291C38.5892 50.7447 38.6733 50.6848 38.7702 50.6624C38.8671 50.64 38.9689 50.6571 39.0532 50.7098C40.8097 51.8073 43.1231 51.2732 44.2206 49.5168L46.3243 46.1502L43.5892 46.7817C43.493 46.8021 43.3926 46.784 43.3097 46.7312C43.2268 46.6783 43.1679 46.595 43.1458 46.4992C43.1237 46.4034 43.1401 46.3028 43.1914 46.2189C43.2428 46.1351 43.3251 46.0748 43.4205 46.051L47.0376 45.2159C47.1345 45.1936 47.2363 45.2106 47.3207 45.2633C47.405 45.316 47.4649 45.4 47.4873 45.4969L48.3224 49.1141C48.3448 49.211 48.3277 49.3128 48.275 49.3971C48.2223 49.4814 48.1383 49.5414 48.0414 49.5638Z" fill="white"/>
</g>
<defs>
<clipPath id="clip0_1_10302">
<rect width="12" height="12" fill="white" transform="translate(52.3691 47.0913) rotate(122)"/>
</clipPath>
</defs>
</svg>
