<svg width="73" height="60" viewBox="0 0 73 60" fill="none" xmlns="http://www.w3.org/2000/svg">
<path d="M3.85401 50.2907C5.56359 50.2907 6.94948 48.9158 6.94948 47.2198C6.94948 45.5238 5.56359 44.1489 3.85401 44.1489C2.14443 44.1489 0.758545 45.5238 0.758545 47.2198C0.758545 48.9158 2.14443 50.2907 3.85401 50.2907Z" fill="#F7921E"/>
<path d="M3.854 50.8868C1.82373 50.8868 0.166748 49.2429 0.166748 47.2198C0.166748 45.1966 1.82373 43.5618 3.854 43.5618C5.88426 43.5618 7.54125 45.2056 7.54125 47.2198C7.55035 49.2429 5.89336 50.8868 3.854 50.8868ZM3.854 44.7359C2.47014 44.7359 1.35031 45.8559 1.35031 47.2198C1.35031 48.5926 2.47924 49.7036 3.854 49.7036C5.23785 49.7036 6.35769 48.5836 6.35769 47.2198C6.36679 45.8469 5.23785 44.7359 3.854 44.7359Z" fill="#888888"/>
<path d="M26.6058 9.15869H11.5199C7.40476 9.15869 4.06348 12.4644 4.06348 16.556V52.0158C4.06348 56.0983 7.39566 59.4131 11.5199 59.4131H33.0334C37.1486 59.4131 40.4899 56.1074 40.4899 52.0158V22.9326L26.6058 9.15869Z" fill="white"/>
<path d="M33.0334 60.0001H11.5199C7.08609 60.0001 3.47168 56.4234 3.47168 52.0158V16.5559C3.48078 12.1482 7.08609 8.57153 11.5199 8.57153H26.5967C26.7514 8.57153 26.9062 8.63476 27.0155 8.74314L40.8995 22.517C41.0088 22.6254 41.0725 22.779 41.0725 22.9325V52.0158C41.0816 56.4144 37.4763 60.0001 33.0334 60.0001ZM11.5199 9.7457C7.74161 9.7457 4.65524 12.7985 4.65524 16.5559V52.0158C4.65524 55.7641 7.7325 58.8259 11.5199 58.8259H33.0334C36.8117 58.8259 39.8981 55.7731 39.8981 52.0158V23.1764L26.3599 9.7457H11.5199Z" fill="#888888"/>
<path d="M26.6057 9.15869L40.4898 22.9326H29.5646C27.9258 22.9326 26.6057 21.6139 26.6057 19.9972V9.15869Z" fill="#DCDDDE"/>
<path d="M40.4898 23.5197H29.5646C27.6072 23.5197 26.0139 21.9391 26.0139 19.9972V9.15871C26.0139 8.92388 26.1596 8.70711 26.3781 8.61679C26.5966 8.52647 26.8515 8.57163 27.0245 8.74324L40.8813 22.49C41.0087 22.5984 41.0816 22.752 41.0816 22.9326C41.0816 23.2578 40.8175 23.5197 40.4898 23.5197ZM27.1975 10.5767V19.9972C27.1975 21.2978 28.2627 22.3455 29.5646 22.3455H39.0604L27.1975 10.5767Z" fill="#888888"/>
<path d="M4.13614 29.49C2.29706 29.49 0.803955 30.9712 0.803955 32.7957V46.6419H0.867685C1.16813 45.1155 2.51557 43.9684 4.13614 43.9684H37.7038V29.49H4.13614Z" fill="#F7921E"/>
<path d="M0.867669 47.2289H0.803939C0.476183 47.2289 0.212158 46.967 0.212158 46.6418V32.7957C0.212158 30.646 1.96929 28.9028 4.13612 28.9028H37.7037C38.0315 28.9028 38.2955 29.1648 38.2955 29.4899V43.9683C38.2955 44.2935 38.0315 44.5554 37.7037 44.5554H4.13612C2.8251 44.5554 1.69616 45.4857 1.44124 46.7592C1.39572 47.0302 1.1499 47.2289 0.867669 47.2289ZM4.13612 30.077C2.6248 30.077 1.39572 31.2963 1.39572 32.7957V44.4831C2.10586 43.7967 3.08002 43.3722 4.13612 43.3722H37.112V30.077H4.13612Z" fill="#888888"/>
<path d="M9.73535 33.175C9.73535 32.9311 9.93565 32.7324 10.1724 32.7324H12.676C14.4423 32.7324 15.6167 33.6627 15.6167 35.1982V35.2162C15.6167 36.8962 14.2056 37.7633 12.5304 37.7633H10.6276V40.1206C10.6276 40.3645 10.4273 40.5632 10.1815 40.5632C9.94475 40.5632 9.74446 40.3645 9.74446 40.1206V33.175H9.73535ZM12.5577 36.9685C13.8596 36.9685 14.7063 36.282 14.7063 35.2524V35.2343C14.7063 34.1234 13.8687 33.5453 12.6032 33.5453H10.6185V36.9685H12.5577Z" fill="white"/>
<path d="M17.219 33.175C17.219 32.9311 17.4193 32.7324 17.656 32.7324H19.9412C22.4085 32.7324 24.111 34.4124 24.111 36.5981V36.6162C24.111 38.802 22.4085 40.509 19.9412 40.509H17.656C17.4193 40.509 17.219 40.3103 17.219 40.0665V33.175ZM19.9412 39.7052C21.9259 39.7052 23.1914 38.3684 23.1914 36.6433V36.6252C23.1914 34.9001 21.9259 33.5453 19.9412 33.5453H18.1021V39.7052H19.9412Z" fill="white"/>
<path d="M25.9866 33.175C25.9866 32.9311 26.1869 32.7324 26.4236 32.7324H31.2762C31.5038 32.7324 31.6768 32.9131 31.6768 33.1298C31.6768 33.3556 31.4947 33.5453 31.2762 33.5453H26.8697V36.3272H30.7663C30.9939 36.3272 31.1669 36.5078 31.1669 36.7246C31.1669 36.9504 30.9848 37.122 30.7663 37.122H26.8697V40.1206C26.8697 40.3645 26.6694 40.5632 26.4236 40.5632C26.1869 40.5632 25.9866 40.3645 25.9866 40.1206V33.175Z" fill="white"/>
<path d="M45.9478 41.7751C47.1445 41.7751 48.1147 40.8127 48.1147 39.6255C48.1147 38.4383 47.1445 37.4758 45.9478 37.4758C44.7511 37.4758 43.781 38.4383 43.781 39.6255C43.781 40.8127 44.7511 41.7751 45.9478 41.7751Z" fill="#2BB673"/>
<path d="M45.9478 42.1924C44.5266 42.1924 43.3667 41.0418 43.3667 39.6255C43.3667 38.2093 44.5266 37.0649 45.9478 37.0649C47.3753 37.0649 48.5288 38.2156 48.5288 39.6255C48.5352 41.0418 47.3753 42.1924 45.9478 42.1924ZM45.9478 37.8869C44.9791 37.8869 44.1952 38.6708 44.1952 39.6255C44.1952 40.5865 44.9854 41.3642 45.9478 41.3642C46.9165 41.3642 47.7004 40.5802 47.7004 39.6255C47.7067 38.6645 46.9165 37.8869 45.9478 37.8869Z" fill="#888888"/>
<path d="M61.8741 12.9827H51.314C48.4334 12.9827 46.0945 15.2967 46.0945 18.1607V42.9827C46.0945 45.8404 48.427 48.1607 51.314 48.1607H66.3734C69.2541 48.1607 71.593 45.8467 71.593 42.9827V22.6244L61.8741 12.9827Z" fill="white"/>
<path d="M66.3734 48.5718H51.3139C48.2103 48.5718 45.6802 46.0681 45.6802 42.9827V18.1608C45.6865 15.0755 48.2103 12.5718 51.3139 12.5718H61.8677C61.976 12.5718 62.0843 12.616 62.1608 12.6919L71.8797 22.3336C71.9562 22.4095 72.0008 22.517 72.0008 22.6245V42.9827C72.0071 46.0618 69.4834 48.5718 66.3734 48.5718ZM51.3139 13.3937C48.6691 13.3937 46.5087 15.5307 46.5087 18.1608V42.9827C46.5087 45.6065 48.6628 47.7499 51.3139 47.7499H66.3734C69.0182 47.7499 71.1786 45.6129 71.1786 42.9827V22.7952L61.702 13.3937H51.3139Z" fill="#888888"/>
<path d="M61.874 12.9827L71.5929 22.6244H63.9453C62.7981 22.6244 61.874 21.7013 61.874 20.5696V12.9827Z" fill="#DCDDDE"/>
<path d="M71.5928 23.0354H63.9452C62.575 23.0354 61.4597 21.929 61.4597 20.5697V12.9827C61.4597 12.8183 61.5617 12.6666 61.7146 12.6034C61.8676 12.5402 62.046 12.5718 62.1671 12.6919L71.8669 22.3147C71.9561 22.3905 72.0071 22.498 72.0071 22.6245C72.0071 22.8521 71.8223 23.0354 71.5928 23.0354ZM62.2882 13.9754V20.5697C62.2882 21.4801 63.0339 22.2135 63.9452 22.2135H70.5923L62.2882 13.9754Z" fill="#888888"/>
<path d="M46.1455 27.2146C44.8582 27.2146 43.813 28.2515 43.813 29.5286V39.2209H43.8576C44.0679 38.1524 45.0111 37.3495 46.1455 37.3495H69.6429V27.2146H46.1455Z" fill="#2BB673"/>
<path d="M43.8575 39.6319H43.8129C43.5835 39.6319 43.3987 39.4486 43.3987 39.221V29.5287C43.3987 28.0239 44.6287 26.8037 46.1455 26.8037H69.6428C69.8722 26.8037 70.057 26.9871 70.057 27.2147V37.3495C70.057 37.5772 69.8722 37.7605 69.6428 37.7605H46.1455C45.2277 37.7605 44.4375 38.4054 44.259 39.3032C44.2272 39.4929 44.0551 39.6319 43.8575 39.6319ZM46.1455 27.6256C45.0875 27.6256 44.2272 28.4792 44.2272 29.5287V37.7099C44.7243 37.2294 45.4062 36.9323 46.1455 36.9323H69.2285V27.6256H46.1455Z" fill="#888888"/>
<path d="M50.2369 34.5041L52.0724 32.1901L50.3325 30.0089C50.2752 29.9393 50.2306 29.8698 50.2306 29.7749C50.2306 29.6169 50.3644 29.4778 50.5365 29.4778C50.6639 29.4778 50.734 29.541 50.8105 29.6358L52.4675 31.7665L54.099 29.6548C54.1882 29.5537 54.2647 29.4778 54.3985 29.4778C54.5451 29.4778 54.6789 29.6042 54.6789 29.7686C54.6789 29.8445 54.6471 29.9267 54.5897 29.9836L52.8371 32.1775L54.6471 34.4725C54.7108 34.5421 54.749 34.6116 54.749 34.7001C54.749 34.8645 54.6152 35.0036 54.4431 35.0036C54.3157 35.0036 54.2456 34.9404 54.1691 34.8455L52.4356 32.6137L50.7277 34.8266C50.6384 34.9277 50.562 35.0036 50.4217 35.0036C50.2815 35.0036 50.1477 34.8772 50.1477 34.7128C50.1541 34.6432 50.1796 34.5674 50.2369 34.5041Z" fill="white"/>
<path d="M56.0491 29.7939C56.0491 29.6232 56.1893 29.4841 56.355 29.4841C56.527 29.4841 56.6673 29.6232 56.6673 29.7939V34.403H59.516C59.6753 34.403 59.7964 34.5358 59.7964 34.6938C59.7964 34.8519 59.6689 34.972 59.516 34.972H56.355C56.1893 34.972 56.0491 34.8329 56.0491 34.6622V29.7939Z" fill="white"/>
<path d="M60.7077 34.3146C60.6376 34.2703 60.593 34.1818 60.593 34.0806C60.593 33.9099 60.7269 33.7772 60.8926 33.7772C60.969 33.7772 61.0391 33.8088 61.0837 33.8467C61.6 34.283 62.1162 34.4916 62.8172 34.4916C63.5565 34.4916 64.0408 34.0996 64.0408 33.5685V33.5559C64.0408 33.0501 63.7668 32.7593 62.6133 32.519C61.3514 32.2471 60.7715 31.8425 60.7715 30.9447V30.9321C60.7715 30.0785 61.5299 29.4463 62.575 29.4463C63.2952 29.4463 63.8241 29.6233 64.3212 29.9837C64.385 30.028 64.4551 30.1165 64.4551 30.2303C64.4551 30.3947 64.3212 30.5274 64.1555 30.5274C64.0854 30.5274 64.0281 30.5148 63.9771 30.4705C63.5119 30.1354 63.0658 29.9963 62.5559 29.9963C61.8421 29.9963 61.3896 30.3883 61.3896 30.8752V30.8878C61.3896 31.3999 61.6701 31.6908 62.8809 31.9437C64.1046 32.2092 64.6718 32.6518 64.6718 33.4863V33.499C64.6718 34.4347 63.8879 35.0417 62.7981 35.0417C61.9887 35.048 61.3195 34.8014 60.7077 34.3146Z" fill="white"/>
<circle cx="41.1265" cy="9.6001" r="5.3999" fill="#FFE1BE"/>
<circle cx="31.6767" cy="5.01018" r="3.50994" fill="#CCD4FF"/>
<rect x="35.3335" y="41" width="16" height="16" rx="8" fill="#3758F9"/>
<path d="M47.5414 49.5638C47.4445 49.5861 47.3427 49.5691 47.2584 49.5164C47.1741 49.4637 47.1141 49.3797 47.0917 49.2828L46.4603 46.5477L44.3567 49.9142C43.0397 52.0217 40.2633 52.6627 38.1558 51.3458C38.0715 51.2931 38.0115 51.209 37.9891 51.1121C37.9668 51.0152 37.9838 50.9134 38.0365 50.8291C38.0892 50.7447 38.1733 50.6848 38.2702 50.6624C38.3671 50.64 38.4689 50.6571 38.5532 50.7098C40.3097 51.8073 42.6231 51.2732 43.7206 49.5168L45.8243 46.1502L43.0892 46.7817C42.993 46.8021 42.8926 46.784 42.8097 46.7312C42.7268 46.6783 42.6679 46.595 42.6458 46.4992C42.6237 46.4034 42.6401 46.3028 42.6914 46.2189C42.7428 46.1351 42.8251 46.0748 42.9205 46.051L46.5376 45.2159C46.6345 45.1936 46.7363 45.2106 46.8207 45.2633C46.905 45.316 46.9649 45.4 46.9873 45.4969L47.8224 49.1141C47.8448 49.211 47.8277 49.3128 47.775 49.3971C47.7223 49.4814 47.6383 49.5414 47.5414 49.5638Z" fill="white"/>
</svg>
