<svg width="72" height="60" viewBox="0 0 72 60" fill="none" xmlns="http://www.w3.org/2000/svg">
<path d="M3.80272 50.2907C5.48856 50.2907 6.8552 48.9158 6.8552 47.2198C6.8552 45.5238 5.48856 44.1489 3.80272 44.1489C2.11688 44.1489 0.750244 45.5238 0.750244 47.2198C0.750244 48.9158 2.11688 50.2907 3.80272 50.2907Z" fill="#F7921E"/>
<path d="M3.80279 50.8868C1.80072 50.8868 0.166748 49.2429 0.166748 47.2198C0.166748 45.1966 1.80072 43.5618 3.80279 43.5618C5.80485 43.5618 7.43882 45.2056 7.43882 47.2198C7.4478 49.2429 5.81383 50.8868 3.80279 50.8868ZM3.80279 44.7359C2.43815 44.7359 1.33387 45.8559 1.33387 47.2198C1.33387 48.5926 2.44713 49.7036 3.80279 49.7036C5.16742 49.7036 6.2717 48.5836 6.2717 47.2198C6.28068 45.8469 5.16742 44.7359 3.80279 44.7359Z" fill="#888888"/>
<path d="M26.2385 9.15869H11.3622C7.30416 9.15869 4.00928 12.4644 4.00928 16.556V52.0158C4.00928 56.0983 7.29518 59.4131 11.3622 59.4131H32.5769C36.6349 59.4131 39.9297 56.1074 39.9297 52.0158V22.9326L26.2385 9.15869Z" fill="white"/>
<path d="M32.5769 60.0001H11.3622C6.99 60.0001 3.42578 56.4234 3.42578 52.0158V16.5559C3.43476 12.1482 6.99 8.57153 11.3622 8.57153H26.2296C26.3822 8.57153 26.5348 8.63476 26.6426 8.74314L40.3338 22.517C40.4415 22.6254 40.5044 22.779 40.5044 22.9325V52.0158C40.5134 56.4144 36.9581 60.0001 32.5769 60.0001ZM11.3622 9.7457C7.6364 9.7457 4.5929 12.7985 4.5929 16.5559V52.0158C4.5929 55.7641 7.62742 58.8259 11.3622 58.8259H32.5769C36.3027 58.8259 39.3462 55.7731 39.3462 52.0158V23.1764L25.9962 9.7457H11.3622Z" fill="#888888"/>
<path d="M26.2385 9.15869L39.9298 22.9326H29.1563C27.5403 22.9326 26.2385 21.6139 26.2385 19.9972V9.15869Z" fill="#DCDDDE"/>
<path d="M39.9298 23.5197H29.1564C27.2262 23.5197 25.655 21.9391 25.655 19.9972V9.15871C25.655 8.92388 25.7987 8.70711 26.0141 8.61679C26.2296 8.52647 26.481 8.57163 26.6516 8.74324L40.3159 22.49C40.4416 22.5984 40.5134 22.752 40.5134 22.9326C40.5134 23.2578 40.253 23.5197 39.9298 23.5197ZM26.8222 10.5767V19.9972C26.8222 21.2978 27.8726 22.3455 29.1564 22.3455H38.5203L26.8222 10.5767Z" fill="#888888"/>
<path d="M4.08107 29.49C2.26754 29.49 0.795166 30.9712 0.795166 32.7957V46.6419H0.858011C1.15428 45.1155 2.48301 43.9684 4.08107 43.9684H37.1825V29.49H4.08107Z" fill="#F7921E"/>
<path d="M0.858077 47.2289H0.795232C0.472028 47.2289 0.21167 46.967 0.21167 46.6418V32.7957C0.21167 30.646 1.9444 28.9028 4.08113 28.9028H37.1825C37.5057 28.9028 37.7661 29.1648 37.7661 29.4899V43.9683C37.7661 44.2935 37.5057 44.5554 37.1825 44.5554H4.08113C2.78832 44.5554 1.67506 45.4857 1.42368 46.7592C1.37879 47.0302 1.13639 47.2289 0.858077 47.2289ZM4.08113 30.077C2.59081 30.077 1.37879 31.2963 1.37879 32.7957V44.4831C2.07907 43.7967 3.0397 43.3722 4.08113 43.3722H36.599V30.077H4.08113Z" fill="#888888"/>
<path d="M9.60254 33.175C9.60254 32.9311 9.80005 32.7324 10.0335 32.7324H12.5024C14.2441 32.7324 15.4022 33.6627 15.4022 35.1982V35.2162C15.4022 36.8962 14.0107 37.7633 12.3587 37.7633H10.4824V40.1206C10.4824 40.3645 10.2849 40.5632 10.0425 40.5632C9.80903 40.5632 9.61152 40.3645 9.61152 40.1206V33.175H9.60254ZM12.3857 36.9685C13.6695 36.9685 14.5045 36.282 14.5045 35.2524V35.2343C14.5045 34.1234 13.6785 33.5453 12.4306 33.5453H10.4734V36.9685H12.3857Z" fill="white"/>
<path d="M16.9824 33.175C16.9824 32.9311 17.1799 32.7324 17.4134 32.7324H19.6668C22.0998 32.7324 23.7787 34.4124 23.7787 36.5981V36.6162C23.7787 38.802 22.0998 40.509 19.6668 40.509H17.4134C17.1799 40.509 16.9824 40.3103 16.9824 40.0665V33.175ZM19.6668 39.7052C21.624 39.7052 22.8719 38.3684 22.8719 36.6433V36.6252C22.8719 34.9001 21.624 33.5453 19.6668 33.5453H17.8533V39.7052H19.6668Z" fill="white"/>
<path d="M25.6279 33.175C25.6279 32.9311 25.8254 32.7324 26.0589 32.7324H30.8441C31.0685 32.7324 31.2391 32.9131 31.2391 33.1298C31.2391 33.3556 31.0595 33.5453 30.8441 33.5453H26.4988V36.3272H30.3413C30.5658 36.3272 30.7363 36.5078 30.7363 36.7246C30.7363 36.9504 30.5568 37.122 30.3413 37.122H26.4988V40.1206C26.4988 40.3645 26.3013 40.5632 26.0589 40.5632C25.8254 40.5632 25.6279 40.3645 25.6279 40.1206V33.175Z" fill="white"/>
<path d="M45.312 41.7751C46.4921 41.7751 47.4488 40.8127 47.4488 39.6255C47.4488 38.4383 46.4921 37.4758 45.312 37.4758C44.1319 37.4758 43.1753 38.4383 43.1753 39.6255C43.1753 40.8127 44.1319 41.7751 45.312 41.7751Z" fill="#00A79D"/>
<path d="M45.3121 42.1924C43.9106 42.1924 42.7668 41.0418 42.7668 39.6255C42.7668 38.2093 43.9106 37.0649 45.3121 37.0649C46.7198 37.0649 47.8573 38.2156 47.8573 39.6255C47.8636 41.0418 46.7198 42.1924 45.3121 42.1924ZM45.3121 37.8869C44.3568 37.8869 43.5838 38.6708 43.5838 39.6255C43.5838 40.5865 44.3631 41.3642 45.3121 41.3642C46.2673 41.3642 47.0403 40.5802 47.0403 39.6255C47.0466 38.6645 46.2673 37.8869 45.3121 37.8869Z" fill="#888888"/>
<path d="M61.017 12.9827H50.6036C47.763 12.9827 45.4565 15.2967 45.4565 18.1607V42.9827C45.4565 45.8404 47.7567 48.1607 50.6036 48.1607H65.4539C68.2945 48.1607 70.6009 45.8467 70.6009 42.9827V22.6244L61.017 12.9827Z" fill="white"/>
<path d="M65.4539 48.5718H50.6036C47.543 48.5718 45.0481 46.0681 45.0481 42.9827V18.1608C45.0544 15.0755 47.543 12.5718 50.6036 12.5718H61.0107C61.1176 12.5718 61.2244 12.616 61.2998 12.6919L70.8837 22.3336C70.9591 22.4095 71.0031 22.517 71.0031 22.6245V42.9827C71.0094 46.0618 68.5207 48.5718 65.4539 48.5718ZM50.6036 13.3937C47.9955 13.3937 45.8651 15.5307 45.8651 18.1608V42.9827C45.8651 45.6065 47.9892 47.7499 50.6036 47.7499H65.4539C68.062 47.7499 70.1924 45.6129 70.1924 42.9827V22.7952L60.8474 13.3937H50.6036Z" fill="#888888"/>
<path d="M61.0171 12.9827L70.601 22.6244H63.0596C61.9283 22.6244 61.0171 21.7013 61.0171 20.5696V12.9827Z" fill="#DCDDDE"/>
<path d="M70.601 23.0354H63.0596C61.7084 23.0354 60.6086 21.929 60.6086 20.5697V12.9827C60.6086 12.8183 60.7092 12.6666 60.86 12.6034C61.0109 12.5402 61.1868 12.5718 61.3062 12.6919L70.8712 22.3147C70.9592 22.3905 71.0095 22.498 71.0095 22.6245C71.0095 22.8521 70.8273 23.0354 70.601 23.0354ZM61.4256 13.9754V20.5697C61.4256 21.4801 62.1609 22.2135 63.0596 22.2135H69.6143L61.4256 13.9754Z" fill="#888888"/>
<path d="M45.5069 27.2146C44.2374 27.2146 43.2068 28.2515 43.2068 29.5286V39.2209H43.2508C43.4582 38.1524 44.3883 37.3495 45.5069 37.3495H68.6779V27.2146H45.5069Z" fill="#00A79D"/>
<path d="M43.2508 39.6319H43.2068C42.9806 39.6319 42.7983 39.4486 42.7983 39.221V29.5287C42.7983 28.0239 44.0113 26.8037 45.507 26.8037H68.6779C68.9042 26.8037 69.0864 26.9871 69.0864 27.2147V37.3495C69.0864 37.5772 68.9042 37.7605 68.6779 37.7605H45.507C44.602 37.7605 43.8227 38.4054 43.6467 39.3032C43.6153 39.4929 43.4456 39.6319 43.2508 39.6319ZM45.507 27.6256C44.4637 27.6256 43.6153 28.4792 43.6153 29.5287V37.7099C44.1055 37.2294 44.778 36.9323 45.507 36.9323H68.2695V27.6256H45.507Z" fill="#888888"/>
<path d="M48.1968 29.7939C48.1968 29.6232 48.335 29.4841 48.4984 29.4841H50.0758C51.7789 29.4841 52.9542 30.6601 52.9542 32.1901V32.2028C52.9542 33.7328 51.7789 34.9278 50.0758 34.9278H48.4984C48.335 34.9278 48.1968 34.7887 48.1968 34.618V29.7939ZM50.0758 34.3651C51.4459 34.3651 52.3194 33.4293 52.3194 32.2217V32.2091C52.3194 31.0015 51.4459 30.0532 50.0758 30.0532H48.8064V34.3651H50.0758Z" fill="white"/>
<path d="M54.0037 32.2219V32.2092C54.0037 30.7045 55.1223 29.3894 56.7751 29.3894C58.4217 29.3894 59.5277 30.6918 59.5277 32.1902V32.2029C59.5277 33.7076 58.4091 35.0227 56.7563 35.0227C55.1097 35.0227 54.0037 33.7266 54.0037 32.2219ZM58.893 32.2219V32.2092C58.893 30.97 57.9943 29.9584 56.7563 29.9584C55.5182 29.9584 54.6384 30.9574 54.6384 32.1902V32.2029C54.6384 33.4421 55.5371 34.4537 56.7751 34.4537C58.0132 34.46 58.893 33.4611 58.893 32.2219Z" fill="white"/>
<path d="M60.5835 32.2219V32.2092C60.5835 30.6665 61.7273 29.3894 63.3235 29.3894C64.1971 29.3894 64.7564 29.6802 65.2592 30.0975C65.322 30.1544 65.3849 30.2366 65.3849 30.3441C65.3849 30.5085 65.2403 30.6476 65.0769 30.6476C64.9889 30.6476 64.9198 30.6096 64.8758 30.578C64.461 30.205 63.9834 29.9584 63.3235 29.9584C62.1232 29.9584 61.2245 30.9384 61.2245 32.1902V32.2029C61.2245 33.4611 62.1295 34.4537 63.3235 34.4537C63.996 34.4537 64.4673 34.2198 64.9324 33.7898C64.9764 33.7456 65.0455 33.7013 65.1272 33.7013C65.2843 33.7013 65.4226 33.8404 65.4226 33.9985C65.4226 34.0933 65.3786 34.1692 65.322 34.2134C64.7878 34.7066 64.2034 35.0164 63.311 35.0164C61.7336 35.0227 60.5835 33.7898 60.5835 32.2219Z" fill="white"/>
<circle cx="41.1265" cy="9.1001" r="5.3999" fill="#FFE1BE"/>
<circle cx="31.6767" cy="4.51018" r="3.50994" fill="#CCD4FF"/>
<rect x="35.3335" y="41.5" width="16" height="16" rx="8" fill="#3758F9"/>
<g clip-path="url(#clip0_1_9591)">
<path d="M47.5414 50.0638C47.4445 50.0861 47.3427 50.0691 47.2584 50.0164C47.1741 49.9637 47.1141 49.8797 47.0917 49.7828L46.4603 47.0477L44.3567 50.4142C43.0397 52.5217 40.2633 53.1627 38.1558 51.8458C38.0715 51.7931 38.0115 51.709 37.9891 51.6121C37.9668 51.5152 37.9838 51.4134 38.0365 51.3291C38.0892 51.2447 38.1733 51.1848 38.2702 51.1624C38.3671 51.14 38.4689 51.1571 38.5532 51.2098C40.3097 52.3073 42.6231 51.7732 43.7206 50.0168L45.8243 46.6502L43.0892 47.2817C42.993 47.3021 42.8926 47.284 42.8097 47.2312C42.7268 47.1783 42.6679 47.095 42.6458 46.9992C42.6237 46.9034 42.6401 46.8028 42.6914 46.7189C42.7428 46.6351 42.8251 46.5748 42.9205 46.551L46.5376 45.7159C46.6345 45.6936 46.7363 45.7106 46.8207 45.7633C46.905 45.816 46.9649 45.9 46.9873 45.9969L47.8224 49.6141C47.8448 49.711 47.8277 49.8128 47.775 49.8971C47.7223 49.9814 47.6383 50.0414 47.5414 50.0638Z" fill="white"/>
</g>
<defs>
<clipPath id="clip0_1_9591">
<rect width="12" height="12" fill="white" transform="translate(51.8691 47.5913) rotate(122)"/>
</clipPath>
</defs>
</svg>
