<svg width="73" height="60" viewBox="0 0 73 60" fill="none" xmlns="http://www.w3.org/2000/svg">
<path d="M3.85401 50.2907C5.56359 50.2907 6.94948 48.9158 6.94948 47.2198C6.94948 45.5238 5.56359 44.1489 3.85401 44.1489C2.14443 44.1489 0.758545 45.5238 0.758545 47.2198C0.758545 48.9158 2.14443 50.2907 3.85401 50.2907Z" fill="#F7921E"/>
<path d="M3.854 50.8868C1.82373 50.8868 0.166748 49.2429 0.166748 47.2198C0.166748 45.1966 1.82373 43.5618 3.854 43.5618C5.88426 43.5618 7.54125 45.2056 7.54125 47.2198C7.55035 49.2429 5.89336 50.8868 3.854 50.8868ZM3.854 44.7359C2.47014 44.7359 1.35031 45.8559 1.35031 47.2198C1.35031 48.5926 2.47924 49.7036 3.854 49.7036C5.23785 49.7036 6.35769 48.5836 6.35769 47.2198C6.36679 45.8469 5.23785 44.7359 3.854 44.7359Z" fill="#888888"/>
<path d="M26.6058 9.15869H11.5199C7.40476 9.15869 4.06348 12.4644 4.06348 16.556V52.0158C4.06348 56.0983 7.39566 59.4131 11.5199 59.4131H33.0334C37.1486 59.4131 40.4899 56.1074 40.4899 52.0158V22.9326L26.6058 9.15869Z" fill="white"/>
<path d="M33.0334 60.0001H11.5199C7.08609 60.0001 3.47168 56.4234 3.47168 52.0158V16.5559C3.48078 12.1482 7.08609 8.57153 11.5199 8.57153H26.5967C26.7514 8.57153 26.9062 8.63476 27.0155 8.74314L40.8995 22.517C41.0088 22.6254 41.0725 22.779 41.0725 22.9325V52.0158C41.0816 56.4144 37.4763 60.0001 33.0334 60.0001ZM11.5199 9.7457C7.74161 9.7457 4.65524 12.7985 4.65524 16.5559V52.0158C4.65524 55.7641 7.7325 58.8259 11.5199 58.8259H33.0334C36.8117 58.8259 39.8981 55.7731 39.8981 52.0158V23.1764L26.3599 9.7457H11.5199Z" fill="#888888"/>
<path d="M26.6057 9.15869L40.4898 22.9326H29.5646C27.9258 22.9326 26.6057 21.6139 26.6057 19.9972V9.15869Z" fill="#DCDDDE"/>
<path d="M40.4898 23.5197H29.5646C27.6072 23.5197 26.0139 21.9391 26.0139 19.9972V9.15871C26.0139 8.92388 26.1596 8.70711 26.3781 8.61679C26.5966 8.52647 26.8515 8.57163 27.0245 8.74324L40.8813 22.49C41.0087 22.5984 41.0816 22.752 41.0816 22.9326C41.0816 23.2578 40.8175 23.5197 40.4898 23.5197ZM27.1975 10.5767V19.9972C27.1975 21.2978 28.2627 22.3455 29.5646 22.3455H39.0604L27.1975 10.5767Z" fill="#888888"/>
<path d="M4.13614 29.49C2.29706 29.49 0.803955 30.9712 0.803955 32.7957V46.6419H0.867685C1.16813 45.1155 2.51557 43.9684 4.13614 43.9684H37.7038V29.49H4.13614Z" fill="#F7921E"/>
<path d="M0.867669 47.2289H0.803939C0.476183 47.2289 0.212158 46.967 0.212158 46.6418V32.7957C0.212158 30.646 1.96929 28.9028 4.13612 28.9028H37.7037C38.0315 28.9028 38.2955 29.1648 38.2955 29.4899V43.9683C38.2955 44.2935 38.0315 44.5554 37.7037 44.5554H4.13612C2.8251 44.5554 1.69616 45.4857 1.44124 46.7592C1.39572 47.0302 1.1499 47.2289 0.867669 47.2289ZM4.13612 30.077C2.6248 30.077 1.39572 31.2963 1.39572 32.7957V44.4831C2.10586 43.7967 3.08002 43.3722 4.13612 43.3722H37.112V30.077H4.13612Z" fill="#888888"/>
<path d="M9.73535 33.175C9.73535 32.9311 9.93565 32.7324 10.1724 32.7324H12.676C14.4423 32.7324 15.6167 33.6627 15.6167 35.1982V35.2162C15.6167 36.8962 14.2056 37.7633 12.5304 37.7633H10.6276V40.1206C10.6276 40.3645 10.4273 40.5632 10.1815 40.5632C9.94475 40.5632 9.74446 40.3645 9.74446 40.1206V33.175H9.73535ZM12.5577 36.9685C13.8596 36.9685 14.7063 36.282 14.7063 35.2524V35.2343C14.7063 34.1234 13.8687 33.5453 12.6032 33.5453H10.6185V36.9685H12.5577Z" fill="white"/>
<path d="M17.219 33.175C17.219 32.9311 17.4193 32.7324 17.656 32.7324H19.9412C22.4085 32.7324 24.111 34.4124 24.111 36.5981V36.6162C24.111 38.802 22.4085 40.509 19.9412 40.509H17.656C17.4193 40.509 17.219 40.3103 17.219 40.0665V33.175ZM19.9412 39.7052C21.9259 39.7052 23.1914 38.3684 23.1914 36.6433V36.6252C23.1914 34.9001 21.9259 33.5453 19.9412 33.5453H18.1021V39.7052H19.9412Z" fill="white"/>
<path d="M25.9866 33.175C25.9866 32.9311 26.1869 32.7324 26.4236 32.7324H31.2762C31.5038 32.7324 31.6768 32.9131 31.6768 33.1298C31.6768 33.3556 31.4947 33.5453 31.2762 33.5453H26.8697V36.3272H30.7663C30.9939 36.3272 31.1669 36.5078 31.1669 36.7246C31.1669 36.9504 30.9848 37.122 30.7663 37.122H26.8697V40.1206C26.8697 40.3645 26.6694 40.5632 26.4236 40.5632C26.1869 40.5632 25.9866 40.3645 25.9866 40.1206V33.175Z" fill="white"/>
<path d="M45.9478 41.7751C47.1445 41.7751 48.1147 40.8127 48.1147 39.6255C48.1147 38.4383 47.1445 37.4758 45.9478 37.4758C44.7511 37.4758 43.781 38.4383 43.781 39.6255C43.781 40.8127 44.7511 41.7751 45.9478 41.7751Z" fill="#8F00F5"/>
<path d="M45.9478 42.1924C44.5266 42.1924 43.3667 41.0418 43.3667 39.6255C43.3667 38.2093 44.5266 37.0649 45.9478 37.0649C47.3753 37.0649 48.5288 38.2156 48.5288 39.6255C48.5288 41.0354 47.3753 42.1924 45.9478 42.1924ZM45.9478 37.8869C44.9791 37.8869 44.1952 38.6708 44.1952 39.6255C44.1952 40.5802 44.9854 41.3642 45.9478 41.3642C46.9165 41.3642 47.7004 40.5802 47.7004 39.6255C47.7004 38.6708 46.9165 37.8869 45.9478 37.8869Z" fill="#888888"/>
<path d="M61.8741 12.9827H51.314C48.4334 12.9827 46.0945 15.2967 46.0945 18.1607V42.9827C46.0945 45.8404 48.427 48.1607 51.314 48.1607H66.3734C69.2541 48.1607 71.593 45.8467 71.593 42.9827V22.6244L61.8741 12.9827Z" fill="white"/>
<path d="M66.3734 48.5718H51.3139C48.2103 48.5718 45.6802 46.0681 45.6802 42.9827V18.1608C45.6865 15.0755 48.2103 12.5718 51.3139 12.5718H61.8677C61.976 12.5718 62.0843 12.616 62.1608 12.6919L71.8797 22.3336C71.9562 22.4095 72.0008 22.517 72.0008 22.6245V42.9827C72.0071 46.0618 69.4834 48.5718 66.3734 48.5718ZM51.3139 13.3937C48.6691 13.3937 46.5087 15.5307 46.5087 18.1608V42.9827C46.5087 45.6065 48.6628 47.7499 51.3139 47.7499H66.3734C69.0182 47.7499 71.1786 45.6129 71.1786 42.9827V22.7952L61.702 13.3937H51.3139Z" fill="#888888"/>
<path d="M61.874 12.9827L71.5929 22.6244H63.9453C62.7981 22.6244 61.874 21.7013 61.874 20.5696V12.9827Z" fill="#DCDDDE"/>
<path d="M71.5928 23.0354H63.9452C62.575 23.0354 61.4597 21.929 61.4597 20.5697V12.9827C61.4597 12.8183 61.5617 12.6666 61.7146 12.6034C61.8676 12.5402 62.046 12.5718 62.1671 12.6919L71.8669 22.3147C71.9561 22.3905 72.0071 22.498 72.0071 22.6245C72.0071 22.8521 71.8223 23.0354 71.5928 23.0354ZM62.2882 13.9754V20.5697C62.2882 21.4801 63.0339 22.2135 63.9452 22.2135H70.5923L62.2882 13.9754Z" fill="#888888"/>
<path d="M46.1455 27.2146C44.8582 27.2146 43.813 28.2515 43.813 29.5286V39.2209H43.8576C44.0679 38.1524 45.0111 37.3495 46.1455 37.3495H69.6429V27.2146H46.1455Z" fill="#8F00F5"/>
<path d="M43.8575 39.6319H43.8129C43.5835 39.6319 43.3987 39.4486 43.3987 39.221V29.5287C43.3987 28.0239 44.6287 26.8037 46.1455 26.8037H69.6428C69.8722 26.8037 70.057 26.9871 70.057 27.2147V37.3495C70.057 37.5772 69.8722 37.7605 69.6428 37.7605H46.1455C45.2277 37.7605 44.4375 38.4054 44.259 39.3032C44.2272 39.4929 44.0551 39.6319 43.8575 39.6319ZM46.1455 27.6256C45.0875 27.6256 44.2272 28.4792 44.2272 29.5287V37.7099C44.7243 37.2294 45.4062 36.9323 46.1455 36.9323H69.2285V27.6256H46.1455Z" fill="#888888"/>
<path d="M65.0091 33.5459C64.7403 33.5459 64.4983 33.4983 64.2832 33.4032C64.0722 33.3039 63.9047 33.1715 63.7806 33.0061C63.6565 32.8365 63.5903 32.6483 63.582 32.4414H64.3142C64.3266 32.5862 64.3949 32.7082 64.519 32.8075C64.6472 32.9027 64.8064 32.9502 64.9967 32.9502C65.1953 32.9502 65.3483 32.913 65.4559 32.8385C65.5676 32.76 65.6234 32.6607 65.6234 32.5407C65.6234 32.4125 65.5613 32.3173 65.4373 32.2553C65.3173 32.1933 65.1249 32.125 64.8602 32.0505C64.6037 31.9802 64.3949 31.912 64.2335 31.8458C64.0722 31.7796 63.9316 31.6783 63.8116 31.5418C63.6958 31.4052 63.6379 31.2253 63.6379 31.0019C63.6379 30.8199 63.6916 30.6545 63.7992 30.5056C63.9067 30.3525 64.0598 30.2325 64.2583 30.1457C64.461 30.0588 64.6927 30.0154 64.9533 30.0154C65.3421 30.0154 65.6544 30.1147 65.8902 30.3132C66.1301 30.5076 66.2584 30.7744 66.2749 31.1136H65.5676C65.5551 30.9606 65.4931 30.8385 65.3814 30.7475C65.2697 30.6565 65.1187 30.611 64.9285 30.611C64.7423 30.611 64.5996 30.6462 64.5003 30.7165C64.4011 30.7868 64.3514 30.8799 64.3514 30.9957C64.3514 31.0867 64.3845 31.1633 64.4507 31.2253C64.5169 31.2874 64.5975 31.337 64.6927 31.3742C64.7878 31.4073 64.9285 31.4507 65.1146 31.5045C65.3628 31.5707 65.5655 31.639 65.7227 31.7093C65.884 31.7755 66.0226 31.8747 66.1384 32.0071C66.2542 32.1395 66.3142 32.3153 66.3183 32.5345C66.3183 32.7289 66.2646 32.9027 66.157 33.0557C66.0495 33.2088 65.8964 33.3287 65.6979 33.4156C65.5034 33.5025 65.2739 33.5459 65.0091 33.5459Z" fill="white"/>
<path d="M63.0721 31.6969C63.0721 31.8251 63.0638 31.9409 63.0472 32.0443H60.435C60.4557 32.3173 60.5571 32.5366 60.7391 32.702C60.9211 32.8675 61.1445 32.9502 61.4092 32.9502C61.7897 32.9502 62.0586 32.791 62.2158 32.4725H62.979C62.8756 32.7868 62.6874 33.0454 62.4144 33.2481C62.1455 33.4466 61.8104 33.5459 61.4092 33.5459C61.0824 33.5459 60.7887 33.4735 60.5281 33.3287C60.2717 33.1798 60.069 32.973 59.92 32.7082C59.7753 32.4394 59.7029 32.1291 59.7029 31.7775C59.7029 31.4259 59.7732 31.1178 59.9138 30.853C60.0586 30.5842 60.2592 30.3773 60.5157 30.2325C60.7763 30.0878 61.0741 30.0154 61.4092 30.0154C61.7318 30.0154 62.0193 30.0857 62.2717 30.2263C62.524 30.367 62.7205 30.5655 62.8611 30.822C63.0017 31.0743 63.0721 31.366 63.0721 31.6969ZM62.3337 31.4735C62.3296 31.2129 62.2365 31.004 62.0545 30.8468C61.8725 30.6896 61.647 30.611 61.3782 30.611C61.1341 30.611 60.9252 30.6896 60.7515 30.8468C60.5778 30.9999 60.4743 31.2088 60.4412 31.4735H62.3337Z" fill="white"/>
<path d="M57.1108 30.0154C57.3755 30.0154 57.6092 30.0692 57.8119 30.1767C58.0188 30.2801 58.1801 30.4104 58.2959 30.5676V30.0712H59.0095V33.5459C59.0095 33.8603 58.9433 34.1395 58.8109 34.3835C58.6785 34.6317 58.4862 34.8261 58.2339 34.9668C57.9857 35.1074 57.6878 35.1777 57.3404 35.1777C56.8771 35.1777 56.4924 35.0681 56.1863 34.8489C55.8802 34.6338 55.7065 34.3401 55.6651 33.9678H56.3662C56.42 34.1457 56.5338 34.2884 56.7075 34.3959C56.8854 34.5076 57.0963 34.5635 57.3404 34.5635C57.6258 34.5635 57.8554 34.4766 58.0291 34.3029C58.207 34.1291 58.2959 33.8768 58.2959 33.5459V32.9751C58.1759 33.1364 58.0126 33.2729 57.8057 33.3846C57.603 33.4921 57.3714 33.5459 57.1108 33.5459C56.813 33.5459 56.54 33.4714 56.2918 33.3225C56.0477 33.1695 55.8533 32.9585 55.7085 32.6896C55.5679 32.4166 55.4976 32.1085 55.4976 31.7651C55.4976 31.4218 55.5679 31.1178 55.7085 30.853C55.8533 30.5883 56.0477 30.3835 56.2918 30.2388C56.54 30.0898 56.813 30.0154 57.1108 30.0154ZM58.2959 31.7775C58.2959 31.5418 58.2463 31.337 58.147 31.1633C58.0519 30.9895 57.9257 30.8572 57.7685 30.7662C57.6113 30.6752 57.4417 30.6297 57.2597 30.6297C57.0777 30.6297 56.9081 30.6752 56.7509 30.7662C56.5937 30.853 56.4655 30.9833 56.3662 31.1571C56.2711 31.3267 56.2235 31.5293 56.2235 31.7651C56.2235 32.0009 56.2711 32.2077 56.3662 32.3856C56.4655 32.5635 56.5937 32.7 56.7509 32.7951C56.9122 32.8861 57.0818 32.9316 57.2597 32.9316C57.4417 32.9316 57.6113 32.8861 57.7685 32.7951C57.9257 32.7041 58.0519 32.5717 58.147 32.398C58.2463 32.2201 58.2959 32.0133 58.2959 31.7775Z" fill="white"/>
<path d="M51.2925 31.7651C51.2925 31.4218 51.3628 31.1178 51.5034 30.853C51.6482 30.5883 51.8426 30.3835 52.0867 30.2388C52.3349 30.0898 52.6079 30.0154 52.9057 30.0154C53.1746 30.0154 53.4083 30.0692 53.6069 30.1767C53.8095 30.2801 53.9709 30.4104 54.0908 30.5676V30.0712H54.8044V33.49H54.0908V32.9813C53.9709 33.1426 53.8075 33.277 53.6007 33.3846C53.3938 33.4921 53.158 33.5459 52.8933 33.5459C52.5996 33.5459 52.3307 33.4714 52.0867 33.3225C51.8426 33.1695 51.6482 32.9585 51.5034 32.6896C51.3628 32.4166 51.2925 32.1085 51.2925 31.7651ZM54.0908 31.7775C54.0908 31.5418 54.0412 31.337 53.9419 31.1633C53.8468 30.9895 53.7206 30.8572 53.5634 30.7662C53.4062 30.6752 53.2366 30.6297 53.0546 30.6297C52.8726 30.6297 52.703 30.6752 52.5458 30.7662C52.3887 30.853 52.2604 30.9833 52.1611 31.1571C52.066 31.3267 52.0184 31.5293 52.0184 31.7651C52.0184 32.0009 52.066 32.2077 52.1611 32.3856C52.2604 32.5635 52.3887 32.7 52.5458 32.7951C52.7072 32.8861 52.8768 32.9316 53.0546 32.9316C53.2366 32.9316 53.4062 32.8861 53.5634 32.7951C53.7206 32.7041 53.8468 32.5717 53.9419 32.398C54.0412 32.2201 54.0908 32.0133 54.0908 31.7775Z" fill="white"/>
<path d="M50.8536 30.4621C50.8536 30.6814 50.8019 30.8882 50.6985 31.0826C50.5951 31.277 50.4297 31.4363 50.2021 31.5604C49.9746 31.6803 49.683 31.7403 49.3273 31.7403H48.5455V33.49H47.8381V29.1777H49.3273C49.6582 29.1777 49.9374 29.2356 50.1649 29.3515C50.3966 29.4632 50.5682 29.6162 50.6799 29.8106C50.7957 30.005 50.8536 30.2222 50.8536 30.4621ZM49.3273 31.1633C49.5961 31.1633 49.7968 31.1033 49.9291 30.9833C50.0615 30.8592 50.1277 30.6855 50.1277 30.4621C50.1277 29.9906 49.8609 29.7548 49.3273 29.7548H48.5455V31.1633H49.3273Z" fill="white"/>
<circle cx="41.1265" cy="9.6001" r="5.3999" fill="#FFE1BE"/>
<circle cx="31.6767" cy="5.01018" r="3.50994" fill="#CCD4FF"/>
<rect x="35.3335" y="41" width="16" height="16" rx="8" fill="#3758F9"/>
<path d="M47.5414 49.5638C47.4445 49.5861 47.3427 49.5691 47.2584 49.5164C47.1741 49.4637 47.1141 49.3797 47.0917 49.2828L46.4603 46.5477L44.3567 49.9142C43.0397 52.0217 40.2633 52.6627 38.1558 51.3458C38.0715 51.2931 38.0115 51.209 37.9891 51.1121C37.9668 51.0152 37.9838 50.9134 38.0365 50.8291C38.0892 50.7447 38.1733 50.6848 38.2702 50.6624C38.3671 50.64 38.4689 50.6571 38.5532 50.7098C40.3097 51.8073 42.6231 51.2732 43.7206 49.5168L45.8243 46.1502L43.0892 46.7817C42.993 46.8021 42.8926 46.784 42.8097 46.7312C42.7268 46.6783 42.6679 46.595 42.6458 46.4992C42.6237 46.4034 42.6401 46.3028 42.6914 46.2189C42.7428 46.1351 42.8251 46.0748 42.9205 46.051L46.5376 45.2159C46.6345 45.1936 46.7363 45.2106 46.8207 45.2633C46.905 45.316 46.9649 45.4 46.9873 45.4969L47.8224 49.1141C47.8448 49.211 47.8277 49.3128 47.775 49.3971C47.7223 49.4814 47.6383 49.5414 47.5414 49.5638Z" fill="white"/>
</svg>
