<svg width="72" height="60" viewBox="0 0 72 60" fill="none" xmlns="http://www.w3.org/2000/svg">
<path d="M4.13597 50.2907C5.82181 50.2907 7.18845 48.9158 7.18845 47.2198C7.18845 45.5238 5.82181 44.1489 4.13597 44.1489C2.45014 44.1489 1.0835 45.5238 1.0835 47.2198C1.0835 48.9158 2.45014 50.2907 4.13597 50.2907Z" fill="#F7921E"/>
<path d="M4.13604 50.887C2.13397 50.887 0.5 49.2432 0.5 47.22C0.5 45.1968 2.13397 43.562 4.13604 43.562C6.1381 43.562 7.77207 45.2058 7.77207 47.22C7.78105 49.2432 6.14708 50.887 4.13604 50.887ZM4.13604 44.7362C2.7714 44.7362 1.66712 45.8562 1.66712 47.22C1.66712 48.5929 2.78038 49.7038 4.13604 49.7038C5.50067 49.7038 6.60495 48.5838 6.60495 47.22C6.61393 45.8471 5.50067 44.7362 4.13604 44.7362Z" fill="#888888"/>
<path d="M26.5717 9.15869H11.6954C7.63741 9.15869 4.34253 12.4644 4.34253 16.556V52.0158C4.34253 56.0983 7.62843 59.4131 11.6954 59.4131H32.9101C36.9681 59.4131 40.263 56.1074 40.263 52.0158V22.9326L26.5717 9.15869Z" fill="white"/>
<path d="M32.9102 60.0003H11.6955C7.32325 60.0003 3.75903 56.4236 3.75903 52.016V16.5561C3.76801 12.1485 7.32325 8.57178 11.6955 8.57178H26.5628C26.7154 8.57178 26.8681 8.635 26.9758 8.74339L40.6671 22.5173C40.7748 22.6257 40.8376 22.7792 40.8376 22.9328V52.016C40.8466 56.4146 37.2914 60.0003 32.9102 60.0003ZM11.6955 9.74595C7.96965 9.74595 4.92616 12.7988 4.92616 16.5561V52.016C4.92616 55.7643 7.96068 58.8262 11.6955 58.8262H32.9102C36.636 58.8262 39.6795 55.7733 39.6795 52.016V23.1766L26.3294 9.74595H11.6955Z" fill="#888888"/>
<path d="M26.5718 9.15869L40.263 22.9326H29.4896C27.8736 22.9326 26.5718 21.6139 26.5718 19.9972V9.15869Z" fill="#DCDDDE"/>
<path d="M40.2631 23.5197H29.4897C27.5594 23.5197 25.9883 21.9391 25.9883 19.9972V9.15871C25.9883 8.92388 26.1319 8.70711 26.3474 8.61679C26.5629 8.52647 26.8142 8.57163 26.9848 8.74324L40.6491 22.49C40.7748 22.5984 40.8467 22.752 40.8467 22.9326C40.8467 23.2578 40.5863 23.5197 40.2631 23.5197ZM27.1554 10.5767V19.9972C27.1554 21.2978 28.2058 22.3455 29.4897 22.3455H38.8536L27.1554 10.5767Z" fill="#888888"/>
<path d="M4.41432 29.4897C2.60079 29.4897 1.12842 30.971 1.12842 32.7955V46.6416H1.19126C1.48753 45.1152 2.81626 43.9681 4.41432 43.9681H37.5157V29.4897H4.41432Z" fill="#F7921E"/>
<path d="M1.19133 47.2289H1.12848C0.80528 47.2289 0.544922 46.967 0.544922 46.6418V32.7957C0.544922 30.646 2.27765 28.9028 4.41438 28.9028H37.5158C37.839 28.9028 38.0994 29.1648 38.0994 29.4899V43.9683C38.0994 44.2935 37.839 44.5554 37.5158 44.5554H4.41438C3.12157 44.5554 2.00831 45.4857 1.75693 46.7592C1.71205 47.0302 1.46964 47.2289 1.19133 47.2289ZM4.41438 30.077C2.92406 30.077 1.71205 31.2963 1.71205 32.7957V44.4831C2.41232 43.7967 3.37295 43.3722 4.41438 43.3722H36.9322V30.077H4.41438Z" fill="#888888"/>
<path d="M9.93579 33.175C9.93579 32.9311 10.1333 32.7324 10.3667 32.7324H12.8356C14.5774 32.7324 15.7355 33.6627 15.7355 35.1982V35.2162C15.7355 36.8962 14.3439 37.7633 12.692 37.7633H10.8156V40.1206C10.8156 40.3645 10.6181 40.5632 10.3757 40.5632C10.1423 40.5632 9.94477 40.3645 9.94477 40.1206V33.175H9.93579ZM12.7189 36.9685C14.0028 36.9685 14.8377 36.282 14.8377 35.2524V35.2343C14.8377 34.1234 14.0117 33.5453 12.7638 33.5453H10.8066V36.9685H12.7189Z" fill="white"/>
<path d="M17.3157 33.175C17.3157 32.9311 17.5132 32.7324 17.7466 32.7324H20.0001C22.4331 32.7324 24.1119 34.4124 24.1119 36.5981V36.6162C24.1119 38.802 22.4331 40.509 20.0001 40.509H17.7466C17.5132 40.509 17.3157 40.3103 17.3157 40.0665V33.175ZM20.0001 39.7052C21.9572 39.7052 23.2052 38.3684 23.2052 36.6433V36.6252C23.2052 34.9001 21.9572 33.5453 20.0001 33.5453H18.1865V39.7052H20.0001Z" fill="white"/>
<path d="M25.9612 33.175C25.9612 32.9311 26.1587 32.7324 26.3921 32.7324H31.1773C31.4018 32.7324 31.5724 32.9131 31.5724 33.1298C31.5724 33.3556 31.3928 33.5453 31.1773 33.5453H26.832V36.3272H30.6746C30.899 36.3272 31.0696 36.5078 31.0696 36.7246C31.0696 36.9504 30.89 37.122 30.6746 37.122H26.832V40.1206C26.832 40.3645 26.6345 40.5632 26.3921 40.5632C26.1587 40.5632 25.9612 40.3645 25.9612 40.1206V33.175Z" fill="white"/>
<path d="M45.6453 41.7748C46.8254 41.7748 47.782 40.8124 47.782 39.6252C47.782 38.438 46.8254 37.4756 45.6453 37.4756C44.4652 37.4756 43.5085 38.438 43.5085 39.6252C43.5085 40.8124 44.4652 41.7748 45.6453 41.7748Z" fill="#00A0DC"/>
<path d="M45.6453 42.192C44.2439 42.192 43.1001 41.0413 43.1001 39.625C43.1001 38.2088 44.2439 37.0645 45.6453 37.0645C47.0531 37.0645 48.1906 38.2151 48.1906 39.625C48.1968 41.0413 47.0531 42.192 45.6453 42.192ZM45.6453 37.8864C44.6901 37.8864 43.9171 38.6704 43.9171 39.625C43.9171 40.5861 44.6964 41.3637 45.6453 41.3637C46.6006 41.3637 47.3736 40.5797 47.3736 39.625C47.3798 38.664 46.6006 37.8864 45.6453 37.8864Z" fill="#888888"/>
<path d="M61.3502 12.9824H50.9368C48.0962 12.9824 45.7898 15.2964 45.7898 18.1605V42.9824C45.7898 45.8402 48.0899 48.1605 50.9368 48.1605H65.7871C68.6277 48.1605 70.9341 45.8465 70.9341 42.9824V22.6241L61.3502 12.9824Z" fill="white"/>
<path d="M65.7871 48.5713H50.9369C47.8763 48.5713 45.3813 46.0676 45.3813 42.9822V18.1603C45.3876 15.075 47.8763 12.5713 50.9369 12.5713H61.344C61.4508 12.5713 61.5577 12.6155 61.6331 12.6914L71.217 22.3331C71.2924 22.409 71.3364 22.5165 71.3364 22.624V42.9822C71.3427 46.0613 68.854 48.5713 65.7871 48.5713ZM50.9369 13.3932C48.3288 13.3932 46.1983 15.5302 46.1983 18.1603V42.9822C46.1983 45.6061 48.3225 47.7494 50.9369 47.7494H65.7871C68.3952 47.7494 70.5257 45.6124 70.5257 42.9822V22.7947L61.1806 13.3932H50.9369Z" fill="#888888"/>
<path d="M61.3503 12.9824L70.9342 22.6242H63.3928C62.2616 22.6242 61.3503 21.7011 61.3503 20.5694V12.9824Z" fill="#DCDDDE"/>
<path d="M70.9343 23.0352H63.3929C62.0417 23.0352 60.9419 21.9287 60.9419 20.5694V12.9825C60.9419 12.8181 61.0424 12.6664 61.1933 12.6031C61.3441 12.5399 61.5201 12.5715 61.6395 12.6917L71.2045 22.3144C71.2925 22.3903 71.3428 22.4978 71.3428 22.6242C71.3428 22.8518 71.1605 23.0352 70.9343 23.0352ZM61.7589 13.9751V20.5694C61.7589 21.4799 62.4942 22.2133 63.3929 22.2133H69.9476L61.7589 13.9751Z" fill="#888888"/>
<path d="M45.8402 27.2144C44.5707 27.2144 43.54 28.2512 43.54 29.5284V39.2207H43.584C43.7914 38.1522 44.7215 37.3492 45.8402 37.3492H69.0112V27.2144H45.8402Z" fill="#00A0DC"/>
<path d="M43.5841 39.6315H43.5401C43.3138 39.6315 43.1316 39.4481 43.1316 39.2205V29.5282C43.1316 28.0235 44.3445 26.8032 45.8402 26.8032H69.0112C69.2374 26.8032 69.4197 26.9866 69.4197 27.2142V37.3491C69.4197 37.5767 69.2374 37.76 69.0112 37.76H45.8402C44.9352 37.76 44.156 38.4112 43.98 39.3027C43.9486 39.4924 43.7789 39.6315 43.5841 39.6315ZM45.8402 27.6251C44.797 27.6251 43.9486 28.4787 43.9486 29.5282V37.7094C44.4388 37.2289 45.1112 36.9318 45.8402 36.9318H68.6027V27.6251H45.8402Z" fill="#888888"/>
<path d="M64.1121 31.6967H63.3194V35.2563H62.4256V31.6967H61.9204V30.974H62.4256V30.6708C62.4256 30.1786 62.5551 29.8211 62.8142 29.5983C63.0784 29.3703 63.4904 29.2563 64.0499 29.2563V29.9947C63.7805 29.9947 63.5914 30.0465 63.4826 30.1501C63.3738 30.2486 63.3194 30.4221 63.3194 30.6708V30.974H64.1121V31.6967Z" fill="white"/>
<path d="M60.7182 30.4067C60.5576 30.4067 60.4229 30.3523 60.3141 30.2435C60.2053 30.1347 60.1509 29.9999 60.1509 29.8393C60.1509 29.6787 60.2053 29.544 60.3141 29.4352C60.4229 29.3264 60.5576 29.272 60.7182 29.272C60.8737 29.272 61.0058 29.3264 61.1146 29.4352C61.2234 29.544 61.2778 29.6787 61.2778 29.8393C61.2778 29.9999 61.2234 30.1347 61.1146 30.2435C61.0058 30.3523 60.8737 30.4067 60.7182 30.4067ZM61.1535 30.974V35.2564H60.2675V30.974H61.1535Z" fill="white"/>
<path d="M57.445 34.4637L58.6575 30.9741H59.5979L57.9658 35.2565H56.9088L55.2844 30.9741H56.2326L57.445 34.4637Z" fill="white"/>
<path d="M53.6269 34.1528H51.3652L50.9766 35.2565H50.0518L51.987 29.8472H53.0129L54.9481 35.2565H54.0155L53.6269 34.1528ZM53.3782 33.4301L52.4999 30.9197L51.6139 33.4301H53.3782Z" fill="white"/>
<circle cx="41.293" cy="9.6001" r="5.3999" fill="#FFE1BE"/>
<circle cx="31.8432" cy="5.00994" r="3.50994" fill="#CCD4FF"/>
<rect x="35.5" y="41" width="16" height="16" rx="8" fill="#3758F9"/>
<path d="M47.7079 49.5638C47.611 49.5861 47.5092 49.5691 47.4249 49.5164C47.3406 49.4637 47.2806 49.3797 47.2583 49.2828L46.6268 46.5477L44.5232 49.9142C43.2062 52.0217 40.4298 52.6627 38.3223 51.3458C38.238 51.2931 38.178 51.209 38.1556 51.1121C38.1333 51.0152 38.1503 50.9134 38.203 50.8291C38.2557 50.7447 38.3398 50.6848 38.4367 50.6624C38.5336 50.64 38.6354 50.6571 38.7197 50.7098C40.4762 51.8073 42.7896 51.2732 43.8871 49.5168L45.9908 46.1502L43.2557 46.7817C43.1595 46.8021 43.0591 46.784 42.9762 46.7312C42.8933 46.6783 42.8344 46.595 42.8123 46.4992C42.7902 46.4034 42.8066 46.3028 42.8579 46.2189C42.9093 46.1351 42.9916 46.0748 43.087 46.051L46.7042 45.2159C46.801 45.1936 46.9028 45.2106 46.9872 45.2633C47.0715 45.316 47.1314 45.4 47.1538 45.4969L47.9889 49.1141C48.0113 49.211 47.9942 49.3128 47.9415 49.3971C47.8888 49.4814 47.8048 49.5414 47.7079 49.5638Z" fill="white"/>
</svg>
 