<svg width="73" height="60" viewBox="0 0 73 60" fill="none" xmlns="http://www.w3.org/2000/svg">
<path d="M4.02052 50.2907C5.7301 50.2907 7.11599 48.9158 7.11599 47.2198C7.11599 45.5238 5.7301 44.1489 4.02052 44.1489C2.31094 44.1489 0.925049 45.5238 0.925049 47.2198C0.925049 48.9158 2.31094 50.2907 4.02052 50.2907Z" fill="#F7921E"/>
<path d="M4.0205 50.8868C1.99024 50.8868 0.333252 49.2429 0.333252 47.2198C0.333252 45.1966 1.99024 43.5618 4.0205 43.5618C6.05076 43.5618 7.70775 45.2056 7.70775 47.2198C7.71685 49.2429 6.05987 50.8868 4.0205 50.8868ZM4.0205 44.7359C2.63664 44.7359 1.51681 45.8559 1.51681 47.2198C1.51681 48.5926 2.64575 49.7036 4.0205 49.7036C5.40436 49.7036 6.52419 48.5836 6.52419 47.2198C6.53329 45.8469 5.40436 44.7359 4.0205 44.7359Z" fill="#888888"/>
<path d="M26.7723 9.15869H11.6864C7.57126 9.15869 4.22998 12.4644 4.22998 16.556V52.0158C4.22998 56.0983 7.56216 59.4131 11.6864 59.4131H33.1999C37.3151 59.4131 40.6564 56.1074 40.6564 52.0158V22.9326L26.7723 9.15869Z" fill="white"/>
<path d="M33.1999 60.0001H11.6864C7.2526 60.0001 3.63818 56.4234 3.63818 52.0158V16.5559C3.64729 12.1482 7.2526 8.57153 11.6864 8.57153H26.7632C26.9179 8.57153 27.0727 8.63476 27.182 8.74314L41.066 22.517C41.1753 22.6254 41.239 22.779 41.239 22.9325V52.0158C41.2481 56.4144 37.6428 60.0001 33.1999 60.0001ZM11.6864 9.7457C7.90811 9.7457 4.82175 12.7985 4.82175 16.5559V52.0158C4.82175 55.7641 7.899 58.8259 11.6864 58.8259H33.1999C36.9782 58.8259 40.0646 55.7731 40.0646 52.0158V23.1764L26.5264 9.7457H11.6864Z" fill="#888888"/>
<path d="M26.7722 9.15869L40.6563 22.9326H29.7311C28.0923 22.9326 26.7722 21.6139 26.7722 19.9972V9.15869Z" fill="#DCDDDE"/>
<path d="M40.6563 23.5197H29.7311C27.7737 23.5197 26.1804 21.9391 26.1804 19.9972V9.15871C26.1804 8.92388 26.3261 8.70711 26.5446 8.61679C26.7631 8.52647 27.018 8.57163 27.191 8.74324L41.0478 22.49C41.1752 22.5984 41.2481 22.752 41.2481 22.9326C41.2481 23.2578 40.984 23.5197 40.6563 23.5197ZM27.364 10.5767V19.9972C27.364 21.2978 28.4292 22.3455 29.7311 22.3455H39.2269L27.364 10.5767Z" fill="#888888"/>
<path d="M4.30264 29.49C2.46357 29.49 0.970459 30.9712 0.970459 32.7957V46.6419H1.03419C1.33463 45.1155 2.68207 43.9684 4.30264 43.9684H37.8703V29.49H4.30264Z" fill="#F7921E"/>
<path d="M1.03417 47.2289H0.970443C0.642687 47.2289 0.378662 46.967 0.378662 46.6418V32.7957C0.378662 30.646 2.1358 28.9028 4.30262 28.9028H37.8702C38.198 28.9028 38.462 29.1648 38.462 29.4899V43.9683C38.462 44.2935 38.198 44.5554 37.8702 44.5554H4.30262C2.9916 44.5554 1.86267 45.4857 1.60775 46.7592C1.56222 47.0302 1.31641 47.2289 1.03417 47.2289ZM4.30262 30.077C2.79131 30.077 1.56222 31.2963 1.56222 32.7957V44.4831C2.27236 43.7967 3.24652 43.3722 4.30262 43.3722H37.2785V30.077H4.30262Z" fill="#888888"/>
<path d="M9.90186 33.175C9.90186 32.9311 10.1022 32.7324 10.3389 32.7324H12.8426C14.6088 32.7324 15.7832 33.6627 15.7832 35.1982V35.2162C15.7832 36.8962 14.3721 37.7633 12.6969 37.7633H10.7941V40.1206C10.7941 40.3645 10.5938 40.5632 10.348 40.5632C10.1113 40.5632 9.91096 40.3645 9.91096 40.1206V33.175H9.90186ZM12.7242 36.9685C14.0261 36.9685 14.8728 36.282 14.8728 35.2524V35.2343C14.8728 34.1234 14.0352 33.5453 12.7697 33.5453H10.785V36.9685H12.7242Z" fill="white"/>
<path d="M17.3855 33.175C17.3855 32.9311 17.5858 32.7324 17.8225 32.7324H20.1077C22.575 32.7324 24.2775 34.4124 24.2775 36.5981V36.6162C24.2775 38.802 22.575 40.509 20.1077 40.509H17.8225C17.5858 40.509 17.3855 40.3103 17.3855 40.0665V33.175ZM20.1077 39.7052C22.0924 39.7052 23.3579 38.3684 23.3579 36.6433V36.6252C23.3579 34.9001 22.0924 33.5453 20.1077 33.5453H18.2686V39.7052H20.1077Z" fill="white"/>
<path d="M26.1531 33.175C26.1531 32.9311 26.3534 32.7324 26.5901 32.7324H31.4427C31.6703 32.7324 31.8433 32.9131 31.8433 33.1298C31.8433 33.3556 31.6612 33.5453 31.4427 33.5453H27.0362V36.3272H30.9328C31.1605 36.3272 31.3334 36.5078 31.3334 36.7246C31.3334 36.9504 31.1513 37.122 30.9328 37.122H27.0362V40.1206C27.0362 40.3645 26.8359 40.5632 26.5901 40.5632C26.3534 40.5632 26.1531 40.3645 26.1531 40.1206V33.175Z" fill="white"/>
<path d="M46.1143 41.7751C47.311 41.7751 48.2812 40.8127 48.2812 39.6255C48.2812 38.4383 47.311 37.4758 46.1143 37.4758C44.9176 37.4758 43.9475 38.4383 43.9475 39.6255C43.9475 40.8127 44.9176 41.7751 46.1143 41.7751Z" fill="#00A0DC"/>
<path d="M46.1143 42.1924C44.6931 42.1924 43.5332 41.0418 43.5332 39.6255C43.5332 38.2093 44.6931 37.0649 46.1143 37.0649C47.5418 37.0649 48.6954 38.2156 48.6954 39.6255C48.7017 41.0418 47.5418 42.1924 46.1143 42.1924ZM46.1143 37.8869C45.1456 37.8869 44.3617 38.6708 44.3617 39.6255C44.3617 40.5865 45.152 41.3642 46.1143 41.3642C47.083 41.3642 47.8669 40.5802 47.8669 39.6255C47.8732 38.6645 47.083 37.8869 46.1143 37.8869Z" fill="black"/>
<path d="M62.0406 12.9827H51.4805C48.5999 12.9827 46.261 15.2967 46.261 18.1607V42.9827C46.261 45.8404 48.5935 48.1607 51.4805 48.1607H66.5399C69.4206 48.1607 71.7595 45.8467 71.7595 42.9827V22.6244L62.0406 12.9827Z" fill="white"/>
<path d="M66.5399 48.5718H51.4804C48.3768 48.5718 45.8467 46.0681 45.8467 42.9827V18.1608C45.8531 15.0755 48.3768 12.5718 51.4804 12.5718H62.0342C62.1425 12.5718 62.2508 12.616 62.3273 12.6919L72.0462 22.3336C72.1227 22.4095 72.1673 22.517 72.1673 22.6245V42.9827C72.1736 46.0618 69.6499 48.5718 66.5399 48.5718ZM51.4804 13.3937C48.8356 13.3937 46.6752 15.5307 46.6752 18.1608V42.9827C46.6752 45.6065 48.8293 47.7499 51.4804 47.7499H66.5399C69.1847 47.7499 71.3451 45.6129 71.3451 42.9827V22.7952L61.8685 13.3937H51.4804Z" fill="black"/>
<path d="M62.0405 12.9827L71.7594 22.6244H64.1118C62.9646 22.6244 62.0405 21.7013 62.0405 20.5696V12.9827Z" fill="#DCDDDE"/>
<path d="M71.7593 23.0354H64.1117C62.7415 23.0354 61.6262 21.929 61.6262 20.5697V12.9827C61.6262 12.8183 61.7282 12.6666 61.8811 12.6034C62.0341 12.5402 62.2125 12.5718 62.3336 12.6919L72.0334 22.3147C72.1226 22.3905 72.1736 22.498 72.1736 22.6245C72.1736 22.8521 71.9888 23.0354 71.7593 23.0354ZM62.4547 13.9754V20.5697C62.4547 21.4801 63.2004 22.2135 64.1117 22.2135H70.7588L62.4547 13.9754Z" fill="black"/>
<path d="M46.312 27.2146C45.0247 27.2146 43.9795 28.2515 43.9795 29.5286V39.2209H44.0241C44.2344 38.1524 45.1776 37.3495 46.312 37.3495H69.8094V27.2146H46.312Z" fill="#00A0DC"/>
<path d="M44.024 39.6319H43.9794C43.75 39.6319 43.5652 39.4486 43.5652 39.221V29.5287C43.5652 28.0239 44.7952 26.8037 46.312 26.8037H69.8093C70.0387 26.8037 70.2235 26.9871 70.2235 27.2147V37.3495C70.2235 37.5772 70.0387 37.7605 69.8093 37.7605H46.312C45.3942 37.7605 44.604 38.4117 44.4255 39.3032C44.3937 39.4929 44.2216 39.6319 44.024 39.6319ZM46.312 27.6256C45.254 27.6256 44.3937 28.4792 44.3937 29.5287V37.7099C44.8908 37.2294 45.5727 36.9323 46.312 36.9323H69.3951V27.6256H46.312Z" fill="black"/>
<path d="M67.7141 30.7504C67.3864 30.7504 67.1208 31.016 67.1208 31.3437C67.1208 31.6714 67.3864 31.937 67.7141 31.937H68.2575C68.4069 31.937 68.528 32.0581 68.528 32.2075C68.528 32.3569 68.4069 32.478 68.2575 32.478H67.7403C67.3981 32.478 67.1208 32.7553 67.1208 33.0974C67.1208 33.4396 67.3981 33.7169 67.7403 33.7169H68.4334C68.5828 33.7169 68.7039 33.838 68.7039 33.9874C68.7039 34.1368 68.5828 34.2579 68.4334 34.2579H67.5781C66.9564 34.2579 66.4524 33.7539 66.4524 33.1321V31.3352C66.4524 30.7135 66.9564 30.2095 67.5781 30.2095H68.4334C68.5828 30.2095 68.7039 30.3306 68.7039 30.4799C68.7039 30.6293 68.5828 30.7504 68.4334 30.7504H67.7141Z" fill="white"/>
<path d="M65.0602 34.2577C64.939 34.2577 64.827 34.1931 64.7661 34.0883L64.0199 32.8019C63.9619 32.7021 63.8553 32.6406 63.7399 32.6406C63.5611 32.6406 63.4162 32.7855 63.4162 32.9643V33.9235C63.4162 34.108 63.2666 34.2577 63.082 34.2577C62.8974 34.2577 62.7478 34.108 62.7478 33.9235V31.6223C62.7478 30.8451 63.3778 30.2151 64.155 30.2151C64.4677 30.2151 64.7315 30.2694 64.9465 30.378C65.1654 30.4865 65.3276 30.6319 65.4331 30.8142C65.5426 30.9965 65.5973 31.2 65.5973 31.425C65.5973 31.6886 65.5191 31.9291 65.3628 32.1462C65.1176 32.4892 64.8746 32.95 65.0921 33.3113L65.3515 33.7423C65.488 33.9689 65.3248 34.2577 65.0602 34.2577ZM63.4162 31.4337C63.4162 31.8079 63.7196 32.1113 64.0938 32.1113H64.155C64.4051 32.1113 64.5928 32.0493 64.7178 31.9252C64.8468 31.8011 64.9113 31.6344 64.9113 31.425C64.9113 31.2156 64.8488 31.0527 64.7237 30.9364C64.5986 30.8161 64.409 30.756 64.155 30.756H64.0938C63.7196 30.756 63.4162 31.0594 63.4162 31.4337Z" fill="white"/>
<path d="M59.028 30.2151C59.2126 30.2151 59.3623 30.3647 59.3623 30.5493V32.7919C59.3623 33.0982 59.4424 33.3289 59.6026 33.484C59.7668 33.6392 59.9935 33.7167 60.2828 33.7167C60.5759 33.7167 60.8026 33.6392 60.9629 33.484C61.1271 33.3289 61.2092 33.0982 61.2092 32.7919V30.5493C61.2092 30.3647 61.3588 30.2151 61.5434 30.2151C61.7279 30.2151 61.8776 30.3647 61.8776 30.5493V32.7802C61.8776 33.1098 61.8052 33.389 61.6606 33.6178C61.516 33.8466 61.3225 34.0172 61.0802 34.1297C60.8378 34.2421 60.5701 34.2984 60.2769 34.2984C59.9837 34.2984 59.716 34.2421 59.4737 34.1297C59.2352 34.0172 59.0456 33.8466 58.9049 33.6178C58.7642 33.389 58.6938 33.1098 58.6938 32.7802V30.5493C58.6938 30.3647 58.8435 30.2151 59.028 30.2151Z" fill="white"/>
<path d="M57.7524 30.2151C57.9017 30.2151 58.0228 30.3362 58.0228 30.4856C58.0228 30.6349 57.9017 30.756 57.7524 30.756H57.4805C57.181 30.756 56.9382 30.9989 56.9382 31.2984V33.9235C56.9382 34.108 56.7885 34.2577 56.604 34.2577C56.4194 34.2577 56.2698 34.108 56.2698 33.9235V31.3013C56.2698 31.0002 56.0256 30.756 55.7245 30.756H55.4497C55.3003 30.756 55.1792 30.6349 55.1792 30.4856C55.1792 30.3362 55.3003 30.2151 55.4497 30.2151H57.7524Z" fill="white"/>
<path d="M50.6326 32.2278C50.6326 31.8322 50.7244 31.4774 50.9081 31.1633C51.0958 30.8492 51.3479 30.6049 51.6645 30.4304C51.985 30.252 52.3348 30.1628 52.714 30.1628C53.1479 30.1628 53.5329 30.2695 53.869 30.4828C54.0488 30.5935 54.2024 30.7291 54.3298 30.8897C54.4982 31.1021 54.3145 31.3785 54.0434 31.3785C53.8971 31.3785 53.7682 31.2918 53.6794 31.1755C53.592 31.0611 53.4871 30.9698 53.3648 30.9016C53.1772 30.7969 52.9603 30.7445 52.714 30.7445C52.4443 30.7445 52.2039 30.8046 51.9928 30.9248C51.7818 31.045 51.6156 31.2176 51.4945 31.4425C51.3772 31.6674 51.3186 31.9292 51.3186 32.2278C51.3186 32.5263 51.3772 32.7881 51.4945 33.013C51.6156 33.2379 51.7818 33.4124 51.9928 33.5365C52.2039 33.6567 52.4443 33.7168 52.714 33.7168C52.9603 33.7168 53.1772 33.6645 53.3648 33.5598C53.4871 33.4915 53.592 33.4002 53.6794 33.2858C53.7682 33.1696 53.8971 33.0828 54.0434 33.0828C54.3145 33.0828 54.4982 33.3592 54.3298 33.5716C54.2024 33.7322 54.0488 33.8679 53.869 33.9786C53.5329 34.188 53.1479 34.2927 52.714 34.2927C52.3309 34.2927 51.9811 34.2054 51.6645 34.0309C51.3479 33.8525 51.0958 33.6063 50.9081 33.2922C50.7244 32.9781 50.6326 32.6233 50.6326 32.2278Z" fill="white"/>
<path d="M49.6438 30.2151C49.8283 30.2151 49.978 30.3647 49.978 30.5493V33.9235C49.978 34.108 49.8283 34.2577 49.6438 34.2577C49.4592 34.2577 49.3096 34.108 49.3096 33.9235V30.5493C49.3096 30.3647 49.4592 30.2151 49.6438 30.2151Z" fill="white"/>
<path d="M48.672 31.4191C48.672 31.6247 48.6232 31.8185 48.5254 32.0008C48.4277 32.1831 48.2714 32.3323 48.0564 32.4487C47.8414 32.5611 47.5658 32.6174 47.2297 32.6174C46.8217 32.6174 46.4909 32.9481 46.4909 33.3561V33.9235C46.4909 34.108 46.3413 34.2577 46.1567 34.2577C45.9721 34.2577 45.8225 34.108 45.8225 33.9235V31.6223C45.8225 30.8451 46.4525 30.2151 47.2297 30.2151C47.5424 30.2151 47.8062 30.2694 48.0212 30.378C48.2401 30.4827 48.4023 30.6261 48.5078 30.8084C48.6173 30.9906 48.672 31.1942 48.672 31.4191ZM47.2297 32.0764C47.4837 32.0764 47.6733 32.0202 47.7984 31.9077C47.9235 31.7914 47.986 31.6285 47.986 31.4191C47.986 30.9771 47.7339 30.756 47.2297 30.756H47.1511C46.7865 30.756 46.4909 31.0516 46.4909 31.4162C46.4909 31.7808 46.7865 32.0764 47.1511 32.0764H47.2297Z" fill="white"/>
<circle cx="41.4595" cy="9.6001" r="5.3999" fill="#FFE1BE"/>
<circle cx="32.0097" cy="5.01018" r="3.50994" fill="#CCD4FF"/>
<rect x="35.6665" y="41" width="16" height="16" rx="8" fill="#3758F9"/>
<g clip-path="url(#clip0_1_9824)">
<path d="M47.8744 49.5638C47.7775 49.5861 47.6757 49.5691 47.5914 49.5164C47.5071 49.4637 47.4471 49.3797 47.4248 49.2828L46.7933 46.5477L44.6897 49.9142C43.3727 52.0217 40.5963 52.6627 38.4888 51.3458C38.4045 51.2931 38.3445 51.209 38.3221 51.1121C38.2998 51.0152 38.3168 50.9134 38.3695 50.8291C38.4222 50.7447 38.5063 50.6848 38.6032 50.6624C38.7001 50.64 38.8019 50.6571 38.8862 50.7098C40.6427 51.8073 42.9561 51.2732 44.0536 49.5168L46.1573 46.1502L43.4222 46.7817C43.326 46.8021 43.2256 46.784 43.1427 46.7312C43.0598 46.6783 43.0009 46.595 42.9788 46.4992C42.9567 46.4034 42.9731 46.3028 43.0245 46.2189C43.0758 46.1351 43.1581 46.0748 43.2535 46.051L46.8707 45.2159C46.9675 45.1936 47.0694 45.2106 47.1537 45.2633C47.238 45.316 47.298 45.4 47.3203 45.4969L48.1554 49.1141C48.1778 49.211 48.1607 49.3128 48.108 49.3971C48.0553 49.4814 47.9713 49.5414 47.8744 49.5638Z" fill="white"/>
</g>
<defs>
<clipPath id="clip0_1_9824">
<rect width="12" height="12" fill="white" transform="translate(52.2021 47.0913) rotate(122)"/>
</clipPath>
</defs>
</svg>
