<svg width="72" height="60" viewBox="0 0 72 60" fill="none" xmlns="http://www.w3.org/2000/svg">
<path d="M3.96922 50.2907C5.65506 50.2907 7.0217 48.9158 7.0217 47.2198C7.0217 45.5238 5.65506 44.1489 3.96922 44.1489C2.28339 44.1489 0.916748 45.5238 0.916748 47.2198C0.916748 48.9158 2.28339 50.2907 3.96922 50.2907Z" fill="#F7921E"/>
<path d="M3.96929 50.8868C1.96722 50.8868 0.333252 49.2429 0.333252 47.2198C0.333252 45.1966 1.96722 43.5618 3.96929 43.5618C5.97135 43.5618 7.60533 45.2056 7.60533 47.2198C7.6143 49.2429 5.98033 50.8868 3.96929 50.8868ZM3.96929 44.7359C2.60465 44.7359 1.50038 45.8559 1.50038 47.2198C1.50038 48.5926 2.61363 49.7036 3.96929 49.7036C5.33393 49.7036 6.4382 48.5836 6.4382 47.2198C6.44718 45.8469 5.33393 44.7359 3.96929 44.7359Z" fill="#888888"/>
<path d="M26.405 9.15869H11.5287C7.47066 9.15869 4.17578 12.4644 4.17578 16.556V52.0158C4.17578 56.0983 7.46168 59.4131 11.5287 59.4131H32.7434C36.8014 59.4131 40.0962 56.1074 40.0962 52.0158V22.9326L26.405 9.15869Z" fill="white"/>
<path d="M32.7434 60.0001H11.5287C7.1565 60.0001 3.59229 56.4234 3.59229 52.0158V16.5559C3.60126 12.1482 7.1565 8.57153 11.5287 8.57153H26.3961C26.5487 8.57153 26.7013 8.63476 26.8091 8.74314L40.5003 22.517C40.6081 22.6254 40.6709 22.779 40.6709 22.9325V52.0158C40.6799 56.4144 37.1246 60.0001 32.7434 60.0001ZM11.5287 9.7457C7.80291 9.7457 4.75941 12.7985 4.75941 16.5559V52.0158C4.75941 55.7641 7.79393 58.8259 11.5287 58.8259H32.7434C36.4692 58.8259 39.5127 55.7731 39.5127 52.0158V23.1764L26.1627 9.7457H11.5287Z" fill="#888888"/>
<path d="M26.405 9.15869L40.0963 22.9326H29.3228C27.7068 22.9326 26.405 21.6139 26.405 19.9972V9.15869Z" fill="#DCDDDE"/>
<path d="M40.0963 23.5197H29.3229C27.3927 23.5197 25.8215 21.9391 25.8215 19.9972V9.15871C25.8215 8.92388 25.9652 8.70711 26.1806 8.61679C26.3961 8.52647 26.6475 8.57163 26.8181 8.74324L40.4824 22.49C40.6081 22.5984 40.6799 22.752 40.6799 22.9326C40.6799 23.2578 40.4196 23.5197 40.0963 23.5197ZM26.9887 10.5767V19.9972C26.9887 21.2978 28.0391 22.3455 29.3229 22.3455H38.6868L26.9887 10.5767Z" fill="#888888"/>
<path d="M4.24757 29.49C2.43404 29.49 0.96167 30.9712 0.96167 32.7957V46.6419H1.02452C1.32078 45.1155 2.64951 43.9684 4.24757 43.9684H37.349V29.49H4.24757Z" fill="#F7921E"/>
<path d="M1.02458 47.2289H0.961735C0.638532 47.2289 0.378174 46.967 0.378174 46.6418V32.7957C0.378174 30.646 2.1109 28.9028 4.24764 28.9028H37.349C37.6722 28.9028 37.9326 29.1648 37.9326 29.4899V43.9683C37.9326 44.2935 37.6722 44.5554 37.349 44.5554H4.24764C2.95482 44.5554 1.84157 45.4857 1.59019 46.7592C1.5453 47.0302 1.30289 47.2289 1.02458 47.2289ZM4.24764 30.077C2.75731 30.077 1.5453 31.2963 1.5453 32.7957V44.4831C2.24557 43.7967 3.2062 43.3722 4.24764 43.3722H36.7655V30.077H4.24764Z" fill="#888888"/>
<path d="M9.76904 33.175C9.76904 32.9311 9.96656 32.7324 10.2 32.7324H12.6689C14.4106 32.7324 15.5687 33.6627 15.5687 35.1982V35.2162C15.5687 36.8962 14.1772 37.7633 12.5252 37.7633H10.6489V40.1206C10.6489 40.3645 10.4514 40.5632 10.209 40.5632C9.97553 40.5632 9.77802 40.3645 9.77802 40.1206V33.175H9.76904ZM12.5522 36.9685C13.836 36.9685 14.671 36.282 14.671 35.2524V35.2343C14.671 34.1234 13.845 33.5453 12.5971 33.5453H10.6399V36.9685H12.5522Z" fill="white"/>
<path d="M17.1489 33.175C17.1489 32.9311 17.3464 32.7324 17.5799 32.7324H19.8333C22.2663 32.7324 23.9452 34.4124 23.9452 36.5981V36.6162C23.9452 38.802 22.2663 40.509 19.8333 40.509H17.5799C17.3464 40.509 17.1489 40.3103 17.1489 40.0665V33.175ZM19.8333 39.7052C21.7905 39.7052 23.0384 38.3684 23.0384 36.6433V36.6252C23.0384 34.9001 21.7905 33.5453 19.8333 33.5453H18.0198V39.7052H19.8333Z" fill="white"/>
<path d="M25.7944 33.175C25.7944 32.9311 25.9919 32.7324 26.2254 32.7324H31.0106C31.235 32.7324 31.4056 32.9131 31.4056 33.1298C31.4056 33.3556 31.226 33.5453 31.0106 33.5453H26.6653V36.3272H30.5078C30.7323 36.3272 30.9028 36.5078 30.9028 36.7246C30.9028 36.9504 30.7233 37.122 30.5078 37.122H26.6653V40.1206C26.6653 40.3645 26.4678 40.5632 26.2254 40.5632C25.9919 40.5632 25.7944 40.3645 25.7944 40.1206V33.175Z" fill="white"/>
<path d="M45.4785 41.7751C46.6586 41.7751 47.6153 40.8127 47.6153 39.6255C47.6153 38.4383 46.6586 37.4758 45.4785 37.4758C44.2984 37.4758 43.3418 38.4383 43.3418 39.6255C43.3418 40.8127 44.2984 41.7751 45.4785 41.7751Z" fill="#00A0DC"/>
<path d="M45.4786 42.1924C44.0771 42.1924 42.9333 41.0418 42.9333 39.6255C42.9333 38.2093 44.0771 37.0649 45.4786 37.0649C46.8863 37.0649 48.0238 38.2156 48.0238 39.6255C48.0238 41.0354 46.8863 42.1924 45.4786 42.1924ZM45.4786 37.8869C44.5233 37.8869 43.7503 38.6708 43.7503 39.6255C43.7503 40.5802 44.5296 41.3642 45.4786 41.3642C46.4338 41.3642 47.2068 40.5802 47.2068 39.6255C47.2068 38.6708 46.4338 37.8869 45.4786 37.8869Z" fill="#888888"/>
<path d="M61.1835 12.9827H50.7701C47.9295 12.9827 45.623 15.2967 45.623 18.1607V42.9827C45.623 45.8404 47.9232 48.1607 50.7701 48.1607H65.6204C68.461 48.1607 70.7674 45.8467 70.7674 42.9827V22.6244L61.1835 12.9827Z" fill="white"/>
<path d="M65.6204 48.5718H50.7701C47.7095 48.5718 45.2146 46.0681 45.2146 42.9827V18.1608C45.2209 15.0755 47.7095 12.5718 50.7701 12.5718H61.1773C61.2841 12.5718 61.3909 12.616 61.4663 12.6919L71.0502 22.3336C71.1256 22.4095 71.1696 22.517 71.1696 22.6245V42.9827C71.1759 46.0618 68.6872 48.5718 65.6204 48.5718ZM50.7701 13.3937C48.162 13.3937 46.0316 15.5307 46.0316 18.1608V42.9827C46.0316 45.6065 48.1557 47.7499 50.7701 47.7499H65.6204C68.2285 47.7499 70.3589 45.6129 70.3589 42.9827V22.7952L61.0139 13.3937H50.7701Z" fill="#888888"/>
<path d="M61.1836 12.9827L70.7675 22.6244H63.2261C62.0948 22.6244 61.1836 21.7013 61.1836 20.5696V12.9827Z" fill="#DCDDDE"/>
<path d="M70.7675 23.0354H63.2261C61.8749 23.0354 60.7751 21.929 60.7751 20.5697V12.9827C60.7751 12.8183 60.8757 12.6666 61.0265 12.6034C61.1774 12.5402 61.3533 12.5718 61.4727 12.6919L71.0378 22.3147C71.1257 22.3905 71.176 22.498 71.176 22.6245C71.176 22.8521 70.9938 23.0354 70.7675 23.0354ZM61.5921 13.9754V20.5697C61.5921 21.4801 62.3274 22.2135 63.2261 22.2135H69.7808L61.5921 13.9754Z" fill="#888888"/>
<path d="M45.6734 27.2146C44.404 27.2146 43.3733 28.2515 43.3733 29.5286V39.2209H43.4173C43.6247 38.1524 44.5548 37.3495 45.6734 37.3495H68.8444V27.2146H45.6734Z" fill="#00A0DC"/>
<path d="M43.4173 39.6319H43.3733C43.1471 39.6319 42.9648 39.4486 42.9648 39.221V29.5287C42.9648 28.0239 44.1778 26.8037 45.6735 26.8037H68.8445C69.0707 26.8037 69.2529 26.9871 69.2529 27.2147V37.3495C69.2529 37.5772 69.0707 37.7605 68.8445 37.7605H45.6735C44.7685 37.7605 43.9892 38.4054 43.8133 39.3032C43.7818 39.4929 43.6121 39.6319 43.4173 39.6319ZM45.6735 27.6256C44.6302 27.6256 43.7818 28.4792 43.7818 29.5287V37.7099C44.272 37.2294 44.9445 36.9323 45.6735 36.9323H68.436V27.6256H45.6735Z" fill="#888888"/>
<path d="M48.6272 29.7688C48.6272 29.5981 48.7655 29.459 48.9289 29.459H50.6508C51.87 29.459 52.6807 30.1102 52.6807 31.185V31.1977C52.6807 32.3736 51.7066 32.9806 50.5565 32.9806H49.2431V34.6307C49.2431 34.8014 49.1048 34.9405 48.9351 34.9405C48.7717 34.9405 48.6335 34.8014 48.6335 34.6307V29.7688H48.6272ZM50.5754 32.4242C51.4741 32.4242 52.0585 31.9437 52.0585 31.2229V31.2103C52.0585 30.4326 51.4804 30.028 50.6068 30.028H49.2368V32.4242H50.5754Z" fill="white"/>
<path d="M53.793 29.7372C53.793 29.5729 53.9312 29.4338 54.0946 29.4338H54.1826C54.3209 29.4338 54.4089 29.5033 54.4905 29.6108L57.7773 33.8279V29.7183C57.7773 29.5539 57.9093 29.4148 58.079 29.4148C58.2424 29.4148 58.3744 29.5539 58.3744 29.7183V34.6371C58.3744 34.8015 58.2613 34.928 58.0979 34.928H58.0664C57.9345 34.928 57.8402 34.8521 57.7522 34.7383L54.3963 30.4201V34.6371C54.3963 34.8015 54.2643 34.9406 54.0946 34.9406C53.9312 34.9406 53.7993 34.8015 53.7993 34.6371V29.7372H53.793Z" fill="white"/>
<path d="M59.6692 32.1967V32.1841C59.6692 30.692 60.7627 29.3643 62.3841 29.3643C63.2011 29.3643 63.7353 29.5792 64.2317 29.9459C64.3009 30.0028 64.3574 30.085 64.3574 30.1925C64.3574 30.3632 64.2192 30.5023 64.0558 30.5023C63.9866 30.5023 63.9238 30.4707 63.861 30.4264C63.4713 30.1293 63.044 29.927 62.359 29.927C61.1586 29.927 60.3039 30.9449 60.3039 32.1588V32.1714C60.3039 33.4738 61.1335 34.4349 62.4469 34.4349C63.0628 34.4349 63.641 34.1946 64.0118 33.8911V32.5381H62.5601C62.4155 32.5381 62.2898 32.4117 62.2898 32.2663C62.2898 32.1082 62.4155 31.9881 62.5601 31.9881H64.3009C64.4643 31.9881 64.6025 32.1272 64.6025 32.2979V33.9544C64.6025 34.0998 64.5334 34.2325 64.3951 34.3274C63.8987 34.6941 63.2325 34.9912 62.4281 34.9912C60.7187 34.9976 59.6692 33.752 59.6692 32.1967Z" fill="white"/>
<circle cx="41.4595" cy="9.6001" r="5.3999" fill="#FFE1BE"/>
<circle cx="32.0097" cy="5.01018" r="3.50994" fill="#CCD4FF"/>
<rect x="35.6665" y="41" width="16" height="16" rx="8" fill="#3758F9"/>
<g clip-path="url(#clip0_1_9971)">
<path d="M47.8744 49.5638C47.7775 49.5861 47.6757 49.5691 47.5914 49.5164C47.5071 49.4637 47.4471 49.3797 47.4248 49.2828L46.7933 46.5477L44.6897 49.9142C43.3727 52.0217 40.5963 52.6627 38.4888 51.3458C38.4045 51.2931 38.3445 51.209 38.3221 51.1121C38.2998 51.0152 38.3168 50.9134 38.3695 50.8291C38.4222 50.7447 38.5063 50.6848 38.6032 50.6624C38.7001 50.64 38.8019 50.6571 38.8862 50.7098C40.6427 51.8073 42.9561 51.2732 44.0536 49.5168L46.1573 46.1502L43.4222 46.7817C43.326 46.8021 43.2256 46.784 43.1427 46.7312C43.0598 46.6783 43.0009 46.595 42.9788 46.4992C42.9567 46.4034 42.9731 46.3028 43.0245 46.2189C43.0758 46.1351 43.1581 46.0748 43.2535 46.051L46.8707 45.2159C46.9675 45.1936 47.0694 45.2106 47.1537 45.2633C47.238 45.316 47.298 45.4 47.3203 45.4969L48.1554 49.1141C48.1778 49.211 48.1607 49.3128 48.108 49.3971C48.0553 49.4814 47.9713 49.5414 47.8744 49.5638Z" fill="white"/>
</g>
<defs>
<clipPath id="clip0_1_9971">
<rect width="12" height="12" fill="white" transform="translate(52.2021 47.0913) rotate(122)"/>
</clipPath>
</defs>
</svg>
