<svg width="73" height="60" viewBox="0 0 73 60" fill="none" xmlns="http://www.w3.org/2000/svg">
<path d="M39.8811 45.4897C41.0612 45.4897 42.0179 44.5273 42.0179 43.3401C42.0179 42.1529 41.0612 41.1904 39.8811 41.1904C38.701 41.1904 37.7444 42.1529 37.7444 43.3401C37.7444 44.5273 38.701 45.4897 39.8811 45.4897Z" fill="#00A0DC"/>
<path d="M39.8812 45.9068C38.4797 45.9068 37.3359 44.7561 37.3359 43.3399C37.3359 41.9237 38.4797 40.7793 39.8812 40.7793C41.2889 40.7793 42.4264 41.93 42.4264 43.3399C42.4327 44.7561 41.2889 45.9068 39.8812 45.9068ZM39.8812 41.6012C38.9259 41.6012 38.1529 42.3852 38.1529 43.3399C38.1529 44.3009 38.9322 45.0786 39.8812 45.0786C40.8364 45.0786 41.6094 44.2946 41.6094 43.3399C41.6157 42.3789 40.8364 41.6012 39.8812 41.6012Z" fill="#888888"/>
<path d="M55.5861 16.6973H45.1726C42.332 16.6973 40.0256 19.0113 40.0256 21.8753V46.6973C40.0256 49.555 42.3258 51.8753 45.1726 51.8753H60.0229C62.8635 51.8753 65.17 49.5613 65.17 46.6973V26.339L55.5861 16.6973Z" fill="white"/>
<path d="M60.023 52.2861H45.1727C42.1121 52.2861 39.6172 49.7824 39.6172 46.6971V21.8752C39.6235 18.7898 42.1121 16.2861 45.1727 16.2861H55.5798C55.6867 16.2861 55.7935 16.3304 55.8689 16.4063L65.4528 26.048C65.5282 26.1239 65.5722 26.2313 65.5722 26.3388V46.6971C65.5785 49.7761 63.0898 52.2861 60.023 52.2861ZM45.1727 17.1081C42.5646 17.1081 40.4342 19.245 40.4342 21.8752V46.6971C40.4342 49.3209 42.5583 51.4642 45.1727 51.4642H60.023C62.6311 51.4642 64.7615 49.3272 64.7615 46.6971V26.5095L55.4164 17.1081H45.1727Z" fill="#888888"/>
<path d="M55.5861 16.6973L65.1699 26.339H57.6285C56.4973 26.339 55.5861 25.4159 55.5861 24.2842V16.6973Z" fill="#DCDDDE"/>
<path d="M65.17 26.75H57.6286C56.2774 26.75 55.1776 25.6436 55.1776 24.2843V16.6973C55.1776 16.5329 55.2782 16.3812 55.429 16.318C55.5798 16.2548 55.7558 16.2864 55.8752 16.4065L65.4402 26.0293C65.5282 26.1051 65.5785 26.2126 65.5785 26.3391C65.5785 26.5667 65.3962 26.75 65.17 26.75ZM55.9946 17.69V24.2843C55.9946 25.1947 56.7299 25.9281 57.6286 25.9281H64.1833L55.9946 17.69Z" fill="#888888"/>
<path d="M40.0759 30.9292C38.8064 30.9292 37.7758 31.9661 37.7758 33.2432V42.9355H37.8197C38.0271 41.867 38.9572 41.0641 40.0759 41.0641H63.2469V30.9292H40.0759Z" fill="#00A0DC"/>
<path d="M37.8198 43.3463H37.7758C37.5496 43.3463 37.3673 43.163 37.3673 42.9353V33.243C37.3673 31.7383 38.5802 30.5181 40.0759 30.5181H63.2469C63.4732 30.5181 63.6554 30.7014 63.6554 30.929V41.0639C63.6554 41.2915 63.4732 41.4749 63.2469 41.4749H40.0759C39.171 41.4749 38.3917 42.1261 38.2157 43.0175C38.1843 43.2072 38.0146 43.3463 37.8198 43.3463ZM40.0759 31.34C39.0327 31.34 38.1843 32.1935 38.1843 33.243V41.4243C38.6745 40.9438 39.3469 40.6466 40.0759 40.6466H62.8384V31.34H40.0759Z" fill="#888888"/>
<path d="M58.3478 35.4116H57.5551V38.9712H56.6613V35.4116H56.1561V34.6888H56.6613V34.3857C56.6613 33.8935 56.7908 33.536 57.0499 33.3132C57.3142 33.0852 57.7261 32.9712 58.2857 32.9712V33.7095C58.0162 33.7095 57.8271 33.7613 57.7183 33.865C57.6095 33.9634 57.5551 34.137 57.5551 34.3857V34.6888H58.3478V35.4116Z" fill="white"/>
<path d="M54.954 34.1215C54.7933 34.1215 54.6586 34.0671 54.5498 33.9583C54.441 33.8495 54.3866 33.7148 54.3866 33.5542C54.3866 33.3936 54.441 33.2588 54.5498 33.15C54.6586 33.0412 54.7933 32.9868 54.954 32.9868C55.1094 32.9868 55.2415 33.0412 55.3503 33.15C55.4591 33.2588 55.5135 33.3936 55.5135 33.5542C55.5135 33.7148 55.4591 33.8495 55.3503 33.9583C55.2415 34.0671 55.1094 34.1215 54.954 34.1215ZM55.3892 34.6889V38.9712H54.5032V34.6889H55.3892Z" fill="white"/>
<path d="M51.6806 38.1786L52.8931 34.689H53.8335L52.2014 38.9713H51.1444L49.52 34.689H50.4682L51.6806 38.1786Z" fill="white"/>
<path d="M47.8626 37.8677H45.6009L45.2123 38.9713H44.2875L46.2227 33.562H47.2486L49.1838 38.9713H48.2512L47.8626 37.8677ZM47.6139 37.1449L46.7356 34.6345L45.8496 37.1449H47.6139Z" fill="white"/>
<path d="M3.91997 45.7201C5.60584 45.7201 6.97251 44.3451 6.97251 42.6491C6.97251 40.953 5.60584 39.5781 3.91997 39.5781C2.2341 39.5781 0.867432 40.953 0.867432 42.6491C0.867432 44.3451 2.2341 45.7201 3.91997 45.7201Z" fill="#00A0DC"/>
<path d="M3.92005 46.3164C1.91794 46.3164 0.283936 44.6725 0.283936 42.6493C0.283936 40.626 1.91794 38.9912 3.92005 38.9912C5.93114 38.9912 7.55616 40.6351 7.55616 42.6493C7.55616 44.6635 5.93114 46.3164 3.92005 46.3164ZM3.92005 40.1654C2.55538 40.1654 1.45108 41.2854 1.45108 42.6493C1.45108 44.0131 2.56436 45.1331 3.92005 45.1331C5.28471 45.1331 6.38902 44.0131 6.38902 42.6493C6.38902 41.2854 5.28471 40.1654 3.92005 40.1654Z" fill="#888888"/>
<path d="M26.3561 4.5874H11.4795C7.42141 4.5874 4.12646 7.89321 4.12646 11.9848V47.4454C4.12646 51.528 7.41243 54.8429 11.4795 54.8429H32.6947C36.7527 54.8429 40.0477 51.5371 40.0477 47.4454V18.3616L26.3561 4.5874Z" fill="white"/>
<path d="M32.6947 55.4297H11.4796C7.10726 55.4297 3.54297 51.8529 3.54297 47.4451V11.9845C3.55195 7.57677 7.10726 4 11.4796 4H26.3472C26.4999 4 26.6525 4.06323 26.7602 4.17161L40.4518 17.9458C40.5595 18.0542 40.6224 18.2077 40.6224 18.3613V47.4451C40.6313 51.8438 37.076 55.4297 32.6947 55.4297ZM11.4796 5.17419C7.75368 5.17419 4.71012 8.2271 4.71012 11.9845V47.4451C4.71012 51.1935 7.7447 54.2555 11.4796 54.2555H32.6947C36.4206 54.2555 39.4642 51.2026 39.4642 47.4451V18.6052L26.1138 5.17419H11.4796Z" fill="#888888"/>
<path d="M26.3561 4.5874L40.0476 18.3616H29.2739C27.6579 18.3616 26.3561 17.0429 26.3561 15.4261V4.5874Z" fill="#DCDDDE"/>
<path d="M40.0477 18.9487H29.274C27.3437 18.9487 25.7726 17.3681 25.7726 15.4261V4.58744C25.7726 4.3526 25.9162 4.13582 26.1317 4.0455C26.3472 3.95518 26.5986 4.00034 26.7691 4.17195L40.4338 17.919C40.5595 18.0274 40.6313 18.181 40.6313 18.3616C40.6313 18.6868 40.3709 18.9487 40.0477 18.9487ZM26.9397 6.0055V15.4261C26.9397 16.7268 27.9902 17.7745 29.274 17.7745H38.6381L26.9397 6.0055Z" fill="#888888"/>
<path d="M4.1982 24.9189C2.38463 24.9189 0.912231 26.4002 0.912231 28.2248V42.0712H0.975078C1.27135 40.5447 2.60011 39.3976 4.1982 39.3976H37.3003V24.9189H4.1982Z" fill="#00A0DC"/>
<path d="M0.975156 42.658H0.912309C0.589099 42.658 0.328735 42.396 0.328735 42.0709V28.2244C0.328735 26.0748 2.0615 24.3315 4.19828 24.3315H37.3004C37.6236 24.3315 37.884 24.5935 37.884 24.9186V39.3973C37.884 39.7225 37.6236 39.9844 37.3004 39.9844H4.19828C2.90544 39.9844 1.79216 40.9057 1.54077 42.1883C1.49588 42.4593 1.25348 42.658 0.975156 42.658ZM4.19828 25.5057C2.70792 25.5057 1.49588 26.7251 1.49588 28.2244V39.9122C2.19617 39.2257 3.15682 38.8012 4.19828 38.8012H36.7168V25.5057H4.19828Z" fill="#888888"/>
<path d="M8.41797 28.5676C8.41797 28.3237 8.61549 28.125 8.84892 28.125H11.3089C13.0506 28.125 14.2088 29.0553 14.2088 30.5908V30.6089C14.2088 32.2889 12.8172 33.156 11.1742 33.156H9.29782V35.5134C9.29782 35.7573 9.1003 35.956 8.85789 35.956C8.62446 35.956 8.42695 35.7573 8.42695 35.5134V28.5676H8.41797ZM11.2012 32.3611C12.485 32.3611 13.32 31.6747 13.32 30.645V30.6269C13.32 29.516 12.494 28.9379 11.2461 28.9379H9.28884V32.3611H11.2012Z" fill="white"/>
<path d="M15.798 28.5231C15.798 28.2883 15.9955 28.0896 16.2289 28.0896H16.3546C16.5521 28.0896 16.6778 28.189 16.7945 28.3425L21.4901 34.367V28.496C21.4901 28.2612 21.6786 28.0625 21.921 28.0625C22.1544 28.0625 22.343 28.2612 22.343 28.496V35.5231C22.343 35.758 22.1814 35.9386 21.9479 35.9386H21.9031C21.7145 35.9386 21.5798 35.8302 21.4542 35.6677L16.6599 29.4986V35.5231C16.6599 35.758 16.4713 35.9567 16.2289 35.9567C15.9955 35.9567 15.807 35.758 15.807 35.5231V28.5231H15.798Z" fill="white"/>
<path d="M24.1924 32.0362V32.0181C24.1924 29.8865 25.7546 27.9897 28.0709 27.9897C29.2381 27.9897 30.0012 28.2968 30.7105 28.8207C30.8092 28.902 30.89 29.0194 30.89 29.173C30.89 29.4168 30.6925 29.6156 30.4591 29.6156C30.3603 29.6156 30.2705 29.5704 30.1808 29.5072C29.6241 29.0826 29.0136 28.7936 28.035 28.7936C26.3202 28.7936 25.0992 30.2478 25.0992 31.982V32.0001C25.0992 33.8607 26.2843 35.2336 28.1607 35.2336C29.0405 35.2336 29.8665 34.8904 30.3962 34.4568V32.5239H28.3223C28.1158 32.5239 27.9362 32.3433 27.9362 32.1356C27.9362 31.9097 28.1158 31.7381 28.3223 31.7381H30.8092C31.0426 31.7381 31.2402 31.9368 31.2402 32.1807V34.5472C31.2402 34.7549 31.1414 34.9446 30.9439 35.0801C30.2346 35.6039 29.2829 36.0285 28.1338 36.0285C25.6917 36.0375 24.1924 34.2581 24.1924 32.0362Z" fill="white"/>
<circle cx="41.1263" cy="9.6001" r="5.3999" fill="#FFE1BE"/>
<circle cx="31.6766" cy="5.01042" r="3.50994" fill="#CCD4FF"/>
<rect x="35.3333" y="41" width="16" height="16" rx="8" fill="#3758F9"/>
<path d="M47.5412 49.5638C47.4443 49.5861 47.3425 49.5691 47.2582 49.5164C47.1738 49.4637 47.1139 49.3797 47.0915 49.2828L46.4601 46.5477L44.3564 49.9142C43.0395 52.0217 40.2631 52.6627 38.1556 51.3458C38.0712 51.2931 38.0113 51.209 37.9889 51.1121C37.9665 51.0152 37.9836 50.9134 38.0363 50.8291C38.089 50.7447 38.173 50.6848 38.2699 50.6624C38.3668 50.64 38.4686 50.6571 38.553 50.7098C40.3094 51.8073 42.6228 51.2732 43.7204 49.5168L45.824 46.1502L43.0889 46.7817C42.9927 46.8021 42.8924 46.784 42.8095 46.7312C42.7265 46.6783 42.6677 46.595 42.6455 46.4992C42.6234 46.4034 42.6398 46.3028 42.6912 46.2189C42.7426 46.1351 42.8248 46.0748 42.9202 46.051L46.5374 45.2159C46.6343 45.1936 46.7361 45.2106 46.8204 45.2633C46.9048 45.316 46.9647 45.4 46.9871 45.4969L47.8222 49.1141C47.8445 49.211 47.8275 49.3128 47.7748 49.3971C47.7221 49.4814 47.6381 49.5414 47.5412 49.5638Z" fill="white"/>
</svg>
