<svg width="56" height="65" viewBox="0 0 56 65" fill="none" xmlns="http://www.w3.org/2000/svg">
<path d="M51.2833 21.5736L39.1162 9.42479C37.4938 7.80502 34.736 7.80502 33.1137 9.42479L31.2481 11.2876C29.6259 12.9076 29.6259 15.6612 31.2481 17.2812L31.7349 17.7671L13.5653 26.1902C12.4297 26.7571 11.5375 27.729 11.1319 28.9438L3.75056 51.0545C3.18259 52.7554 3.58822 54.5373 4.88608 55.8331C5.77831 56.724 6.91383 57.21 8.13073 57.21C8.61732 57.21 9.10391 57.129 9.59072 56.9671L31.7349 49.5157C32.9515 49.1107 33.9249 48.22 34.4927 47.0859L42.9286 29.0248L43.4152 29.4298C44.2264 30.2397 45.2808 30.6447 46.4165 30.6447C47.552 30.6447 48.6066 30.2397 49.4177 29.4298L51.2833 27.5671C52.0943 26.7571 52.5 25.7043 52.5 24.5702C52.5 23.4364 52.0943 22.3836 51.2833 21.5736ZM31.1671 45.5471C31.0859 45.7902 30.8426 45.9521 30.5991 46.0331L10.5641 52.7554L19.811 43.5224C20.6221 43.9273 21.5145 44.1702 22.4877 44.1702C25.8135 44.1702 28.5714 41.4166 28.5714 38.0959C28.5714 34.7752 25.8135 32.0216 22.4877 32.0216C19.1621 32.0216 16.4043 34.7752 16.4043 38.0959C16.4043 39.1488 16.6476 40.1207 17.1344 41.0116L7.80626 50.2447L14.6198 30.0778C14.7008 29.8348 14.8631 29.5919 15.1064 29.5107L34.4927 20.5207L40.1707 26.1902L31.1671 45.5471Z" fill="#3758F9"/>
</svg>
