<svg class="Icon_icon__tuVuT" viewBox="0 0 64 64"><path d="m20.853 33.27-.928-2.742-.917 2.741h1.845ZM28.622 33.024c0-.95-.608-1.472-1.302-1.472-.682 0-1.3.512-1.3 1.461 0 .95.618 1.483 1.3 1.483.694 0 1.302-.523 1.302-1.472Z" fill="var(--icon-color, #756EE6)"></path><path clip-rule="evenodd" d="M48 22.667H14.666V24A2.667 2.667 0 0 1 12 26.667h-1.334v10.666H12A2.667 2.667 0 0 1 14.666 40v1.333H48V40a2.667 2.667 0 0 1 2.666-2.667H52V26.667h-1.334A2.667 2.667 0 0 1 48 24v-1.333ZM21.77 36l-.447-1.323h-2.795L18.08 36h-1.91l2.71-7.488h2.112L23.702 36H21.77Zm2.393-2.987c0-1.877 1.163-3.05 2.624-3.05.885 0 1.515.405 1.835.928v-.843h1.824V36h-1.824v-.843c-.33.523-.96.928-1.846.928-1.45 0-2.613-1.194-2.613-3.072Zm10.503-6.346a.667.667 0 0 0-1.333 0v10.666a.667.667 0 1 0 1.334 0V26.667Z" fill="var(--icon-color, #756EE6)" fill-rule="evenodd"></path><path d="M49.333 22.667A2.667 2.667 0 0 1 52 25.333h-1.334A1.333 1.333 0 0 1 49.334 24v-1.333ZM50.666 38.667H52a2.667 2.667 0 0 1-2.667 2.666V40c0-.736.597-1.333 1.334-1.333ZM13.333 41.333a2.667 2.667 0 0 1-2.667-2.666H12c.736 0 1.333.597 1.333 1.333v1.333ZM13.333 22.667a2.667 2.667 0 0 0-2.667 2.666H12c.736 0 1.333-.596 1.333-1.333v-1.333Z" fill="var(--icon-color, #756EE6)"></path><path d="M8 21.333C8 20.597 8.597 20 9.333 20H12c.736 0 1.333.597 1.333 1.333V24c0 .736-.597 1.333-1.333 1.333H9.333A1.333 1.333 0 0 1 8 24v-2.667ZM8 40c0-.736.597-1.333 1.333-1.333H12c.736 0 1.333.597 1.333 1.333v2.667c0 .736-.597 1.333-1.333 1.333H9.333A1.333 1.333 0 0 1 8 42.667V40ZM49.334 40c0-.736.596-1.333 1.333-1.333h2.666c.737 0 1.334.597 1.334 1.333v2.667c0 .736-.597 1.333-1.334 1.333h-2.666a1.333 1.333 0 0 1-1.334-1.333V40ZM49.334 21.333c0-.736.596-1.333 1.333-1.333h2.666c.737 0 1.334.597 1.334 1.333V24c0 .736-.597 1.333-1.334 1.333h-2.666A1.333 1.333 0 0 1 49.333 24v-2.667Z" fill="var(--icon-color, #1C1C1C)"></path></svg>