<svg class="Icon_icon__tuVuT" viewBox="0 0 64 64"><path d="M23.714 42.275c.018.733.337 1.432.893 1.952a3.163 3.163 0 0 0 2.154.834h12.572l5.947 4.169a.597.597 0 0 0 .597.045.558.558 0 0 0 .229-.197.508.508 0 0 0 .084-.28v-3.737h1.905c.808 0 1.582-.3 2.154-.834a2.758 2.758 0 0 0 .893-2.013V30.466c0-.755-.322-1.479-.893-2.013a3.163 3.163 0 0 0-2.154-.834h-2.096v7.384a5.111 5.111 0 0 1-1.563 3.665 5.33 5.33 0 0 1-3.705 1.494H26.62l-2.906 2.113Z" fill="var(--icon-color, #1C1C1C)"></path><path clip-rule="evenodd" d="M15.841 17.333h24.89c.942.001 1.846.365 2.512 1.01a3.397 3.397 0 0 1 1.043 2.437V35c-.001.914-.376 1.79-1.043 2.437a3.617 3.617 0 0 1-2.513 1.01H26.063l-6.938 5.046a.678.678 0 0 1-.963-.184.632.632 0 0 1-.099-.339v-4.523h-2.222a3.617 3.617 0 0 1-2.513-1.01A3.397 3.397 0 0 1 12.286 35V20.78c0-.914.375-1.79 1.042-2.436a3.617 3.617 0 0 1 2.513-1.01Zm4.915 12.868c1.04 0 1.883-.823 1.883-1.838 0-1.016-.843-1.839-1.883-1.839s-1.882.823-1.882 1.838c0 1.016.843 1.839 1.882 1.839Zm9.412-1.838c0 1.015-.843 1.838-1.882 1.838-1.04 0-1.883-.823-1.883-1.838 0-1.016.843-1.839 1.883-1.839s1.882.823 1.882 1.838Zm5.647 1.838c1.04 0 1.882-.823 1.882-1.838 0-1.016-.842-1.839-1.882-1.839s-1.882.823-1.882 1.838c0 1.016.843 1.839 1.882 1.839Z" fill="var(--icon-color, #756EE6)" fill-rule="evenodd"></path></svg>