<svg class="Icon_icon__tuVuT" viewBox="0 0 64 64"><path clip-rule="evenodd" d="M16 21.067a.667.667 0 1 1-1.334 0V18.31c0-3.518 2.92-6.311 6.445-6.311h2.637a.667.667 0 0 1 0 1.333h-2.637c-2.823 0-5.111 2.229-5.111 4.978v2.756Zm15.69-7.734a.667.667 0 1 1 0-1.333h2.637c1.698 0 3.333.657 4.545 1.836l1.329 1.295a.667.667 0 1 1-.93.955l-1.33-1.295a5.182 5.182 0 0 0-3.614-1.458H31.69ZM16 29.244a.667.667 0 0 0-1.334 0v5.512a.667.667 0 0 0 1.334 0v-5.512Zm0 13.69a.667.667 0 1 0-1.334 0v2.755c0 3.518 2.92 6.311 6.445 6.311h4.444a.667.667 0 0 0 0-1.333h-4.444c-2.823 0-5.111-2.229-5.111-4.978v-2.756Zm21.11 7.733a.667.667 0 0 0 0 1.333h4.445C45.081 52 48 49.207 48 45.689V41.27a.667.667 0 1 0-1.334 0v4.418c0 2.749-2.288 4.978-5.11 4.978H37.11Zm9.556-20.898a.667.667 0 0 0 1.334 0V25.35a6.246 6.246 0 0 0-1.9-4.475l-1.33-1.295a.667.667 0 1 0-.93.955l1.33 1.295a4.913 4.913 0 0 1 1.496 3.52v4.418Z" fill="var(--icon-color, #1C1C1C)" fill-rule="evenodd"></path><path clip-rule="evenodd" d="M17.334 19.289c0-2.553 2.089-4.622 4.666-4.622h12.067a4.69 4.69 0 0 1 3.3 1.354l6.6 6.536a4.6 4.6 0 0 1 1.367 3.269V44.71c0 2.553-2.09 4.622-4.667 4.622H22c-2.577 0-4.666-2.069-4.666-4.622V19.29Zm15 7.378a1 1 0 0 0-2 0v5h-5a1 1 0 0 0 0 2h5v5a1 1 0 1 0 2 0v-5h5a1 1 0 1 0 0-2h-5v-5Z" fill="var(--icon-color, #756EE6)" fill-rule="evenodd"></path></svg>