<svg class="Icon_icon__tuVuT" viewBox="0 0 64 64"><path clip-rule="evenodd" d="M21.641 23.216v5.49c-2.379 0-4.307 1.966-4.307 4.392v13.176c0 2.426 1.928 4.393 4.307 4.393h19.385c2.379 0 4.307-1.967 4.307-4.393V33.098c0-2.426-1.928-4.392-4.307-4.392v-5.49c0-5.458-4.34-9.883-9.693-9.883-5.352 0-9.692 4.425-9.692 9.883Zm15.616 5.49v-5.49c0-3.336-2.652-6.04-5.923-6.04-3.272 0-5.924 2.704-5.924 6.04v5.49h11.847Z" fill="var(--icon-color, #756EE6)" fill-rule="evenodd"></path><path d="m27.571 37.738 2.01 2.032c.21.213.549.213.759 0l4.755-4.807a1.062 1.062 0 0 1 1.517 0l.411.416c.425.43.425 1.13 0 1.56l-6.304 6.373a1.062 1.062 0 0 1-1.517 0l-3.56-3.598a1.113 1.113 0 0 1 0-1.56l.413-.416a1.062 1.062 0 0 1 1.516 0Z" fill="var(--icon-color, #1C1C1C)"></path></svg>