<svg width="57" height="65" viewBox="0 0 57 65" fill="none" xmlns="http://www.w3.org/2000/svg">
<path d="M20.3994 21.21L28.4973 29.3078L21.1443 36.6644L18.6932 34.2133L23.5953 29.3078L20.3994 26.1121L12.3015 34.21L20.3994 42.3078L30.9484 31.7589L33.3994 34.21L20.3994 47.21L7.39941 34.21C11.7327 29.8766 16.0661 25.5433 20.3994 21.21Z" fill="#3758F9"/>
<path d="M45.5384 30.5527V34.6373H36.4049C35.2964 34.6373 34.3994 33.7238 34.3994 32.595C34.3994 31.4662 35.2964 30.5527 36.4049 30.5527H45.5384Z" fill="#3758F9"/>
<path d="M49.1785 32.9538L44.4084 36.5719C44.2034 36.7252 43.915 36.5784 43.915 36.3207V28.8888C43.915 28.6278 44.2129 28.4777 44.4148 28.6408L49.185 32.4547C49.3452 32.582 49.3419 32.8299 49.1785 32.9538Z" fill="#3758F9"/>
</svg>
