<svg width="57" height="65" viewBox="0 0 57 65" fill="none" xmlns="http://www.w3.org/2000/svg">
<g clip-path="url(#clip0_358_1594)">
<path d="M34.1009 15.21H5.96189C3.26118 15.21 1 17.4084 1 20.1719V48.3109C1 51.0116 3.19839 53.21 5.96189 53.21H34.1009C36.8016 53.21 39 51.0116 39 48.3109V20.1091C39 17.4084 36.8016 15.21 34.1009 15.21ZM5.96189 17.9736H34.1009C35.2315 17.9736 36.1735 18.9157 36.1735 20.1091V27.5207H3.82648V20.1091C3.82648 18.9785 4.83149 17.9736 5.96189 17.9736ZM15.3206 38.8894V30.3472H24.805V38.9522H15.3206V38.8894ZM24.7422 41.7157V50.3207H15.3206V41.7157H24.7422ZM12.4943 38.8894H3.82648V30.3472H12.4943V38.8894ZM27.5685 30.3472H36.1735V38.9522H27.5685V30.3472ZM3.82648 48.2481V41.7157H12.4943V50.3207H5.96189C4.83149 50.3835 3.82648 49.3785 3.82648 48.2481ZM34.1009 50.3835H27.5685V41.7157H36.1735V48.2481C36.2363 49.3785 35.2315 50.3835 34.1009 50.3835Z" fill="#3758F9" stroke="#3758F9" stroke-width="0.5"/>
<path d="M52.7391 31.5527V35.6373H43.6056C42.4971 35.6373 41.6001 34.7238 41.6001 33.595C41.6001 32.4662 42.4971 31.5527 43.6056 31.5527H52.7391Z" fill="#3758F9"/>
<path d="M56.3792 33.9538L51.609 37.5719C51.404 37.7252 51.1157 37.5784 51.1157 37.3207V29.8888C51.1157 29.6278 51.4136 29.4777 51.6155 29.6408L56.3856 33.4547C56.5458 33.582 56.5426 33.8299 56.3792 33.9538Z" fill="#3758F9"/>
</g>
<defs>
<clipPath id="clip0_358_1594">
<rect width="56" height="65" fill="white" transform="translate(0.600098)"/>
</clipPath>
</defs>
</svg>
