<svg width="57" height="65" viewBox="0 0 57 65" fill="none" xmlns="http://www.w3.org/2000/svg">
<path d="M6.22111 20.449C7.1716 20.449 8.04298 19.6004 8.04298 18.4971V11.1139H14.934C15.8845 11.1139 16.7559 10.2651 16.7559 9.16183C16.7559 8.05871 15.9638 7.20996 14.934 7.20996H6.22111C5.27061 7.20996 4.39941 8.05871 4.39941 9.16183V18.582C4.47853 19.6004 5.27061 20.449 6.22111 20.449Z" fill="#3758F9"/>
<path d="M50.5775 7.29492H41.8647C40.9142 7.29492 40.043 8.14349 40.043 9.24679C40.043 10.3501 40.8351 11.1987 41.8647 11.1987H48.7558V18.6668C48.7558 19.6854 49.5479 20.6189 50.5775 20.6189C51.6073 20.6189 52.3994 19.7701 52.3994 18.6668V9.16188C52.3994 8.14349 51.528 7.29492 50.5775 7.29492Z" fill="#3758F9"/>
<path d="M50.5775 44.3811C49.627 44.3811 48.7558 45.2297 48.7558 46.333V53.8011H41.8647C40.9142 53.8011 40.043 54.6499 40.043 55.753C40.043 56.8563 40.8351 57.705 41.8647 57.705H50.5775C51.528 57.705 52.3994 56.8563 52.3994 55.753V46.2481C52.3994 45.2297 51.528 44.3811 50.5775 44.3811Z" fill="#3758F9"/>
<path d="M14.934 53.7162H8.04298V46.248C8.04298 45.2296 7.2509 44.2961 6.22111 44.2961C5.19149 44.2961 4.39941 45.1447 4.39941 46.248V55.6682C4.39941 56.6866 5.19149 57.6201 6.22111 57.6201H14.934C15.8845 57.6201 16.7559 56.7713 16.7559 55.6682C16.7559 54.5649 15.8845 53.7162 14.934 53.7162Z" fill="#3758F9"/>
<path d="M19.9335 28.8359C21.9884 28.8359 23.6562 27.1254 23.6562 25.018C23.6562 22.9102 21.9884 21.21 19.9335 21.21C17.8785 21.21 16.2207 22.9102 16.2207 25.018C16.2207 27.1254 17.8785 28.8359 19.9335 28.8359Z" fill="#3758F9"/>
<path d="M33.4464 28.0883C33.2608 27.7977 32.8311 27.7977 32.6455 28.0883L25.5643 39.0275L21.5889 32.8765C21.3937 32.5862 20.9737 32.5862 20.7782 32.8765L14.2146 43.0246C13.9997 43.3553 14.2342 43.796 14.6152 43.796H42.7155C43.1063 43.796 43.3308 43.3553 43.1161 43.0246L33.4464 28.0883Z" fill="#3758F9"/>
</svg>
