<svg width="179" height="67" viewBox="0 0 179 67" fill="none" xmlns="http://www.w3.org/2000/svg">
<path d="M0.119932 18.3997V45.4422C-0.427762 47.0853 1.03276 47.8384 1.83148 48.0096L26.8202 54C29.4902 53.9315 30.5571 51.4612 30.7568 50.2346V18.9131C31.0991 13.9154 27.8756 12.8942 26.2211 13.0083H4.74113C0.701861 13.0083 -0.0226974 16.6025 0.119932 18.3997Z" fill="#3758F9"/>
<path d="M0.941502 45.0916L6.07617 40.556C7.99311 38.8627 10.3836 39.9931 11.3392 40.77L25.9302 53.2215C18.7131 51.6241 3.81691 48.258 1.96843 47.5734C0.119956 46.8888 0.513614 45.6336 0.941502 45.0916Z" fill="#D9D9D9"/>
<path d="M40.8517 42.024H48.8517V45H36.6277V42.024L44.6597 30.344H36.6277V27.368H48.8517V30.344L40.8517 42.024ZM60.3302 45.288C58.6662 45.288 57.1622 44.9147 55.8182 44.168C54.4742 43.4 53.4182 42.3333 52.6502 40.968C51.8822 39.5813 51.4982 37.9813 51.4982 36.168C51.4982 34.376 51.8929 32.7867 52.6822 31.4C53.4716 30.0133 54.5489 28.9467 55.9142 28.2C57.2796 27.4533 58.8049 27.08 60.4902 27.08C62.1756 27.08 63.7009 27.4533 65.0662 28.2C66.4316 28.9467 67.5089 30.0133 68.2982 31.4C69.0876 32.7867 69.4822 34.376 69.4822 36.168C69.4822 37.96 69.0769 39.5493 68.2662 40.936C67.4556 42.3227 66.3462 43.4 64.9382 44.168C63.5516 44.9147 62.0156 45.288 60.3302 45.288ZM60.3302 42.12C61.2689 42.12 62.1436 41.896 62.9542 41.448C63.7862 41 64.4582 40.328 64.9702 39.432C65.4822 38.536 65.7382 37.448 65.7382 36.168C65.7382 34.888 65.4929 33.8107 65.0022 32.936C64.5116 32.04 63.8609 31.368 63.0502 30.92C62.2396 30.472 61.3649 30.248 60.4262 30.248C59.4876 30.248 58.6129 30.472 57.8022 30.92C57.0129 31.368 56.3836 32.04 55.9142 32.936C55.4449 33.8107 55.2102 34.888 55.2102 36.168C55.2102 38.0667 55.6902 39.5387 56.6502 40.584C57.6316 41.608 58.8582 42.12 60.3302 42.12ZM80.7365 45.288C79.0725 45.288 77.5685 44.9147 76.2245 44.168C74.8805 43.4 73.8245 42.3333 73.0565 40.968C72.2885 39.5813 71.9045 37.9813 71.9045 36.168C71.9045 34.376 72.2991 32.7867 73.0885 31.4C73.8778 30.0133 74.9551 28.9467 76.3205 28.2C77.6858 27.4533 79.2111 27.08 80.8965 27.08C82.5818 27.08 84.1071 27.4533 85.4725 28.2C86.8378 28.9467 87.9151 30.0133 88.7045 31.4C89.4938 32.7867 89.8885 34.376 89.8885 36.168C89.8885 37.96 89.4831 39.5493 88.6725 40.936C87.8618 42.3227 86.7525 43.4 85.3445 44.168C83.9578 44.9147 82.4218 45.288 80.7365 45.288ZM80.7365 42.12C81.6751 42.12 82.5498 41.896 83.3605 41.448C84.1925 41 84.8645 40.328 85.3765 39.432C85.8885 38.536 86.1445 37.448 86.1445 36.168C86.1445 34.888 85.8991 33.8107 85.4085 32.936C84.9178 32.04 84.2671 31.368 83.4565 30.92C82.6458 30.472 81.7711 30.248 80.8325 30.248C79.8938 30.248 79.0191 30.472 78.2085 30.92C77.4191 31.368 76.7898 32.04 76.3205 32.936C75.8511 33.8107 75.6165 34.888 75.6165 36.168C75.6165 38.0667 76.0965 39.5387 77.0565 40.584C78.0378 41.608 79.2645 42.12 80.7365 42.12ZM114.839 27.08C116.225 27.08 117.463 27.368 118.551 27.944C119.66 28.52 120.524 29.3733 121.143 30.504C121.783 31.6347 122.103 33 122.103 34.6V45H118.487V35.144C118.487 33.5653 118.092 32.36 117.303 31.528C116.513 30.6747 115.436 30.248 114.071 30.248C112.705 30.248 111.617 30.6747 110.807 31.528C110.017 32.36 109.623 33.5653 109.623 35.144V45H106.007V35.144C106.007 33.5653 105.612 32.36 104.823 31.528C104.033 30.6747 102.956 30.248 101.591 30.248C100.225 30.248 99.1374 30.6747 98.3267 31.528C97.5374 32.36 97.1427 33.5653 97.1427 35.144V45H93.4947V27.368H97.1427V29.384C97.7401 28.6587 98.4974 28.0933 99.4147 27.688C100.332 27.2827 101.313 27.08 102.359 27.08C103.767 27.08 105.025 27.3787 106.135 27.976C107.244 28.5733 108.097 29.4373 108.695 30.568C109.228 29.5013 110.06 28.6587 111.191 28.04C112.321 27.4 113.537 27.08 114.839 27.08Z" fill="black"/>
<path d="M130.393 29.96C131.011 29.1493 131.854 28.4667 132.921 27.912C133.987 27.3573 135.193 27.08 136.537 27.08C138.073 27.08 139.47 27.464 140.729 28.232C142.009 28.9787 143.011 30.0347 143.737 31.4C144.462 32.7653 144.825 34.3333 144.825 36.104C144.825 37.8747 144.462 39.464 143.737 40.872C143.011 42.2587 142.009 43.3467 140.729 44.136C139.47 44.904 138.073 45.288 136.537 45.288C135.193 45.288 133.998 45.0213 132.953 44.488C131.907 43.9333 131.054 43.2507 130.393 42.44V53.384H126.745V27.368H130.393V29.96ZM141.113 36.104C141.113 34.888 140.857 33.8427 140.345 32.968C139.854 32.072 139.193 31.4 138.361 30.952C137.55 30.4827 136.675 30.248 135.737 30.248C134.819 30.248 133.945 30.4827 133.113 30.952C132.302 31.4213 131.641 32.104 131.129 33C130.638 33.896 130.393 34.952 130.393 36.168C130.393 37.384 130.638 38.4507 131.129 39.368C131.641 40.264 132.302 40.9467 133.113 41.416C133.945 41.8853 134.819 42.12 135.737 42.12C136.675 42.12 137.55 41.8853 138.361 41.416C139.193 40.9253 139.854 40.2213 140.345 39.304C140.857 38.3867 141.113 37.32 141.113 36.104ZM147.216 36.104C147.216 34.3333 147.579 32.7653 148.304 31.4C149.051 30.0347 150.054 28.9787 151.312 28.232C152.592 27.464 154.011 27.08 155.568 27.08C156.72 27.08 157.851 27.336 158.96 27.848C160.091 28.3387 160.987 29 161.648 29.832V21.32H165.328V45H161.648V42.344C161.051 43.1973 160.219 43.9013 159.152 44.456C158.107 45.0107 156.902 45.288 155.536 45.288C154 45.288 152.592 44.904 151.312 44.136C150.054 43.3467 149.051 42.2587 148.304 40.872C147.579 39.464 147.216 37.8747 147.216 36.104ZM161.648 36.168C161.648 34.952 161.392 33.896 160.88 33C160.39 32.104 159.739 31.4213 158.928 30.952C158.118 30.4827 157.243 30.248 156.304 30.248C155.366 30.248 154.491 30.4827 153.68 30.952C152.87 31.4 152.208 32.072 151.696 32.968C151.206 33.8427 150.96 34.888 150.96 36.104C150.96 37.32 151.206 38.3867 151.696 39.304C152.208 40.2213 152.87 40.9253 153.68 41.416C154.512 41.8853 155.387 42.12 156.304 42.12C157.243 42.12 158.118 41.8853 158.928 41.416C159.739 40.9467 160.39 40.264 160.88 39.368C161.392 38.4507 161.648 37.384 161.648 36.168ZM177.512 30.344H174.248V45H170.568V30.344H168.488V27.368H170.568V26.12C170.568 24.0933 171.101 22.6213 172.168 21.704C173.256 20.7653 174.952 20.296 177.256 20.296V23.336C176.146 23.336 175.368 23.5493 174.92 23.976C174.472 24.3813 174.248 25.096 174.248 26.12V27.368H177.512V30.344Z" fill="#3758F9"/>
</svg>
