<svg width="90" height="63" viewBox="0 0 90 63" fill="none" xmlns="http://www.w3.org/2000/svg">
<path d="M0.137483 14.1899V45.1899C-0.490361 47.0734 1.1839 47.9367 2.0995 48.1329L30.7451 55C33.8058 54.9215 35.0288 52.0897 35.2577 50.6835V14.7785C35.6501 9.04935 31.955 7.87868 30.0584 8.00948H5.43495C0.804572 8.00948 -0.026019 12.1297 0.137483 14.1899Z" fill="#3758F9"/>
<path d="M1.07878 44.7877L6.96486 39.5884C9.16233 37.6473 11.9026 38.9431 12.9981 39.8336L29.7244 54.1074C21.4511 52.2761 4.37499 48.4175 2.256 47.6327C0.13701 46.8479 0.588276 45.4091 1.07878 44.7877Z" fill="#D9D9D9"/>
<path d="M57.6151 17.076C57.6151 18.052 57.3911 18.948 56.9431 19.764C56.4951 20.564 55.8071 21.212 54.8791 21.708C53.9511 22.204 52.7991 22.452 51.4231 22.452H48.8791V28.5H44.7751V11.652H51.4231C52.7671 11.652 53.9031 11.884 54.8311 12.348C55.7591 12.812 56.4551 13.452 56.9191 14.268C57.3831 15.084 57.6151 16.02 57.6151 17.076ZM51.1111 19.188C51.8951 19.188 52.4791 19.004 52.8631 18.636C53.2471 18.268 53.4391 17.748 53.4391 17.076C53.4391 16.404 53.2471 15.884 52.8631 15.516C52.4791 15.148 51.8951 14.964 51.1111 14.964H48.8791V19.188H51.1111ZM66.0637 11.652C67.8397 11.652 69.3917 12.004 70.7197 12.708C72.0477 13.412 73.0717 14.404 73.7917 15.684C74.5277 16.948 74.8957 18.412 74.8957 20.076C74.8957 21.724 74.5277 23.188 73.7917 24.468C73.0717 25.748 72.0397 26.74 70.6957 27.444C69.3677 28.148 67.8237 28.5 66.0637 28.5H59.7517V11.652H66.0637ZM65.7997 24.948C67.3517 24.948 68.5597 24.524 69.4237 23.676C70.2877 22.828 70.7197 21.628 70.7197 20.076C70.7197 18.524 70.2877 17.316 69.4237 16.452C68.5597 15.588 67.3517 15.156 65.7997 15.156H63.8557V24.948H65.7997ZM88.1572 11.652V14.94H81.2932V18.492H86.4292V21.684H81.2932V28.5H77.1892V11.652H88.1572Z" fill="#3758F9"/>
<path d="M48.8791 36.94V40.348H54.3751V43.516H48.8791V47.212H55.0951V50.5H44.7751V33.652H55.0951V36.94H48.8791ZM62.1275 47.14H69.3755V50.5H57.4715V47.38L64.6715 37.012H57.4715V33.652H69.3755V36.772L62.1275 47.14ZM86.5044 33.652L80.6724 44.932V50.5H76.5684V44.932L70.7364 33.652H75.3924L78.6564 40.708L81.8964 33.652H86.5044Z" fill="black"/>
</svg>
