<svg width="57" height="65" viewBox="0 0 57 65" fill="none" xmlns="http://www.w3.org/2000/svg">
<g clip-path="url(#clip0_358_1516)">
<path d="M50.1009 13.21H21.9619C19.2612 13.21 17 15.4084 17 18.1719V46.3109C17 49.0116 19.1984 51.21 21.9619 51.21H50.1009C52.8016 51.21 55 49.0116 55 46.3109V18.1091C55 15.4084 52.8016 13.21 50.1009 13.21ZM21.9619 15.9736H50.1009C51.2315 15.9736 52.1735 16.9157 52.1735 18.1091V25.5207H19.8265V18.1091C19.8265 16.9785 20.8315 15.9736 21.9619 15.9736ZM31.3206 36.8894V28.3472H40.805V36.9522H31.3206V36.8894ZM40.7422 39.7157V48.3207H31.3206V39.7157H40.7422ZM28.4943 36.8894H19.8265V28.3472H28.4943V36.8894ZM43.5685 28.3472H52.1735V36.9522H43.5685V28.3472ZM19.8265 46.2481V39.7157H28.4943V48.3207H21.9619C20.8315 48.3835 19.8265 47.3785 19.8265 46.2481ZM50.1009 48.3835H43.5685V39.7157H52.1735V46.2481C52.2363 47.3785 51.2315 48.3835 50.1009 48.3835Z" fill="#3758F9" stroke="#3758F9" stroke-width="0.5"/>
<path d="M11.3392 28.5527V32.6373H2.20566C1.09721 32.6373 0.200195 31.7238 0.200195 30.595C0.200195 29.4662 1.09721 28.5527 2.20566 28.5527H11.3392Z" fill="#3758F9"/>
<path d="M14.9793 30.9538L10.2091 34.5719C10.0041 34.7252 9.71582 34.5784 9.71582 34.3207V26.8888C9.71582 26.6278 10.0137 26.4777 10.2156 26.6408L14.9857 30.4547C15.1459 30.582 15.1427 30.8299 14.9793 30.9538Z" fill="#3758F9"/>
</g>
<defs>
<clipPath id="clip0_358_1516">
<rect width="56" height="65" fill="white" transform="translate(0.600098)"/>
</clipPath>
</defs>
</svg>
