<svg width="57" height="65" viewBox="0 0 57 65" fill="none" xmlns="http://www.w3.org/2000/svg">
<path d="M42.7539 22H36.0563C30.5077 22 26.0098 26.498 26.0098 32.0465C26.0098 37.595 30.5077 42.093 36.0563 42.093H42.7539C48.3024 42.093 52.8004 37.595 52.8004 32.0465C52.8004 26.498 48.3024 22 42.7539 22Z" fill="white"/>
<path d="M51.8945 23.1166H26.9156C26.4184 23.1166 26.0098 23.8672 26.0098 24.791C26.0098 25.71 26.4159 26.4654 26.9156 26.4654H51.8945C52.3917 26.4654 52.8004 25.7148 52.8004 24.791C52.8004 23.872 52.3943 23.1166 51.8945 23.1166Z" fill="#3758F9"/>
<path d="M51.8945 30.9302H26.9156C26.4184 30.9302 26.0098 31.6808 26.0098 32.6046C26.0098 33.5236 26.4159 34.279 26.9156 34.279H51.8945C52.3917 34.279 52.8004 33.5284 52.8004 32.6046C52.8004 31.6856 52.3943 30.9302 51.8945 30.9302Z" fill="#3758F9"/>
<path d="M51.8945 38.7441H26.9156C26.4184 38.7441 26.0098 39.4947 26.0098 40.4186C26.0098 41.3376 26.4159 42.093 26.9156 42.093H51.8945C52.3917 42.093 52.8004 41.3424 52.8004 40.4186C52.8004 39.4995 52.3943 38.7441 51.8945 38.7441Z" fill="#3758F9"/>
<path d="M16.6214 30.799V35.1337H6.92857C5.75224 35.1337 4.80029 34.1642 4.80029 32.9663C4.80029 31.7683 5.75224 30.799 6.92857 30.799H16.6214Z" fill="#3758F9"/>
<path d="M20.4848 33.3467L15.4225 37.1864C15.2049 37.3491 14.8989 37.1933 14.8989 36.9198V29.0327C14.8989 28.7558 15.2151 28.5965 15.4293 28.7696L20.4916 32.817C20.6616 32.9521 20.6581 33.2152 20.4848 33.3467Z" fill="#3758F9"/>
</svg>
