<svg width="57" height="65" viewBox="0 0 57 65" fill="none" xmlns="http://www.w3.org/2000/svg">
<mask id="mask0_358_1522" style="mask-type:luminance" maskUnits="userSpaceOnUse" x="4" y="11" width="49" height="43">
<path d="M52.8003 11.21H4.80029V53.0165H52.8003V11.21Z" fill="white"/>
</mask>
<g mask="url(#mask0_358_1522)">
<path d="M48.8402 34.611H40.3864V27.9669C40.3864 25.6414 38.254 23.7811 35.5884 23.7811H27.9726V17.1368C27.9726 14.8113 25.8402 12.9509 23.1746 12.9509H11.5983C8.93287 12.9509 6.80029 14.8113 6.80029 17.1368V27.1696C6.80029 29.495 8.93287 31.3554 11.5983 31.3554H19.2143V37.9996C19.2143 40.3251 21.3467 42.1855 24.0123 42.1855H31.6281V49.5606C31.6281 51.4874 33.456 53.0154 35.5884 53.0154H48.8402C51.0488 53.0154 52.8004 51.421 52.8004 49.5606V38.066C52.8004 36.2057 51.0488 34.611 48.8402 34.611ZM11.5983 28.2991C10.8367 28.2991 10.2275 27.7676 10.2275 27.1032V17.0704C10.2275 16.4059 10.8367 15.8744 11.5983 15.8744H23.0984C23.86 15.8744 24.4692 16.4059 24.4692 17.0704V23.7146H24.0123C21.3467 23.7146 19.2143 25.575 19.2143 27.9005V28.2991H11.5983ZM49.4494 49.5606C49.4494 49.8264 49.2209 50.0921 48.8402 50.0921H35.6646C35.36 50.0921 35.0554 49.8928 35.0554 49.5606V38.066C35.0554 37.8003 35.2838 37.5345 35.6646 37.5345H48.8402C49.1448 37.5345 49.4494 37.7338 49.4494 38.066V49.5606Z" fill="#3758F9"/>
</g>
</svg>
