<svg width="57" height="65" viewBox="0 0 57 65" fill="none" xmlns="http://www.w3.org/2000/svg">
<path d="M47.9573 24.4358H39.943C37.6533 24.4358 35.7002 25.9173 35.7002 27.7691V38.0863C35.7002 39.8852 37.5859 41.4196 39.943 41.4196H47.9573C50.2471 41.4196 52.2001 39.9381 52.2001 38.0863V27.7691C52.2001 25.9173 50.2471 24.4358 47.9573 24.4358ZM49.1695 38.0863C49.1695 38.6154 48.6307 39.0387 47.9573 39.0387H39.943C39.2695 39.0387 38.7309 38.6154 38.7309 38.0863V27.7691C38.7309 27.2399 39.2695 26.8167 39.943 26.8167H47.9573C48.6307 26.8167 49.1695 27.2399 49.1695 27.7691V38.0863Z" fill="#3758F9"/>
<path d="M16.4573 24.4358H8.44301C6.1532 24.4358 4.2002 25.9173 4.2002 27.7691V38.0863C4.2002 39.8852 6.08592 41.4196 8.44301 41.4196H16.4573C18.7471 41.4196 20.7001 39.9381 20.7001 38.0863V27.7691C20.7001 25.9173 18.7471 24.4358 16.4573 24.4358ZM17.6695 38.0863C17.6695 38.6154 17.1307 39.0387 16.4573 39.0387H8.44301C7.76953 39.0387 7.23075 38.6154 7.23075 38.0863V27.7691C7.23075 27.2399 7.76953 26.8167 8.44301 26.8167H16.4573C17.1307 26.8167 17.6695 27.2399 17.6695 27.7691V38.0863Z" fill="#3758F9"/>
<path d="M28.2001 19.21C27.4176 19.21 26.7002 19.6604 26.7002 20.2461V29.0083C26.7002 29.5489 27.3524 27.7019 28.2001 27.7019C28.9827 27.7019 29.7002 29.594 29.7002 29.0083V20.201C29.7002 19.6604 28.9827 19.21 28.2001 19.21Z" fill="#3758F9"/>
<path d="M28.2001 27.0486C27.4176 27.0486 26.7002 27.499 26.7002 28.0847V29.9318C26.7002 30.4724 27.3524 30.9679 28.2001 30.9679C28.9827 30.9679 29.7002 30.5175 29.7002 29.9318V28.0847C29.7002 27.499 28.9827 27.0486 28.2001 27.0486Z" fill="#3758F9"/>
<path d="M28.2001 34.8873C27.4176 34.8873 26.7002 35.3378 26.7002 35.9235V44.0324C26.7002 44.5731 27.3524 43.3792 28.2001 43.3792C28.9827 43.3792 29.7002 44.6181 29.7002 44.0324V35.9235C29.7002 35.3378 28.9827 34.8873 28.2001 34.8873Z" fill="#3758F9"/>
<path d="M28.2001 42.726C27.4176 42.726 26.7002 43.1764 26.7002 43.7621V45.6091C26.7002 46.1498 27.3524 46.6453 28.2001 46.6453C28.9827 46.6453 29.7002 46.1948 29.7002 45.6091V43.7621C29.7002 43.2215 28.9827 42.726 28.2001 42.726Z" fill="#3758F9"/>
</svg>
