<svg width="57" height="65" viewBox="0 0 57 65" fill="none" xmlns="http://www.w3.org/2000/svg">
<path d="M6.02189 20.449C6.97238 20.449 7.84376 19.6004 7.84376 18.4971V11.1139H14.7348C15.6853 11.1139 16.5566 10.2651 16.5566 9.16183C16.5566 8.05871 15.7646 7.20996 14.7348 7.20996H6.02189C5.07139 7.20996 4.2002 8.05871 4.2002 9.16183V18.582C4.27931 19.6004 5.07139 20.449 6.02189 20.449Z" fill="#3758F9"/>
<path d="M50.3783 7.29492H41.6654C40.715 7.29492 39.8438 8.14349 39.8438 9.24679C39.8438 10.3501 40.6358 11.1987 41.6654 11.1987H48.5566V18.6668C48.5566 19.6854 49.3487 20.6189 50.3783 20.6189C51.4081 20.6189 52.2002 19.7701 52.2002 18.6668V9.16188C52.2002 8.14349 51.3288 7.29492 50.3783 7.29492Z" fill="#3758F9"/>
<path d="M50.3783 44.3811C49.4278 44.3811 48.5566 45.2297 48.5566 46.333V53.8011H41.6654C40.715 53.8011 39.8438 54.6499 39.8438 55.753C39.8438 56.8563 40.6358 57.705 41.6654 57.705H50.3783C51.3288 57.705 52.2002 56.8563 52.2002 55.753V46.2481C52.2002 45.2297 51.3288 44.3811 50.3783 44.3811Z" fill="#3758F9"/>
<path d="M14.7348 53.7162H7.84376V46.248C7.84376 45.2296 7.05168 44.2961 6.02189 44.2961C4.99228 44.2961 4.2002 45.1447 4.2002 46.248V55.6682C4.2002 56.6866 4.99228 57.6201 6.02189 57.6201H14.7348C15.6853 57.6201 16.5566 56.7713 16.5566 55.6682C16.5566 54.5649 15.6853 53.7162 14.7348 53.7162Z" fill="#3758F9"/>
<path d="M43.3928 21.5522H13.0081C12.4034 21.5522 11.9062 22.3639 11.9062 23.3627C11.9062 24.3565 12.4001 25.1732 13.0081 25.1732H43.3928C43.9975 25.1732 44.4947 24.3615 44.4947 23.3627C44.4947 22.3689 44.0008 21.5522 43.3928 21.5522Z" fill="#3758F9"/>
<path d="M43.3928 30.6045H13.0081C12.4034 30.6045 11.9062 31.4161 11.9062 32.415C11.9062 33.4085 12.4001 34.2254 13.0081 34.2254H43.3928C43.9975 34.2254 44.4947 33.4138 44.4947 32.415C44.4947 31.4214 44.0008 30.6045 43.3928 30.6045Z" fill="#3758F9"/>
<path d="M43.3928 39.657H13.0081C12.4034 39.657 11.9062 40.4686 11.9062 41.4674C11.9062 42.4612 12.4001 43.2779 13.0081 43.2779H43.3928C43.9975 43.2779 44.4947 42.4663 44.4947 41.4674C44.4947 40.4739 44.0008 39.657 43.3928 39.657Z" fill="#3758F9"/>
</svg>
