<svg width="57" height="65" viewBox="0 0 57 65" fill="none" xmlns="http://www.w3.org/2000/svg">
<path d="M30.3994 21.21L38.4973 29.3078L31.1443 36.6644L28.6932 34.2133L33.5953 29.3078L30.3994 26.1121L22.3015 34.21L30.3994 42.3078L40.9484 31.7589L43.3994 34.21L30.3994 47.21L17.3994 34.21C21.7327 29.8766 26.0661 25.5433 30.3994 21.21Z" fill="#3758F9"/>
<path d="M12.5384 30.5527V34.6373H3.40488C2.29643 34.6373 1.39941 33.7238 1.39941 32.595C1.39941 31.4662 2.29643 30.5527 3.40488 30.5527H12.5384Z" fill="#3758F9"/>
<path d="M16.1785 32.9538L11.4084 36.5719C11.2034 36.7252 10.915 36.5784 10.915 36.3207V28.8888C10.915 28.6278 11.2129 28.4777 11.4148 28.6408L16.185 32.4547C16.3452 32.582 16.3419 32.8299 16.1785 32.9538Z" fill="#3758F9"/>
</svg>
