<svg width="57" height="65" viewBox="0 0 57 65" fill="none" xmlns="http://www.w3.org/2000/svg">
<path d="M20.6001 21.21L28.698 29.3078L21.3449 36.6644L18.8939 34.2133L23.796 29.3078L20.6001 26.1121L12.5022 34.21L20.6001 42.3078L31.149 31.7589L33.6001 34.21L20.6001 47.21L7.6001 34.21C11.9334 29.8766 16.2668 25.5433 20.6001 21.21Z" fill="#3758F9"/>
<path d="M45.7391 30.5527V34.6373H36.6056C35.4971 34.6373 34.6001 33.7238 34.6001 32.595C34.6001 31.4662 35.4971 30.5527 36.6056 30.5527H45.7391Z" fill="#3758F9"/>
<path d="M49.3792 32.9538L44.609 36.5719C44.404 36.7252 44.1157 36.5784 44.1157 36.3207V28.8888C44.1157 28.6278 44.4136 28.4777 44.6155 28.6408L49.3856 32.4547C49.5458 32.582 49.5426 32.8299 49.3792 32.9538Z" fill="#3758F9"/>
</svg>
