<svg width="56" height="65" viewBox="0 0 56 65" fill="none" xmlns="http://www.w3.org/2000/svg">
<path d="M28.7342 28.8359C30.7891 28.8359 32.457 27.1254 32.457 25.018C32.457 22.9102 30.7891 21.21 28.7342 21.21C26.6793 21.21 25.0215 22.9102 25.0215 25.018C25.0215 27.1254 26.6793 28.8359 28.7342 28.8359Z" fill="#3758F9"/>
<path d="M42.2472 28.0883C42.0615 27.7977 41.6319 27.7977 41.4463 28.0883L34.3651 39.0275L30.3897 32.8765C30.1945 32.5862 29.7745 32.5862 29.579 32.8765L23.0154 43.0246C22.8005 43.3553 23.035 43.796 23.416 43.796H51.5163C51.9071 43.796 52.1316 43.3553 51.9168 43.0246L42.2472 28.0883Z" fill="#3758F9"/>
<path d="M15.139 30.5527V34.6373H6.00547C4.89702 34.6373 4 33.7238 4 32.595C4 31.4662 4.89702 30.5527 6.00547 30.5527H15.139Z" fill="#3758F9"/>
<path d="M18.7791 32.9538L14.0089 36.5719C13.8039 36.7252 13.5156 36.5784 13.5156 36.3207V28.8888C13.5156 28.6278 13.8135 28.4777 14.0154 28.6408L18.7855 32.4547C18.9457 32.582 18.9425 32.8299 18.7791 32.9538Z" fill="#3758F9"/>
</svg>
