<svg width="56" height="65" viewBox="0 0 56 65" fill="none" xmlns="http://www.w3.org/2000/svg">
<path d="M12.7342 28.8359C14.7891 28.8359 16.457 27.1254 16.457 25.018C16.457 22.9102 14.7891 21.21 12.7342 21.21C10.6793 21.21 9.02148 22.9102 9.02148 25.018C9.02148 27.1254 10.6793 28.8359 12.7342 28.8359Z" fill="#3758F9"/>
<path d="M26.2472 28.0883C26.0615 27.7977 25.6319 27.7977 25.4463 28.0883L18.3651 39.0275L14.3897 32.8765C14.1945 32.5862 13.7745 32.5862 13.579 32.8765L7.01541 43.0246C6.80052 43.3553 7.03497 43.796 7.41596 43.796H35.5163C35.9071 43.796 36.1316 43.3553 35.9168 43.0246L26.2472 28.0883Z" fill="#3758F9"/>
<path d="M48.139 30.5527V34.6373H39.0055C37.897 34.6373 37 33.7238 37 32.595C37 31.4662 37.897 30.5527 39.0055 30.5527H48.139Z" fill="#3758F9"/>
<path d="M51.7791 32.9538L47.0089 36.5719C46.8039 36.7252 46.5156 36.5784 46.5156 36.3207V28.8888C46.5156 28.6278 46.8135 28.4777 47.0154 28.6408L51.7855 32.4547C51.9457 32.582 51.9425 32.8299 51.7791 32.9538Z" fill="#3758F9"/>
</svg>
