<svg class="Icon_icon__tuVuT" viewBox="0 0 64 64"><path d="M55.104 20.35a1.692 1.692 0 0 0-2.367.347l-.876 1.176-1.083-.032a.564.564 0 0 0-.469.227l-5.214 7.001a.564.564 0 0 0 .116.79l3.618 2.694c.25.186.603.134.789-.115l5.214-7.001c.11-.148.14-.34.083-.515l-.34-1.028.875-1.176c.558-.75.403-1.809-.346-2.367ZM42.013 41.704c-.183.246-.444.42-.741.496l-1.419.36a1.333 1.333 0 0 1-1.66-1.236l-.061-1.462c-.013-.306.08-.607.263-.852l5.345-7.178a1.333 1.333 0 0 1 1.866-.273l1.48 1.102c.59.44.713 1.275.273 1.866l-5.346 7.177ZM56.036 26.037a.846.846 0 0 1 1.357 1.01l-5.39 7.236a.846.846 0 1 1-1.356-1.01l5.39-7.237Z" fill="var(--icon-color, #1C1C1C)"></path><path d="M46.161 24.288a1.327 1.327 0 0 0-.828-.288H16c-.736 0-1.334.597-1.334 1.333V44A5.333 5.333 0 0 0 20 49.333h21.333A5.333 5.333 0 0 0 46.667 44v-5.196l-3.05 4.094a3.334 3.334 0 0 1-1.853 1.24l-1.419.36a3.335 3.335 0 0 1-3.734-1.609 213.57 213.57 0 0 0-2.045-.407l-.04-.007c-1.099-.216-2.234-.438-2.74-.56a1.567 1.567 0 0 1-.734-.391 1.434 1.434 0 0 1-.397-.714c-.088-.382-.02-.762.048-1.14l.015-.082a4.193 4.193 0 0 0-.917.19 8.535 8.535 0 0 0-2.328 1.147c-.52.376-1.188.613-1.872.327-.592-.248-.908-.782-1.077-1.138-.188-.395-.307-.814-.426-1.232a18.97 18.97 0 0 0-.153-.517c-.518 1.025-1.484 1.672-2.357 2.07a9.098 9.098 0 0 1-2.837.742 1 1 0 1 1-.17-1.993 7.11 7.11 0 0 0 2.179-.57c.782-.356 1.29-.809 1.472-1.319.101-.381.3-.753.642-1.016.37-.285.81-.368 1.216-.302.76.123 1.332.725 1.617 1.389.124.287.206.59.288.892.092.34.184.68.335.997l.01.02a10.55 10.55 0 0 1 2.872-1.407c.491-.152.998-.26 1.463-.28.418-.018 1.023.025 1.49.418.468.396.578.916.584 1.298.004.28-.048.572-.084.758.555.119 1.406.286 2.285.458l.039.007 1.178.232-.034-.814c-.032-.765.2-1.517.657-2.13l5.346-7.178c.25-.334.549-.608.88-.82a2.556 2.556 0 0 1 .475-1.943l2.67-3.586Z" fill="var(--icon-color, #756EE6)"></path><path d="M14.667 18.667A2.667 2.667 0 0 1 17.334 16H44a2.667 2.667 0 0 1 2.667 2.667v2c0 .736-.597 1.333-1.333 1.333H16a1.333 1.333 0 0 1-1.333-1.333v-2Zm2.721.041c0-.368.299-.666.667-.666h2.748c.369 0 .667.298.667.666v.708a.667.667 0 0 1-.667.666h-2.748a.667.667 0 0 1-.667-.666v-.708Zm6.11-.666a.667.667 0 0 0-.668.666v.708c0 .368.299.666.667.666h2.748a.667.667 0 0 0 .667-.666v-.708a.667.667 0 0 0-.667-.666h-2.748Z" fill="var(--icon-color, #1C1C1C)"></path></svg>