<svg class="Icon_icon__tuVuT" viewBox="0 0 64 64"><path d="M29.721 13.103a4.93 4.93 0 0 0-.634.02l-12.38 1.204c-2.644.257-4.584 2.553-4.334 5.128l2.493 25.644c.25 2.575 2.596 4.455 5.24 4.198l19.15-1.862c2.644-.257 4.585-2.553 4.335-5.128l-1.852-19.05c-.01-.11-.025-.22-.044-.328l-8.73.849a2.196 2.196 0 0 1-2.398-1.973l-.846-8.702Z" fill="var(--icon-color, #756EE6)"></path><path d="M40.958 21.11a4.694 4.694 0 0 0-.941-1.014l-7.412-5.936a4.793 4.793 0 0 0-.948-.592l.783 8.055c.017.172.17.298.343.281l8.175-.794Z" fill="var(--icon-color, #756EE6)"></path><path d="m32.011 50.03 11.147 1.9c2.618.445 5.094-1.26 5.528-3.811L51.9 29.25a4.624 4.624 0 0 0-.832-3.502l-5.594-7.673a4.876 4.876 0 0 0-3.122-1.924l-5.399-.92 4.24 3.396c.512.41.967.814 1.318 1.42.351.607 1.018 2.414 1.06 2.7.032.21.034.23.036.268l.005.06 1.852 19.05c.355 3.656-2.394 6.83-6.026 7.184l-7.427.722Z" fill="var(--icon-color, #1C1C1C)"></path></svg>