<svg width="57" height="65" viewBox="0 0 57 65" fill="none" xmlns="http://www.w3.org/2000/svg">
<path d="M42.7539 22H36.0563C30.5077 22 26.0098 26.498 26.0098 32.0465C26.0098 37.595 30.5077 42.093 36.0563 42.093H42.7539C48.3024 42.093 52.8004 37.595 52.8004 32.0465C52.8004 26.498 48.3024 22 42.7539 22Z" fill="white"/>
<path d="M31.8945 23.1165H6.91562C6.41843 23.1165 6.00977 23.867 6.00977 24.7909C6.00977 25.7099 6.41587 26.4653 6.91562 26.4653H31.8945C32.3917 26.4653 32.8004 25.7147 32.8004 24.7909C32.8004 23.8718 32.3943 23.1165 31.8945 23.1165Z" fill="#3758F9"/>
<path d="M31.8945 30.9302H6.91562C6.41843 30.9302 6.00977 31.6808 6.00977 32.6046C6.00977 33.5236 6.41587 34.279 6.91562 34.279H31.8945C32.3917 34.279 32.8004 33.5284 32.8004 32.6046C32.8004 31.6856 32.3943 30.9302 31.8945 30.9302Z" fill="#3758F9"/>
<path d="M31.8945 38.7441H6.91562C6.41843 38.7441 6.00977 39.4947 6.00977 40.4186C6.00977 41.3376 6.41587 42.093 6.91562 42.093H31.8945C32.3917 42.093 32.8004 41.3424 32.8004 40.4186C32.8004 39.4995 32.3943 38.7441 31.8945 38.7441Z" fill="#3758F9"/>
<path d="M49.6214 30.7988V35.1336H39.9286C38.7522 35.1336 37.8003 34.1641 37.8003 32.9662C37.8003 31.7682 38.7522 30.7988 39.9286 30.7988H49.6214Z" fill="#3758F9"/>
<path d="M53.4848 33.3468L48.4225 37.1865C48.2049 37.3492 47.8989 37.1934 47.8989 36.9199V29.0329C47.8989 28.7559 48.2151 28.5966 48.4293 28.7698L53.4916 32.8172C53.6616 32.9522 53.6581 33.2153 53.4848 33.3468Z" fill="#3758F9"/>
</svg>
